<?xml version="1.0" encoding="UTF-8" standalone="no"?>
<!-- Created with Inkscape (http://www.inkscape.org/) -->

<svg
   width="210mm"
   height="297mm"
   viewBox="0 0 210 297"
   version="1.1"
   id="svg5"
   inkscape:version="1.1 (1:1.1+202105261517+ce6663b3b7)"
   sodipodi:docname="Kmer.svg"
   xmlns:inkscape="http://www.inkscape.org/namespaces/inkscape"
   xmlns:sodipodi="http://sodipodi.sourceforge.net/DTD/sodipodi-0.dtd"
   xmlns="http://www.w3.org/2000/svg"
   xmlns:svg="http://www.w3.org/2000/svg">
  <sodipodi:namedview
     id="namedview7"
     pagecolor="#ffffff"
     bordercolor="#666666"
     borderopacity="1.0"
     inkscape:pageshadow="2"
     inkscape:pageopacity="0.0"
     inkscape:pagecheckerboard="0"
     inkscape:document-units="mm"
     showgrid="true"
     showborder="true"
     inkscape:zoom="1.0998546"
     inkscape:cx="375.95879"
     inkscape:cy="293.22058"
     inkscape:window-width="1858"
     inkscape:window-height="1136"
     inkscape:window-x="62"
     inkscape:window-y="27"
     inkscape:window-maximized="1"
     inkscape:current-layer="layer1">
    <inkscape:grid
       type="xygrid"
       id="grid896"
       units="mm"
       spacingx="1"
       spacingy="1" />
  </sodipodi:namedview>
  <defs
     id="defs2">
    <rect
       x="359.05512"
       y="170.07874"
       width="94.488189"
       height="75.590551"
       id="rect23694" />
    <marker
       style="overflow:visible;"
       id="Arrow1Lend"
       refX="0.0"
       refY="0.0"
       orient="auto"
       inkscape:stockid="Arrow1Lend"
       inkscape:isstock="true">
      <path
         transform="scale(0.8) rotate(180) translate(12.5,0)"
         style="fill-rule:evenodd;fill:context-stroke;stroke:context-stroke;stroke-width:1.0pt;"
         d="M 0.0,0.0 L 5.0,-5.0 L -12.5,0.0 L 5.0,5.0 L 0.0,0.0 z "
         id="path21763" />
    </marker>
    <marker
       style="overflow:visible"
       id="Arrow1Lstart"
       refX="0.0"
       refY="0.0"
       orient="auto"
       inkscape:stockid="Arrow1Lstart"
       inkscape:isstock="true">
      <path
         transform="scale(0.8) translate(12.5,0)"
         style="fill-rule:evenodd;fill:context-stroke;stroke:context-stroke;stroke-width:1.0pt"
         d="M 0.0,0.0 L 5.0,-5.0 L -12.5,0.0 L 5.0,5.0 L 0.0,0.0 z "
         id="path21760" />
    </marker>
    <rect
       x="56.692913"
       y="188.97638"
       width="321.25984"
       height="94.488189"
       id="rect19368" />
    <rect
       x="37.795276"
       y="207.87402"
       width="132.28346"
       height="113.38583"
       id="rect14875" />
    <rect
       x="56.692913"
       y="94.488189"
       width="359.05512"
       height="207.87402"
       id="rect5646" />
  </defs>
  <g
     inkscape:label="Layer 1"
     inkscape:groupmode="layer"
     id="layer1">
    <path
       id="path16631"
       style="font-size:40px;line-height:1.25;letter-spacing:0px;word-spacing:0px;white-space:pre;stroke-width:0.264583"
       d="m 200.65629,46.09068 h -1.31258 v 1.09037 h 1.31258 z m 0,3.36413 h -1.31258 v 1.09038 h 1.31258 z m 0,3.36414 h -1.31258 v 1.09037 h 1.31258 z" />
    <g
       id="g21537">
      <path
         d="m 80,17.170715 -1.415934,3.83956 h 2.837036 z m -0.589111,-1.028362 h 1.18339 l 2.940389,7.715294 h -1.085205 l -0.7028,-1.979208 H 78.26884 l -0.7028,1.979208 h -1.100708 z"
         id="path11309"
         style="font-size:40px;line-height:1.25;letter-spacing:0px;word-spacing:0px;white-space:pre;stroke-width:0.264583" />
      <path
         d="m 50,17.170715 -1.415935,3.839559 h 2.837037 z m -0.589112,-1.028362 h 1.183391 l 2.940388,7.715294 h -1.085204 l -0.7028,-1.979208 h -3.477824 l -0.702799,1.979208 h -1.100707 z"
         id="path11311"
         style="font-size:40px;line-height:1.25;letter-spacing:0px;word-spacing:0px;white-space:pre;stroke-width:0.264583" />
      <path
         d="m 43.110922,16.731464 v 1.100709 q -0.527101,-0.490926 -1.126549,-0.733806 -0.594278,-0.242879 -1.26607,-0.242879 -1.322917,0 -2.025717,0.811321 -0.702799,0.806153 -0.702799,2.335776 0,1.524452 0.702799,2.335773 0.7028,0.806154 2.025717,0.806154 0.671792,0 1.26607,-0.24288 0.599448,-0.242879 1.126549,-0.733806 v 1.090372 q -0.547773,0.37207 -1.16272,0.558107 -0.609782,0.186034 -1.291913,0.186034 -1.75183,0 -2.759519,-1.069703 -1.007692,-1.07487 -1.007692,-2.930051 0,-1.860352 1.007692,-2.930054 1.007689,-1.07487 2.759519,-1.07487 0.692465,0 1.302248,0.186034 0.61495,0.180869 1.152385,0.547769 z"
         id="path11313"
         style="font-size:40px;line-height:1.25;letter-spacing:0px;word-spacing:0px;white-space:pre;stroke-width:0.264583" />
      <path
         d="m 29.999998,17.170716 -1.415933,3.839559 h 2.837034 z m -0.58911,-1.028362 h 1.183388 l 2.940391,7.715293 H 32.44946 l -0.702799,-1.979208 h -3.477824 l -0.702799,1.979208 h -1.100706 z"
         id="path11315"
         style="font-size:40px;line-height:1.25;letter-spacing:0px;word-spacing:0px;white-space:pre;stroke-width:0.264583" />
      <path
         d="m 19.999998,17.170716 -1.415933,3.839559 h 2.837037 z m -0.58911,-1.028362 h 1.183391 l 2.940389,7.715293 h -1.085205 l -0.702799,-1.979208 h -3.477826 l -0.7028,1.979208 h -1.100706 z"
         id="path11317"
         style="font-size:40px;line-height:1.25;letter-spacing:0px;word-spacing:0px;white-space:pre;stroke-width:0.264583" />
      <path
         d="m 13.11092,16.731464 v 1.100709 q -0.527097,-0.490926 -1.126545,-0.733806 -0.594278,-0.242879 -1.266074,-0.242879 -1.322916,0 -2.025716,0.811321 -0.702799,0.806153 -0.702799,2.335776 0,1.524452 0.702799,2.335773 0.7028,0.806154 2.025716,0.806154 0.671796,0 1.266074,-0.24288 0.599448,-0.242879 1.126545,-0.733806 v 1.090372 q -0.547769,0.37207 -1.162719,0.558107 -0.609783,0.186034 -1.29191,0.186034 -1.75183,0 -2.759522,-1.069703 -1.00769,-1.07487 -1.00769,-2.930051 0,-1.860352 1.00769,-2.930054 1.007692,-1.07487 2.759522,-1.07487 0.692465,0 1.302245,0.186034 0.614949,0.180869 1.152384,0.547769 z"
         id="path11319"
         style="font-size:40px;line-height:1.25;letter-spacing:0px;word-spacing:0px;white-space:pre;stroke-width:0.264583" />
      <path
         d="m 126.73663,16.142353 h 6.52674 v 0.878499 h -2.73886 v 6.836795 h -1.04903 v -6.836795 h -2.73885 z"
         id="path11323"
         style="font-size:40px;line-height:1.25;letter-spacing:0px;word-spacing:0px;white-space:pre;stroke-width:0.264583" />
      <path
         d="m 120,17.170715 -1.41594,3.83956 h 2.83704 z m -0.58911,-1.028362 h 1.18339 l 2.94039,7.715294 h -1.08521 l -0.7028,-1.979208 h -3.47782 l -0.7028,1.979208 h -1.10071 z"
         id="path11325"
         style="font-size:40px;line-height:1.25;letter-spacing:0px;word-spacing:0px;white-space:pre;stroke-width:0.264583" />
      <path
         d="m 113.11091,16.731464 v 1.100709 q -0.5271,-0.490926 -1.12654,-0.733806 -0.59428,-0.242879 -1.26607,-0.242879 -1.32292,0 -2.02572,0.811321 -0.7028,0.806153 -0.7028,2.335776 0,1.524452 0.7028,2.335773 0.7028,0.806154 2.02572,0.806154 0.67179,0 1.26607,-0.24288 0.59944,-0.242879 1.12654,-0.733806 v 1.090372 q -0.54777,0.37207 -1.16272,0.558107 -0.60978,0.186034 -1.29191,0.186034 -1.75182,0 -2.75951,-1.069703 -1.00768,-1.07487 -1.00768,-2.930051 0,-1.860352 1.00768,-2.930054 1.00769,-1.07487 2.75951,-1.07487 0.69247,0 1.30225,0.186034 0.61495,0.180869 1.15238,0.547769 z"
         id="path11327"
         style="font-size:40px;line-height:1.25;letter-spacing:0px;word-spacing:0px;white-space:pre;stroke-width:0.264583" />
      <path
         d="m 102.33577,22.75177 v -2.072225 h -1.70533 v -0.857829 h 2.73886 v 3.312458 q -0.60462,0.428916 -1.33326,0.651124 -0.72863,0.217041 -1.55546,0.217041 -1.80867,0 -2.83186,-1.054198 -1.01803,-1.059368 -1.01803,-2.945556 0,-1.891358 1.01803,-2.945559 1.02319,-1.059365 2.83186,-1.059365 0.75448,0 1.43144,0.186034 0.68213,0.186036 1.25574,0.547769 v 1.111044 q -0.57878,-0.490927 -1.2299,-0.738973 -0.65113,-0.248047 -1.36943,-0.248047 -1.41593,0 -2.12906,0.790651 -0.70797,0.790649 -0.70797,2.356446 0,1.560626 0.70797,2.351275 0.71314,0.790652 2.12906,0.790652 0.55295,0 0.98702,-0.09302 0.43408,-0.09818 0.78032,-0.299722 z"
         id="path11329"
         style="font-size:40px;line-height:1.25;letter-spacing:0px;word-spacing:0px;white-space:pre;stroke-width:0.264583" />
      <path
         d="m 86.736635,16.142353 h 6.526735 v 0.878499 h -2.73885 v 6.836795 h -1.049034 v -6.836795 h -2.738851 z"
         id="path11331"
         style="font-size:40px;line-height:1.25;letter-spacing:0px;word-spacing:0px;white-space:pre;stroke-width:0.264583" />
      <path
         d="m 60,17.170715 -1.415934,3.83956 h 2.837036 z m -0.589111,-1.028362 h 1.18339 l 2.940389,7.715294 h -1.085205 l -0.7028,-1.979208 H 58.26884 l -0.7028,1.979208 h -1.100708 z"
         id="path11479"
         style="font-size:40px;line-height:1.25;letter-spacing:0px;word-spacing:0px;white-space:pre;stroke-width:0.264583" />
      <path
         d="m 72.335775,22.75177 v -2.072225 h -1.70533 v -0.857829 h 2.73886 v 3.312458 q -0.60462,0.428916 -1.33326,0.651124 -0.72863,0.217041 -1.55546,0.217041 -1.808672,0 -2.831866,-1.054198 -1.018024,-1.059368 -1.018024,-2.945556 0,-1.891358 1.018024,-2.945559 1.023194,-1.059365 2.831866,-1.059365 0.75448,0 1.43144,0.186034 0.68213,0.186036 1.25574,0.547769 v 1.111044 q -0.57878,-0.490927 -1.2299,-0.738973 -0.65113,-0.248047 -1.36943,-0.248047 -1.41593,0 -2.129067,0.790651 -0.707967,0.790649 -0.707967,2.356446 0,1.560626 0.707967,2.351275 0.713137,0.790652 2.129067,0.790652 0.55294,0 0.98702,-0.09302 0.43408,-0.09818 0.78032,-0.299722 z"
         id="path11580"
         style="font-size:40px;line-height:1.25;letter-spacing:0px;word-spacing:0px;white-space:pre;stroke-width:0.264583" />
    </g>
    <g
       id="g21633"
       transform="translate(40,-35)">
      <path
         d="m 143.11092,66.731464 v 1.100709 q -0.5271,-0.490926 -1.12655,-0.733806 -0.59428,-0.242879 -1.26607,-0.242879 -1.32292,0 -2.02572,0.811321 -0.70279,0.806153 -0.70279,2.335776 0,1.524452 0.70279,2.335773 0.7028,0.806154 2.02572,0.806154 0.67179,0 1.26607,-0.24288 0.59945,-0.242879 1.12655,-0.733806 v 1.090372 q -0.54777,0.37207 -1.16272,0.558107 -0.60978,0.186034 -1.29191,0.186034 -1.75183,0 -2.75952,-1.069703 -1.00769,-1.07487 -1.00769,-2.930051 0,-1.860352 1.00769,-2.930054 1.00769,-1.07487 2.75952,-1.07487 0.69246,0 1.30225,0.186034 0.61495,0.180869 1.15238,0.547769 z"
         id="path12719"
         style="font-size:40px;line-height:1.25;letter-spacing:0px;word-spacing:0px;white-space:pre;stroke-width:0.264583" />
      <path
         d="m 130,67.170716 -1.41594,3.839559 h 2.83704 z m -0.58911,-1.028362 h 1.18339 l 2.94039,7.715293 h -1.08521 l -0.7028,-1.979208 h -3.47782 l -0.7028,1.979208 h -1.10071 z"
         id="path12721"
         style="font-size:40px;line-height:1.25;letter-spacing:0px;word-spacing:0px;white-space:pre;stroke-width:0.264583" />
      <path
         d="m 120,67.170716 -1.41594,3.839559 h 2.83704 z m -0.58911,-1.028362 h 1.18339 l 2.94039,7.715293 h -1.08521 l -0.7028,-1.979208 h -3.47782 l -0.7028,1.979208 h -1.10071 z"
         id="path12723"
         style="font-size:40px;line-height:1.25;letter-spacing:0px;word-spacing:0px;white-space:pre;stroke-width:0.264583" />
    </g>
    <g
       id="g21628"
       transform="translate(40,-35)">
      <path
         d="m 130,52.170716 -1.41594,3.839559 h 2.83704 z m -0.58911,-1.028362 h 1.18339 l 2.94039,7.715293 h -1.08521 l -0.7028,-1.979208 h -3.47782 l -0.7028,1.979208 h -1.10071 z"
         id="path12733"
         style="font-size:40px;line-height:1.25;letter-spacing:0px;word-spacing:0px;white-space:pre;stroke-width:0.264583" />
      <path
         d="m 120,52.170716 -1.41594,3.839559 h 2.83704 z m -0.58911,-1.028362 h 1.18339 l 2.94039,7.715293 h -1.08521 l -0.7028,-1.979208 h -3.47782 l -0.7028,1.979208 h -1.10071 z"
         id="path12735"
         style="font-size:40px;line-height:1.25;letter-spacing:0px;word-spacing:0px;white-space:pre;stroke-width:0.264583" />
      <path
         d="m 140,52.170715 -1.41594,3.83956 h 2.83704 z m -0.58911,-1.028362 h 1.18339 l 2.94039,7.715294 h -1.08521 l -0.7028,-1.979208 h -3.47782 l -0.7028,1.979208 h -1.10071 z"
         id="path12823"
         style="font-size:40px;line-height:1.25;letter-spacing:0px;word-spacing:0px;white-space:pre;stroke-width:0.264583" />
    </g>
    <g
       id="g21643"
       transform="translate(40,-35)">
      <path
         d="m 140,127.17071 -1.41594,3.83956 h 2.83704 z m -0.58911,-1.02836 h 1.18339 l 2.94039,7.7153 h -1.08521 l -0.7028,-1.97921 h -3.47782 l -0.7028,1.97921 h -1.10071 z"
         id="path12825"
         style="font-size:40px;line-height:1.25;letter-spacing:0px;word-spacing:0px;white-space:pre;stroke-width:0.264583" />
      <path
         d="m 130,127.17071 -1.41593,3.83956 h 2.83703 z m -0.58911,-1.02836 h 1.18339 l 2.94039,7.7153 h -1.08521 l -0.7028,-1.97921 h -3.47782 l -0.7028,1.97921 h -1.10071 z"
         id="path12827"
         style="font-size:40px;line-height:1.25;letter-spacing:0px;word-spacing:0px;white-space:pre;stroke-width:0.264583" />
      <path
         d="m 123.11092,126.73146 v 1.10071 q -0.5271,-0.49093 -1.12654,-0.73381 -0.59428,-0.24288 -1.26608,-0.24288 -1.32291,0 -2.02571,0.81133 -0.7028,0.80615 -0.7028,2.33577 0,1.52446 0.7028,2.33578 0.7028,0.80615 2.02571,0.80615 0.6718,0 1.26608,-0.24288 0.59944,-0.24288 1.12654,-0.7338 v 1.09037 q -0.54777,0.37207 -1.16272,0.55811 -0.60978,0.18603 -1.29191,0.18603 -1.75183,0 -2.75952,-1.0697 -1.00769,-1.07487 -1.00769,-2.93005 0,-1.86036 1.00769,-2.93006 1.00769,-1.07487 2.75952,-1.07487 0.69247,0 1.30225,0.18603 0.61495,0.18087 1.15238,0.54777 z"
         id="path12829"
         style="font-size:40px;line-height:1.25;letter-spacing:0px;word-spacing:0px;white-space:pre;stroke-width:0.264583" />
    </g>
    <g
       id="g21638"
       transform="translate(40,-35)">
      <path
         d="m 140,97.170713 -1.41593,3.839557 h 2.83703 z m -0.58911,-1.02836 h 1.18339 l 2.94039,7.715287 h -1.08521 l -0.7028,-1.9792 h -3.47782 l -0.7028,1.9792 h -1.10071 z"
         id="path12837"
         style="font-size:40px;line-height:1.25;letter-spacing:0px;word-spacing:0px;white-space:pre;stroke-width:0.264583" />
      <path
         d="m 133.11092,96.731463 v 1.10071 q -0.5271,-0.49093 -1.12655,-0.73381 -0.59427,-0.24288 -1.26607,-0.24288 -1.32291,0 -2.02571,0.81133 -0.7028,0.80615 -0.7028,2.335767 0,1.52445 0.7028,2.33578 0.7028,0.80615 2.02571,0.80615 0.6718,0 1.26607,-0.24288 0.59945,-0.24288 1.12655,-0.73381 v 1.09038 q -0.54777,0.37207 -1.16272,0.5581 -0.60978,0.18604 -1.29191,0.18604 -1.75183,0 -2.75952,-1.06971 -1.00769,-1.07487 -1.00769,-2.93005 0,-1.860347 1.00769,-2.930047 1.00769,-1.074872 2.75952,-1.074872 0.69247,0 1.30225,0.186032 0.61495,0.18087 1.15238,0.54777 z"
         id="path12839"
         style="font-size:40px;line-height:1.25;letter-spacing:0px;word-spacing:0px;white-space:pre;stroke-width:0.264583" />
      <path
         d="m 120,97.170713 -1.41593,3.839557 h 2.83703 z m -0.58911,-1.02836 h 1.18339 l 2.94039,7.715287 h -1.08521 l -0.7028,-1.9792 h -3.47782 l -0.7028,1.9792 h -1.10071 z"
         id="path12841"
         style="font-size:40px;line-height:1.25;letter-spacing:0px;word-spacing:0px;white-space:pre;stroke-width:0.264583" />
    </g>
    <path
       d="m 200,16.824484 q -0.80615,0 -1.2144,0.795816 -0.40307,0.790649 -0.40307,2.382284 0,1.586466 0.40307,2.382282 0.40825,0.79065 1.2144,0.79065 0.81132,0 1.2144,-0.79065 0.40824,-0.795816 0.40824,-2.382282 0,-1.591635 -0.40824,-2.382284 Q 200.81132,16.824484 200,16.824484 Z m 0,-0.826823 q 1.29708,0 1.97921,1.028361 0.68729,1.023191 0.68729,2.976562 0,1.948202 -0.68729,2.976563 -0.68213,1.023191 -1.97921,1.023191 -1.29708,0 -1.98437,-1.023191 -0.68213,-1.028361 -0.68213,-2.976563 0,-1.953371 0.68213,-2.976562 0.68729,-1.028361 1.98437,-1.028361 z"
       id="path20750"
       style="font-size:40px;line-height:1.25;letter-spacing:0px;word-spacing:0px;white-space:pre;stroke-width:0.264583" />
    <path
       d="m 197.85284,37.979145 h 1.70533 V 32.0932 l -1.85519,0.372071 v -0.950847 l 1.84485,-0.37207 h 1.04387 v 6.836791 h 1.70532 v 0.878501 h -4.44418 z"
       id="path20752"
       style="font-size:40px;line-height:1.25;letter-spacing:0px;word-spacing:0px;white-space:pre;stroke-width:0.264583" />
    <path
       d="m 198.80628,98.04891 h 3.64318 v 0.8785 h -4.89892 v -0.8785 q 0.59428,-0.61495 1.61747,-1.64848 1.02836,-1.0387 1.29191,-1.33842 0.50126,-0.56327 0.69763,-0.95085 0.20154,-0.39274 0.20154,-0.76997 0,-0.61495 -0.43408,-1.00253 -0.42891,-0.38757 -1.12138,-0.38757 -0.49093,0 -1.0387,0.17053 -0.5426,0.17053 -1.16271,0.51677 v -1.0542 q 0.63045,-0.25322 1.17822,-0.38241 0.54777,-0.12919 1.00252,-0.12919 1.19889,0 1.91203,0.59945 0.71313,0.59944 0.71313,1.60197 0,0.47542 -0.18086,0.90433 -0.17571,0.42375 -0.64596,1.00253 -0.12919,0.14986 -0.82166,0.86816 -0.69246,0.71313 -1.95336,1.99988 z"
       id="path20754"
       style="font-size:40px;line-height:1.25;letter-spacing:0px;word-spacing:0px;white-space:pre;stroke-width:0.264583" />
    <path
       id="path20790"
       style="font-size:40px;line-height:1.25;letter-spacing:0px;word-spacing:0px;white-space:pre;stroke-width:0.264583"
       d="m 136.09068,22.68976 v 1.312579 h 1.09037 V 22.68976 Z m 3.36413,0 v 1.312579 h 1.09038 V 22.68976 Z m 3.36414,0 v 1.312579 h 1.09037 V 22.68976 Z" />
    <path
       style="fill:none;stroke:#000000;stroke-width:0.5;stroke-linecap:butt;stroke-linejoin:miter;stroke-miterlimit:4;stroke-dasharray:none;stroke-opacity:1"
       d="m 5.000002,30 v 5 H 35 v -5"
       id="path12583" />
    <path
       style="fill:none;stroke:#000000;stroke-width:0.5;stroke-linecap:butt;stroke-linejoin:miter;stroke-miterlimit:4;stroke-dasharray:none;stroke-opacity:1"
       d="m 15.000002,40 v 5 H 45 v -5"
       id="path12585" />
    <path
       style="fill:none;stroke:#000000;stroke-width:0.5;stroke-linecap:butt;stroke-linejoin:miter;stroke-miterlimit:4;stroke-dasharray:none;stroke-opacity:1"
       d="m 25.000004,50 v 5 h 29.999998 v -5"
       id="path12587" />
    <path
       style="fill:none;stroke:#000000;stroke-width:0.50000001;stroke-linecap:butt;stroke-linejoin:miter;stroke-miterlimit:4;stroke-dasharray:none;stroke-opacity:1;stroke-dashoffset:0"
       d="m 35.000002,60 v 5 H 65 v -5"
       id="path21192" />
    <path
       id="path21274"
       style="font-size:40px;line-height:1.25;letter-spacing:0px;word-spacing:0px;white-space:pre;stroke-width:0.264583"
       d="m 200.65629,76.09068 h -1.31258 v 1.09037 h 1.31258 z m 0,3.36413 h -1.31258 v 1.09038 h 1.31258 z m 0,3.36414 h -1.31258 v 1.09037 h 1.31258 z" />
    <path
       id="path21280"
       style="font-size:40px;line-height:1.25;letter-spacing:0px;word-spacing:0px;white-space:pre;stroke-width:0.264583"
       d="m 170.65629,76.09068 h -1.31258 v 1.09037 h 1.31258 z m 0,3.36413 h -1.31258 v 1.09038 h 1.31258 z m 0,3.36414 h -1.31258 v 1.09037 h 1.31258 z" />
    <path
       d="m 197.85284,67.97915 h 1.70533 V 62.0932 l -1.85519,0.372071 v -0.950847 l 1.84485,-0.37207 h 1.04387 v 6.836796 h 1.70532 v 0.8785 h -4.44418 z"
       id="path21286"
       style="font-size:40px;line-height:1.25;letter-spacing:0px;word-spacing:0px;white-space:pre;stroke-width:0.264583" />
    <rect
       style="fill:none;stroke:#008000;stroke-width:0.499999;stroke-linejoin:round;stroke-miterlimit:4;stroke-dasharray:none"
       id="rect21310"
       width="10"
       height="100"
       x="195"
       y="15" />
    <path
       id="path21414"
       style="font-size:40px;line-height:1.25;letter-spacing:0px;word-spacing:0px;white-space:pre;stroke-width:0.264583"
       d="m 200.65629,106.09068 h -1.31258 v 1.09037 h 1.31258 z m 0,3.36413 h -1.31258 v 1.09038 h 1.31258 z m 0,3.36414 h -1.31258 v 1.09037 h 1.31258 z" />
    <path
       id="path21420"
       style="font-size:40px;line-height:1.25;letter-spacing:0px;word-spacing:0px;white-space:pre;stroke-width:0.264583"
       d="m 170.65629,106.09068 h -1.31258 v 1.09037 h 1.31258 z m 0,3.36413 h -1.31258 v 1.09038 h 1.31258 z m 0,3.36414 h -1.31258 v 1.09037 h 1.31258 z" />
    <path
       style="fill:none;stroke:#000000;stroke-width:0.5;stroke-linecap:butt;stroke-linejoin:miter;stroke-miterlimit:4;stroke-dasharray:none;stroke-opacity:1;marker-end:url(#Arrow1Lend)"
       d="m 10,35 0,60 h 140"
       id="path21678"
       sodipodi:nodetypes="ccc" />
    <path
       d="m 110.43408,86.682371 v 2.878378 h 2.87838 v 0.878499 h -2.87838 v 2.878378 h -0.86816 v -2.878378 h -2.87838 v -0.878499 h 2.87838 v -2.878378 z"
       id="path24988"
       style="font-size:40px;line-height:1.25;letter-spacing:0px;word-spacing:0px;white-space:pre;stroke-width:0.264583" />
    <path
       d="m 117.85285,92.979146 h 1.70532 v -5.885948 l -1.85519,0.37207 v -0.950846 l 1.84485,-0.37207 h 1.04387 v 6.836794 h 1.70532 v 0.878499 h -4.44417 z"
       id="path24990"
       style="font-size:40px;line-height:1.25;letter-spacing:0px;word-spacing:0px;white-space:pre;stroke-width:0.264583" />
    <rect
       style="fill:none;stroke:#0000ff;stroke-width:0.499999;stroke-linejoin:round;stroke-miterlimit:4;stroke-dasharray:none;stroke-opacity:1"
       id="rect26793"
       width="30.000002"
       height="100"
       x="155"
       y="15" />
    <rect
       style="fill:none;stroke:#ff0000;stroke-width:0.499999;stroke-linejoin:round;stroke-miterlimit:4;stroke-dasharray:none;stroke-opacity:1"
       id="rect27295"
       width="140"
       height="10"
       x="5"
       y="15" />
    <path
       id="path28053"
       style="font-size:40px;line-height:1.25;letter-spacing:0px;word-spacing:0px;white-space:pre;stroke-width:0.264583"
       d="m 170.65629,46.09068 h -1.31258 v 1.09037 h 1.31258 z m 0,3.36413 h -1.31258 v 1.09038 h 1.31258 z m 0,3.36414 h -1.31258 v 1.09037 h 1.31258 z" />
    <path
       style="fill:none;stroke:#000000;stroke-width:0.50000001;stroke-linecap:butt;stroke-linejoin:miter;stroke-miterlimit:4;stroke-dasharray:1.50000004,1.50000004;stroke-dashoffset:0;stroke-opacity:1"
       d="m 45,70 v 5 h 29.999998 v -5"
       id="path28135" />
    <path
       style="fill:none;stroke:#000000;stroke-width:0.5;stroke-linecap:butt;stroke-linejoin:miter;stroke-miterlimit:4;stroke-dasharray:1.5, 1.5;stroke-dashoffset:0;stroke-opacity:1"
       d="m 55,80 v 5 h 29.999998 v -5"
       id="path28416" />
  </g>
</svg>
