<?xml version="1.0" encoding="UTF-8" standalone="no"?>
<svg
   width="210mm"
   height="297mm"
   viewBox="0 0 210 297"
   version="1.1"
   id="svg8"
   inkscape:version="1.1 (1:1.1+202105261517+ce6663b3b7)"
   sodipodi:docname="L2_Cosine_Euclidean.svg"
   xmlns:inkscape="http://www.inkscape.org/namespaces/inkscape"
   xmlns:sodipodi="http://sodipodi.sourceforge.net/DTD/sodipodi-0.dtd"
   xmlns:xlink="http://www.w3.org/1999/xlink"
   xmlns="http://www.w3.org/2000/svg"
   xmlns:svg="http://www.w3.org/2000/svg"
   xmlns:rdf="http://www.w3.org/1999/02/22-rdf-syntax-ns#"
   xmlns:cc="http://creativecommons.org/ns#"
   xmlns:dc="http://purl.org/dc/elements/1.1/">
  <defs
     id="defs2">
    <marker
       style="overflow:visible"
       id="marker1924"
       refX="0.0"
       refY="0.0"
       orient="auto"
       inkscape:stockid="Arrow2Lstart"
       inkscape:isstock="true">
      <path
         transform="scale(1.1) translate(1,0)"
         d="M 8.7185878,4.0337352 L -2.2072895,0.016013256 L 8.7185884,-4.0017078 C 6.9730900,-1.6296469 6.9831476,1.6157441 8.7185878,4.0337352 z "
         style="fill-rule:evenodd;fill:context-stroke;stroke-width:0.62500000;stroke-linejoin:round"
         id="path1922" />
    </marker>
    <marker
       style="overflow:visible"
       id="marker1914"
       refX="0.0"
       refY="0.0"
       orient="auto"
       inkscape:stockid="Arrow2Lstart"
       inkscape:isstock="true">
      <path
         transform="scale(1.1) translate(1,0)"
         d="M 8.7185878,4.0337352 L -2.2072895,0.016013256 L 8.7185884,-4.0017078 C 6.9730900,-1.6296469 6.9831476,1.6157441 8.7185878,4.0337352 z "
         style="fill-rule:evenodd;fill:context-stroke;stroke-width:0.62500000;stroke-linejoin:round"
         id="path1912" />
    </marker>
    <marker
       style="overflow:visible"
       id="marker1904"
       refX="0.0"
       refY="0.0"
       orient="auto"
       inkscape:stockid="Arrow2Lstart"
       inkscape:isstock="true">
      <path
         transform="scale(1.1) translate(1,0)"
         d="M 8.7185878,4.0337352 L -2.2072895,0.016013256 L 8.7185884,-4.0017078 C 6.9730900,-1.6296469 6.9831476,1.6157441 8.7185878,4.0337352 z "
         style="fill-rule:evenodd;fill:context-stroke;stroke-width:0.62500000;stroke-linejoin:round"
         id="path1902" />
    </marker>
    <marker
       style="overflow:visible"
       id="marker1894"
       refX="0.0"
       refY="0.0"
       orient="auto"
       inkscape:stockid="Arrow2Lstart"
       inkscape:isstock="true">
      <path
         transform="scale(1.1) translate(1,0)"
         d="M 8.7185878,4.0337352 L -2.2072895,0.016013256 L 8.7185884,-4.0017078 C 6.9730900,-1.6296469 6.9831476,1.6157441 8.7185878,4.0337352 z "
         style="fill-rule:evenodd;fill:context-stroke;stroke-width:0.62500000;stroke-linejoin:round"
         id="path1892" />
    </marker>
    <marker
       style="overflow:visible"
       id="marker1884"
       refX="0.0"
       refY="0.0"
       orient="auto"
       inkscape:stockid="Arrow2Lstart"
       inkscape:isstock="true">
      <path
         transform="scale(1.1) translate(1,0)"
         d="M 8.7185878,4.0337352 L -2.2072895,0.016013256 L 8.7185884,-4.0017078 C 6.9730900,-1.6296469 6.9831476,1.6157441 8.7185878,4.0337352 z "
         style="fill-rule:evenodd;fill:context-stroke;stroke-width:0.62500000;stroke-linejoin:round"
         id="path1882" />
    </marker>
    <marker
       style="overflow:visible"
       id="marker1874"
       refX="0.0"
       refY="0.0"
       orient="auto"
       inkscape:stockid="Arrow2Lstart"
       inkscape:isstock="true">
      <path
         transform="scale(1.1) translate(1,0)"
         d="M 8.7185878,4.0337352 L -2.2072895,0.016013256 L 8.7185884,-4.0017078 C 6.9730900,-1.6296469 6.9831476,1.6157441 8.7185878,4.0337352 z "
         style="fill-rule:evenodd;fill:context-stroke;stroke-width:0.62500000;stroke-linejoin:round"
         id="path1872" />
    </marker>
    <marker
       style="overflow:visible"
       id="marker1864"
       refX="0.0"
       refY="0.0"
       orient="auto"
       inkscape:stockid="Arrow1Mstart"
       inkscape:isstock="true">
      <path
         transform="scale(0.4) translate(10,0)"
         style="fill-rule:evenodd;fill:context-stroke;stroke:context-stroke;stroke-width:1.0pt"
         d="M 0.0,0.0 L 5.0,-5.0 L -12.5,0.0 L 5.0,5.0 L 0.0,0.0 z "
         id="path1601" />
    </marker>
    <marker
       style="overflow:visible"
       id="Arrow2Lstart"
       refX="0.0"
       refY="0.0"
       orient="auto"
       inkscape:stockid="Arrow2Lstart"
       inkscape:isstock="true">
      <path
         transform="scale(1.1) translate(1,0)"
         d="M 8.7185878,4.0337352 L -2.2072895,0.016013256 L 8.7185884,-4.0017078 C 6.9730900,-1.6296469 6.9831476,1.6157441 8.7185878,4.0337352 z "
         style="fill-rule:evenodd;fill:context-stroke;stroke-width:0.62500000;stroke-linejoin:round"
         id="path1613" />
    </marker>
    <rect
       x="871.86719"
       y="333.12924"
       width="76.879028"
       height="56.993866"
       id="rect36448" />
    <marker
       style="overflow:visible"
       id="marker3274"
       refX="0.0"
       refY="0.0"
       orient="auto"
       inkscape:stockid="Arrow1Lstart"
       inkscape:isstock="true">
      <path
         transform="scale(0.8) translate(12.5,0)"
         style="fill-rule:evenodd;stroke:#000000;stroke-width:1pt;stroke-opacity:1;fill:#000000;fill-opacity:1"
         d="M 0.0,0.0 L 5.0,-5.0 L -12.5,0.0 L 5.0,5.0 L 0.0,0.0 z "
         id="path3272" />
    </marker>
    <marker
       style="overflow:visible"
       id="marker3112"
       refX="0.0"
       refY="0.0"
       orient="auto"
       inkscape:stockid="Arrow1Lstart"
       inkscape:isstock="true"
       inkscape:collect="always">
      <path
         transform="scale(0.8) translate(12.5,0)"
         style="fill-rule:evenodd;stroke:#000000;stroke-width:1pt;stroke-opacity:1;fill:#000000;fill-opacity:1"
         d="M 0.0,0.0 L 5.0,-5.0 L -12.5,0.0 L 5.0,5.0 L 0.0,0.0 z "
         id="path3110" />
    </marker>
    <marker
       style="overflow:visible;"
       id="marker1481"
       refX="0.0"
       refY="0.0"
       orient="auto"
       inkscape:stockid="Arrow1Lend"
       inkscape:isstock="true">
      <path
         transform="scale(0.8) rotate(180) translate(12.5,0)"
         style="fill-rule:evenodd;stroke:#000000;stroke-width:1pt;stroke-opacity:1;fill:#000000;fill-opacity:1"
         d="M 0.0,0.0 L 5.0,-5.0 L -12.5,0.0 L 5.0,5.0 L 0.0,0.0 z "
         id="path1479" />
    </marker>
    <marker
       style="overflow:visible"
       id="marker1471"
       refX="0.0"
       refY="0.0"
       orient="auto"
       inkscape:stockid="Arrow1Lstart"
       inkscape:isstock="true">
      <path
         transform="scale(0.8) translate(12.5,0)"
         style="fill-rule:evenodd;stroke:#000000;stroke-width:1pt;stroke-opacity:1;fill:#000000;fill-opacity:1"
         d="M 0.0,0.0 L 5.0,-5.0 L -12.5,0.0 L 5.0,5.0 L 0.0,0.0 z "
         id="path1469" />
    </marker>
    <marker
       style="overflow:visible;"
       id="marker1329"
       refX="0.0"
       refY="0.0"
       orient="auto"
       inkscape:stockid="Arrow1Lend"
       inkscape:isstock="true">
      <path
         transform="scale(0.8) rotate(180) translate(12.5,0)"
         style="fill-rule:evenodd;stroke:#000000;stroke-width:1pt;stroke-opacity:1;fill:#000000;fill-opacity:1"
         d="M 0.0,0.0 L 5.0,-5.0 L -12.5,0.0 L 5.0,5.0 L 0.0,0.0 z "
         id="path1327" />
    </marker>
    <marker
       style="overflow:visible"
       id="marker1319"
       refX="0.0"
       refY="0.0"
       orient="auto"
       inkscape:stockid="Arrow1Lstart"
       inkscape:isstock="true"
       inkscape:collect="always">
      <path
         transform="scale(0.8) translate(12.5,0)"
         style="fill-rule:evenodd;stroke:#000000;stroke-width:1pt;stroke-opacity:1;fill:#000000;fill-opacity:1"
         d="M 0.0,0.0 L 5.0,-5.0 L -12.5,0.0 L 5.0,5.0 L 0.0,0.0 z "
         id="path1317" />
    </marker>
    <rect
       x="160"
       y="104"
       width="13"
       height="14"
       id="rect2325" />
    <marker
       style="overflow:visible"
       id="Arrow1Mstart"
       refX="0.0"
       refY="0.0"
       orient="auto"
       inkscape:stockid="Arrow1Mstart"
       inkscape:isstock="true">
      <path
         transform="scale(0.4) translate(10,0)"
         style="fill-rule:evenodd;stroke:#000000;stroke-width:1pt;stroke-opacity:1;fill:#000000;fill-opacity:1"
         d="M 0.0,0.0 L 5.0,-5.0 L -12.5,0.0 L 5.0,5.0 L 0.0,0.0 z "
         id="path1777" />
    </marker>
    <rect
       x="-70"
       y="145"
       width="55"
       height="75"
       id="rect925" />
    <rect
       x="-70"
       y="145"
       width="55"
       height="75"
       id="rect969" />
    <rect
       x="-70"
       y="145"
       width="55"
       height="75"
       id="rect977" />
    <rect
       x="-70"
       y="145"
       width="55"
       height="75"
       id="rect985" />
    <rect
       x="-70"
       y="145"
       width="55"
       height="75"
       id="rect993" />
    <g
       id="g4129">
      <symbol
         overflow="visible"
         id="symbol4486">
        <path
           style="stroke:none;"
           d=""
           id="path5743" />
      </symbol>
      <symbol
         overflow="visible"
         id="symbol3120">
        <path
           style="stroke:none;"
           d="M 2.640625 -3.71875 L 3.765625 -3.71875 C 3.4375 -2.25 3.34375 -1.8125 3.34375 -1.140625 C 3.34375 -1 3.34375 -0.734375 3.421875 -0.390625 C 3.53125 0.046875 3.640625 0.109375 3.78125 0.109375 C 3.984375 0.109375 4.203125 -0.0625 4.203125 -0.265625 C 4.203125 -0.328125 4.203125 -0.34375 4.140625 -0.484375 C 3.84375 -1.203125 3.84375 -1.859375 3.84375 -2.140625 C 3.84375 -2.65625 3.921875 -3.203125 4.03125 -3.71875 L 5.15625 -3.71875 C 5.296875 -3.71875 5.65625 -3.71875 5.65625 -4.0625 C 5.65625 -4.296875 5.4375 -4.296875 5.25 -4.296875 L 1.90625 -4.296875 C 1.6875 -4.296875 1.3125 -4.296875 0.875 -3.828125 C 0.53125 -3.4375 0.265625 -2.984375 0.265625 -2.9375 C 0.265625 -2.921875 0.265625 -2.828125 0.390625 -2.828125 C 0.46875 -2.828125 0.484375 -2.875 0.546875 -2.953125 C 1.03125 -3.71875 1.609375 -3.71875 1.8125 -3.71875 L 2.375 -3.71875 C 2.0625 -2.515625 1.53125 -1.3125 1.109375 -0.40625 C 1.03125 -0.25 1.03125 -0.234375 1.03125 -0.15625 C 1.03125 0.03125 1.1875 0.109375 1.3125 0.109375 C 1.609375 0.109375 1.6875 -0.171875 1.8125 -0.53125 C 1.953125 -1 1.953125 -1.015625 2.078125 -1.515625 Z M 2.640625 -3.71875 "
           id="path6219" />
      </symbol>
      <symbol
         overflow="visible"
         id="symbol5195">
        <path
           style="stroke:none;"
           d="M 2.859375 -6.8125 C 2.859375 -6.8125 2.859375 -6.921875 2.734375 -6.921875 C 2.5 -6.921875 1.78125 -6.84375 1.515625 -6.8125 C 1.4375 -6.8125 1.328125 -6.796875 1.328125 -6.625 C 1.328125 -6.5 1.421875 -6.5 1.5625 -6.5 C 2.046875 -6.5 2.0625 -6.4375 2.0625 -6.328125 L 2.03125 -6.125 L 0.59375 -0.390625 C 0.546875 -0.25 0.546875 -0.234375 0.546875 -0.171875 C 0.546875 0.0625 0.75 0.109375 0.84375 0.109375 C 0.96875 0.109375 1.109375 0.015625 1.171875 -0.09375 C 1.21875 -0.1875 1.671875 -2.03125 1.734375 -2.28125 C 2.078125 -2.25 2.890625 -2.09375 2.890625 -1.4375 C 2.890625 -1.359375 2.890625 -1.328125 2.859375 -1.21875 C 2.84375 -1.109375 2.828125 -0.984375 2.828125 -0.875 C 2.828125 -0.296875 3.21875 0.109375 3.734375 0.109375 C 4.03125 0.109375 4.3125 -0.046875 4.53125 -0.421875 C 4.78125 -0.859375 4.890625 -1.40625 4.890625 -1.421875 C 4.890625 -1.53125 4.796875 -1.53125 4.765625 -1.53125 C 4.671875 -1.53125 4.65625 -1.484375 4.625 -1.34375 C 4.421875 -0.625 4.203125 -0.109375 3.765625 -0.109375 C 3.5625 -0.109375 3.4375 -0.21875 3.4375 -0.578125 C 3.4375 -0.75 3.484375 -0.984375 3.515625 -1.140625 C 3.5625 -1.3125 3.5625 -1.34375 3.5625 -1.453125 C 3.5625 -2.09375 2.9375 -2.375 2.078125 -2.5 C 2.390625 -2.671875 2.71875 -2.984375 2.9375 -3.234375 C 3.421875 -3.765625 3.875 -4.1875 4.359375 -4.1875 C 4.421875 -4.1875 4.4375 -4.1875 4.453125 -4.171875 C 4.578125 -4.15625 4.578125 -4.15625 4.671875 -4.09375 C 4.6875 -4.09375 4.6875 -4.078125 4.703125 -4.0625 C 4.234375 -4.03125 4.140625 -3.640625 4.140625 -3.515625 C 4.140625 -3.359375 4.25 -3.171875 4.515625 -3.171875 C 4.78125 -3.171875 5.0625 -3.390625 5.0625 -3.78125 C 5.0625 -4.078125 4.828125 -4.40625 4.390625 -4.40625 C 4.109375 -4.40625 3.65625 -4.328125 2.9375 -3.53125 C 2.59375 -3.15625 2.203125 -2.75 1.828125 -2.609375 Z M 2.859375 -6.8125 "
           id="path8677" />
      </symbol>
      <symbol
         overflow="visible"
         id="symbol3965">
        <path
           style="stroke:none;"
           d=""
           id="path1740" />
      </symbol>
      <symbol
         overflow="visible"
         id="symbol5279">
        <path
           style="stroke:none;"
           d="M 3.515625 -1.265625 L 3.28125 -1.265625 C 3.265625 -1.109375 3.1875 -0.703125 3.09375 -0.640625 C 3.046875 -0.59375 2.515625 -0.59375 2.40625 -0.59375 L 1.125 -0.59375 C 1.859375 -1.234375 2.109375 -1.4375 2.515625 -1.765625 C 3.03125 -2.171875 3.515625 -2.609375 3.515625 -3.265625 C 3.515625 -4.109375 2.78125 -4.625 1.890625 -4.625 C 1.03125 -4.625 0.4375 -4.015625 0.4375 -3.375 C 0.4375 -3.03125 0.734375 -2.984375 0.8125 -2.984375 C 0.96875 -2.984375 1.171875 -3.109375 1.171875 -3.359375 C 1.171875 -3.484375 1.125 -3.734375 0.765625 -3.734375 C 0.984375 -4.21875 1.453125 -4.375 1.78125 -4.375 C 2.484375 -4.375 2.84375 -3.828125 2.84375 -3.265625 C 2.84375 -2.65625 2.40625 -2.1875 2.1875 -1.9375 L 0.515625 -0.265625 C 0.4375 -0.203125 0.4375 -0.1875 0.4375 0 L 3.3125 0 Z M 3.515625 -1.265625 "
           id="path3953" />
      </symbol>
      <symbol
         overflow="visible"
         id="symbol6181">
        <path
           style="stroke:none;"
           d="M 5.359375 -2.34375 C 5.453125 -2.34375 5.609375 -2.34375 5.609375 -2.515625 C 5.609375 -2.6875 5.453125 -2.6875 5.359375 -2.6875 L 0.75 -2.6875 C 0.65625 -2.6875 0.484375 -2.6875 0.484375 -2.515625 C 0.484375 -2.34375 0.640625 -2.34375 0.75 -2.34375 Z M 5.359375 -0.8125 C 5.453125 -0.8125 5.609375 -0.8125 5.609375 -0.96875 C 5.609375 -1.15625 5.453125 -1.15625 5.359375 -1.15625 L 0.75 -1.15625 C 0.640625 -1.15625 0.484375 -1.15625 0.484375 -0.96875 C 0.484375 -0.8125 0.65625 -0.8125 0.75 -0.8125 Z M 5.359375 -0.8125 "
           id="path3524" />
      </symbol>
      <symbol
         overflow="visible"
         id="symbol9270">
        <path
           style="stroke:none;"
           d="M 2.328125 -4.4375 C 2.328125 -4.625 2.328125 -4.625 2.125 -4.625 C 1.671875 -4.1875 1.046875 -4.1875 0.765625 -4.1875 L 0.765625 -3.9375 C 0.921875 -3.9375 1.390625 -3.9375 1.765625 -4.125 L 1.765625 -0.578125 C 1.765625 -0.34375 1.765625 -0.25 1.078125 -0.25 L 0.8125 -0.25 L 0.8125 0 C 0.9375 0 1.796875 -0.03125 2.046875 -0.03125 C 2.265625 -0.03125 3.140625 0 3.296875 0 L 3.296875 -0.25 L 3.03125 -0.25 C 2.328125 -0.25 2.328125 -0.34375 2.328125 -0.578125 Z M 2.328125 -4.4375 "
           id="path2941" />
      </symbol>
      <symbol
         overflow="visible"
         id="symbol1642">
        <path
           style="stroke:none;"
           d=""
           id="path1202" />
      </symbol>
      <symbol
         overflow="visible"
         id="symbol7718">
        <path
           style="stroke:none;"
           d="M 1.3125 -3.265625 L 1.3125 -3.515625 C 1.3125 -6.03125 2.546875 -6.390625 3.0625 -6.390625 C 3.296875 -6.390625 3.71875 -6.328125 3.9375 -5.984375 C 3.78125 -5.984375 3.390625 -5.984375 3.390625 -5.546875 C 3.390625 -5.234375 3.625 -5.078125 3.84375 -5.078125 C 4 -5.078125 4.3125 -5.171875 4.3125 -5.5625 C 4.3125 -6.15625 3.875 -6.640625 3.046875 -6.640625 C 1.765625 -6.640625 0.421875 -5.359375 0.421875 -3.15625 C 0.421875 -0.484375 1.578125 0.21875 2.5 0.21875 C 3.609375 0.21875 4.5625 -0.71875 4.5625 -2.03125 C 4.5625 -3.296875 3.671875 -4.25 2.5625 -4.25 C 1.890625 -4.25 1.515625 -3.75 1.3125 -3.265625 Z M 2.5 -0.0625 C 1.875 -0.0625 1.578125 -0.65625 1.515625 -0.8125 C 1.328125 -1.28125 1.328125 -2.078125 1.328125 -2.25 C 1.328125 -3.03125 1.65625 -4.03125 2.546875 -4.03125 C 2.71875 -4.03125 3.171875 -4.03125 3.484375 -3.40625 C 3.65625 -3.046875 3.65625 -2.53125 3.65625 -2.046875 C 3.65625 -1.5625 3.65625 -1.0625 3.484375 -0.703125 C 3.1875 -0.109375 2.734375 -0.0625 2.5 -0.0625 Z M 2.5 -0.0625 "
           id="path3381" />
      </symbol>
      <symbol
         overflow="visible"
         id="symbol6126">
        <path
           style="stroke:none;"
           d="M 6.84375 -3.265625 C 7 -3.265625 7.1875 -3.265625 7.1875 -3.453125 C 7.1875 -3.65625 7 -3.65625 6.859375 -3.65625 L 0.890625 -3.65625 C 0.75 -3.65625 0.5625 -3.65625 0.5625 -3.453125 C 0.5625 -3.265625 0.75 -3.265625 0.890625 -3.265625 Z M 6.859375 -1.328125 C 7 -1.328125 7.1875 -1.328125 7.1875 -1.53125 C 7.1875 -1.71875 7 -1.71875 6.84375 -1.71875 L 0.890625 -1.71875 C 0.75 -1.71875 0.5625 -1.71875 0.5625 -1.53125 C 0.5625 -1.328125 0.75 -1.328125 0.890625 -1.328125 Z M 6.859375 -1.328125 "
           id="path9050" />
      </symbol>
      <symbol
         overflow="visible"
         id="symbol7145">
        <path
           style="stroke:none;"
           d="M 1.765625 -6.921875 L 0.328125 -6.8125 L 0.328125 -6.5 C 1.03125 -6.5 1.109375 -6.4375 1.109375 -5.9375 L 1.109375 -0.75 C 1.109375 -0.3125 1 -0.3125 0.328125 -0.3125 L 0.328125 0 C 0.65625 -0.015625 1.1875 -0.03125 1.4375 -0.03125 C 1.6875 -0.03125 2.171875 -0.015625 2.546875 0 L 2.546875 -0.3125 C 1.875 -0.3125 1.765625 -0.3125 1.765625 -0.75 Z M 1.765625 -6.921875 "
           id="path2733" />
      </symbol>
      <symbol
         overflow="visible"
         id="symbol6234">
        <path
           style="stroke:none;"
           d="M 1.765625 -4.40625 L 0.375 -4.296875 L 0.375 -3.984375 C 1.015625 -3.984375 1.109375 -3.921875 1.109375 -3.4375 L 1.109375 -0.75 C 1.109375 -0.3125 1 -0.3125 0.328125 -0.3125 L 0.328125 0 C 0.640625 -0.015625 1.1875 -0.03125 1.421875 -0.03125 C 1.78125 -0.03125 2.125 -0.015625 2.46875 0 L 2.46875 -0.3125 C 1.796875 -0.3125 1.765625 -0.359375 1.765625 -0.75 Z M 1.796875 -6.140625 C 1.796875 -6.453125 1.5625 -6.671875 1.28125 -6.671875 C 0.96875 -6.671875 0.75 -6.40625 0.75 -6.140625 C 0.75 -5.875 0.96875 -5.609375 1.28125 -5.609375 C 1.5625 -5.609375 1.796875 -5.828125 1.796875 -6.140625 Z M 1.796875 -6.140625 "
           id="path2140" />
      </symbol>
      <symbol
         overflow="visible"
         id="symbol6431">
        <path
           style="stroke:none;"
           d="M 1.09375 -3.421875 L 1.09375 -0.75 C 1.09375 -0.3125 0.984375 -0.3125 0.3125 -0.3125 L 0.3125 0 C 0.671875 -0.015625 1.171875 -0.03125 1.453125 -0.03125 C 1.703125 -0.03125 2.21875 -0.015625 2.5625 0 L 2.5625 -0.3125 C 1.890625 -0.3125 1.78125 -0.3125 1.78125 -0.75 L 1.78125 -2.59375 C 1.78125 -3.625 2.5 -4.1875 3.125 -4.1875 C 3.765625 -4.1875 3.875 -3.65625 3.875 -3.078125 L 3.875 -0.75 C 3.875 -0.3125 3.765625 -0.3125 3.09375 -0.3125 L 3.09375 0 C 3.4375 -0.015625 3.953125 -0.03125 4.21875 -0.03125 C 4.46875 -0.03125 5 -0.015625 5.328125 0 L 5.328125 -0.3125 C 4.671875 -0.3125 4.5625 -0.3125 4.5625 -0.75 L 4.5625 -2.59375 C 4.5625 -3.625 5.265625 -4.1875 5.90625 -4.1875 C 6.53125 -4.1875 6.640625 -3.65625 6.640625 -3.078125 L 6.640625 -0.75 C 6.640625 -0.3125 6.53125 -0.3125 5.859375 -0.3125 L 5.859375 0 C 6.203125 -0.015625 6.71875 -0.03125 6.984375 -0.03125 C 7.25 -0.03125 7.765625 -0.015625 8.109375 0 L 8.109375 -0.3125 C 7.59375 -0.3125 7.34375 -0.3125 7.328125 -0.609375 L 7.328125 -2.515625 C 7.328125 -3.375 7.328125 -3.671875 7.015625 -4.03125 C 6.875 -4.203125 6.546875 -4.40625 5.96875 -4.40625 C 5.140625 -4.40625 4.6875 -3.8125 4.53125 -3.421875 C 4.390625 -4.296875 3.65625 -4.40625 3.203125 -4.40625 C 2.46875 -4.40625 2 -3.984375 1.71875 -3.359375 L 1.71875 -4.40625 L 0.3125 -4.296875 L 0.3125 -3.984375 C 1.015625 -3.984375 1.09375 -3.921875 1.09375 -3.421875 Z M 1.09375 -3.421875 "
           id="path1261" />
      </symbol>
      <symbol
         overflow="visible"
         id="symbol5844">
        <path
           style="stroke:none;"
           d="M 2.9375 -6.375 C 2.9375 -6.625 2.9375 -6.640625 2.703125 -6.640625 C 2.078125 -6 1.203125 -6 0.890625 -6 L 0.890625 -5.6875 C 1.09375 -5.6875 1.671875 -5.6875 2.1875 -5.953125 L 2.1875 -0.78125 C 2.1875 -0.421875 2.15625 -0.3125 1.265625 -0.3125 L 0.953125 -0.3125 L 0.953125 0 C 1.296875 -0.03125 2.15625 -0.03125 2.5625 -0.03125 C 2.953125 -0.03125 3.828125 -0.03125 4.171875 0 L 4.171875 -0.3125 L 3.859375 -0.3125 C 2.953125 -0.3125 2.9375 -0.421875 2.9375 -0.78125 Z M 2.9375 -6.375 "
           id="path3205" />
      </symbol>
      <symbol
         overflow="visible"
         id="symbol5015">
        <path
           style="stroke:none;"
           d=""
           id="path9115" />
      </symbol>
      <symbol
         overflow="visible"
         id="symbol1061">
        <path
           style="stroke:none;"
           d="M 0.84375 -0.4375 C 0.828125 -0.34375 0.78125 -0.171875 0.78125 -0.15625 C 0.78125 0 0.90625 0.0625 1.015625 0.0625 C 1.140625 0.0625 1.25 -0.015625 1.296875 -0.078125 C 1.328125 -0.140625 1.375 -0.375 1.421875 -0.515625 C 1.453125 -0.640625 1.53125 -0.96875 1.5625 -1.140625 C 1.609375 -1.296875 1.65625 -1.453125 1.6875 -1.609375 C 1.765625 -1.890625 1.78125 -1.953125 1.984375 -2.234375 C 2.171875 -2.515625 2.5 -2.875 3.03125 -2.875 C 3.421875 -2.875 3.4375 -2.515625 3.4375 -2.390625 C 3.4375 -1.96875 3.140625 -1.203125 3.03125 -0.90625 C 2.953125 -0.703125 2.921875 -0.640625 2.921875 -0.53125 C 2.921875 -0.15625 3.21875 0.0625 3.578125 0.0625 C 4.28125 0.0625 4.578125 -0.890625 4.578125 -1 C 4.578125 -1.09375 4.5 -1.09375 4.46875 -1.09375 C 4.375 -1.09375 4.375 -1.046875 4.34375 -0.96875 C 4.1875 -0.40625 3.875 -0.125 3.609375 -0.125 C 3.453125 -0.125 3.421875 -0.21875 3.421875 -0.375 C 3.421875 -0.53125 3.46875 -0.625 3.59375 -0.9375 C 3.671875 -1.15625 3.953125 -1.890625 3.953125 -2.28125 C 3.953125 -2.953125 3.421875 -3.078125 3.046875 -3.078125 C 2.46875 -3.078125 2.078125 -2.71875 1.875 -2.4375 C 1.828125 -2.921875 1.421875 -3.078125 1.125 -3.078125 C 0.828125 -3.078125 0.671875 -2.859375 0.578125 -2.703125 C 0.421875 -2.4375 0.328125 -2.046875 0.328125 -2 C 0.328125 -1.921875 0.421875 -1.921875 0.453125 -1.921875 C 0.546875 -1.921875 0.546875 -1.9375 0.59375 -2.125 C 0.703125 -2.53125 0.84375 -2.875 1.109375 -2.875 C 1.296875 -2.875 1.34375 -2.71875 1.34375 -2.53125 C 1.34375 -2.40625 1.28125 -2.140625 1.21875 -1.953125 C 1.171875 -1.765625 1.109375 -1.484375 1.078125 -1.328125 Z M 0.84375 -0.4375 "
           id="path108" />
      </symbol>
      <symbol
         overflow="visible"
         id="symbol1408">
        <path
           style="stroke:none;"
           d="M 2.1875 -4.625 C 2.1875 -4.640625 2.203125 -4.734375 2.203125 -4.734375 C 2.203125 -4.78125 2.1875 -4.84375 2.09375 -4.84375 C 1.953125 -4.84375 1.375 -4.78125 1.203125 -4.765625 C 1.15625 -4.765625 1.046875 -4.75 1.046875 -4.609375 C 1.046875 -4.515625 1.15625 -4.515625 1.234375 -4.515625 C 1.5625 -4.515625 1.5625 -4.453125 1.5625 -4.40625 C 1.5625 -4.359375 1.546875 -4.3125 1.546875 -4.25 L 0.5625 -0.3125 C 0.515625 -0.1875 0.515625 -0.171875 0.515625 -0.15625 C 0.515625 -0.046875 0.609375 0.0625 0.765625 0.0625 C 0.953125 0.0625 1.03125 -0.0625 1.078125 -0.21875 C 1.09375 -0.25 1.390625 -1.484375 1.421875 -1.578125 C 1.921875 -1.53125 2.3125 -1.359375 2.3125 -1 C 2.3125 -0.96875 2.3125 -0.9375 2.296875 -0.859375 C 2.265625 -0.765625 2.265625 -0.71875 2.265625 -0.640625 C 2.265625 -0.15625 2.671875 0.0625 3.015625 0.0625 C 3.6875 0.0625 3.890625 -0.984375 3.890625 -1 C 3.890625 -1.09375 3.8125 -1.09375 3.78125 -1.09375 C 3.6875 -1.09375 3.671875 -1.046875 3.640625 -0.921875 C 3.5625 -0.625 3.375 -0.125 3.03125 -0.125 C 2.84375 -0.125 2.78125 -0.296875 2.78125 -0.484375 C 2.78125 -0.609375 2.78125 -0.625 2.828125 -0.796875 C 2.84375 -0.828125 2.859375 -0.9375 2.859375 -1.015625 C 2.859375 -1.640625 2.03125 -1.734375 1.734375 -1.75 C 1.9375 -1.875 2.1875 -2.109375 2.3125 -2.21875 C 2.671875 -2.546875 3.015625 -2.875 3.40625 -2.875 C 3.484375 -2.875 3.578125 -2.859375 3.640625 -2.78125 C 3.34375 -2.734375 3.28125 -2.5 3.28125 -2.390625 C 3.28125 -2.25 3.390625 -2.140625 3.546875 -2.140625 C 3.75 -2.140625 3.953125 -2.296875 3.953125 -2.578125 C 3.953125 -2.8125 3.78125 -3.078125 3.421875 -3.078125 C 3.015625 -3.078125 2.65625 -2.78125 2.296875 -2.453125 C 2 -2.1875 1.78125 -1.96875 1.484375 -1.84375 Z M 2.1875 -4.625 "
           id="path6831" />
      </symbol>
      <symbol
         overflow="visible"
         id="symbol5007">
        <path
           style="stroke:none;"
           d=""
           id="path8890" />
      </symbol>
      <symbol
         overflow="visible"
         id="symbol429">
        <path
           style="stroke:none;"
           d="M 6.40625 -1.578125 C 5.53125 -0.9375 5.421875 -0.015625 5.421875 -0.015625 C 5.421875 0.09375 5.484375 0.09375 5.578125 0.09375 C 5.703125 0.09375 5.734375 0.09375 5.765625 -0.03125 C 5.8125 -0.203125 5.921875 -0.640625 6.28125 -1.03125 C 6.6875 -1.453125 7.03125 -1.5625 7.328125 -1.65625 C 7.359375 -1.671875 7.390625 -1.703125 7.390625 -1.734375 C 7.390625 -1.8125 7.359375 -1.828125 7.265625 -1.859375 C 6.265625 -2.171875 5.90625 -2.890625 5.75 -3.5 C 5.734375 -3.578125 5.671875 -3.578125 5.578125 -3.578125 C 5.484375 -3.578125 5.421875 -3.578125 5.421875 -3.484375 C 5.421875 -3.46875 5.484375 -3 5.828125 -2.515625 C 5.984375 -2.28125 6.1875 -2.078125 6.40625 -1.921875 L 0.8125 -1.921875 C 0.703125 -1.921875 0.53125 -1.921875 0.53125 -1.75 C 0.53125 -1.578125 0.703125 -1.578125 0.8125 -1.578125 Z M 6.40625 -1.578125 "
           id="path9256" />
      </symbol>
      <symbol
         overflow="visible"
         id="symbol3148">
        <path
           style="stroke:none;"
           d="M 4.03125 -1.90625 C 3.65625 -2.34375 3.546875 -2.453125 3.28125 -2.640625 C 2.859375 -2.953125 2.40625 -3.078125 2.03125 -3.078125 C 1.15625 -3.078125 0.53125 -2.328125 0.53125 -1.5 C 0.53125 -0.6875 1.140625 0.0625 2 0.0625 C 2.96875 0.0625 3.65625 -0.71875 3.90625 -1.09375 C 4.265625 -0.65625 4.390625 -0.546875 4.640625 -0.359375 C 5.078125 -0.046875 5.515625 0.0625 5.90625 0.0625 C 6.765625 0.0625 7.390625 -0.671875 7.390625 -1.5 C 7.390625 -2.328125 6.796875 -3.078125 5.921875 -3.078125 C 4.953125 -3.078125 4.28125 -2.28125 4.03125 -1.90625 Z M 4.25 -1.65625 C 4.53125 -2.109375 5.140625 -2.8125 5.984375 -2.8125 C 6.703125 -2.8125 7.203125 -2.171875 7.203125 -1.5 C 7.203125 -0.84375 6.65625 -0.3125 6.015625 -0.3125 C 5.359375 -0.3125 4.921875 -0.84375 4.25 -1.65625 Z M 3.671875 -1.359375 C 3.40625 -0.90625 2.796875 -0.1875 1.9375 -0.1875 C 1.21875 -0.1875 0.734375 -0.828125 0.734375 -1.5 C 0.734375 -2.171875 1.28125 -2.6875 1.921875 -2.6875 C 2.5625 -2.6875 3.015625 -2.15625 3.671875 -1.359375 Z M 3.671875 -1.359375 "
           id="path7296" />
      </symbol>
      <symbol
         overflow="visible"
         id="symbol1190">
        <path
           style="stroke:none;"
           d=""
           id="path7258" />
      </symbol>
      <symbol
         overflow="visible"
         id="symbol3952">
        <path
           style="stroke:none;"
           d="M 12.625 13.953125 L 13.828125 10.765625 L 13.578125 10.765625 C 13.1875 11.796875 12.125 12.484375 10.984375 12.78125 C 10.78125 12.828125 9.796875 13.09375 7.890625 13.09375 L 1.875 13.09375 L 6.953125 7.140625 C 7.015625 7.0625 7.03125 7.03125 7.03125 6.984375 C 7.03125 6.953125 7.03125 6.921875 6.96875 6.828125 L 2.328125 0.484375 L 7.78125 0.484375 C 9.125 0.484375 10.03125 0.625 10.125 0.640625 C 10.65625 0.71875 11.53125 0.890625 12.3125 1.390625 C 12.5625 1.546875 13.234375 2 13.578125 2.796875 L 13.828125 2.796875 L 12.625 0 L 0.84375 0 C 0.609375 0 0.59375 0.015625 0.5625 0.0625 C 0.5625 0.09375 0.5625 0.296875 0.5625 0.40625 L 5.828125 7.609375 L 0.671875 13.671875 C 0.5625 13.78125 0.5625 13.84375 0.5625 13.84375 C 0.5625 13.953125 0.65625 13.953125 0.84375 13.953125 Z M 12.625 13.953125 "
           id="path8034" />
      </symbol>
    </g>
    <rect
       x="-70"
       y="145"
       width="55"
       height="75"
       id="rect2277" />
    <rect
       x="-70"
       y="145"
       width="55"
       height="75"
       id="rect2311" />
    <rect
       x="-70"
       y="145"
       width="55"
       height="75"
       id="rect2321" />
    <rect
       x="160"
       y="104"
       width="13"
       height="14"
       id="rect2333" />
    <rect
       x="-70"
       y="145"
       width="55"
       height="75"
       id="rect2341" />
    <rect
       x="-70"
       y="145"
       width="55"
       height="75"
       id="rect2387" />
    <rect
       x="-70"
       y="145"
       width="55"
       height="75"
       id="rect4013" />
    <rect
       x="-70"
       y="145"
       width="55"
       height="75"
       id="rect4025" />
    <rect
       x="-70"
       y="145"
       width="55"
       height="75"
       id="rect981" />
    <rect
       x="-70"
       y="145"
       width="55"
       height="75"
       id="rect1301" />
    <rect
       x="-70"
       y="145"
       width="55"
       height="75"
       id="rect3579" />
    <rect
       x="-70"
       y="145"
       width="55"
       height="75"
       id="rect3581" />
    <rect
       x="-70"
       y="145"
       width="55"
       height="75"
       id="rect3583" />
    <rect
       x="-70"
       y="145"
       width="55"
       height="75"
       id="rect3585" />
    <rect
       x="-70"
       y="145"
       width="55"
       height="75"
       id="rect3587" />
    <rect
       x="-70"
       y="145"
       width="55"
       height="75"
       id="rect3589" />
    <rect
       x="-70"
       y="145"
       width="55"
       height="75"
       id="rect3591" />
    <g
       id="g716">
      <symbol
         overflow="visible"
         id="symbol5120">
        <path
           style="stroke:none;"
           d=""
           id="path8089" />
      </symbol>
      <symbol
         overflow="visible"
         id="symbol6725">
        <path
           style="stroke:none;"
           d="M 3.453125 -2.453125 L 4.609375 -3.75 C 4.75 -3.890625 4.8125 -3.953125 5.625 -3.953125 L 5.625 -4.421875 C 5.28125 -4.40625 4.765625 -4.390625 4.71875 -4.390625 C 4.46875 -4.390625 3.96875 -4.421875 3.6875 -4.421875 L 3.6875 -3.953125 C 3.828125 -3.953125 3.953125 -3.9375 4.0625 -3.875 C 4.03125 -3.8125 4.03125 -3.78125 3.984375 -3.75 L 3.15625 -2.8125 L 2.171875 -3.953125 L 2.578125 -3.953125 L 2.578125 -4.421875 C 2.3125 -4.421875 1.6875 -4.390625 1.359375 -4.390625 C 1.046875 -4.390625 0.59375 -4.421875 0.265625 -4.421875 L 0.265625 -3.953125 L 0.984375 -3.953125 L 2.53125 -2.125 L 1.21875 -0.65625 C 1.0625 -0.46875 0.703125 -0.46875 0.21875 -0.46875 L 0.21875 0 C 0.5625 -0.015625 1.09375 -0.03125 1.140625 -0.03125 C 1.390625 -0.03125 1.96875 -0.015625 2.15625 0 L 2.15625 -0.46875 C 1.984375 -0.46875 1.796875 -0.515625 1.796875 -0.578125 C 1.796875 -0.59375 1.796875 -0.59375 1.859375 -0.671875 L 2.828125 -1.765625 L 3.921875 -0.46875 L 3.53125 -0.46875 L 3.53125 0 C 3.796875 -0.015625 4.40625 -0.03125 4.734375 -0.03125 C 5.046875 -0.03125 5.5 -0.015625 5.828125 0 L 5.828125 -0.46875 L 5.125 -0.46875 Z M 3.453125 -2.453125 "
           id="path1682" />
      </symbol>
    </g>
    <g
       id="g7168">
      <symbol
         overflow="visible"
         id="symbol7013">
        <path
           style="stroke:none;"
           d=""
           id="path5204" />
      </symbol>
      <symbol
         overflow="visible"
         id="symbol7978">
        <path
           style="stroke:none;"
           d="M 5.046875 -3.75 C 5.109375 -3.890625 5.140625 -3.953125 5.78125 -3.953125 L 5.78125 -4.421875 C 5.546875 -4.40625 5.25 -4.390625 5 -4.390625 C 4.75 -4.390625 4.296875 -4.421875 4.09375 -4.421875 L 4.09375 -3.953125 C 4.109375 -3.953125 4.5625 -3.953125 4.5625 -3.84375 C 4.5625 -3.828125 4.515625 -3.734375 4.5 -3.71875 L 3.359375 -1.265625 L 2.09375 -3.953125 L 2.625 -3.953125 L 2.625 -4.421875 C 2.296875 -4.40625 1.40625 -4.390625 1.390625 -4.390625 C 1.109375 -4.390625 0.671875 -4.421875 0.265625 -4.421875 L 0.265625 -3.953125 L 0.890625 -3.953125 L 2.765625 0 L 2.53125 0.484375 C 2.3125 0.953125 2 1.640625 1.28125 1.640625 C 1.140625 1.640625 1.125 1.625 1.046875 1.59375 C 1.140625 1.5625 1.359375 1.421875 1.359375 1.0625 C 1.359375 0.734375 1.125 0.5 0.78125 0.5 C 0.515625 0.5 0.21875 0.6875 0.21875 1.078125 C 0.21875 1.578125 0.6875 2 1.28125 2 C 2.046875 2 2.625 1.375 2.90625 0.8125 Z M 5.046875 -3.75 "
           id="path437" />
      </symbol>
    </g>
    <g
       id="g1546">
      <symbol
         overflow="visible"
         id="symbol2742">
        <path
           style="stroke:none;"
           d=""
           id="path420" />
      </symbol>
      <symbol
         overflow="visible"
         id="symbol3274">
        <path
           style="stroke:none;"
           d="M 5.046875 -3.75 C 5.109375 -3.890625 5.140625 -3.953125 5.78125 -3.953125 L 5.78125 -4.421875 C 5.546875 -4.40625 5.25 -4.390625 5 -4.390625 C 4.75 -4.390625 4.296875 -4.421875 4.09375 -4.421875 L 4.09375 -3.953125 C 4.109375 -3.953125 4.5625 -3.953125 4.5625 -3.84375 C 4.5625 -3.828125 4.515625 -3.734375 4.5 -3.71875 L 3.359375 -1.265625 L 2.09375 -3.953125 L 2.625 -3.953125 L 2.625 -4.421875 C 2.296875 -4.40625 1.40625 -4.390625 1.390625 -4.390625 C 1.109375 -4.390625 0.671875 -4.421875 0.265625 -4.421875 L 0.265625 -3.953125 L 0.890625 -3.953125 L 2.765625 0 L 2.53125 0.484375 C 2.3125 0.953125 2 1.640625 1.28125 1.640625 C 1.140625 1.640625 1.125 1.625 1.046875 1.59375 C 1.140625 1.5625 1.359375 1.421875 1.359375 1.0625 C 1.359375 0.734375 1.125 0.5 0.78125 0.5 C 0.515625 0.5 0.21875 0.6875 0.21875 1.078125 C 0.21875 1.578125 0.6875 2 1.28125 2 C 2.046875 2 2.625 1.375 2.90625 0.8125 Z M 5.046875 -3.75 "
           id="path7083" />
      </symbol>
    </g>
    <g
       id="g1073">
      <symbol
         overflow="visible"
         id="symbol9851">
        <path
           style="stroke:none;"
           d=""
           id="path4116" />
      </symbol>
      <symbol
         overflow="visible"
         id="symbol6086">
        <path
           style="stroke:none;"
           d="M 2.859375 -6.921875 L 1.296875 -5.65625 L 1.578125 -5.28125 L 2.859375 -6.09375 L 4.140625 -5.28125 L 4.421875 -5.65625 Z M 2.859375 -6.921875 "
           id="path4144" />
      </symbol>
      <symbol
         overflow="visible"
         id="symbol3367">
        <path
           style="stroke:none;"
           d="M 5.046875 -3.75 C 5.109375 -3.890625 5.140625 -3.953125 5.78125 -3.953125 L 5.78125 -4.421875 C 5.546875 -4.40625 5.25 -4.390625 5 -4.390625 C 4.75 -4.390625 4.296875 -4.421875 4.09375 -4.421875 L 4.09375 -3.953125 C 4.109375 -3.953125 4.5625 -3.953125 4.5625 -3.84375 C 4.5625 -3.828125 4.515625 -3.734375 4.5 -3.71875 L 3.359375 -1.265625 L 2.09375 -3.953125 L 2.625 -3.953125 L 2.625 -4.421875 C 2.296875 -4.40625 1.40625 -4.390625 1.390625 -4.390625 C 1.109375 -4.390625 0.671875 -4.421875 0.265625 -4.421875 L 0.265625 -3.953125 L 0.890625 -3.953125 L 2.765625 0 L 2.53125 0.484375 C 2.3125 0.953125 2 1.640625 1.28125 1.640625 C 1.140625 1.640625 1.125 1.625 1.046875 1.59375 C 1.140625 1.5625 1.359375 1.421875 1.359375 1.0625 C 1.359375 0.734375 1.125 0.5 0.78125 0.5 C 0.515625 0.5 0.21875 0.6875 0.21875 1.078125 C 0.21875 1.578125 0.6875 2 1.28125 2 C 2.046875 2 2.625 1.375 2.90625 0.8125 Z M 5.046875 -3.75 "
           id="path9530" />
      </symbol>
    </g>
    <g
       id="g5630">
      <symbol
         overflow="visible"
         id="symbol8202">
        <path
           style="stroke:none;"
           d=""
           id="path8308" />
      </symbol>
      <symbol
         overflow="visible"
         id="symbol9731">
        <path
           style="stroke:none;"
           d="M 2.859375 -6.921875 L 1.296875 -5.65625 L 1.578125 -5.28125 L 2.859375 -6.09375 L 4.140625 -5.28125 L 4.421875 -5.65625 Z M 2.859375 -6.921875 "
           id="path3452" />
      </symbol>
      <symbol
         overflow="visible"
         id="symbol3800">
        <path
           style="stroke:none;"
           d="M 3.453125 -2.453125 L 4.609375 -3.75 C 4.75 -3.890625 4.8125 -3.953125 5.625 -3.953125 L 5.625 -4.421875 C 5.28125 -4.40625 4.765625 -4.390625 4.71875 -4.390625 C 4.46875 -4.390625 3.96875 -4.421875 3.6875 -4.421875 L 3.6875 -3.953125 C 3.828125 -3.953125 3.953125 -3.9375 4.0625 -3.875 C 4.03125 -3.8125 4.03125 -3.78125 3.984375 -3.75 L 3.15625 -2.8125 L 2.171875 -3.953125 L 2.578125 -3.953125 L 2.578125 -4.421875 C 2.3125 -4.421875 1.6875 -4.390625 1.359375 -4.390625 C 1.046875 -4.390625 0.59375 -4.421875 0.265625 -4.421875 L 0.265625 -3.953125 L 0.984375 -3.953125 L 2.53125 -2.125 L 1.21875 -0.65625 C 1.0625 -0.46875 0.703125 -0.46875 0.21875 -0.46875 L 0.21875 0 C 0.5625 -0.015625 1.09375 -0.03125 1.140625 -0.03125 C 1.390625 -0.03125 1.96875 -0.015625 2.15625 0 L 2.15625 -0.46875 C 1.984375 -0.46875 1.796875 -0.515625 1.796875 -0.578125 C 1.796875 -0.59375 1.796875 -0.59375 1.859375 -0.671875 L 2.828125 -1.765625 L 3.921875 -0.46875 L 3.53125 -0.46875 L 3.53125 0 C 3.796875 -0.015625 4.40625 -0.03125 4.734375 -0.03125 C 5.046875 -0.03125 5.5 -0.015625 5.828125 0 L 5.828125 -0.46875 L 5.125 -0.46875 Z M 3.453125 -2.453125 "
           id="path592" />
      </symbol>
    </g>
    <g
       id="g9042">
      <symbol
         overflow="visible"
         id="symbol3958">
        <path
           style="stroke:none;"
           d=""
           id="path9083" />
      </symbol>
      <symbol
         overflow="visible"
         id="symbol7869">
        <path
           style="stroke:none;"
           d="M 5.140625 -6.8125 C 5.140625 -6.8125 5.140625 -6.921875 5.015625 -6.921875 C 4.859375 -6.921875 3.921875 -6.828125 3.75 -6.8125 C 3.671875 -6.796875 3.609375 -6.75 3.609375 -6.625 C 3.609375 -6.5 3.703125 -6.5 3.84375 -6.5 C 4.328125 -6.5 4.34375 -6.4375 4.34375 -6.328125 L 4.3125 -6.125 L 3.71875 -3.765625 C 3.53125 -4.140625 3.25 -4.40625 2.796875 -4.40625 C 1.640625 -4.40625 0.40625 -2.9375 0.40625 -1.484375 C 0.40625 -0.546875 0.953125 0.109375 1.71875 0.109375 C 1.921875 0.109375 2.421875 0.0625 3.015625 -0.640625 C 3.09375 -0.21875 3.453125 0.109375 3.921875 0.109375 C 4.28125 0.109375 4.5 -0.125 4.671875 -0.4375 C 4.828125 -0.796875 4.96875 -1.40625 4.96875 -1.421875 C 4.96875 -1.53125 4.875 -1.53125 4.84375 -1.53125 C 4.75 -1.53125 4.734375 -1.484375 4.703125 -1.34375 C 4.53125 -0.703125 4.359375 -0.109375 3.953125 -0.109375 C 3.671875 -0.109375 3.65625 -0.375 3.65625 -0.5625 C 3.65625 -0.8125 3.671875 -0.875 3.703125 -1.046875 Z M 3.078125 -1.1875 C 3.015625 -1 3.015625 -0.984375 2.875 -0.8125 C 2.4375 -0.265625 2.03125 -0.109375 1.75 -0.109375 C 1.25 -0.109375 1.109375 -0.65625 1.109375 -1.046875 C 1.109375 -1.546875 1.421875 -2.765625 1.65625 -3.234375 C 1.96875 -3.8125 2.40625 -4.1875 2.8125 -4.1875 C 3.453125 -4.1875 3.59375 -3.375 3.59375 -3.3125 C 3.59375 -3.25 3.578125 -3.1875 3.5625 -3.140625 Z M 3.078125 -1.1875 "
           id="path1837" />
      </symbol>
      <symbol
         overflow="visible"
         id="symbol6510">
        <path
           style="stroke:none;"
           d="M 2.03125 -0.015625 C 2.03125 -0.671875 1.78125 -1.0625 1.390625 -1.0625 C 1.0625 -1.0625 0.859375 -0.8125 0.859375 -0.53125 C 0.859375 -0.265625 1.0625 0 1.390625 0 C 1.5 0 1.640625 -0.046875 1.734375 -0.125 C 1.765625 -0.15625 1.78125 -0.15625 1.78125 -0.15625 C 1.796875 -0.15625 1.796875 -0.15625 1.796875 -0.015625 C 1.796875 0.734375 1.453125 1.328125 1.125 1.65625 C 1.015625 1.765625 1.015625 1.78125 1.015625 1.8125 C 1.015625 1.890625 1.0625 1.921875 1.109375 1.921875 C 1.21875 1.921875 2.03125 1.15625 2.03125 -0.015625 Z M 2.03125 -0.015625 "
           id="path537" />
      </symbol>
      <symbol
         overflow="visible"
         id="symbol174">
        <path
           style="stroke:none;"
           d=""
           id="path6643" />
      </symbol>
      <symbol
         overflow="visible"
         id="symbol5903">
        <path
           style="stroke:none;"
           d="M 3.296875 2.390625 C 3.296875 2.359375 3.296875 2.34375 3.125 2.171875 C 1.890625 0.921875 1.5625 -0.96875 1.5625 -2.5 C 1.5625 -4.234375 1.9375 -5.96875 3.171875 -7.203125 C 3.296875 -7.328125 3.296875 -7.34375 3.296875 -7.375 C 3.296875 -7.453125 3.265625 -7.484375 3.203125 -7.484375 C 3.09375 -7.484375 2.203125 -6.796875 1.609375 -5.53125 C 1.109375 -4.4375 0.984375 -3.328125 0.984375 -2.5 C 0.984375 -1.71875 1.09375 -0.515625 1.640625 0.625 C 2.25 1.84375 3.09375 2.5 3.203125 2.5 C 3.265625 2.5 3.296875 2.46875 3.296875 2.390625 Z M 3.296875 2.390625 "
           id="path1656" />
      </symbol>
      <symbol
         overflow="visible"
         id="symbol3971">
        <path
           style="stroke:none;"
           d="M 2.875 -2.5 C 2.875 -3.265625 2.765625 -4.46875 2.21875 -5.609375 C 1.625 -6.828125 0.765625 -7.484375 0.671875 -7.484375 C 0.609375 -7.484375 0.5625 -7.4375 0.5625 -7.375 C 0.5625 -7.34375 0.5625 -7.328125 0.75 -7.140625 C 1.734375 -6.15625 2.296875 -4.578125 2.296875 -2.5 C 2.296875 -0.78125 1.9375 0.96875 0.703125 2.21875 C 0.5625 2.34375 0.5625 2.359375 0.5625 2.390625 C 0.5625 2.453125 0.609375 2.5 0.671875 2.5 C 0.765625 2.5 1.671875 1.8125 2.25 0.546875 C 2.765625 -0.546875 2.875 -1.65625 2.875 -2.5 Z M 2.875 -2.5 "
           id="path9651" />
      </symbol>
      <symbol
         overflow="visible"
         id="symbol8616">
        <path
           style="stroke:none;"
           d=""
           id="path4118" />
      </symbol>
      <symbol
         overflow="visible"
         id="symbol8884">
        <path
           style="stroke:none;"
           d="M 2.859375 -6.921875 L 1.296875 -5.65625 L 1.578125 -5.28125 L 2.859375 -6.09375 L 4.140625 -5.28125 L 4.421875 -5.65625 Z M 2.859375 -6.921875 "
           id="path6410" />
      </symbol>
      <symbol
         overflow="visible"
         id="symbol4615">
        <path
           style="stroke:none;"
           d="M 3.453125 -2.453125 L 4.609375 -3.75 C 4.75 -3.890625 4.8125 -3.953125 5.625 -3.953125 L 5.625 -4.421875 C 5.28125 -4.40625 4.765625 -4.390625 4.71875 -4.390625 C 4.46875 -4.390625 3.96875 -4.421875 3.6875 -4.421875 L 3.6875 -3.953125 C 3.828125 -3.953125 3.953125 -3.9375 4.0625 -3.875 C 4.03125 -3.8125 4.03125 -3.78125 3.984375 -3.75 L 3.15625 -2.8125 L 2.171875 -3.953125 L 2.578125 -3.953125 L 2.578125 -4.421875 C 2.3125 -4.421875 1.6875 -4.390625 1.359375 -4.390625 C 1.046875 -4.390625 0.59375 -4.421875 0.265625 -4.421875 L 0.265625 -3.953125 L 0.984375 -3.953125 L 2.53125 -2.125 L 1.21875 -0.65625 C 1.0625 -0.46875 0.703125 -0.46875 0.21875 -0.46875 L 0.21875 0 C 0.5625 -0.015625 1.09375 -0.03125 1.140625 -0.03125 C 1.390625 -0.03125 1.96875 -0.015625 2.15625 0 L 2.15625 -0.46875 C 1.984375 -0.46875 1.796875 -0.515625 1.796875 -0.578125 C 1.796875 -0.59375 1.796875 -0.59375 1.859375 -0.671875 L 2.828125 -1.765625 L 3.921875 -0.46875 L 3.53125 -0.46875 L 3.53125 0 C 3.796875 -0.015625 4.40625 -0.03125 4.734375 -0.03125 C 5.046875 -0.03125 5.5 -0.015625 5.828125 0 L 5.828125 -0.46875 L 5.125 -0.46875 Z M 3.453125 -2.453125 "
           id="path4780" />
      </symbol>
      <symbol
         overflow="visible"
         id="symbol3664">
        <path
           style="stroke:none;"
           d="M 5.046875 -3.75 C 5.109375 -3.890625 5.140625 -3.953125 5.78125 -3.953125 L 5.78125 -4.421875 C 5.546875 -4.40625 5.25 -4.390625 5 -4.390625 C 4.75 -4.390625 4.296875 -4.421875 4.09375 -4.421875 L 4.09375 -3.953125 C 4.109375 -3.953125 4.5625 -3.953125 4.5625 -3.84375 C 4.5625 -3.828125 4.515625 -3.734375 4.5 -3.71875 L 3.359375 -1.265625 L 2.09375 -3.953125 L 2.625 -3.953125 L 2.625 -4.421875 C 2.296875 -4.40625 1.40625 -4.390625 1.390625 -4.390625 C 1.109375 -4.390625 0.671875 -4.421875 0.265625 -4.421875 L 0.265625 -3.953125 L 0.890625 -3.953125 L 2.765625 0 L 2.53125 0.484375 C 2.3125 0.953125 2 1.640625 1.28125 1.640625 C 1.140625 1.640625 1.125 1.625 1.046875 1.59375 C 1.140625 1.5625 1.359375 1.421875 1.359375 1.0625 C 1.359375 0.734375 1.125 0.5 0.78125 0.5 C 0.515625 0.5 0.21875 0.6875 0.21875 1.078125 C 0.21875 1.578125 0.6875 2 1.28125 2 C 2.046875 2 2.625 1.375 2.90625 0.8125 Z M 5.046875 -3.75 "
           id="path7278" />
      </symbol>
    </g>
    <g
       id="g7773">
      <symbol
         overflow="visible"
         id="symbol135">
        <path
           style="stroke:none;"
           d=""
           id="path6404" />
      </symbol>
      <symbol
         overflow="visible"
         id="symbol9120">
        <path
           style="stroke:none;"
           d="M 5.140625 -6.8125 C 5.140625 -6.8125 5.140625 -6.921875 5.015625 -6.921875 C 4.859375 -6.921875 3.921875 -6.828125 3.75 -6.8125 C 3.671875 -6.796875 3.609375 -6.75 3.609375 -6.625 C 3.609375 -6.5 3.703125 -6.5 3.84375 -6.5 C 4.328125 -6.5 4.34375 -6.4375 4.34375 -6.328125 L 4.3125 -6.125 L 3.71875 -3.765625 C 3.53125 -4.140625 3.25 -4.40625 2.796875 -4.40625 C 1.640625 -4.40625 0.40625 -2.9375 0.40625 -1.484375 C 0.40625 -0.546875 0.953125 0.109375 1.71875 0.109375 C 1.921875 0.109375 2.421875 0.0625 3.015625 -0.640625 C 3.09375 -0.21875 3.453125 0.109375 3.921875 0.109375 C 4.28125 0.109375 4.5 -0.125 4.671875 -0.4375 C 4.828125 -0.796875 4.96875 -1.40625 4.96875 -1.421875 C 4.96875 -1.53125 4.875 -1.53125 4.84375 -1.53125 C 4.75 -1.53125 4.734375 -1.484375 4.703125 -1.34375 C 4.53125 -0.703125 4.359375 -0.109375 3.953125 -0.109375 C 3.671875 -0.109375 3.65625 -0.375 3.65625 -0.5625 C 3.65625 -0.8125 3.671875 -0.875 3.703125 -1.046875 Z M 3.078125 -1.1875 C 3.015625 -1 3.015625 -0.984375 2.875 -0.8125 C 2.4375 -0.265625 2.03125 -0.109375 1.75 -0.109375 C 1.25 -0.109375 1.109375 -0.65625 1.109375 -1.046875 C 1.109375 -1.546875 1.421875 -2.765625 1.65625 -3.234375 C 1.96875 -3.8125 2.40625 -4.1875 2.8125 -4.1875 C 3.453125 -4.1875 3.59375 -3.375 3.59375 -3.3125 C 3.59375 -3.25 3.578125 -3.1875 3.5625 -3.140625 Z M 3.078125 -1.1875 "
           id="path7972" />
      </symbol>
      <symbol
         overflow="visible"
         id="symbol7472">
        <path
           style="stroke:none;"
           d="M 2.03125 -0.015625 C 2.03125 -0.671875 1.78125 -1.0625 1.390625 -1.0625 C 1.0625 -1.0625 0.859375 -0.8125 0.859375 -0.53125 C 0.859375 -0.265625 1.0625 0 1.390625 0 C 1.5 0 1.640625 -0.046875 1.734375 -0.125 C 1.765625 -0.15625 1.78125 -0.15625 1.78125 -0.15625 C 1.796875 -0.15625 1.796875 -0.15625 1.796875 -0.015625 C 1.796875 0.734375 1.453125 1.328125 1.125 1.65625 C 1.015625 1.765625 1.015625 1.78125 1.015625 1.8125 C 1.015625 1.890625 1.0625 1.921875 1.109375 1.921875 C 1.21875 1.921875 2.03125 1.15625 2.03125 -0.015625 Z M 2.03125 -0.015625 "
           id="path7560" />
      </symbol>
      <symbol
         overflow="visible"
         id="symbol6470">
        <path
           style="stroke:none;"
           d=""
           id="path7532" />
      </symbol>
      <symbol
         overflow="visible"
         id="symbol3442">
        <path
           style="stroke:none;"
           d="M 3.296875 2.390625 C 3.296875 2.359375 3.296875 2.34375 3.125 2.171875 C 1.890625 0.921875 1.5625 -0.96875 1.5625 -2.5 C 1.5625 -4.234375 1.9375 -5.96875 3.171875 -7.203125 C 3.296875 -7.328125 3.296875 -7.34375 3.296875 -7.375 C 3.296875 -7.453125 3.265625 -7.484375 3.203125 -7.484375 C 3.09375 -7.484375 2.203125 -6.796875 1.609375 -5.53125 C 1.109375 -4.4375 0.984375 -3.328125 0.984375 -2.5 C 0.984375 -1.71875 1.09375 -0.515625 1.640625 0.625 C 2.25 1.84375 3.09375 2.5 3.203125 2.5 C 3.265625 2.5 3.296875 2.46875 3.296875 2.390625 Z M 3.296875 2.390625 "
           id="path4440" />
      </symbol>
      <symbol
         overflow="visible"
         id="symbol4344">
        <path
           style="stroke:none;"
           d="M 2.875 -2.5 C 2.875 -3.265625 2.765625 -4.46875 2.21875 -5.609375 C 1.625 -6.828125 0.765625 -7.484375 0.671875 -7.484375 C 0.609375 -7.484375 0.5625 -7.4375 0.5625 -7.375 C 0.5625 -7.34375 0.5625 -7.328125 0.75 -7.140625 C 1.734375 -6.15625 2.296875 -4.578125 2.296875 -2.5 C 2.296875 -0.78125 1.9375 0.96875 0.703125 2.21875 C 0.5625 2.34375 0.5625 2.359375 0.5625 2.390625 C 0.5625 2.453125 0.609375 2.5 0.671875 2.5 C 0.765625 2.5 1.671875 1.8125 2.25 0.546875 C 2.765625 -0.546875 2.875 -1.65625 2.875 -2.5 Z M 2.875 -2.5 "
           id="path2602" />
      </symbol>
      <symbol
         overflow="visible"
         id="symbol6965">
        <path
           style="stroke:none;"
           d=""
           id="path1308" />
      </symbol>
      <symbol
         overflow="visible"
         id="symbol6454">
        <path
           style="stroke:none;"
           d="M 3.453125 -2.453125 L 4.609375 -3.75 C 4.75 -3.890625 4.8125 -3.953125 5.625 -3.953125 L 5.625 -4.421875 C 5.28125 -4.40625 4.765625 -4.390625 4.71875 -4.390625 C 4.46875 -4.390625 3.96875 -4.421875 3.6875 -4.421875 L 3.6875 -3.953125 C 3.828125 -3.953125 3.953125 -3.9375 4.0625 -3.875 C 4.03125 -3.8125 4.03125 -3.78125 3.984375 -3.75 L 3.15625 -2.8125 L 2.171875 -3.953125 L 2.578125 -3.953125 L 2.578125 -4.421875 C 2.3125 -4.421875 1.6875 -4.390625 1.359375 -4.390625 C 1.046875 -4.390625 0.59375 -4.421875 0.265625 -4.421875 L 0.265625 -3.953125 L 0.984375 -3.953125 L 2.53125 -2.125 L 1.21875 -0.65625 C 1.0625 -0.46875 0.703125 -0.46875 0.21875 -0.46875 L 0.21875 0 C 0.5625 -0.015625 1.09375 -0.03125 1.140625 -0.03125 C 1.390625 -0.03125 1.96875 -0.015625 2.15625 0 L 2.15625 -0.46875 C 1.984375 -0.46875 1.796875 -0.515625 1.796875 -0.578125 C 1.796875 -0.59375 1.796875 -0.59375 1.859375 -0.671875 L 2.828125 -1.765625 L 3.921875 -0.46875 L 3.53125 -0.46875 L 3.53125 0 C 3.796875 -0.015625 4.40625 -0.03125 4.734375 -0.03125 C 5.046875 -0.03125 5.5 -0.015625 5.828125 0 L 5.828125 -0.46875 L 5.125 -0.46875 Z M 3.453125 -2.453125 "
           id="path9995" />
      </symbol>
      <symbol
         overflow="visible"
         id="symbol1835">
        <path
           style="stroke:none;"
           d="M 5.046875 -3.75 C 5.109375 -3.890625 5.140625 -3.953125 5.78125 -3.953125 L 5.78125 -4.421875 C 5.546875 -4.40625 5.25 -4.390625 5 -4.390625 C 4.75 -4.390625 4.296875 -4.421875 4.09375 -4.421875 L 4.09375 -3.953125 C 4.109375 -3.953125 4.5625 -3.953125 4.5625 -3.84375 C 4.5625 -3.828125 4.515625 -3.734375 4.5 -3.71875 L 3.359375 -1.265625 L 2.09375 -3.953125 L 2.625 -3.953125 L 2.625 -4.421875 C 2.296875 -4.40625 1.40625 -4.390625 1.390625 -4.390625 C 1.109375 -4.390625 0.671875 -4.421875 0.265625 -4.421875 L 0.265625 -3.953125 L 0.890625 -3.953125 L 2.765625 0 L 2.53125 0.484375 C 2.3125 0.953125 2 1.640625 1.28125 1.640625 C 1.140625 1.640625 1.125 1.625 1.046875 1.59375 C 1.140625 1.5625 1.359375 1.421875 1.359375 1.0625 C 1.359375 0.734375 1.125 0.5 0.78125 0.5 C 0.515625 0.5 0.21875 0.6875 0.21875 1.078125 C 0.21875 1.578125 0.6875 2 1.28125 2 C 2.046875 2 2.625 1.375 2.90625 0.8125 Z M 5.046875 -3.75 "
           id="path366" />
      </symbol>
    </g>
    <g
       id="g7993">
      <symbol
         overflow="visible"
         id="symbol8949">
        <path
           style="stroke:none;"
           d=""
           id="path2258" />
      </symbol>
      <symbol
         overflow="visible"
         id="symbol4114">
        <path
           style="stroke:none;"
           d="M 2.9375 -6.375 C 2.9375 -6.625 2.9375 -6.640625 2.703125 -6.640625 C 2.078125 -6 1.203125 -6 0.890625 -6 L 0.890625 -5.6875 C 1.09375 -5.6875 1.671875 -5.6875 2.1875 -5.953125 L 2.1875 -0.78125 C 2.1875 -0.421875 2.15625 -0.3125 1.265625 -0.3125 L 0.953125 -0.3125 L 0.953125 0 C 1.296875 -0.03125 2.15625 -0.03125 2.5625 -0.03125 C 2.953125 -0.03125 3.828125 -0.03125 4.171875 0 L 4.171875 -0.3125 L 3.859375 -0.3125 C 2.953125 -0.3125 2.9375 -0.421875 2.9375 -0.78125 Z M 2.9375 -6.375 "
           id="path5434" />
      </symbol>
    </g>
    <g
       id="g5653">
      <symbol
         overflow="visible"
         id="symbol2768">
        <path
           style="stroke:none;"
           d=""
           id="path8931" />
      </symbol>
      <symbol
         overflow="visible"
         id="symbol2521">
        <path
           style="stroke:none;"
           d="M 1.265625 -0.765625 L 2.328125 -1.796875 C 3.875 -3.171875 4.46875 -3.703125 4.46875 -4.703125 C 4.46875 -5.84375 3.578125 -6.640625 2.359375 -6.640625 C 1.234375 -6.640625 0.5 -5.71875 0.5 -4.828125 C 0.5 -4.28125 1 -4.28125 1.03125 -4.28125 C 1.203125 -4.28125 1.546875 -4.390625 1.546875 -4.8125 C 1.546875 -5.0625 1.359375 -5.328125 1.015625 -5.328125 C 0.9375 -5.328125 0.921875 -5.328125 0.890625 -5.3125 C 1.109375 -5.96875 1.65625 -6.328125 2.234375 -6.328125 C 3.140625 -6.328125 3.5625 -5.515625 3.5625 -4.703125 C 3.5625 -3.90625 3.078125 -3.125 2.515625 -2.5 L 0.609375 -0.375 C 0.5 -0.265625 0.5 -0.234375 0.5 0 L 4.203125 0 L 4.46875 -1.734375 L 4.234375 -1.734375 C 4.171875 -1.4375 4.109375 -1 4 -0.84375 C 3.9375 -0.765625 3.28125 -0.765625 3.0625 -0.765625 Z M 1.265625 -0.765625 "
           id="path9824" />
      </symbol>
    </g>
    <g
       id="g5571">
      <symbol
         overflow="visible"
         id="symbol5736">
        <path
           style="stroke:none;"
           d=""
           id="path1456" />
      </symbol>
      <symbol
         overflow="visible"
         id="symbol9880">
        <path
           style="stroke:none;"
           d="M 6.5625 -2.296875 C 6.734375 -2.296875 6.921875 -2.296875 6.921875 -2.5 C 6.921875 -2.6875 6.734375 -2.6875 6.5625 -2.6875 L 1.171875 -2.6875 C 1 -2.6875 0.828125 -2.6875 0.828125 -2.5 C 0.828125 -2.296875 1 -2.296875 1.171875 -2.296875 Z M 6.5625 -2.296875 "
           id="path5699" />
      </symbol>
      <symbol
         overflow="visible"
         id="symbol7696">
        <path
           style="stroke:none;"
           d=""
           id="path1780" />
      </symbol>
      <symbol
         overflow="visible"
         id="symbol8623">
        <path
           style="stroke:none;"
           d="M 2.9375 -6.375 C 2.9375 -6.625 2.9375 -6.640625 2.703125 -6.640625 C 2.078125 -6 1.203125 -6 0.890625 -6 L 0.890625 -5.6875 C 1.09375 -5.6875 1.671875 -5.6875 2.1875 -5.953125 L 2.1875 -0.78125 C 2.1875 -0.421875 2.15625 -0.3125 1.265625 -0.3125 L 0.953125 -0.3125 L 0.953125 0 C 1.296875 -0.03125 2.15625 -0.03125 2.5625 -0.03125 C 2.953125 -0.03125 3.828125 -0.03125 4.171875 0 L 4.171875 -0.3125 L 3.859375 -0.3125 C 2.953125 -0.3125 2.9375 -0.421875 2.9375 -0.78125 Z M 2.9375 -6.375 "
           id="path6929" />
      </symbol>
    </g>
    <g
       id="g6623">
      <symbol
         overflow="visible"
         id="symbol4941">
        <path
           style="stroke:none;"
           d=""
           id="path1017" />
      </symbol>
      <symbol
         overflow="visible"
         id="symbol4321">
        <path
           style="stroke:none;"
           d="M 7.1875 -3.375 C 7.1875 -5.40625 5.6875 -7.03125 3.875 -7.03125 C 2.078125 -7.03125 0.5625 -5.4375 0.5625 -3.375 C 0.5625 -1.328125 2.09375 0.21875 3.875 0.21875 C 5.6875 0.21875 7.1875 -1.359375 7.1875 -3.375 Z M 3.875 -0.015625 C 2.890625 -0.015625 1.53125 -0.875 1.53125 -3.375 C 1.53125 -5.9375 2.90625 -6.8125 3.875 -6.8125 C 4.875 -6.8125 6.21875 -5.90625 6.21875 -3.375 C 6.21875 -0.84375 4.8125 -0.015625 3.875 -0.015625 Z M 5.65625 -4.125 L 5.40625 -4.125 L 5.40625 -3.78125 L 2.34375 -3.78125 L 2.34375 -4.125 L 2.09375 -4.125 L 2.09375 -2.6875 L 2.34375 -2.6875 L 2.34375 -3.03125 L 5.40625 -3.03125 L 5.40625 -2.6875 L 5.65625 -2.6875 Z M 5.65625 -4.125 "
           id="path3458" />
      </symbol>
    </g>
    <g
       id="g7416">
      <symbol
         overflow="visible"
         id="symbol9411">
        <path
           style="stroke:none;"
           d=""
           id="path4569" />
      </symbol>
      <symbol
         overflow="visible"
         id="symbol430">
        <path
           style="stroke:none;"
           d="M 4.578125 -3.1875 C 4.578125 -3.984375 4.53125 -4.78125 4.1875 -5.515625 C 3.734375 -6.484375 2.90625 -6.640625 2.5 -6.640625 C 1.890625 -6.640625 1.171875 -6.375 0.75 -5.453125 C 0.4375 -4.765625 0.390625 -3.984375 0.390625 -3.1875 C 0.390625 -2.4375 0.421875 -1.546875 0.84375 -0.78125 C 1.265625 0.015625 2 0.21875 2.484375 0.21875 C 3.015625 0.21875 3.78125 0.015625 4.21875 -0.9375 C 4.53125 -1.625 4.578125 -2.40625 4.578125 -3.1875 Z M 2.484375 0 C 2.09375 0 1.5 -0.25 1.328125 -1.203125 C 1.21875 -1.796875 1.21875 -2.71875 1.21875 -3.3125 C 1.21875 -3.953125 1.21875 -4.609375 1.296875 -5.140625 C 1.484375 -6.328125 2.234375 -6.421875 2.484375 -6.421875 C 2.8125 -6.421875 3.46875 -6.234375 3.65625 -5.25 C 3.765625 -4.6875 3.765625 -3.9375 3.765625 -3.3125 C 3.765625 -2.5625 3.765625 -1.890625 3.65625 -1.25 C 3.5 -0.296875 2.9375 0 2.484375 0 Z M 2.484375 0 "
           id="path4627" />
      </symbol>
    </g>
  </defs>
  <sodipodi:namedview
     id="base"
     pagecolor="#ffffff"
     bordercolor="#666666"
     borderopacity="1.0"
     inkscape:pageopacity="0.0"
     inkscape:pageshadow="2"
     inkscape:zoom="0.5"
     inkscape:cx="-2"
     inkscape:cy="451"
     inkscape:document-units="cm"
     inkscape:current-layer="layer4"
     inkscape:document-rotation="0"
     showgrid="true"
     units="mm"
     inkscape:snap-intersection-paths="true"
     showguides="false"
     inkscape:window-width="1858"
     inkscape:window-height="1136"
     inkscape:window-x="62"
     inkscape:window-y="27"
     inkscape:window-maximized="1"
     inkscape:pagecheckerboard="0" />
  <metadata
     id="metadata5">
    <rdf:RDF>
      <cc:Work
         rdf:about="">
        <dc:format>image/svg+xml</dc:format>
        <dc:type
           rdf:resource="http://purl.org/dc/dcmitype/StillImage" />
      </cc:Work>
    </rdf:RDF>
  </metadata>
  <g
     inkscape:groupmode="layer"
     id="layer2"
     inkscape:label="Hilfslinien"
     style="display:inline">
    <rect
       style="display:inline;fill:#000000;stroke:#000009;stroke-width:0.26;stroke-opacity:1"
       id="rect43549"
       width="9.7399998"
       height="2.24"
       x="159.99998"
       y="169.99998" />
    <rect
       style="display:inline;fill:#000000;stroke:#000009;stroke-width:0.26;stroke-opacity:1"
       id="rect43677"
       width="9.7399998"
       height="2.24"
       x="169.99998"
       y="-162.23999"
       transform="rotate(90)" />
    <rect
       style="display:inline;fill:#000000;stroke:#000009;stroke-width:0.26;stroke-opacity:1"
       id="rect43680"
       width="9.7399998"
       height="2.24"
       x="0.25997725"
       y="169.99998" />
    <rect
       style="display:inline;fill:#000000;stroke:#000009;stroke-width:0.26;stroke-opacity:1"
       id="rect43682"
       width="9.7399998"
       height="2.24"
       x="169.99998"
       y="-9.9999828"
       transform="rotate(90)" />
    <rect
       style="display:inline;fill:#000000;stroke:#000009;stroke-width:0.26;stroke-opacity:1"
       id="rect43684"
       width="9.7399998"
       height="2.24"
       x="75.259987"
       y="92.759987" />
    <rect
       style="display:inline;fill:#000000;stroke:#000009;stroke-width:0.26;stroke-opacity:1"
       id="rect43686"
       width="9.7399998"
       height="2.24"
       x="85.259979"
       y="-84.999985"
       transform="rotate(90)" />
    <rect
       style="display:inline;fill:#000000;stroke:#000009;stroke-width:0.26;stroke-opacity:1"
       id="rect43688"
       width="9.7399998"
       height="2.24"
       x="75.259979"
       y="244.99998" />
    <rect
       style="display:inline;fill:#000000;stroke:#000009;stroke-width:0.26;stroke-opacity:1"
       id="rect43690"
       width="9.7399998"
       height="2.24"
       x="244.99998"
       y="-84.999985"
       transform="rotate(90)" />
    <rect
       style="display:inline;fill:#000000;stroke:#000009;stroke-width:0.26;stroke-opacity:1"
       id="rect43692"
       width="9.7399998"
       height="2.24"
       x="85"
       y="170" />
    <rect
       style="display:inline;fill:#000000;stroke:#000009;stroke-width:0.26;stroke-opacity:1"
       id="rect43694"
       width="9.7399998"
       height="2.24"
       x="170"
       y="-87.240005"
       transform="rotate(90)" />
    <rect
       style="display:inline;fill:#000000;stroke:#000009;stroke-width:0.26;stroke-opacity:1"
       id="rect43696"
       width="9.7399998"
       height="2.24"
       x="75.260002"
       y="167.75999" />
    <rect
       style="display:inline;fill:#000000;stroke:#000009;stroke-width:0.26;stroke-opacity:1"
       id="rect43698"
       width="9.7399998"
       height="2.24"
       x="160.25999"
       y="-85"
       transform="rotate(90)" />
  </g>
  <g
     inkscape:label="All"
     inkscape:groupmode="layer"
     id="layer1"
     style="display:inline">
    <path
       style="display:inline;fill:none;stroke:#000000;stroke-width:0.396875;stroke-linecap:butt;stroke-linejoin:miter;stroke-miterlimit:4;stroke-dasharray:none;stroke-opacity:1;marker-start:url(#marker1884)"
       d="M 161.98408,93.015924 85,170"
       id="path907"
       sodipodi:nodetypes="cc" />
    <path
       style="display:inline;fill:none;stroke:#000000;stroke-width:0.396875;stroke-linecap:butt;stroke-linejoin:miter;stroke-miterlimit:4;stroke-dasharray:none;stroke-dashoffset:3.96875;stroke-opacity:1;marker-start:url(#marker1874)"
       d="M 127.75252,52.53842 85,170"
       sodipodi:nodetypes="cc"
       id="path4788" />
    <g
       inkscape:label=""
       transform="translate(103.634,179.475)"
       id="g1670" />
    <text
       xml:space="preserve"
       id="text2323"
       style="font-style:normal;font-weight:normal;font-size:10.5833px;line-height:1.25;font-family:sans-serif;letter-spacing:0px;word-spacing:0px;white-space:pre;shape-inside:url(#rect2325);fill:#000000;fill-opacity:1;stroke:none" />
    <text
       xml:space="preserve"
       id="text2331"
       style="font-style:normal;font-weight:normal;font-size:10.5833px;line-height:1.25;font-family:sans-serif;letter-spacing:0px;word-spacing:0px;white-space:pre;shape-inside:url(#rect2333);fill:#000000;fill-opacity:1;stroke:none" />
    <path
       style="fill:none;stroke:#000000;stroke-width:0.396875;stroke-linecap:butt;stroke-linejoin:miter;stroke-miterlimit:4;stroke-dasharray:none;stroke-dashoffset:3.96875;stroke-opacity:1;marker-start:url(#marker1319)"
       d="M 210,170 H 85"
       id="path1315"
       sodipodi:nodetypes="cc" />
    <path
       style="fill:none;stroke:#000000;stroke-width:0.396875;stroke-linecap:butt;stroke-linejoin:miter;stroke-miterlimit:4;stroke-dasharray:none;stroke-dashoffset:3.96875;stroke-opacity:1;marker-start:url(#marker1471)"
       d="M 85,45 V 170"
       id="path1467"
       sodipodi:nodetypes="cc" />
    <circle
       style="fill:#0000ff;fill-opacity:1;stroke:none;stroke-width:0.26;stroke-miterlimit:4;stroke-dasharray:none;stroke-dashoffset:9.82677;stroke-opacity:1"
       id="path1783"
       cx="127.75252"
       cy="52.538418"
       r="1" />
    <circle
       style="fill:#0000ff;fill-opacity:1;stroke:none;stroke-width:0.26;stroke-miterlimit:4;stroke-dasharray:none;stroke-dashoffset:9.82677;stroke-opacity:1"
       id="circle1827"
       cx="161.98409"
       cy="93.015923"
       r="1" />
    <g
       inkscape:label=""
       transform="translate(29.322985,-32.349694)"
       id="g15283"
       style="display:inline;fill:#0000ff">
      <g
         id="g7110"
         style="fill:#0000ff">
        <g
           style="fill:#0000ff;fill-opacity:1"
           id="g8288">
          <use
             xlink:href="#symbol6725"
             x="91.925003"
             y="81.962997"
             id="use5785"
             width="100%"
             height="100%"
             style="fill:#0000ff" />
        </g>
      </g>
    </g>
    <g
       inkscape:label=""
       transform="translate(104.7497,91.320382)"
       id="g23384"
       style="display:inline;fill:#0000ff">
      <g
         id="g7794"
         transform="translate(-32.015286,-80.614308)"
         style="fill:#0000ff">
        <g
           style="fill:#0000ff;fill-opacity:1"
           id="g2449">
          <use
             xlink:href="#symbol7978"
             x="91.925003"
             y="81.962997"
             id="use7145"
             width="100%"
             height="100%"
             style="fill:#0000ff" />
        </g>
      </g>
    </g>
  </g>
  <g
     inkscape:groupmode="layer"
     id="layer3"
     inkscape:label="L2"
     style="display:inline">
    <circle
       style="display:inline;fill:none;stroke:#000000;stroke-width:0.396875;stroke-miterlimit:4;stroke-dasharray:2.38125, 0.79375;stroke-dashoffset:3.96875;stroke-opacity:1"
       id="path835"
       cx="-126.10291"
       cy="-142.20776"
       r="75"
       transform="rotate(-165)" />
    <path
       style="display:inline;fill:none;stroke:#ff0000;stroke-width:0.396875;stroke-linecap:butt;stroke-linejoin:miter;stroke-miterlimit:4;stroke-dasharray:none;stroke-dashoffset:3.96875;stroke-opacity:1"
       d="m 110.65151,99.523053 27.3797,17.442137"
       id="path869" />
    <path
       style="display:inline;fill:none;stroke:#000000;stroke-width:0.396875;stroke-linecap:butt;stroke-linejoin:miter;stroke-miterlimit:4;stroke-dasharray:none;stroke-opacity:1;marker-start:url(#marker3112)"
       d="M 85,295 V 170"
       id="path3108"
       sodipodi:nodetypes="cc" />
    <path
       style="display:inline;fill:none;stroke:#000000;stroke-width:0.396875;stroke-linecap:butt;stroke-linejoin:miter;stroke-miterlimit:4;stroke-dasharray:none;stroke-opacity:1;marker-start:url(#marker3274)"
       d="M -39.999998,170 H 85"
       id="path3270"
       sodipodi:nodetypes="cc" />
    <path
       style="display:inline;fill:none;stroke:#000000;stroke-width:0.396875;stroke-linecap:butt;stroke-linejoin:miter;stroke-miterlimit:4;stroke-dasharray:none;stroke-dashoffset:3.96875;stroke-opacity:1;marker-start:url(#marker1924)"
       d="M 29.871066,220.85077 85,170"
       id="path3516"
       sodipodi:nodetypes="cc" />
    <path
       style="display:inline;fill:none;stroke:#000000;stroke-width:0.396875;stroke-linecap:butt;stroke-linejoin:miter;stroke-miterlimit:4;stroke-dasharray:none;stroke-dashoffset:3.96875;stroke-opacity:1;marker-start:url(#marker1914)"
       d="M 103.40626,242.70631 85,170"
       id="path3518"
       sodipodi:nodetypes="cc" />
    <path
       style="display:inline;fill:none;stroke:#ff0000;stroke-width:0.396875;stroke-linecap:butt;stroke-linejoin:miter;stroke-miterlimit:4;stroke-dasharray:none;stroke-opacity:1"
       d="M 103.41281,242.70465 29.870493,220.85015"
       id="path3535"
       sodipodi:nodetypes="cc" />
    <circle
       style="display:inline;fill:#ff0000;fill-opacity:1;stroke:none;stroke-width:0.26;stroke-miterlimit:4;stroke-dasharray:none;stroke-dashoffset:9.82677;stroke-opacity:1"
       id="circle3553"
       cx="-103.4128"
       cy="-242.70465"
       r="1"
       transform="scale(-0.99999999)" />
    <circle
       style="display:inline;fill:#ff0000;fill-opacity:1;stroke:none;stroke-width:0.26;stroke-miterlimit:4;stroke-dasharray:none;stroke-dashoffset:9.82677;stroke-opacity:1"
       id="circle3555"
       cx="-29.871067"
       cy="-220.85077"
       r="1"
       transform="scale(-0.99999999)" />
    <g
       inkscape:label=""
       transform="translate(52.766166,39.05304)"
       id="g28430"
       style="fill:#ff0000">
      <g
         id="g9325"
         style="fill:#ff0000">
        <g
           style="fill:#ff0000;fill-opacity:1"
           id="g9851">
          <use
             xlink:href="#symbol6086"
             x="92.164001"
             y="81.962997"
             id="use2354"
             width="100%"
             height="100%"
             style="fill:#ff0000" />
        </g>
        <g
           style="fill:#ff0000;fill-opacity:1"
           id="g2440">
          <use
             xlink:href="#symbol3367"
             x="91.924896"
             y="81.962997"
             id="use4672"
             width="100%"
             height="100%"
             style="fill:#ff0000" />
        </g>
      </g>
    </g>
    <g
       inkscape:label=""
       transform="translate(12.249979,13.800408)"
       id="g28908"
       style="fill:#ff0000">
      <g
         id="g6432"
         style="fill:#ff0000">
        <g
           style="fill:#ff0000;fill-opacity:1"
           id="g2751">
          <use
             xlink:href="#symbol9731"
             x="92.084"
             y="81.962997"
             id="use3680"
             width="100%"
             height="100%"
             style="fill:#ff0000" />
        </g>
        <g
           style="fill:#ff0000;fill-opacity:1"
           id="g2208">
          <use
             xlink:href="#symbol3800"
             x="91.924599"
             y="81.962997"
             id="use5117"
             width="100%"
             height="100%"
             style="fill:#ff0000" />
        </g>
      </g>
    </g>
    <g
       inkscape:label=""
       transform="translate(26.789797,17.431094)"
       id="g30435"
       style="fill:#ff0000">
      <g
         id="g9041"
         style="fill:#ff0000">
        <g
           style="fill:#ff0000;fill-opacity:1"
           id="g3051">
          <use
             xlink:href="#symbol7869"
             x="91.925003"
             y="81.962997"
             id="use570"
             width="100%"
             height="100%"
             style="fill:#ff0000" />
        </g>
        <g
           style="fill:#ff0000;fill-opacity:1"
           id="g184">
          <use
             xlink:href="#symbol5903"
             x="97.111"
             y="81.962997"
             id="use8002"
             width="100%"
             height="100%"
             style="fill:#ff0000" />
        </g>
        <g
           style="fill:#ff0000;fill-opacity:1"
           id="g5767">
          <use
             xlink:href="#symbol8884"
             x="101.144"
             y="81.962997"
             id="use9247"
             width="100%"
             height="100%"
             style="fill:#ff0000" />
        </g>
        <g
           style="fill:#ff0000;fill-opacity:1"
           id="g9785">
          <use
             xlink:href="#symbol4615"
             x="100.9846"
             y="81.962997"
             id="use1362"
             width="100%"
             height="100%"
             style="fill:#ff0000" />
        </g>
        <g
           style="fill:#ff0000;fill-opacity:1"
           id="g7553">
          <use
             xlink:href="#symbol6510"
             x="107.032"
             y="81.962997"
             id="use4428"
             width="100%"
             height="100%"
             style="fill:#ff0000" />
        </g>
        <g
           style="fill:#ff0000;fill-opacity:1"
           id="g3592">
          <use
             xlink:href="#symbol8884"
             x="111.698"
             y="81.962997"
             id="use6338"
             width="100%"
             height="100%"
             style="fill:#ff0000" />
        </g>
        <g
           style="fill:#ff0000;fill-opacity:1"
           id="g1173">
          <use
             xlink:href="#symbol3664"
             x="111.4589"
             y="81.962997"
             id="use347"
             width="100%"
             height="100%"
             style="fill:#ff0000" />
        </g>
        <g
           style="fill:#ff0000;fill-opacity:1"
           id="g523">
          <use
             xlink:href="#symbol3971"
             x="117.665"
             y="81.962997"
             id="use1928"
             width="100%"
             height="100%"
             style="fill:#ff0000" />
        </g>
      </g>
    </g>
    <g
       inkscape:label=""
       transform="translate(69.554362,97.047612)"
       id="g32087">
      <g
         id="g8479">
        <g
           style="fill:#000000;fill-opacity:1"
           id="g6209">
          <use
             xlink:href="#symbol4114"
             x="91.925003"
             y="81.962997"
             id="use1936"
             width="100%"
             height="100%" />
        </g>
      </g>
    </g>
    <g
       inkscape:label=""
       transform="translate(-96.215896,97.047612)"
       id="g33327">
      <g
         id="g6107">
        <g
           style="fill:#000000;fill-opacity:1"
           id="g9338">
          <use
             xlink:href="#symbol9880"
             x="91.925003"
             y="81.962997"
             id="use617"
             width="100%"
             height="100%" />
        </g>
        <g
           style="fill:#000000;fill-opacity:1"
           id="g8131">
          <use
             xlink:href="#symbol8623"
             x="99.674004"
             y="81.962997"
             id="use8376"
             width="100%"
             height="100%" />
        </g>
      </g>
    </g>
    <g
       inkscape:label=""
       transform="translate(-13.466893,10.666989)"
       id="g34130">
      <g
         id="g34128">
        <g
           style="fill:#000000;fill-opacity:1"
           id="g34126">
          <use
             xlink:href="#symbol4114"
             x="91.925003"
             y="81.962997"
             id="use34124"
             width="100%"
             height="100%" />
        </g>
      </g>
    </g>
    <g
       inkscape:label=""
       transform="translate(-21.215894,172.04761)"
       id="g34142">
      <g
         id="g34140">
        <g
           style="fill:#000000;fill-opacity:1"
           id="g34134">
          <use
             xlink:href="#symbol9880"
             x="91.925003"
             y="81.962997"
             id="use34132"
             width="100%"
             height="100%" />
        </g>
        <g
           style="fill:#000000;fill-opacity:1"
           id="g34138">
          <use
             xlink:href="#symbol8623"
             x="99.674004"
             y="81.962997"
             id="use34136"
             width="100%"
             height="100%" />
        </g>
      </g>
    </g>
    <g
       inkscape:label=""
       transform="translate(-13.873128,85.448247)"
       id="g44315">
      <g
         id="g6767">
        <g
           style="fill:#000000;fill-opacity:1"
           id="g3414">
          <use
             xlink:href="#symbol430"
             x="91.925003"
             y="81.962997"
             id="use8000"
             width="100%"
             height="100%" />
        </g>
      </g>
    </g>
    <g
       inkscape:label=""
       transform="translate(-4.9456226,97.047628)"
       id="g44369">
      <g
         id="g44367">
        <g
           style="fill:#000000;fill-opacity:1"
           id="g44365">
          <use
             xlink:href="#symbol430"
             x="91.925003"
             y="81.962997"
             id="use44363"
             width="100%"
             height="100%" />
        </g>
      </g>
    </g>
    <path
       style="display:inline;fill:none;stroke:#000000;stroke-width:0.396875;stroke-linecap:butt;stroke-linejoin:miter;stroke-miterlimit:4;stroke-dasharray:none;stroke-dashoffset:3.96875;stroke-opacity:1;marker-start:url(#marker1904)"
       d="M 110.67498,99.531593 85,170"
       id="path44968"
       sodipodi:nodetypes="cc" />
    <path
       style="display:inline;fill:none;stroke:#000000;stroke-width:0.396875;stroke-linecap:butt;stroke-linejoin:miter;stroke-miterlimit:4;stroke-dasharray:none;stroke-opacity:1;marker-start:url(#marker1894)"
       d="M 138.03212,116.96788 85,170"
       id="path44970"
       sodipodi:nodetypes="cc" />
    <circle
       style="display:inline;fill:#ff0000;fill-opacity:1;stroke:none;stroke-width:0.26;stroke-miterlimit:4;stroke-dasharray:none;stroke-dashoffset:9.82677;stroke-opacity:1"
       id="circle1951"
       cx="138.03201"
       cy="116.96798"
       r="1" />
    <circle
       style="display:inline;fill:#ff0000;fill-opacity:1;stroke:none;stroke-width:0.26;stroke-miterlimit:4;stroke-dasharray:none;stroke-dashoffset:9.82677;stroke-opacity:1"
       id="circle1949"
       cx="110.65151"
       cy="99.523056"
       r="1" />
  </g>
  <g
     inkscape:groupmode="layer"
     id="layer4"
     inkscape:label="Euclid"
     style="display:inline">
    <path
       style="display:inline;fill:#000080;stroke:#0000ff;stroke-width:0.396875;stroke-linecap:butt;stroke-linejoin:miter;stroke-miterlimit:4;stroke-dasharray:none;stroke-dashoffset:3.96875;stroke-opacity:1"
       d="m 127.75252,52.53842 34.23156,40.477504"
       id="path1293"
       sodipodi:nodetypes="cc" />
  </g>
  <g
     inkscape:groupmode="layer"
     id="layer5"
     inkscape:label="Cosine"
     style="display:inline" />
  <g
     inkscape:groupmode="layer"
     id="layer7"
     inkscape:label="L2_Cosine"
     style="display:inline">
    <g
       inkscape:label=""
       transform="translate(-0.42764001,74.999805)"
       id="g33989"
       style="display:inline;fill:#0000ff">
      <g
         id="g2869"
         style="fill:#0000ff">
        <g
           style="fill:#0000ff;fill-opacity:1"
           id="g394">
          <use
             xlink:href="#symbol4321"
             x="91.925003"
             y="81.962997"
             id="use2870"
             width="100%"
             height="100%"
             style="fill:#0000ff" />
        </g>
      </g>
    </g>
    <path
       style="display:inline;fill:none;stroke:#0000ff;stroke-width:0.396875;stroke-miterlimit:4;stroke-dasharray:none;stroke-dashoffset:3.96875;stroke-opacity:1"
       id="path859"
       sodipodi:type="arc"
       sodipodi:cx="85"
       sodipodi:cy="170"
       sodipodi:rx="25"
       sodipodi:ry="25"
       sodipodi:start="5.0614548"
       sodipodi:end="5.4977871"
       sodipodi:arc-type="slice"
       d="m 93.550503,146.50768 a 25,25 0 0 1 9.127167,5.81465 L 85,170 Z" />
  </g>
  <g
     inkscape:groupmode="layer"
     id="layer8"
     inkscape:label="L2_Euclid"
     style="display:inline">
    <g
       inkscape:label=""
       transform="translate(51.607826,-15.30789)"
       id="g31027"
       style="display:inline;fill:#0000ff">
      <g
         id="g9021"
         style="fill:#0000ff">
        <g
           style="fill:#0000ff;fill-opacity:1"
           id="g7072">
          <use
             xlink:href="#symbol9120"
             x="91.925003"
             y="81.962997"
             id="use5648"
             width="100%"
             height="100%"
             style="fill:#0000ff" />
        </g>
        <g
           style="fill:#0000ff;fill-opacity:1"
           id="g4899">
          <use
             xlink:href="#symbol3442"
             x="97.111"
             y="81.962997"
             id="use9118"
             width="100%"
             height="100%"
             style="fill:#0000ff" />
        </g>
        <g
           style="fill:#0000ff;fill-opacity:1"
           id="g4860">
          <use
             xlink:href="#symbol6454"
             x="100.985"
             y="81.962997"
             id="use205"
             width="100%"
             height="100%"
             style="fill:#0000ff" />
        </g>
        <g
           style="fill:#0000ff;fill-opacity:1"
           id="g950">
          <use
             xlink:href="#symbol7472"
             x="107.032"
             y="81.962997"
             id="use7662"
             width="100%"
             height="100%"
             style="fill:#0000ff" />
        </g>
        <g
           style="fill:#0000ff;fill-opacity:1"
           id="g8719">
          <use
             xlink:href="#symbol1835"
             x="111.46"
             y="81.962997"
             id="use9941"
             width="100%"
             height="100%"
             style="fill:#0000ff" />
        </g>
        <g
           style="fill:#0000ff;fill-opacity:1"
           id="g8218">
          <use
             xlink:href="#symbol4344"
             x="117.665"
             y="81.962997"
             id="use8738"
             width="100%"
             height="100%"
             style="fill:#0000ff" />
        </g>
      </g>
    </g>
  </g>
  <g
     inkscape:groupmode="layer"
     id="layer6"
     inkscape:label="Cosine_Euclid"
     style="display:inline" />
</svg>
