<?xml version="1.0" encoding="utf-8" standalone="no"?>
<!DOCTYPE svg PUBLIC "-//W3C//DTD SVG 1.1//EN"
  "http://www.w3.org/Graphics/SVG/1.1/DTD/svg11.dtd">
<!-- Created with matplotlib (https://matplotlib.org/) -->
<svg height="576pt" version="1.1" viewBox="0 0 1160.8 576" width="1160.8pt" xmlns="http://www.w3.org/2000/svg" xmlns:xlink="http://www.w3.org/1999/xlink">
 <metadata>
  <rdf:RDF xmlns:cc="http://creativecommons.org/ns#" xmlns:dc="http://purl.org/dc/elements/1.1/" xmlns:rdf="http://www.w3.org/1999/02/22-rdf-syntax-ns#">
   <cc:Work>
    <dc:type rdf:resource="http://purl.org/dc/dcmitype/StillImage"/>
    <dc:date>2021-02-04T15:01:44.467756</dc:date>
    <dc:format>image/svg+xml</dc:format>
    <dc:creator>
     <cc:Agent>
      <dc:title>Matplotlib v3.3.4, https://matplotlib.org/</dc:title>
     </cc:Agent>
    </dc:creator>
   </cc:Work>
  </rdf:RDF>
 </metadata>
 <defs>
  <style type="text/css">*{stroke-linecap:butt;stroke-linejoin:round;}</style>
 </defs>
 <g id="figure_1">
  <g id="patch_1">
   <path d="M 0 576 
L 1160.8 576 
L 1160.8 0 
L 0 0 
z
" style="fill:#ffffff;"/>
  </g>
  <g id="axes_1">
   <g id="patch_2">
    <path d="M 57.269156 278.423448 
L 316.975925 278.423448 
L 316.975925 57.6 
L 57.269156 57.6 
z
" style="fill:#eaeaf2;"/>
   </g>
   <g id="matplotlib.axis_1">
    <g id="xtick_1">
     <g id="line2d_1">
      <path clip-path="url(#p69e3289e7e)" d="M 69.074009 278.423448 
L 69.074009 57.6 
" style="fill:none;stroke:#ffffff;stroke-linecap:round;"/>
     </g>
    </g>
    <g id="xtick_2">
     <g id="line2d_2">
      <path clip-path="url(#p69e3289e7e)" d="M 129.611718 278.423448 
L 129.611718 57.6 
" style="fill:none;stroke:#ffffff;stroke-linecap:round;"/>
     </g>
    </g>
    <g id="xtick_3">
     <g id="line2d_3">
      <path clip-path="url(#p69e3289e7e)" d="M 190.149426 278.423448 
L 190.149426 57.6 
" style="fill:none;stroke:#ffffff;stroke-linecap:round;"/>
     </g>
    </g>
    <g id="xtick_4">
     <g id="line2d_4">
      <path clip-path="url(#p69e3289e7e)" d="M 250.687135 278.423448 
L 250.687135 57.6 
" style="fill:none;stroke:#ffffff;stroke-linecap:round;"/>
     </g>
    </g>
    <g id="xtick_5">
     <g id="line2d_5">
      <path clip-path="url(#p69e3289e7e)" d="M 311.224843 278.423448 
L 311.224843 57.6 
" style="fill:none;stroke:#ffffff;stroke-linecap:round;"/>
     </g>
    </g>
   </g>
   <g id="matplotlib.axis_2">
    <g id="ytick_1">
     <g id="line2d_6">
      <path clip-path="url(#p69e3289e7e)" d="M 57.269156 272.384672 
L 316.975925 272.384672 
" style="fill:none;stroke:#ffffff;stroke-linecap:round;"/>
     </g>
     <g id="text_1">
      <!-- 0.0 -->
      <g style="fill:#262626;" transform="translate(30.275719 276.563812)scale(0.11 -0.11)">
       <defs>
        <path d="M 31.78125 66.40625 
Q 24.171875 66.40625 20.328125 58.90625 
Q 16.5 51.421875 16.5 36.375 
Q 16.5 21.390625 20.328125 13.890625 
Q 24.171875 6.390625 31.78125 6.390625 
Q 39.453125 6.390625 43.28125 13.890625 
Q 47.125 21.390625 47.125 36.375 
Q 47.125 51.421875 43.28125 58.90625 
Q 39.453125 66.40625 31.78125 66.40625 
z
M 31.78125 74.21875 
Q 44.046875 74.21875 50.515625 64.515625 
Q 56.984375 54.828125 56.984375 36.375 
Q 56.984375 17.96875 50.515625 8.265625 
Q 44.046875 -1.421875 31.78125 -1.421875 
Q 19.53125 -1.421875 13.0625 8.265625 
Q 6.59375 17.96875 6.59375 36.375 
Q 6.59375 54.828125 13.0625 64.515625 
Q 19.53125 74.21875 31.78125 74.21875 
z
" id="DejaVuSans-48"/>
        <path d="M 10.6875 12.40625 
L 21 12.40625 
L 21 0 
L 10.6875 0 
z
" id="DejaVuSans-46"/>
       </defs>
       <use xlink:href="#DejaVuSans-48"/>
       <use x="63.623047" xlink:href="#DejaVuSans-46"/>
       <use x="95.410156" xlink:href="#DejaVuSans-48"/>
      </g>
     </g>
    </g>
    <g id="ytick_2">
     <g id="line2d_7">
      <path clip-path="url(#p69e3289e7e)" d="M 57.269156 225.791378 
L 316.975925 225.791378 
" style="fill:none;stroke:#ffffff;stroke-linecap:round;"/>
     </g>
     <g id="text_2">
      <!-- 0.2 -->
      <g style="fill:#262626;" transform="translate(30.275719 229.970519)scale(0.11 -0.11)">
       <defs>
        <path d="M 19.1875 8.296875 
L 53.609375 8.296875 
L 53.609375 0 
L 7.328125 0 
L 7.328125 8.296875 
Q 12.9375 14.109375 22.625 23.890625 
Q 32.328125 33.6875 34.8125 36.53125 
Q 39.546875 41.84375 41.421875 45.53125 
Q 43.3125 49.21875 43.3125 52.78125 
Q 43.3125 58.59375 39.234375 62.25 
Q 35.15625 65.921875 28.609375 65.921875 
Q 23.96875 65.921875 18.8125 64.3125 
Q 13.671875 62.703125 7.8125 59.421875 
L 7.8125 69.390625 
Q 13.765625 71.78125 18.9375 73 
Q 24.125 74.21875 28.421875 74.21875 
Q 39.75 74.21875 46.484375 68.546875 
Q 53.21875 62.890625 53.21875 53.421875 
Q 53.21875 48.921875 51.53125 44.890625 
Q 49.859375 40.875 45.40625 35.40625 
Q 44.1875 33.984375 37.640625 27.21875 
Q 31.109375 20.453125 19.1875 8.296875 
z
" id="DejaVuSans-50"/>
       </defs>
       <use xlink:href="#DejaVuSans-48"/>
       <use x="63.623047" xlink:href="#DejaVuSans-46"/>
       <use x="95.410156" xlink:href="#DejaVuSans-50"/>
      </g>
     </g>
    </g>
    <g id="ytick_3">
     <g id="line2d_8">
      <path clip-path="url(#p69e3289e7e)" d="M 57.269156 179.198084 
L 316.975925 179.198084 
" style="fill:none;stroke:#ffffff;stroke-linecap:round;"/>
     </g>
     <g id="text_3">
      <!-- 0.4 -->
      <g style="fill:#262626;" transform="translate(30.275719 183.377225)scale(0.11 -0.11)">
       <defs>
        <path d="M 37.796875 64.3125 
L 12.890625 25.390625 
L 37.796875 25.390625 
z
M 35.203125 72.90625 
L 47.609375 72.90625 
L 47.609375 25.390625 
L 58.015625 25.390625 
L 58.015625 17.1875 
L 47.609375 17.1875 
L 47.609375 0 
L 37.796875 0 
L 37.796875 17.1875 
L 4.890625 17.1875 
L 4.890625 26.703125 
z
" id="DejaVuSans-52"/>
       </defs>
       <use xlink:href="#DejaVuSans-48"/>
       <use x="63.623047" xlink:href="#DejaVuSans-46"/>
       <use x="95.410156" xlink:href="#DejaVuSans-52"/>
      </g>
     </g>
    </g>
    <g id="ytick_4">
     <g id="line2d_9">
      <path clip-path="url(#p69e3289e7e)" d="M 57.269156 132.604791 
L 316.975925 132.604791 
" style="fill:none;stroke:#ffffff;stroke-linecap:round;"/>
     </g>
     <g id="text_4">
      <!-- 0.6 -->
      <g style="fill:#262626;" transform="translate(30.275719 136.783931)scale(0.11 -0.11)">
       <defs>
        <path d="M 33.015625 40.375 
Q 26.375 40.375 22.484375 35.828125 
Q 18.609375 31.296875 18.609375 23.390625 
Q 18.609375 15.53125 22.484375 10.953125 
Q 26.375 6.390625 33.015625 6.390625 
Q 39.65625 6.390625 43.53125 10.953125 
Q 47.40625 15.53125 47.40625 23.390625 
Q 47.40625 31.296875 43.53125 35.828125 
Q 39.65625 40.375 33.015625 40.375 
z
M 52.59375 71.296875 
L 52.59375 62.3125 
Q 48.875 64.0625 45.09375 64.984375 
Q 41.3125 65.921875 37.59375 65.921875 
Q 27.828125 65.921875 22.671875 59.328125 
Q 17.53125 52.734375 16.796875 39.40625 
Q 19.671875 43.65625 24.015625 45.921875 
Q 28.375 48.1875 33.59375 48.1875 
Q 44.578125 48.1875 50.953125 41.515625 
Q 57.328125 34.859375 57.328125 23.390625 
Q 57.328125 12.15625 50.6875 5.359375 
Q 44.046875 -1.421875 33.015625 -1.421875 
Q 20.359375 -1.421875 13.671875 8.265625 
Q 6.984375 17.96875 6.984375 36.375 
Q 6.984375 53.65625 15.1875 63.9375 
Q 23.390625 74.21875 37.203125 74.21875 
Q 40.921875 74.21875 44.703125 73.484375 
Q 48.484375 72.75 52.59375 71.296875 
z
" id="DejaVuSans-54"/>
       </defs>
       <use xlink:href="#DejaVuSans-48"/>
       <use x="63.623047" xlink:href="#DejaVuSans-46"/>
       <use x="95.410156" xlink:href="#DejaVuSans-54"/>
      </g>
     </g>
    </g>
    <g id="ytick_5">
     <g id="line2d_10">
      <path clip-path="url(#p69e3289e7e)" d="M 57.269156 86.011497 
L 316.975925 86.011497 
" style="fill:none;stroke:#ffffff;stroke-linecap:round;"/>
     </g>
     <g id="text_5">
      <!-- 0.8 -->
      <g style="fill:#262626;" transform="translate(30.275719 90.190638)scale(0.11 -0.11)">
       <defs>
        <path d="M 31.78125 34.625 
Q 24.75 34.625 20.71875 30.859375 
Q 16.703125 27.09375 16.703125 20.515625 
Q 16.703125 13.921875 20.71875 10.15625 
Q 24.75 6.390625 31.78125 6.390625 
Q 38.8125 6.390625 42.859375 10.171875 
Q 46.921875 13.96875 46.921875 20.515625 
Q 46.921875 27.09375 42.890625 30.859375 
Q 38.875 34.625 31.78125 34.625 
z
M 21.921875 38.8125 
Q 15.578125 40.375 12.03125 44.71875 
Q 8.5 49.078125 8.5 55.328125 
Q 8.5 64.0625 14.71875 69.140625 
Q 20.953125 74.21875 31.78125 74.21875 
Q 42.671875 74.21875 48.875 69.140625 
Q 55.078125 64.0625 55.078125 55.328125 
Q 55.078125 49.078125 51.53125 44.71875 
Q 48 40.375 41.703125 38.8125 
Q 48.828125 37.15625 52.796875 32.3125 
Q 56.78125 27.484375 56.78125 20.515625 
Q 56.78125 9.90625 50.3125 4.234375 
Q 43.84375 -1.421875 31.78125 -1.421875 
Q 19.734375 -1.421875 13.25 4.234375 
Q 6.78125 9.90625 6.78125 20.515625 
Q 6.78125 27.484375 10.78125 32.3125 
Q 14.796875 37.15625 21.921875 38.8125 
z
M 18.3125 54.390625 
Q 18.3125 48.734375 21.84375 45.5625 
Q 25.390625 42.390625 31.78125 42.390625 
Q 38.140625 42.390625 41.71875 45.5625 
Q 45.3125 48.734375 45.3125 54.390625 
Q 45.3125 60.0625 41.71875 63.234375 
Q 38.140625 66.40625 31.78125 66.40625 
Q 25.390625 66.40625 21.84375 63.234375 
Q 18.3125 60.0625 18.3125 54.390625 
z
" id="DejaVuSans-56"/>
       </defs>
       <use xlink:href="#DejaVuSans-48"/>
       <use x="63.623047" xlink:href="#DejaVuSans-46"/>
       <use x="95.410156" xlink:href="#DejaVuSans-56"/>
      </g>
     </g>
    </g>
    <g id="text_6">
     <!-- DBCV -->
     <g style="fill:#262626;" transform="translate(23.780094 184.937349)rotate(-90)scale(0.12 -0.12)">
      <defs>
       <path d="M 19.671875 64.796875 
L 19.671875 8.109375 
L 31.59375 8.109375 
Q 46.6875 8.109375 53.6875 14.9375 
Q 60.6875 21.78125 60.6875 36.53125 
Q 60.6875 51.171875 53.6875 57.984375 
Q 46.6875 64.796875 31.59375 64.796875 
z
M 9.8125 72.90625 
L 30.078125 72.90625 
Q 51.265625 72.90625 61.171875 64.09375 
Q 71.09375 55.28125 71.09375 36.53125 
Q 71.09375 17.671875 61.125 8.828125 
Q 51.171875 0 30.078125 0 
L 9.8125 0 
z
" id="DejaVuSans-68"/>
       <path d="M 19.671875 34.8125 
L 19.671875 8.109375 
L 35.5 8.109375 
Q 43.453125 8.109375 47.28125 11.40625 
Q 51.125 14.703125 51.125 21.484375 
Q 51.125 28.328125 47.28125 31.5625 
Q 43.453125 34.8125 35.5 34.8125 
z
M 19.671875 64.796875 
L 19.671875 42.828125 
L 34.28125 42.828125 
Q 41.5 42.828125 45.03125 45.53125 
Q 48.578125 48.25 48.578125 53.8125 
Q 48.578125 59.328125 45.03125 62.0625 
Q 41.5 64.796875 34.28125 64.796875 
z
M 9.8125 72.90625 
L 35.015625 72.90625 
Q 46.296875 72.90625 52.390625 68.21875 
Q 58.5 63.53125 58.5 54.890625 
Q 58.5 48.1875 55.375 44.234375 
Q 52.25 40.28125 46.1875 39.3125 
Q 53.46875 37.75 57.5 32.78125 
Q 61.53125 27.828125 61.53125 20.40625 
Q 61.53125 10.640625 54.890625 5.3125 
Q 48.25 0 35.984375 0 
L 9.8125 0 
z
" id="DejaVuSans-66"/>
       <path d="M 64.40625 67.28125 
L 64.40625 56.890625 
Q 59.421875 61.53125 53.78125 63.8125 
Q 48.140625 66.109375 41.796875 66.109375 
Q 29.296875 66.109375 22.65625 58.46875 
Q 16.015625 50.828125 16.015625 36.375 
Q 16.015625 21.96875 22.65625 14.328125 
Q 29.296875 6.6875 41.796875 6.6875 
Q 48.140625 6.6875 53.78125 8.984375 
Q 59.421875 11.28125 64.40625 15.921875 
L 64.40625 5.609375 
Q 59.234375 2.09375 53.4375 0.328125 
Q 47.65625 -1.421875 41.21875 -1.421875 
Q 24.65625 -1.421875 15.125 8.703125 
Q 5.609375 18.84375 5.609375 36.375 
Q 5.609375 53.953125 15.125 64.078125 
Q 24.65625 74.21875 41.21875 74.21875 
Q 47.75 74.21875 53.53125 72.484375 
Q 59.328125 70.75 64.40625 67.28125 
z
" id="DejaVuSans-67"/>
       <path d="M 28.609375 0 
L 0.78125 72.90625 
L 11.078125 72.90625 
L 34.1875 11.53125 
L 57.328125 72.90625 
L 67.578125 72.90625 
L 39.796875 0 
z
" id="DejaVuSans-86"/>
      </defs>
      <use xlink:href="#DejaVuSans-68"/>
      <use x="77.001953" xlink:href="#DejaVuSans-66"/>
      <use x="143.855469" xlink:href="#DejaVuSans-67"/>
      <use x="213.679688" xlink:href="#DejaVuSans-86"/>
     </g>
    </g>
   </g>
   <g id="PolyCollection_1">
    <path clip-path="url(#p69e3289e7e)" d="M 75.12778 91.068122 
L 75.12778 91.068122 
L 75.12778 91.068122 
L 75.12778 91.068122 
z
" style="fill:#4c72b0;fill-opacity:0.2;stroke:#4c72b0;stroke-opacity:0.2;"/>
    <path clip-path="url(#p69e3289e7e)" d="M 81.181551 87.575505 
L 81.181551 87.575505 
L 81.181551 87.575505 
L 81.181551 87.575505 
z
" style="fill:#4c72b0;fill-opacity:0.2;stroke:#4c72b0;stroke-opacity:0.2;"/>
    <path clip-path="url(#p69e3289e7e)" d="M 87.235322 92.255977 
L 87.235322 92.255977 
L 87.235322 92.255977 
L 87.235322 92.255977 
z
" style="fill:#4c72b0;fill-opacity:0.2;stroke:#4c72b0;stroke-opacity:0.2;"/>
   </g>
   <g id="line2d_11">
    <path clip-path="url(#p69e3289e7e)" d="M 69.074009 200.009965 
L 75.12778 91.068122 
L 75.733157 89.633894 
L 76.338534 90.433322 
L 76.943911 89.014309 
L 77.549289 87.079378 
L 78.154666 86.839032 
L 78.760043 88.628508 
L 79.36542 88.925831 
L 79.970797 92.455862 
L 80.576174 94.461619 
L 81.181551 87.575505 
L 81.786928 87.575505 
L 82.392305 87.742491 
L 82.997682 87.742491 
L 83.603059 87.478488 
L 84.208436 85.845558 
L 84.813814 88.88684 
L 85.419191 92.172981 
L 86.024568 92.172981 
L 86.629945 92.255977 
L 87.235322 92.255977 
L 93.289093 93.754925 
L 99.342864 107.420841 
L 105.396634 125.01931 
L 111.450405 137.613178 
L 117.504176 148.869273 
L 123.557947 158.869589 
L 129.611718 174.524991 
L 135.665489 198.499908 
L 141.719259 220.102738 
L 147.77303 230.472265 
L 153.826801 239.43881 
L 159.880572 244.005636 
L 165.934343 253.84083 
L 171.988114 253.374506 
L 178.041885 257.321695 
L 184.095655 257.161637 
L 190.149426 248.739656 
L 196.203197 248.739656 
L 202.256968 258.579185 
L 208.310739 261.49513 
L 214.36451 247.47568 
L 220.41828 247.47568 
" style="fill:none;stroke:#4c72b0;stroke-linecap:round;stroke-width:1.5;"/>
   </g>
   <g id="patch_3">
    <path d="M 57.269156 278.423448 
L 57.269156 57.6 
" style="fill:none;stroke:#ffffff;stroke-linecap:square;stroke-linejoin:miter;stroke-width:1.25;"/>
   </g>
   <g id="patch_4">
    <path d="M 57.269156 278.423448 
L 316.975925 278.423448 
" style="fill:none;stroke:#ffffff;stroke-linecap:square;stroke-linejoin:miter;stroke-width:1.25;"/>
   </g>
   <g id="text_7">
    <!-- Segment 1 -->
    <g style="fill:#262626;" transform="translate(154.397228 51.6)scale(0.12 -0.12)">
     <defs>
      <path d="M 53.515625 70.515625 
L 53.515625 60.890625 
Q 47.90625 63.578125 42.921875 64.890625 
Q 37.9375 66.21875 33.296875 66.21875 
Q 25.25 66.21875 20.875 63.09375 
Q 16.5 59.96875 16.5 54.203125 
Q 16.5 49.359375 19.40625 46.890625 
Q 22.3125 44.4375 30.421875 42.921875 
L 36.375 41.703125 
Q 47.40625 39.59375 52.65625 34.296875 
Q 57.90625 29 57.90625 20.125 
Q 57.90625 9.515625 50.796875 4.046875 
Q 43.703125 -1.421875 29.984375 -1.421875 
Q 24.8125 -1.421875 18.96875 -0.25 
Q 13.140625 0.921875 6.890625 3.21875 
L 6.890625 13.375 
Q 12.890625 10.015625 18.65625 8.296875 
Q 24.421875 6.59375 29.984375 6.59375 
Q 38.421875 6.59375 43.015625 9.90625 
Q 47.609375 13.234375 47.609375 19.390625 
Q 47.609375 24.75 44.3125 27.78125 
Q 41.015625 30.8125 33.5 32.328125 
L 27.484375 33.5 
Q 16.453125 35.6875 11.515625 40.375 
Q 6.59375 45.0625 6.59375 53.421875 
Q 6.59375 63.09375 13.40625 68.65625 
Q 20.21875 74.21875 32.171875 74.21875 
Q 37.3125 74.21875 42.625 73.28125 
Q 47.953125 72.359375 53.515625 70.515625 
z
" id="DejaVuSans-83"/>
      <path d="M 56.203125 29.59375 
L 56.203125 25.203125 
L 14.890625 25.203125 
Q 15.484375 15.921875 20.484375 11.0625 
Q 25.484375 6.203125 34.421875 6.203125 
Q 39.59375 6.203125 44.453125 7.46875 
Q 49.3125 8.734375 54.109375 11.28125 
L 54.109375 2.78125 
Q 49.265625 0.734375 44.1875 -0.34375 
Q 39.109375 -1.421875 33.890625 -1.421875 
Q 20.796875 -1.421875 13.15625 6.1875 
Q 5.515625 13.8125 5.515625 26.8125 
Q 5.515625 40.234375 12.765625 48.109375 
Q 20.015625 56 32.328125 56 
Q 43.359375 56 49.78125 48.890625 
Q 56.203125 41.796875 56.203125 29.59375 
z
M 47.21875 32.234375 
Q 47.125 39.59375 43.09375 43.984375 
Q 39.0625 48.390625 32.421875 48.390625 
Q 24.90625 48.390625 20.390625 44.140625 
Q 15.875 39.890625 15.1875 32.171875 
z
" id="DejaVuSans-101"/>
      <path d="M 45.40625 27.984375 
Q 45.40625 37.75 41.375 43.109375 
Q 37.359375 48.484375 30.078125 48.484375 
Q 22.859375 48.484375 18.828125 43.109375 
Q 14.796875 37.75 14.796875 27.984375 
Q 14.796875 18.265625 18.828125 12.890625 
Q 22.859375 7.515625 30.078125 7.515625 
Q 37.359375 7.515625 41.375 12.890625 
Q 45.40625 18.265625 45.40625 27.984375 
z
M 54.390625 6.78125 
Q 54.390625 -7.171875 48.1875 -13.984375 
Q 42 -20.796875 29.203125 -20.796875 
Q 24.46875 -20.796875 20.265625 -20.09375 
Q 16.0625 -19.390625 12.109375 -17.921875 
L 12.109375 -9.1875 
Q 16.0625 -11.328125 19.921875 -12.34375 
Q 23.78125 -13.375 27.78125 -13.375 
Q 36.625 -13.375 41.015625 -8.765625 
Q 45.40625 -4.15625 45.40625 5.171875 
L 45.40625 9.625 
Q 42.625 4.78125 38.28125 2.390625 
Q 33.9375 0 27.875 0 
Q 17.828125 0 11.671875 7.65625 
Q 5.515625 15.328125 5.515625 27.984375 
Q 5.515625 40.671875 11.671875 48.328125 
Q 17.828125 56 27.875 56 
Q 33.9375 56 38.28125 53.609375 
Q 42.625 51.21875 45.40625 46.390625 
L 45.40625 54.6875 
L 54.390625 54.6875 
z
" id="DejaVuSans-103"/>
      <path d="M 52 44.1875 
Q 55.375 50.25 60.0625 53.125 
Q 64.75 56 71.09375 56 
Q 79.640625 56 84.28125 50.015625 
Q 88.921875 44.046875 88.921875 33.015625 
L 88.921875 0 
L 79.890625 0 
L 79.890625 32.71875 
Q 79.890625 40.578125 77.09375 44.375 
Q 74.3125 48.1875 68.609375 48.1875 
Q 61.625 48.1875 57.5625 43.546875 
Q 53.515625 38.921875 53.515625 30.90625 
L 53.515625 0 
L 44.484375 0 
L 44.484375 32.71875 
Q 44.484375 40.625 41.703125 44.40625 
Q 38.921875 48.1875 33.109375 48.1875 
Q 26.21875 48.1875 22.15625 43.53125 
Q 18.109375 38.875 18.109375 30.90625 
L 18.109375 0 
L 9.078125 0 
L 9.078125 54.6875 
L 18.109375 54.6875 
L 18.109375 46.1875 
Q 21.1875 51.21875 25.484375 53.609375 
Q 29.78125 56 35.6875 56 
Q 41.65625 56 45.828125 52.96875 
Q 50 49.953125 52 44.1875 
z
" id="DejaVuSans-109"/>
      <path d="M 54.890625 33.015625 
L 54.890625 0 
L 45.90625 0 
L 45.90625 32.71875 
Q 45.90625 40.484375 42.875 44.328125 
Q 39.84375 48.1875 33.796875 48.1875 
Q 26.515625 48.1875 22.3125 43.546875 
Q 18.109375 38.921875 18.109375 30.90625 
L 18.109375 0 
L 9.078125 0 
L 9.078125 54.6875 
L 18.109375 54.6875 
L 18.109375 46.1875 
Q 21.34375 51.125 25.703125 53.5625 
Q 30.078125 56 35.796875 56 
Q 45.21875 56 50.046875 50.171875 
Q 54.890625 44.34375 54.890625 33.015625 
z
" id="DejaVuSans-110"/>
      <path d="M 18.3125 70.21875 
L 18.3125 54.6875 
L 36.8125 54.6875 
L 36.8125 47.703125 
L 18.3125 47.703125 
L 18.3125 18.015625 
Q 18.3125 11.328125 20.140625 9.421875 
Q 21.96875 7.515625 27.59375 7.515625 
L 36.8125 7.515625 
L 36.8125 0 
L 27.59375 0 
Q 17.1875 0 13.234375 3.875 
Q 9.28125 7.765625 9.28125 18.015625 
L 9.28125 47.703125 
L 2.6875 47.703125 
L 2.6875 54.6875 
L 9.28125 54.6875 
L 9.28125 70.21875 
z
" id="DejaVuSans-116"/>
      <path id="DejaVuSans-32"/>
      <path d="M 12.40625 8.296875 
L 28.515625 8.296875 
L 28.515625 63.921875 
L 10.984375 60.40625 
L 10.984375 69.390625 
L 28.421875 72.90625 
L 38.28125 72.90625 
L 38.28125 8.296875 
L 54.390625 8.296875 
L 54.390625 0 
L 12.40625 0 
z
" id="DejaVuSans-49"/>
     </defs>
     <use xlink:href="#DejaVuSans-83"/>
     <use x="63.476562" xlink:href="#DejaVuSans-101"/>
     <use x="125" xlink:href="#DejaVuSans-103"/>
     <use x="188.476562" xlink:href="#DejaVuSans-109"/>
     <use x="285.888672" xlink:href="#DejaVuSans-101"/>
     <use x="347.412109" xlink:href="#DejaVuSans-110"/>
     <use x="410.791016" xlink:href="#DejaVuSans-116"/>
     <use x="450" xlink:href="#DejaVuSans-32"/>
     <use x="481.787109" xlink:href="#DejaVuSans-49"/>
    </g>
   </g>
  </g>
  <g id="axes_2">
   <g id="patch_5">
    <path d="M 331.741181 278.423448 
L 591.44795 278.423448 
L 591.44795 57.6 
L 331.741181 57.6 
z
" style="fill:#eaeaf2;"/>
   </g>
   <g id="matplotlib.axis_3">
    <g id="xtick_6">
     <g id="line2d_12">
      <path clip-path="url(#p79b37f6806)" d="M 343.546034 278.423448 
L 343.546034 57.6 
" style="fill:none;stroke:#ffffff;stroke-linecap:round;"/>
     </g>
    </g>
    <g id="xtick_7">
     <g id="line2d_13">
      <path clip-path="url(#p79b37f6806)" d="M 404.083743 278.423448 
L 404.083743 57.6 
" style="fill:none;stroke:#ffffff;stroke-linecap:round;"/>
     </g>
    </g>
    <g id="xtick_8">
     <g id="line2d_14">
      <path clip-path="url(#p79b37f6806)" d="M 464.621451 278.423448 
L 464.621451 57.6 
" style="fill:none;stroke:#ffffff;stroke-linecap:round;"/>
     </g>
    </g>
    <g id="xtick_9">
     <g id="line2d_15">
      <path clip-path="url(#p79b37f6806)" d="M 525.15916 278.423448 
L 525.15916 57.6 
" style="fill:none;stroke:#ffffff;stroke-linecap:round;"/>
     </g>
    </g>
    <g id="xtick_10">
     <g id="line2d_16">
      <path clip-path="url(#p79b37f6806)" d="M 585.696868 278.423448 
L 585.696868 57.6 
" style="fill:none;stroke:#ffffff;stroke-linecap:round;"/>
     </g>
    </g>
   </g>
   <g id="matplotlib.axis_4">
    <g id="ytick_6">
     <g id="line2d_17">
      <path clip-path="url(#p79b37f6806)" d="M 331.741181 272.384672 
L 591.44795 272.384672 
" style="fill:none;stroke:#ffffff;stroke-linecap:round;"/>
     </g>
    </g>
    <g id="ytick_7">
     <g id="line2d_18">
      <path clip-path="url(#p79b37f6806)" d="M 331.741181 225.791378 
L 591.44795 225.791378 
" style="fill:none;stroke:#ffffff;stroke-linecap:round;"/>
     </g>
    </g>
    <g id="ytick_8">
     <g id="line2d_19">
      <path clip-path="url(#p79b37f6806)" d="M 331.741181 179.198084 
L 591.44795 179.198084 
" style="fill:none;stroke:#ffffff;stroke-linecap:round;"/>
     </g>
    </g>
    <g id="ytick_9">
     <g id="line2d_20">
      <path clip-path="url(#p79b37f6806)" d="M 331.741181 132.604791 
L 591.44795 132.604791 
" style="fill:none;stroke:#ffffff;stroke-linecap:round;"/>
     </g>
    </g>
    <g id="ytick_10">
     <g id="line2d_21">
      <path clip-path="url(#p79b37f6806)" d="M 331.741181 86.011497 
L 591.44795 86.011497 
" style="fill:none;stroke:#ffffff;stroke-linecap:round;"/>
     </g>
    </g>
   </g>
   <g id="PolyCollection_2">
    <path clip-path="url(#p79b37f6806)" d="M 349.599805 98.838798 
L 349.599805 98.838798 
L 349.599805 98.838798 
L 349.599805 98.838798 
z
" style="fill:#4c72b0;fill-opacity:0.2;stroke:#4c72b0;stroke-opacity:0.2;"/>
    <path clip-path="url(#p79b37f6806)" d="M 355.653576 84.03368 
L 355.653576 84.03368 
L 355.653576 84.03368 
L 355.653576 84.03368 
z
" style="fill:#4c72b0;fill-opacity:0.2;stroke:#4c72b0;stroke-opacity:0.2;"/>
    <path clip-path="url(#p79b37f6806)" d="M 361.707347 94.678807 
L 361.707347 94.678807 
L 361.707347 94.678807 
L 361.707347 94.678807 
z
" style="fill:#4c72b0;fill-opacity:0.2;stroke:#4c72b0;stroke-opacity:0.2;"/>
   </g>
   <g id="line2d_22">
    <path clip-path="url(#p79b37f6806)" d="M 343.546034 200.159821 
L 349.599805 98.838798 
L 350.205182 94.763446 
L 350.810559 91.543276 
L 351.415936 97.122729 
L 352.021313 87.75745 
L 352.626691 87.010756 
L 353.232068 85.568507 
L 353.837445 87.87624 
L 354.442822 87.994524 
L 355.048199 87.356793 
L 355.653576 84.03368 
L 356.258953 85.245168 
L 356.86433 86.4686 
L 357.469707 84.421816 
L 358.075084 86.846012 
L 358.680461 86.926541 
L 359.285838 90.980531 
L 359.891216 92.539826 
L 360.496593 93.452238 
L 361.10197 93.7922 
L 361.707347 94.678807 
L 367.761118 99.335889 
L 373.814888 111.89998 
L 379.868659 117.952514 
L 385.92243 136.554009 
L 391.976201 155.61043 
L 398.029972 172.038084 
L 404.083743 183.269831 
L 410.137514 202.544195 
L 416.191284 214.760136 
L 422.245055 225.839757 
L 428.298826 232.372051 
L 434.352597 234.633424 
L 440.406368 247.144226 
L 446.460139 256.67958 
L 452.513909 261.124849 
L 458.56768 258.481833 
L 464.621451 245.315829 
L 470.675222 245.315829 
L 476.728993 256.553201 
L 482.782764 234.512542 
L 488.836534 234.512542 
L 494.890305 234.512542 
L 500.944076 234.512542 
" style="fill:none;stroke:#4c72b0;stroke-linecap:round;stroke-width:1.5;"/>
   </g>
   <g id="patch_6">
    <path d="M 331.741181 278.423448 
L 331.741181 57.6 
" style="fill:none;stroke:#ffffff;stroke-linecap:square;stroke-linejoin:miter;stroke-width:1.25;"/>
   </g>
   <g id="patch_7">
    <path d="M 331.741181 278.423448 
L 591.44795 278.423448 
" style="fill:none;stroke:#ffffff;stroke-linecap:square;stroke-linejoin:miter;stroke-width:1.25;"/>
   </g>
   <g id="text_8">
    <!-- Segment 2 -->
    <g style="fill:#262626;" transform="translate(428.869253 51.6)scale(0.12 -0.12)">
     <use xlink:href="#DejaVuSans-83"/>
     <use x="63.476562" xlink:href="#DejaVuSans-101"/>
     <use x="125" xlink:href="#DejaVuSans-103"/>
     <use x="188.476562" xlink:href="#DejaVuSans-109"/>
     <use x="285.888672" xlink:href="#DejaVuSans-101"/>
     <use x="347.412109" xlink:href="#DejaVuSans-110"/>
     <use x="410.791016" xlink:href="#DejaVuSans-116"/>
     <use x="450" xlink:href="#DejaVuSans-32"/>
     <use x="481.787109" xlink:href="#DejaVuSans-50"/>
    </g>
   </g>
  </g>
  <g id="axes_3">
   <g id="patch_8">
    <path d="M 606.213206 278.423448 
L 865.919975 278.423448 
L 865.919975 57.6 
L 606.213206 57.6 
z
" style="fill:#eaeaf2;"/>
   </g>
   <g id="matplotlib.axis_5">
    <g id="xtick_11">
     <g id="line2d_23">
      <path clip-path="url(#pde65e7845a)" d="M 618.018059 278.423448 
L 618.018059 57.6 
" style="fill:none;stroke:#ffffff;stroke-linecap:round;"/>
     </g>
    </g>
    <g id="xtick_12">
     <g id="line2d_24">
      <path clip-path="url(#pde65e7845a)" d="M 678.555768 278.423448 
L 678.555768 57.6 
" style="fill:none;stroke:#ffffff;stroke-linecap:round;"/>
     </g>
    </g>
    <g id="xtick_13">
     <g id="line2d_25">
      <path clip-path="url(#pde65e7845a)" d="M 739.093476 278.423448 
L 739.093476 57.6 
" style="fill:none;stroke:#ffffff;stroke-linecap:round;"/>
     </g>
    </g>
    <g id="xtick_14">
     <g id="line2d_26">
      <path clip-path="url(#pde65e7845a)" d="M 799.631184 278.423448 
L 799.631184 57.6 
" style="fill:none;stroke:#ffffff;stroke-linecap:round;"/>
     </g>
    </g>
    <g id="xtick_15">
     <g id="line2d_27">
      <path clip-path="url(#pde65e7845a)" d="M 860.168893 278.423448 
L 860.168893 57.6 
" style="fill:none;stroke:#ffffff;stroke-linecap:round;"/>
     </g>
    </g>
   </g>
   <g id="matplotlib.axis_6">
    <g id="ytick_11">
     <g id="line2d_28">
      <path clip-path="url(#pde65e7845a)" d="M 606.213206 272.384672 
L 865.919975 272.384672 
" style="fill:none;stroke:#ffffff;stroke-linecap:round;"/>
     </g>
    </g>
    <g id="ytick_12">
     <g id="line2d_29">
      <path clip-path="url(#pde65e7845a)" d="M 606.213206 225.791378 
L 865.919975 225.791378 
" style="fill:none;stroke:#ffffff;stroke-linecap:round;"/>
     </g>
    </g>
    <g id="ytick_13">
     <g id="line2d_30">
      <path clip-path="url(#pde65e7845a)" d="M 606.213206 179.198084 
L 865.919975 179.198084 
" style="fill:none;stroke:#ffffff;stroke-linecap:round;"/>
     </g>
    </g>
    <g id="ytick_14">
     <g id="line2d_31">
      <path clip-path="url(#pde65e7845a)" d="M 606.213206 132.604791 
L 865.919975 132.604791 
" style="fill:none;stroke:#ffffff;stroke-linecap:round;"/>
     </g>
    </g>
    <g id="ytick_15">
     <g id="line2d_32">
      <path clip-path="url(#pde65e7845a)" d="M 606.213206 86.011497 
L 865.919975 86.011497 
" style="fill:none;stroke:#ffffff;stroke-linecap:round;"/>
     </g>
    </g>
   </g>
   <g id="PolyCollection_3">
    <path clip-path="url(#pde65e7845a)" d="M 630.125601 79.158252 
L 630.125601 79.158252 
L 630.125601 79.158252 
L 630.125601 79.158252 
z
" style="fill:#4c72b0;fill-opacity:0.2;stroke:#4c72b0;stroke-opacity:0.2;"/>
    <path clip-path="url(#pde65e7845a)" d="M 636.179372 71.981247 
L 636.179372 71.981247 
L 636.179372 71.981247 
L 636.179372 71.981247 
z
" style="fill:#4c72b0;fill-opacity:0.2;stroke:#4c72b0;stroke-opacity:0.2;"/>
    <path clip-path="url(#pde65e7845a)" d="M 642.233143 77.375869 
L 642.233143 77.375869 
L 642.233143 77.375869 
L 642.233143 77.375869 
z
" style="fill:#4c72b0;fill-opacity:0.2;stroke:#4c72b0;stroke-opacity:0.2;"/>
   </g>
   <g id="line2d_33">
    <path clip-path="url(#pde65e7845a)" d="M 618.018059 199.03682 
L 624.07183 84.761854 
L 630.125601 79.158252 
L 630.730978 79.158252 
L 631.336355 77.829246 
L 631.941732 74.274906 
L 632.547109 72.791641 
L 633.152486 72.141494 
L 633.757863 71.981247 
L 634.36324 71.981247 
L 634.968618 71.981247 
L 635.573995 71.981247 
L 636.179372 71.981247 
L 636.784749 71.981247 
L 637.390126 72.037485 
L 637.995503 72.037485 
L 638.60088 72.037485 
L 639.206257 72.037485 
L 639.811634 72.379129 
L 640.417011 72.645857 
L 641.022388 72.645857 
L 641.627765 72.645857 
L 642.233143 77.375869 
L 648.286913 82.020744 
L 654.340684 90.012894 
L 660.394455 102.828255 
L 666.448226 124.596004 
L 672.501997 141.480178 
L 678.555768 157.668373 
L 684.609538 175.662877 
L 690.663309 195.078856 
L 696.71708 206.32851 
L 702.770851 222.203543 
L 708.824622 235.960014 
L 714.878393 240.290718 
L 720.932163 248.14821 
L 726.985934 247.715718 
L 733.039705 248.980817 
L 739.093476 242.403658 
L 745.147247 235.777864 
L 751.201018 235.777864 
L 757.254789 235.777864 
L 763.308559 259.774659 
L 769.36233 244.002937 
L 775.416101 244.002937 
L 781.469872 239.42632 
L 787.523643 239.42632 
L 793.577414 239.42632 
L 799.631184 253.106888 
L 805.684955 262.994319 
L 811.738726 262.994319 
" style="fill:none;stroke:#4c72b0;stroke-linecap:round;stroke-width:1.5;"/>
   </g>
   <g id="patch_9">
    <path d="M 606.213206 278.423448 
L 606.213206 57.6 
" style="fill:none;stroke:#ffffff;stroke-linecap:square;stroke-linejoin:miter;stroke-width:1.25;"/>
   </g>
   <g id="patch_10">
    <path d="M 606.213206 278.423448 
L 865.919975 278.423448 
" style="fill:none;stroke:#ffffff;stroke-linecap:square;stroke-linejoin:miter;stroke-width:1.25;"/>
   </g>
   <g id="text_9">
    <!-- Segment 3 -->
    <g style="fill:#262626;" transform="translate(703.341278 51.6)scale(0.12 -0.12)">
     <defs>
      <path d="M 40.578125 39.3125 
Q 47.65625 37.796875 51.625 33 
Q 55.609375 28.21875 55.609375 21.1875 
Q 55.609375 10.40625 48.1875 4.484375 
Q 40.765625 -1.421875 27.09375 -1.421875 
Q 22.515625 -1.421875 17.65625 -0.515625 
Q 12.796875 0.390625 7.625 2.203125 
L 7.625 11.71875 
Q 11.71875 9.328125 16.59375 8.109375 
Q 21.484375 6.890625 26.8125 6.890625 
Q 36.078125 6.890625 40.9375 10.546875 
Q 45.796875 14.203125 45.796875 21.1875 
Q 45.796875 27.640625 41.28125 31.265625 
Q 36.765625 34.90625 28.71875 34.90625 
L 20.21875 34.90625 
L 20.21875 43.015625 
L 29.109375 43.015625 
Q 36.375 43.015625 40.234375 45.921875 
Q 44.09375 48.828125 44.09375 54.296875 
Q 44.09375 59.90625 40.109375 62.90625 
Q 36.140625 65.921875 28.71875 65.921875 
Q 24.65625 65.921875 20.015625 65.03125 
Q 15.375 64.15625 9.8125 62.3125 
L 9.8125 71.09375 
Q 15.4375 72.65625 20.34375 73.4375 
Q 25.25 74.21875 29.59375 74.21875 
Q 40.828125 74.21875 47.359375 69.109375 
Q 53.90625 64.015625 53.90625 55.328125 
Q 53.90625 49.265625 50.4375 45.09375 
Q 46.96875 40.921875 40.578125 39.3125 
z
" id="DejaVuSans-51"/>
     </defs>
     <use xlink:href="#DejaVuSans-83"/>
     <use x="63.476562" xlink:href="#DejaVuSans-101"/>
     <use x="125" xlink:href="#DejaVuSans-103"/>
     <use x="188.476562" xlink:href="#DejaVuSans-109"/>
     <use x="285.888672" xlink:href="#DejaVuSans-101"/>
     <use x="347.412109" xlink:href="#DejaVuSans-110"/>
     <use x="410.791016" xlink:href="#DejaVuSans-116"/>
     <use x="450" xlink:href="#DejaVuSans-32"/>
     <use x="481.787109" xlink:href="#DejaVuSans-51"/>
    </g>
   </g>
  </g>
  <g id="axes_4">
   <g id="patch_11">
    <path d="M 880.685231 278.423448 
L 1140.392 278.423448 
L 1140.392 57.6 
L 880.685231 57.6 
z
" style="fill:#eaeaf2;"/>
   </g>
   <g id="matplotlib.axis_7">
    <g id="xtick_16">
     <g id="line2d_34">
      <path clip-path="url(#p38d2e2f917)" d="M 892.490084 278.423448 
L 892.490084 57.6 
" style="fill:none;stroke:#ffffff;stroke-linecap:round;"/>
     </g>
    </g>
    <g id="xtick_17">
     <g id="line2d_35">
      <path clip-path="url(#p38d2e2f917)" d="M 953.027792 278.423448 
L 953.027792 57.6 
" style="fill:none;stroke:#ffffff;stroke-linecap:round;"/>
     </g>
    </g>
    <g id="xtick_18">
     <g id="line2d_36">
      <path clip-path="url(#p38d2e2f917)" d="M 1013.565501 278.423448 
L 1013.565501 57.6 
" style="fill:none;stroke:#ffffff;stroke-linecap:round;"/>
     </g>
    </g>
    <g id="xtick_19">
     <g id="line2d_37">
      <path clip-path="url(#p38d2e2f917)" d="M 1074.103209 278.423448 
L 1074.103209 57.6 
" style="fill:none;stroke:#ffffff;stroke-linecap:round;"/>
     </g>
    </g>
    <g id="xtick_20">
     <g id="line2d_38">
      <path clip-path="url(#p38d2e2f917)" d="M 1134.640918 278.423448 
L 1134.640918 57.6 
" style="fill:none;stroke:#ffffff;stroke-linecap:round;"/>
     </g>
    </g>
   </g>
   <g id="matplotlib.axis_8">
    <g id="ytick_16">
     <g id="line2d_39">
      <path clip-path="url(#p38d2e2f917)" d="M 880.685231 272.384672 
L 1140.392 272.384672 
" style="fill:none;stroke:#ffffff;stroke-linecap:round;"/>
     </g>
    </g>
    <g id="ytick_17">
     <g id="line2d_40">
      <path clip-path="url(#p38d2e2f917)" d="M 880.685231 225.791378 
L 1140.392 225.791378 
" style="fill:none;stroke:#ffffff;stroke-linecap:round;"/>
     </g>
    </g>
    <g id="ytick_18">
     <g id="line2d_41">
      <path clip-path="url(#p38d2e2f917)" d="M 880.685231 179.198084 
L 1140.392 179.198084 
" style="fill:none;stroke:#ffffff;stroke-linecap:round;"/>
     </g>
    </g>
    <g id="ytick_19">
     <g id="line2d_42">
      <path clip-path="url(#p38d2e2f917)" d="M 880.685231 132.604791 
L 1140.392 132.604791 
" style="fill:none;stroke:#ffffff;stroke-linecap:round;"/>
     </g>
    </g>
    <g id="ytick_20">
     <g id="line2d_43">
      <path clip-path="url(#p38d2e2f917)" d="M 880.685231 86.011497 
L 1140.392 86.011497 
" style="fill:none;stroke:#ffffff;stroke-linecap:round;"/>
     </g>
    </g>
   </g>
   <g id="PolyCollection_4">
    <path clip-path="url(#p38d2e2f917)" d="M 898.543855 82.078075 
L 898.543855 82.078075 
L 898.543855 82.078075 
L 898.543855 82.078075 
z
" style="fill:#4c72b0;fill-opacity:0.2;stroke:#4c72b0;stroke-opacity:0.2;"/>
    <path clip-path="url(#p38d2e2f917)" d="M 904.597626 70.132049 
L 904.597626 70.132049 
L 904.597626 70.132049 
L 904.597626 70.132049 
z
" style="fill:#4c72b0;fill-opacity:0.2;stroke:#4c72b0;stroke-opacity:0.2;"/>
    <path clip-path="url(#p38d2e2f917)" d="M 910.651397 75.898131 
L 910.651397 75.898131 
L 910.651397 75.898131 
L 910.651397 75.898131 
z
" style="fill:#4c72b0;fill-opacity:0.2;stroke:#4c72b0;stroke-opacity:0.2;"/>
   </g>
   <g id="line2d_44">
    <path clip-path="url(#p38d2e2f917)" d="M 892.490084 199.259629 
L 898.543855 82.078075 
L 899.149232 83.901959 
L 899.754609 81.076042 
L 900.359986 77.539806 
L 900.965363 77.589473 
L 901.57074 77.589473 
L 902.176117 73.710897 
L 902.781494 74.604456 
L 903.386872 69.836329 
L 903.992249 70.132049 
L 904.597626 70.132049 
L 905.203003 70.132049 
L 905.80838 70.132049 
L 906.413757 70.132049 
L 907.019134 70.16641 
L 907.624511 70.6411 
L 908.229888 70.133035 
L 908.835265 70.133035 
L 909.440642 73.104522 
L 910.04602 73.104522 
L 910.651397 75.898131 
L 916.705167 79.820381 
L 922.758938 96.729943 
L 928.812709 104.379099 
L 934.86648 115.266168 
L 940.920251 124.606551 
L 946.974022 152.494437 
L 953.027792 171.635217 
L 959.081563 175.003477 
L 965.135334 206.178277 
L 971.189105 226.229741 
L 977.242876 245.931858 
L 983.296647 253.219628 
L 989.350418 260.686939 
L 995.404188 261.116283 
L 1001.457959 254.229089 
L 1007.51173 260.539264 
L 1013.565501 262.832294 
" style="fill:none;stroke:#4c72b0;stroke-linecap:round;stroke-width:1.5;"/>
   </g>
   <g id="patch_12">
    <path d="M 880.685231 278.423448 
L 880.685231 57.6 
" style="fill:none;stroke:#ffffff;stroke-linecap:square;stroke-linejoin:miter;stroke-width:1.25;"/>
   </g>
   <g id="patch_13">
    <path d="M 880.685231 278.423448 
L 1140.392 278.423448 
" style="fill:none;stroke:#ffffff;stroke-linecap:square;stroke-linejoin:miter;stroke-width:1.25;"/>
   </g>
   <g id="text_10">
    <!-- Segment 4 -->
    <g style="fill:#262626;" transform="translate(977.813303 51.6)scale(0.12 -0.12)">
     <use xlink:href="#DejaVuSans-83"/>
     <use x="63.476562" xlink:href="#DejaVuSans-101"/>
     <use x="125" xlink:href="#DejaVuSans-103"/>
     <use x="188.476562" xlink:href="#DejaVuSans-109"/>
     <use x="285.888672" xlink:href="#DejaVuSans-101"/>
     <use x="347.412109" xlink:href="#DejaVuSans-110"/>
     <use x="410.791016" xlink:href="#DejaVuSans-116"/>
     <use x="450" xlink:href="#DejaVuSans-32"/>
     <use x="481.787109" xlink:href="#DejaVuSans-52"/>
    </g>
   </g>
  </g>
  <g id="axes_5">
   <g id="patch_14">
    <path d="M 57.269156 526.54 
L 316.975925 526.54 
L 316.975925 305.716552 
L 57.269156 305.716552 
z
" style="fill:#eaeaf2;"/>
   </g>
   <g id="matplotlib.axis_9">
    <g id="xtick_21">
     <g id="line2d_45">
      <path clip-path="url(#pafc8b9f918)" d="M 69.074009 526.54 
L 69.074009 305.716552 
" style="fill:none;stroke:#ffffff;stroke-linecap:round;"/>
     </g>
     <g id="text_11">
      <!-- 0 -->
      <g style="fill:#262626;" transform="translate(65.574634 544.398281)scale(0.11 -0.11)">
       <use xlink:href="#DejaVuSans-48"/>
      </g>
     </g>
    </g>
    <g id="xtick_22">
     <g id="line2d_46">
      <path clip-path="url(#pafc8b9f918)" d="M 129.611718 526.54 
L 129.611718 305.716552 
" style="fill:none;stroke:#ffffff;stroke-linecap:round;"/>
     </g>
     <g id="text_12">
      <!-- 10 -->
      <g style="fill:#262626;" transform="translate(122.612968 544.398281)scale(0.11 -0.11)">
       <use xlink:href="#DejaVuSans-49"/>
       <use x="63.623047" xlink:href="#DejaVuSans-48"/>
      </g>
     </g>
    </g>
    <g id="xtick_23">
     <g id="line2d_47">
      <path clip-path="url(#pafc8b9f918)" d="M 190.149426 526.54 
L 190.149426 305.716552 
" style="fill:none;stroke:#ffffff;stroke-linecap:round;"/>
     </g>
     <g id="text_13">
      <!-- 20 -->
      <g style="fill:#262626;" transform="translate(183.150676 544.398281)scale(0.11 -0.11)">
       <use xlink:href="#DejaVuSans-50"/>
       <use x="63.623047" xlink:href="#DejaVuSans-48"/>
      </g>
     </g>
    </g>
    <g id="xtick_24">
     <g id="line2d_48">
      <path clip-path="url(#pafc8b9f918)" d="M 250.687135 526.54 
L 250.687135 305.716552 
" style="fill:none;stroke:#ffffff;stroke-linecap:round;"/>
     </g>
     <g id="text_14">
      <!-- 30 -->
      <g style="fill:#262626;" transform="translate(243.688385 544.398281)scale(0.11 -0.11)">
       <use xlink:href="#DejaVuSans-51"/>
       <use x="63.623047" xlink:href="#DejaVuSans-48"/>
      </g>
     </g>
    </g>
    <g id="xtick_25">
     <g id="line2d_49">
      <path clip-path="url(#pafc8b9f918)" d="M 311.224843 526.54 
L 311.224843 305.716552 
" style="fill:none;stroke:#ffffff;stroke-linecap:round;"/>
     </g>
     <g id="text_15">
      <!-- 40 -->
      <g style="fill:#262626;" transform="translate(304.226093 544.398281)scale(0.11 -0.11)">
       <use xlink:href="#DejaVuSans-52"/>
       <use x="63.623047" xlink:href="#DejaVuSans-48"/>
      </g>
     </g>
    </g>
    <g id="text_16">
     <!-- Epsilon -->
     <g style="fill:#262626;" transform="translate(165.589103 559.804063)scale(0.12 -0.12)">
      <defs>
       <path d="M 9.8125 72.90625 
L 55.90625 72.90625 
L 55.90625 64.59375 
L 19.671875 64.59375 
L 19.671875 43.015625 
L 54.390625 43.015625 
L 54.390625 34.71875 
L 19.671875 34.71875 
L 19.671875 8.296875 
L 56.78125 8.296875 
L 56.78125 0 
L 9.8125 0 
z
" id="DejaVuSans-69"/>
       <path d="M 18.109375 8.203125 
L 18.109375 -20.796875 
L 9.078125 -20.796875 
L 9.078125 54.6875 
L 18.109375 54.6875 
L 18.109375 46.390625 
Q 20.953125 51.265625 25.265625 53.625 
Q 29.59375 56 35.59375 56 
Q 45.5625 56 51.78125 48.09375 
Q 58.015625 40.1875 58.015625 27.296875 
Q 58.015625 14.40625 51.78125 6.484375 
Q 45.5625 -1.421875 35.59375 -1.421875 
Q 29.59375 -1.421875 25.265625 0.953125 
Q 20.953125 3.328125 18.109375 8.203125 
z
M 48.6875 27.296875 
Q 48.6875 37.203125 44.609375 42.84375 
Q 40.53125 48.484375 33.40625 48.484375 
Q 26.265625 48.484375 22.1875 42.84375 
Q 18.109375 37.203125 18.109375 27.296875 
Q 18.109375 17.390625 22.1875 11.75 
Q 26.265625 6.109375 33.40625 6.109375 
Q 40.53125 6.109375 44.609375 11.75 
Q 48.6875 17.390625 48.6875 27.296875 
z
" id="DejaVuSans-112"/>
       <path d="M 44.28125 53.078125 
L 44.28125 44.578125 
Q 40.484375 46.53125 36.375 47.5 
Q 32.28125 48.484375 27.875 48.484375 
Q 21.1875 48.484375 17.84375 46.4375 
Q 14.5 44.390625 14.5 40.28125 
Q 14.5 37.15625 16.890625 35.375 
Q 19.28125 33.59375 26.515625 31.984375 
L 29.59375 31.296875 
Q 39.15625 29.25 43.1875 25.515625 
Q 47.21875 21.78125 47.21875 15.09375 
Q 47.21875 7.46875 41.1875 3.015625 
Q 35.15625 -1.421875 24.609375 -1.421875 
Q 20.21875 -1.421875 15.453125 -0.5625 
Q 10.6875 0.296875 5.421875 2 
L 5.421875 11.28125 
Q 10.40625 8.6875 15.234375 7.390625 
Q 20.0625 6.109375 24.8125 6.109375 
Q 31.15625 6.109375 34.5625 8.28125 
Q 37.984375 10.453125 37.984375 14.40625 
Q 37.984375 18.0625 35.515625 20.015625 
Q 33.0625 21.96875 24.703125 23.78125 
L 21.578125 24.515625 
Q 13.234375 26.265625 9.515625 29.90625 
Q 5.8125 33.546875 5.8125 39.890625 
Q 5.8125 47.609375 11.28125 51.796875 
Q 16.75 56 26.8125 56 
Q 31.78125 56 36.171875 55.265625 
Q 40.578125 54.546875 44.28125 53.078125 
z
" id="DejaVuSans-115"/>
       <path d="M 9.421875 54.6875 
L 18.40625 54.6875 
L 18.40625 0 
L 9.421875 0 
z
M 9.421875 75.984375 
L 18.40625 75.984375 
L 18.40625 64.59375 
L 9.421875 64.59375 
z
" id="DejaVuSans-105"/>
       <path d="M 9.421875 75.984375 
L 18.40625 75.984375 
L 18.40625 0 
L 9.421875 0 
z
" id="DejaVuSans-108"/>
       <path d="M 30.609375 48.390625 
Q 23.390625 48.390625 19.1875 42.75 
Q 14.984375 37.109375 14.984375 27.296875 
Q 14.984375 17.484375 19.15625 11.84375 
Q 23.34375 6.203125 30.609375 6.203125 
Q 37.796875 6.203125 41.984375 11.859375 
Q 46.1875 17.53125 46.1875 27.296875 
Q 46.1875 37.015625 41.984375 42.703125 
Q 37.796875 48.390625 30.609375 48.390625 
z
M 30.609375 56 
Q 42.328125 56 49.015625 48.375 
Q 55.71875 40.765625 55.71875 27.296875 
Q 55.71875 13.875 49.015625 6.21875 
Q 42.328125 -1.421875 30.609375 -1.421875 
Q 18.84375 -1.421875 12.171875 6.21875 
Q 5.515625 13.875 5.515625 27.296875 
Q 5.515625 40.765625 12.171875 48.375 
Q 18.84375 56 30.609375 56 
z
" id="DejaVuSans-111"/>
      </defs>
      <use xlink:href="#DejaVuSans-69"/>
      <use x="63.183594" xlink:href="#DejaVuSans-112"/>
      <use x="126.660156" xlink:href="#DejaVuSans-115"/>
      <use x="178.759766" xlink:href="#DejaVuSans-105"/>
      <use x="206.542969" xlink:href="#DejaVuSans-108"/>
      <use x="234.326172" xlink:href="#DejaVuSans-111"/>
      <use x="295.507812" xlink:href="#DejaVuSans-110"/>
     </g>
    </g>
   </g>
   <g id="matplotlib.axis_10">
    <g id="ytick_21">
     <g id="line2d_50">
      <path clip-path="url(#pafc8b9f918)" d="M 57.269156 520.501224 
L 316.975925 520.501224 
" style="fill:none;stroke:#ffffff;stroke-linecap:round;"/>
     </g>
     <g id="text_17">
      <!-- 0.0 -->
      <g style="fill:#262626;" transform="translate(30.275719 524.680364)scale(0.11 -0.11)">
       <use xlink:href="#DejaVuSans-48"/>
       <use x="63.623047" xlink:href="#DejaVuSans-46"/>
       <use x="95.410156" xlink:href="#DejaVuSans-48"/>
      </g>
     </g>
    </g>
    <g id="ytick_22">
     <g id="line2d_51">
      <path clip-path="url(#pafc8b9f918)" d="M 57.269156 473.90793 
L 316.975925 473.90793 
" style="fill:none;stroke:#ffffff;stroke-linecap:round;"/>
     </g>
     <g id="text_18">
      <!-- 0.2 -->
      <g style="fill:#262626;" transform="translate(30.275719 478.08707)scale(0.11 -0.11)">
       <use xlink:href="#DejaVuSans-48"/>
       <use x="63.623047" xlink:href="#DejaVuSans-46"/>
       <use x="95.410156" xlink:href="#DejaVuSans-50"/>
      </g>
     </g>
    </g>
    <g id="ytick_23">
     <g id="line2d_52">
      <path clip-path="url(#pafc8b9f918)" d="M 57.269156 427.314636 
L 316.975925 427.314636 
" style="fill:none;stroke:#ffffff;stroke-linecap:round;"/>
     </g>
     <g id="text_19">
      <!-- 0.4 -->
      <g style="fill:#262626;" transform="translate(30.275719 431.493777)scale(0.11 -0.11)">
       <use xlink:href="#DejaVuSans-48"/>
       <use x="63.623047" xlink:href="#DejaVuSans-46"/>
       <use x="95.410156" xlink:href="#DejaVuSans-52"/>
      </g>
     </g>
    </g>
    <g id="ytick_24">
     <g id="line2d_53">
      <path clip-path="url(#pafc8b9f918)" d="M 57.269156 380.721343 
L 316.975925 380.721343 
" style="fill:none;stroke:#ffffff;stroke-linecap:round;"/>
     </g>
     <g id="text_20">
      <!-- 0.6 -->
      <g style="fill:#262626;" transform="translate(30.275719 384.900483)scale(0.11 -0.11)">
       <use xlink:href="#DejaVuSans-48"/>
       <use x="63.623047" xlink:href="#DejaVuSans-46"/>
       <use x="95.410156" xlink:href="#DejaVuSans-54"/>
      </g>
     </g>
    </g>
    <g id="ytick_25">
     <g id="line2d_54">
      <path clip-path="url(#pafc8b9f918)" d="M 57.269156 334.128049 
L 316.975925 334.128049 
" style="fill:none;stroke:#ffffff;stroke-linecap:round;"/>
     </g>
     <g id="text_21">
      <!-- 0.8 -->
      <g style="fill:#262626;" transform="translate(30.275719 338.307189)scale(0.11 -0.11)">
       <use xlink:href="#DejaVuSans-48"/>
       <use x="63.623047" xlink:href="#DejaVuSans-46"/>
       <use x="95.410156" xlink:href="#DejaVuSans-56"/>
      </g>
     </g>
    </g>
    <g id="text_22">
     <!-- DBCV -->
     <g style="fill:#262626;" transform="translate(23.780094 433.053901)rotate(-90)scale(0.12 -0.12)">
      <use xlink:href="#DejaVuSans-68"/>
      <use x="77.001953" xlink:href="#DejaVuSans-66"/>
      <use x="143.855469" xlink:href="#DejaVuSans-67"/>
      <use x="213.679688" xlink:href="#DejaVuSans-86"/>
     </g>
    </g>
   </g>
   <g id="PolyCollection_5">
    <path clip-path="url(#pafc8b9f918)" d="M 75.12778 326.50851 
L 75.12778 326.50851 
L 75.12778 326.50851 
L 75.12778 326.50851 
z
" style="fill:#4c72b0;fill-opacity:0.2;stroke:#4c72b0;stroke-opacity:0.2;"/>
    <path clip-path="url(#pafc8b9f918)" d="M 81.181551 317.949191 
L 81.181551 317.949191 
L 81.181551 317.949191 
L 81.181551 317.949191 
z
" style="fill:#4c72b0;fill-opacity:0.2;stroke:#4c72b0;stroke-opacity:0.2;"/>
    <path clip-path="url(#pafc8b9f918)" d="M 87.235322 323.671882 
L 87.235322 323.671882 
L 87.235322 323.671882 
L 87.235322 323.671882 
z
" style="fill:#4c72b0;fill-opacity:0.2;stroke:#4c72b0;stroke-opacity:0.2;"/>
   </g>
   <g id="line2d_55">
    <path clip-path="url(#pafc8b9f918)" d="M 69.074009 445.567065 
L 75.12778 326.50851 
L 75.733157 326.059497 
L 76.338534 319.492929 
L 76.943911 319.67456 
L 77.549289 319.590318 
L 78.154666 317.564756 
L 78.760043 317.520685 
L 79.36542 318.378646 
L 79.970797 318.378646 
L 80.576174 317.491221 
L 81.181551 317.949191 
L 81.786928 315.753981 
L 82.392305 315.753981 
L 82.997682 316.146425 
L 83.603059 316.146425 
L 84.208436 318.944483 
L 84.813814 320.478151 
L 85.419191 322.304254 
L 86.024568 322.304254 
L 86.629945 321.669069 
L 87.235322 323.671882 
L 93.289093 325.443155 
L 99.342864 329.525231 
L 105.396634 341.350472 
L 111.450405 360.994828 
L 117.504176 376.427226 
L 123.557947 387.809107 
L 129.611718 405.366104 
L 135.665489 417.684723 
L 141.719259 433.273942 
L 147.77303 443.979494 
L 153.826801 457.590394 
L 159.880572 462.979823 
L 165.934343 468.095764 
L 171.988114 470.949208 
L 178.041885 472.783195 
L 184.095655 481.252728 
L 190.149426 482.943824 
L 196.203197 491.160379 
L 202.256968 486.38444 
L 208.310739 486.692153 
L 214.36451 486.692153 
L 220.41828 490.478311 
L 226.472051 502.891365 
L 232.525822 497.312718 
L 238.579593 497.673101 
L 244.633364 514.27192 
L 250.687135 485.583205 
L 256.740905 485.583205 
L 262.794676 485.583205 
L 268.848447 485.583205 
" style="fill:none;stroke:#4c72b0;stroke-linecap:round;stroke-width:1.5;"/>
   </g>
   <g id="patch_15">
    <path d="M 57.269156 526.54 
L 57.269156 305.716552 
" style="fill:none;stroke:#ffffff;stroke-linecap:square;stroke-linejoin:miter;stroke-width:1.25;"/>
   </g>
   <g id="patch_16">
    <path d="M 57.269156 526.54 
L 316.975925 526.54 
" style="fill:none;stroke:#ffffff;stroke-linecap:square;stroke-linejoin:miter;stroke-width:1.25;"/>
   </g>
   <g id="text_23">
    <!-- Segment 5 -->
    <g style="fill:#262626;" transform="translate(154.397228 299.716552)scale(0.12 -0.12)">
     <defs>
      <path d="M 10.796875 72.90625 
L 49.515625 72.90625 
L 49.515625 64.59375 
L 19.828125 64.59375 
L 19.828125 46.734375 
Q 21.96875 47.46875 24.109375 47.828125 
Q 26.265625 48.1875 28.421875 48.1875 
Q 40.625 48.1875 47.75 41.5 
Q 54.890625 34.8125 54.890625 23.390625 
Q 54.890625 11.625 47.5625 5.09375 
Q 40.234375 -1.421875 26.90625 -1.421875 
Q 22.3125 -1.421875 17.546875 -0.640625 
Q 12.796875 0.140625 7.71875 1.703125 
L 7.71875 11.625 
Q 12.109375 9.234375 16.796875 8.0625 
Q 21.484375 6.890625 26.703125 6.890625 
Q 35.15625 6.890625 40.078125 11.328125 
Q 45.015625 15.765625 45.015625 23.390625 
Q 45.015625 31 40.078125 35.4375 
Q 35.15625 39.890625 26.703125 39.890625 
Q 22.75 39.890625 18.8125 39.015625 
Q 14.890625 38.140625 10.796875 36.28125 
z
" id="DejaVuSans-53"/>
     </defs>
     <use xlink:href="#DejaVuSans-83"/>
     <use x="63.476562" xlink:href="#DejaVuSans-101"/>
     <use x="125" xlink:href="#DejaVuSans-103"/>
     <use x="188.476562" xlink:href="#DejaVuSans-109"/>
     <use x="285.888672" xlink:href="#DejaVuSans-101"/>
     <use x="347.412109" xlink:href="#DejaVuSans-110"/>
     <use x="410.791016" xlink:href="#DejaVuSans-116"/>
     <use x="450" xlink:href="#DejaVuSans-32"/>
     <use x="481.787109" xlink:href="#DejaVuSans-53"/>
    </g>
   </g>
  </g>
  <g id="axes_6">
   <g id="patch_17">
    <path d="M 331.741181 526.54 
L 591.44795 526.54 
L 591.44795 305.716552 
L 331.741181 305.716552 
z
" style="fill:#eaeaf2;"/>
   </g>
   <g id="matplotlib.axis_11">
    <g id="xtick_26">
     <g id="line2d_56">
      <path clip-path="url(#p5e988b0061)" d="M 343.546034 526.54 
L 343.546034 305.716552 
" style="fill:none;stroke:#ffffff;stroke-linecap:round;"/>
     </g>
     <g id="text_24">
      <!-- 0 -->
      <g style="fill:#262626;" transform="translate(340.046659 544.398281)scale(0.11 -0.11)">
       <use xlink:href="#DejaVuSans-48"/>
      </g>
     </g>
    </g>
    <g id="xtick_27">
     <g id="line2d_57">
      <path clip-path="url(#p5e988b0061)" d="M 404.083743 526.54 
L 404.083743 305.716552 
" style="fill:none;stroke:#ffffff;stroke-linecap:round;"/>
     </g>
     <g id="text_25">
      <!-- 10 -->
      <g style="fill:#262626;" transform="translate(397.084993 544.398281)scale(0.11 -0.11)">
       <use xlink:href="#DejaVuSans-49"/>
       <use x="63.623047" xlink:href="#DejaVuSans-48"/>
      </g>
     </g>
    </g>
    <g id="xtick_28">
     <g id="line2d_58">
      <path clip-path="url(#p5e988b0061)" d="M 464.621451 526.54 
L 464.621451 305.716552 
" style="fill:none;stroke:#ffffff;stroke-linecap:round;"/>
     </g>
     <g id="text_26">
      <!-- 20 -->
      <g style="fill:#262626;" transform="translate(457.622701 544.398281)scale(0.11 -0.11)">
       <use xlink:href="#DejaVuSans-50"/>
       <use x="63.623047" xlink:href="#DejaVuSans-48"/>
      </g>
     </g>
    </g>
    <g id="xtick_29">
     <g id="line2d_59">
      <path clip-path="url(#p5e988b0061)" d="M 525.15916 526.54 
L 525.15916 305.716552 
" style="fill:none;stroke:#ffffff;stroke-linecap:round;"/>
     </g>
     <g id="text_27">
      <!-- 30 -->
      <g style="fill:#262626;" transform="translate(518.16041 544.398281)scale(0.11 -0.11)">
       <use xlink:href="#DejaVuSans-51"/>
       <use x="63.623047" xlink:href="#DejaVuSans-48"/>
      </g>
     </g>
    </g>
    <g id="xtick_30">
     <g id="line2d_60">
      <path clip-path="url(#p5e988b0061)" d="M 585.696868 526.54 
L 585.696868 305.716552 
" style="fill:none;stroke:#ffffff;stroke-linecap:round;"/>
     </g>
     <g id="text_28">
      <!-- 40 -->
      <g style="fill:#262626;" transform="translate(578.698118 544.398281)scale(0.11 -0.11)">
       <use xlink:href="#DejaVuSans-52"/>
       <use x="63.623047" xlink:href="#DejaVuSans-48"/>
      </g>
     </g>
    </g>
    <g id="text_29">
     <!-- Epsilon -->
     <g style="fill:#262626;" transform="translate(440.061128 559.804063)scale(0.12 -0.12)">
      <use xlink:href="#DejaVuSans-69"/>
      <use x="63.183594" xlink:href="#DejaVuSans-112"/>
      <use x="126.660156" xlink:href="#DejaVuSans-115"/>
      <use x="178.759766" xlink:href="#DejaVuSans-105"/>
      <use x="206.542969" xlink:href="#DejaVuSans-108"/>
      <use x="234.326172" xlink:href="#DejaVuSans-111"/>
      <use x="295.507812" xlink:href="#DejaVuSans-110"/>
     </g>
    </g>
   </g>
   <g id="matplotlib.axis_12">
    <g id="ytick_26">
     <g id="line2d_61">
      <path clip-path="url(#p5e988b0061)" d="M 331.741181 520.501224 
L 591.44795 520.501224 
" style="fill:none;stroke:#ffffff;stroke-linecap:round;"/>
     </g>
    </g>
    <g id="ytick_27">
     <g id="line2d_62">
      <path clip-path="url(#p5e988b0061)" d="M 331.741181 473.90793 
L 591.44795 473.90793 
" style="fill:none;stroke:#ffffff;stroke-linecap:round;"/>
     </g>
    </g>
    <g id="ytick_28">
     <g id="line2d_63">
      <path clip-path="url(#p5e988b0061)" d="M 331.741181 427.314636 
L 591.44795 427.314636 
" style="fill:none;stroke:#ffffff;stroke-linecap:round;"/>
     </g>
    </g>
    <g id="ytick_29">
     <g id="line2d_64">
      <path clip-path="url(#p5e988b0061)" d="M 331.741181 380.721343 
L 591.44795 380.721343 
" style="fill:none;stroke:#ffffff;stroke-linecap:round;"/>
     </g>
    </g>
    <g id="ytick_30">
     <g id="line2d_65">
      <path clip-path="url(#p5e988b0061)" d="M 331.741181 334.128049 
L 591.44795 334.128049 
" style="fill:none;stroke:#ffffff;stroke-linecap:round;"/>
     </g>
    </g>
   </g>
   <g id="PolyCollection_6">
    <path clip-path="url(#p5e988b0061)" d="M 349.599805 334.994421 
L 349.599805 334.994421 
L 349.599805 334.994421 
L 349.599805 334.994421 
z
" style="fill:#4c72b0;fill-opacity:0.2;stroke:#4c72b0;stroke-opacity:0.2;"/>
    <path clip-path="url(#p5e988b0061)" d="M 355.653576 325.576789 
L 355.653576 325.576789 
L 355.653576 325.576789 
L 355.653576 325.576789 
z
" style="fill:#4c72b0;fill-opacity:0.2;stroke:#4c72b0;stroke-opacity:0.2;"/>
    <path clip-path="url(#p5e988b0061)" d="M 361.707347 331.080684 
L 361.707347 331.080684 
L 361.707347 331.080684 
L 361.707347 331.080684 
z
" style="fill:#4c72b0;fill-opacity:0.2;stroke:#4c72b0;stroke-opacity:0.2;"/>
   </g>
   <g id="line2d_66">
    <path clip-path="url(#p5e988b0061)" d="M 343.546034 446.464878 
L 349.599805 334.994421 
L 350.205182 332.0435 
L 350.810559 332.0435 
L 351.415936 335.279382 
L 352.021313 331.597897 
L 352.626691 331.8058 
L 353.232068 330.586258 
L 353.837445 327.652653 
L 354.442822 327.47376 
L 355.048199 328.541837 
L 355.653576 325.576789 
L 356.258953 325.840537 
L 356.86433 325.471132 
L 357.469707 325.471132 
L 358.075084 325.758976 
L 358.680461 327.307687 
L 359.285838 328.602951 
L 359.891216 331.749729 
L 360.496593 331.749729 
L 361.10197 331.080684 
L 361.707347 331.080684 
L 367.761118 336.035796 
L 373.814888 340.474532 
L 379.868659 351.400563 
L 385.92243 365.663444 
L 391.976201 370.081412 
L 398.029972 394.793777 
L 404.083743 415.165317 
L 410.137514 427.995528 
L 416.191284 450.382114 
L 422.245055 462.716566 
L 428.298826 475.308739 
L 434.352597 483.067455 
L 440.406368 484.043275 
L 446.460139 492.196071 
L 452.513909 502.112665 
L 458.56768 506.614934 
L 464.621451 503.530979 
L 470.675222 502.520243 
L 476.728993 507.728009 
L 482.782764 499.0691 
L 488.836534 499.0691 
L 494.890305 476.132079 
L 500.944076 476.132079 
L 506.997847 476.132079 
L 513.051618 476.132079 
L 519.105389 476.132079 
L 525.15916 476.132079 
" style="fill:none;stroke:#4c72b0;stroke-linecap:round;stroke-width:1.5;"/>
   </g>
   <g id="patch_18">
    <path d="M 331.741181 526.54 
L 331.741181 305.716552 
" style="fill:none;stroke:#ffffff;stroke-linecap:square;stroke-linejoin:miter;stroke-width:1.25;"/>
   </g>
   <g id="patch_19">
    <path d="M 331.741181 526.54 
L 591.44795 526.54 
" style="fill:none;stroke:#ffffff;stroke-linecap:square;stroke-linejoin:miter;stroke-width:1.25;"/>
   </g>
   <g id="text_30">
    <!-- Segment 6 -->
    <g style="fill:#262626;" transform="translate(428.869253 299.716552)scale(0.12 -0.12)">
     <use xlink:href="#DejaVuSans-83"/>
     <use x="63.476562" xlink:href="#DejaVuSans-101"/>
     <use x="125" xlink:href="#DejaVuSans-103"/>
     <use x="188.476562" xlink:href="#DejaVuSans-109"/>
     <use x="285.888672" xlink:href="#DejaVuSans-101"/>
     <use x="347.412109" xlink:href="#DejaVuSans-110"/>
     <use x="410.791016" xlink:href="#DejaVuSans-116"/>
     <use x="450" xlink:href="#DejaVuSans-32"/>
     <use x="481.787109" xlink:href="#DejaVuSans-54"/>
    </g>
   </g>
  </g>
  <g id="axes_7">
   <g id="patch_20">
    <path d="M 606.213206 526.54 
L 865.919975 526.54 
L 865.919975 305.716552 
L 606.213206 305.716552 
z
" style="fill:#eaeaf2;"/>
   </g>
   <g id="matplotlib.axis_13">
    <g id="xtick_31">
     <g id="line2d_67">
      <path clip-path="url(#pbdc1b21d5c)" d="M 618.018059 526.54 
L 618.018059 305.716552 
" style="fill:none;stroke:#ffffff;stroke-linecap:round;"/>
     </g>
     <g id="text_31">
      <!-- 0 -->
      <g style="fill:#262626;" transform="translate(614.518684 544.398281)scale(0.11 -0.11)">
       <use xlink:href="#DejaVuSans-48"/>
      </g>
     </g>
    </g>
    <g id="xtick_32">
     <g id="line2d_68">
      <path clip-path="url(#pbdc1b21d5c)" d="M 678.555768 526.54 
L 678.555768 305.716552 
" style="fill:none;stroke:#ffffff;stroke-linecap:round;"/>
     </g>
     <g id="text_32">
      <!-- 10 -->
      <g style="fill:#262626;" transform="translate(671.557018 544.398281)scale(0.11 -0.11)">
       <use xlink:href="#DejaVuSans-49"/>
       <use x="63.623047" xlink:href="#DejaVuSans-48"/>
      </g>
     </g>
    </g>
    <g id="xtick_33">
     <g id="line2d_69">
      <path clip-path="url(#pbdc1b21d5c)" d="M 739.093476 526.54 
L 739.093476 305.716552 
" style="fill:none;stroke:#ffffff;stroke-linecap:round;"/>
     </g>
     <g id="text_33">
      <!-- 20 -->
      <g style="fill:#262626;" transform="translate(732.094726 544.398281)scale(0.11 -0.11)">
       <use xlink:href="#DejaVuSans-50"/>
       <use x="63.623047" xlink:href="#DejaVuSans-48"/>
      </g>
     </g>
    </g>
    <g id="xtick_34">
     <g id="line2d_70">
      <path clip-path="url(#pbdc1b21d5c)" d="M 799.631184 526.54 
L 799.631184 305.716552 
" style="fill:none;stroke:#ffffff;stroke-linecap:round;"/>
     </g>
     <g id="text_34">
      <!-- 30 -->
      <g style="fill:#262626;" transform="translate(792.632434 544.398281)scale(0.11 -0.11)">
       <use xlink:href="#DejaVuSans-51"/>
       <use x="63.623047" xlink:href="#DejaVuSans-48"/>
      </g>
     </g>
    </g>
    <g id="xtick_35">
     <g id="line2d_71">
      <path clip-path="url(#pbdc1b21d5c)" d="M 860.168893 526.54 
L 860.168893 305.716552 
" style="fill:none;stroke:#ffffff;stroke-linecap:round;"/>
     </g>
     <g id="text_35">
      <!-- 40 -->
      <g style="fill:#262626;" transform="translate(853.170143 544.398281)scale(0.11 -0.11)">
       <use xlink:href="#DejaVuSans-52"/>
       <use x="63.623047" xlink:href="#DejaVuSans-48"/>
      </g>
     </g>
    </g>
    <g id="text_36">
     <!-- Epsilon -->
     <g style="fill:#262626;" transform="translate(714.533153 559.804063)scale(0.12 -0.12)">
      <use xlink:href="#DejaVuSans-69"/>
      <use x="63.183594" xlink:href="#DejaVuSans-112"/>
      <use x="126.660156" xlink:href="#DejaVuSans-115"/>
      <use x="178.759766" xlink:href="#DejaVuSans-105"/>
      <use x="206.542969" xlink:href="#DejaVuSans-108"/>
      <use x="234.326172" xlink:href="#DejaVuSans-111"/>
      <use x="295.507812" xlink:href="#DejaVuSans-110"/>
     </g>
    </g>
   </g>
   <g id="matplotlib.axis_14">
    <g id="ytick_31">
     <g id="line2d_72">
      <path clip-path="url(#pbdc1b21d5c)" d="M 606.213206 520.501224 
L 865.919975 520.501224 
" style="fill:none;stroke:#ffffff;stroke-linecap:round;"/>
     </g>
    </g>
    <g id="ytick_32">
     <g id="line2d_73">
      <path clip-path="url(#pbdc1b21d5c)" d="M 606.213206 473.90793 
L 865.919975 473.90793 
" style="fill:none;stroke:#ffffff;stroke-linecap:round;"/>
     </g>
    </g>
    <g id="ytick_33">
     <g id="line2d_74">
      <path clip-path="url(#pbdc1b21d5c)" d="M 606.213206 427.314636 
L 865.919975 427.314636 
" style="fill:none;stroke:#ffffff;stroke-linecap:round;"/>
     </g>
    </g>
    <g id="ytick_34">
     <g id="line2d_75">
      <path clip-path="url(#pbdc1b21d5c)" d="M 606.213206 380.721343 
L 865.919975 380.721343 
" style="fill:none;stroke:#ffffff;stroke-linecap:round;"/>
     </g>
    </g>
    <g id="ytick_35">
     <g id="line2d_76">
      <path clip-path="url(#pbdc1b21d5c)" d="M 606.213206 334.128049 
L 865.919975 334.128049 
" style="fill:none;stroke:#ffffff;stroke-linecap:round;"/>
     </g>
    </g>
   </g>
   <g id="PolyCollection_7">
    <path clip-path="url(#pbdc1b21d5c)" d="M 630.125601 326.637386 
L 630.125601 326.637386 
L 630.125601 326.637386 
L 630.125601 326.637386 
z
" style="fill:#4c72b0;fill-opacity:0.2;stroke:#4c72b0;stroke-opacity:0.2;"/>
    <path clip-path="url(#pbdc1b21d5c)" d="M 636.179372 325.665449 
L 636.179372 325.665449 
L 636.179372 325.665449 
L 636.179372 325.665449 
z
" style="fill:#4c72b0;fill-opacity:0.2;stroke:#4c72b0;stroke-opacity:0.2;"/>
    <path clip-path="url(#pbdc1b21d5c)" d="M 642.233143 328.889495 
L 642.233143 328.889495 
L 642.233143 328.889495 
L 642.233143 328.889495 
z
" style="fill:#4c72b0;fill-opacity:0.2;stroke:#4c72b0;stroke-opacity:0.2;"/>
   </g>
   <g id="line2d_77">
    <path clip-path="url(#pbdc1b21d5c)" d="M 618.018059 446.647196 
L 624.07183 340.948961 
L 630.125601 326.637386 
L 630.730978 330.18588 
L 631.336355 331.098397 
L 631.941732 330.569296 
L 632.547109 331.971996 
L 633.152486 332.066978 
L 633.757863 327.711025 
L 634.36324 325.665449 
L 634.968618 325.665449 
L 635.573995 325.665449 
L 636.179372 325.665449 
L 636.784749 325.665449 
L 637.390126 327.704056 
L 637.995503 327.71581 
L 638.60088 328.900426 
L 639.206257 325.730679 
L 639.811634 326.041609 
L 640.417011 326.041609 
L 641.022388 326.258917 
L 641.627765 331.253857 
L 642.233143 328.889495 
L 648.286913 332.975024 
L 654.340684 347.793633 
L 660.394455 350.63507 
L 666.448226 356.638671 
L 672.501997 370.743123 
L 678.555768 379.637681 
L 684.609538 395.133068 
L 690.663309 410.960776 
L 696.71708 415.354438 
L 702.770851 431.247448 
L 708.824622 446.389822 
L 714.878393 449.558423 
L 720.932163 457.004707 
L 726.985934 471.187336 
L 733.039705 476.643057 
L 739.093476 477.946265 
L 745.147247 484.368196 
L 751.201018 480.624176 
L 757.254789 489.933588 
L 763.308559 495.50919 
L 769.36233 502.06438 
L 775.416101 504.42376 
L 781.469872 494.720163 
L 787.523643 494.720163 
L 793.577414 513.143845 
L 799.631184 461.309617 
L 805.684955 461.309617 
L 811.738726 461.309617 
L 817.792497 461.309617 
L 823.846268 461.309617 
L 829.900039 461.309617 
L 835.953809 461.309617 
L 842.00758 461.309617 
L 848.061351 461.309617 
L 854.115122 461.309617 
" style="fill:none;stroke:#4c72b0;stroke-linecap:round;stroke-width:1.5;"/>
   </g>
   <g id="patch_21">
    <path d="M 606.213206 526.54 
L 606.213206 305.716552 
" style="fill:none;stroke:#ffffff;stroke-linecap:square;stroke-linejoin:miter;stroke-width:1.25;"/>
   </g>
   <g id="patch_22">
    <path d="M 606.213206 526.54 
L 865.919975 526.54 
" style="fill:none;stroke:#ffffff;stroke-linecap:square;stroke-linejoin:miter;stroke-width:1.25;"/>
   </g>
   <g id="text_37">
    <!-- Segment 7 -->
    <g style="fill:#262626;" transform="translate(703.341278 299.716552)scale(0.12 -0.12)">
     <defs>
      <path d="M 8.203125 72.90625 
L 55.078125 72.90625 
L 55.078125 68.703125 
L 28.609375 0 
L 18.3125 0 
L 43.21875 64.59375 
L 8.203125 64.59375 
z
" id="DejaVuSans-55"/>
     </defs>
     <use xlink:href="#DejaVuSans-83"/>
     <use x="63.476562" xlink:href="#DejaVuSans-101"/>
     <use x="125" xlink:href="#DejaVuSans-103"/>
     <use x="188.476562" xlink:href="#DejaVuSans-109"/>
     <use x="285.888672" xlink:href="#DejaVuSans-101"/>
     <use x="347.412109" xlink:href="#DejaVuSans-110"/>
     <use x="410.791016" xlink:href="#DejaVuSans-116"/>
     <use x="450" xlink:href="#DejaVuSans-32"/>
     <use x="481.787109" xlink:href="#DejaVuSans-55"/>
    </g>
   </g>
  </g>
  <g id="axes_8">
   <g id="patch_23">
    <path d="M 880.685231 526.54 
L 1140.392 526.54 
L 1140.392 305.716552 
L 880.685231 305.716552 
z
" style="fill:#eaeaf2;"/>
   </g>
   <g id="matplotlib.axis_15">
    <g id="xtick_36">
     <g id="line2d_78">
      <path clip-path="url(#p0edb584382)" d="M 892.490084 526.54 
L 892.490084 305.716552 
" style="fill:none;stroke:#ffffff;stroke-linecap:round;"/>
     </g>
     <g id="text_38">
      <!-- 0 -->
      <g style="fill:#262626;" transform="translate(888.990709 544.398281)scale(0.11 -0.11)">
       <use xlink:href="#DejaVuSans-48"/>
      </g>
     </g>
    </g>
    <g id="xtick_37">
     <g id="line2d_79">
      <path clip-path="url(#p0edb584382)" d="M 953.027792 526.54 
L 953.027792 305.716552 
" style="fill:none;stroke:#ffffff;stroke-linecap:round;"/>
     </g>
     <g id="text_39">
      <!-- 10 -->
      <g style="fill:#262626;" transform="translate(946.029042 544.398281)scale(0.11 -0.11)">
       <use xlink:href="#DejaVuSans-49"/>
       <use x="63.623047" xlink:href="#DejaVuSans-48"/>
      </g>
     </g>
    </g>
    <g id="xtick_38">
     <g id="line2d_80">
      <path clip-path="url(#p0edb584382)" d="M 1013.565501 526.54 
L 1013.565501 305.716552 
" style="fill:none;stroke:#ffffff;stroke-linecap:round;"/>
     </g>
     <g id="text_40">
      <!-- 20 -->
      <g style="fill:#262626;" transform="translate(1006.566751 544.398281)scale(0.11 -0.11)">
       <use xlink:href="#DejaVuSans-50"/>
       <use x="63.623047" xlink:href="#DejaVuSans-48"/>
      </g>
     </g>
    </g>
    <g id="xtick_39">
     <g id="line2d_81">
      <path clip-path="url(#p0edb584382)" d="M 1074.103209 526.54 
L 1074.103209 305.716552 
" style="fill:none;stroke:#ffffff;stroke-linecap:round;"/>
     </g>
     <g id="text_41">
      <!-- 30 -->
      <g style="fill:#262626;" transform="translate(1067.104459 544.398281)scale(0.11 -0.11)">
       <use xlink:href="#DejaVuSans-51"/>
       <use x="63.623047" xlink:href="#DejaVuSans-48"/>
      </g>
     </g>
    </g>
    <g id="xtick_40">
     <g id="line2d_82">
      <path clip-path="url(#p0edb584382)" d="M 1134.640918 526.54 
L 1134.640918 305.716552 
" style="fill:none;stroke:#ffffff;stroke-linecap:round;"/>
     </g>
     <g id="text_42">
      <!-- 40 -->
      <g style="fill:#262626;" transform="translate(1127.642168 544.398281)scale(0.11 -0.11)">
       <use xlink:href="#DejaVuSans-52"/>
       <use x="63.623047" xlink:href="#DejaVuSans-48"/>
      </g>
     </g>
    </g>
    <g id="text_43">
     <!-- Epsilon -->
     <g style="fill:#262626;" transform="translate(989.005178 559.804063)scale(0.12 -0.12)">
      <use xlink:href="#DejaVuSans-69"/>
      <use x="63.183594" xlink:href="#DejaVuSans-112"/>
      <use x="126.660156" xlink:href="#DejaVuSans-115"/>
      <use x="178.759766" xlink:href="#DejaVuSans-105"/>
      <use x="206.542969" xlink:href="#DejaVuSans-108"/>
      <use x="234.326172" xlink:href="#DejaVuSans-111"/>
      <use x="295.507812" xlink:href="#DejaVuSans-110"/>
     </g>
    </g>
   </g>
   <g id="matplotlib.axis_16">
    <g id="ytick_36">
     <g id="line2d_83">
      <path clip-path="url(#p0edb584382)" d="M 880.685231 520.501224 
L 1140.392 520.501224 
" style="fill:none;stroke:#ffffff;stroke-linecap:round;"/>
     </g>
    </g>
    <g id="ytick_37">
     <g id="line2d_84">
      <path clip-path="url(#p0edb584382)" d="M 880.685231 473.90793 
L 1140.392 473.90793 
" style="fill:none;stroke:#ffffff;stroke-linecap:round;"/>
     </g>
    </g>
    <g id="ytick_38">
     <g id="line2d_85">
      <path clip-path="url(#p0edb584382)" d="M 880.685231 427.314636 
L 1140.392 427.314636 
" style="fill:none;stroke:#ffffff;stroke-linecap:round;"/>
     </g>
    </g>
    <g id="ytick_39">
     <g id="line2d_86">
      <path clip-path="url(#p0edb584382)" d="M 880.685231 380.721343 
L 1140.392 380.721343 
" style="fill:none;stroke:#ffffff;stroke-linecap:round;"/>
     </g>
    </g>
    <g id="ytick_40">
     <g id="line2d_87">
      <path clip-path="url(#p0edb584382)" d="M 880.685231 334.128049 
L 1140.392 334.128049 
" style="fill:none;stroke:#ffffff;stroke-linecap:round;"/>
     </g>
    </g>
   </g>
   <g id="PolyCollection_8">
    <path clip-path="url(#p0edb584382)" d="M 898.543855 334.375635 
L 898.543855 334.375635 
L 898.543855 334.375635 
L 898.543855 334.375635 
z
" style="fill:#4c72b0;fill-opacity:0.2;stroke:#4c72b0;stroke-opacity:0.2;"/>
    <path clip-path="url(#p0edb584382)" d="M 904.597626 319.018269 
L 904.597626 319.018269 
L 904.597626 319.018269 
L 904.597626 319.018269 
z
" style="fill:#4c72b0;fill-opacity:0.2;stroke:#4c72b0;stroke-opacity:0.2;"/>
    <path clip-path="url(#p0edb584382)" d="M 910.651397 321.006679 
L 910.651397 321.006679 
L 910.651397 321.006679 
L 910.651397 321.006679 
z
" style="fill:#4c72b0;fill-opacity:0.2;stroke:#4c72b0;stroke-opacity:0.2;"/>
   </g>
   <g id="line2d_88">
    <path clip-path="url(#p0edb584382)" d="M 892.490084 447.297267 
L 898.543855 334.375635 
L 899.149232 334.877212 
L 899.754609 331.789084 
L 900.359986 325.195249 
L 900.965363 325.479425 
L 901.57074 325.30118 
L 902.176117 318.321635 
L 902.781494 318.725588 
L 903.386872 318.79552 
L 903.992249 319.018269 
L 904.597626 319.018269 
L 905.203003 319.559259 
L 905.80838 320.275958 
L 906.413757 319.671502 
L 907.019134 319.671502 
L 907.624511 324.72095 
L 908.229888 324.346212 
L 908.835265 324.346212 
L 909.440642 322.256197 
L 910.04602 322.256197 
L 910.651397 321.006679 
L 916.705167 325.478054 
L 922.758938 320.889216 
L 928.812709 340.229589 
L 934.86648 353.242227 
L 940.920251 364.212115 
L 946.974022 373.297676 
L 953.027792 386.182826 
L 959.081563 404.28099 
L 965.135334 429.188872 
L 971.189105 441.526355 
L 977.242876 455.182534 
L 983.296647 455.263291 
L 989.350418 462.281228 
L 995.404188 464.604971 
L 1001.457959 469.291845 
L 1007.51173 480.446657 
L 1013.565501 482.738516 
L 1019.619272 485.714158 
L 1025.673043 487.191382 
L 1031.726813 489.492327 
L 1037.780584 497.459941 
L 1043.834355 494.821582 
L 1049.888126 495.867567 
L 1055.941897 503.47373 
L 1061.995668 502.770174 
L 1068.049438 516.502571 
L 1074.103209 491.439332 
L 1080.15698 491.439332 
L 1086.210751 491.439332 
L 1092.264522 491.439332 
" style="fill:none;stroke:#4c72b0;stroke-linecap:round;stroke-width:1.5;"/>
   </g>
   <g id="patch_24">
    <path d="M 880.685231 526.54 
L 880.685231 305.716552 
" style="fill:none;stroke:#ffffff;stroke-linecap:square;stroke-linejoin:miter;stroke-width:1.25;"/>
   </g>
   <g id="patch_25">
    <path d="M 880.685231 526.54 
L 1140.392 526.54 
" style="fill:none;stroke:#ffffff;stroke-linecap:square;stroke-linejoin:miter;stroke-width:1.25;"/>
   </g>
   <g id="text_44">
    <!-- Segment 8 -->
    <g style="fill:#262626;" transform="translate(977.813303 299.716552)scale(0.12 -0.12)">
     <use xlink:href="#DejaVuSans-83"/>
     <use x="63.476562" xlink:href="#DejaVuSans-101"/>
     <use x="125" xlink:href="#DejaVuSans-103"/>
     <use x="188.476562" xlink:href="#DejaVuSans-109"/>
     <use x="285.888672" xlink:href="#DejaVuSans-101"/>
     <use x="347.412109" xlink:href="#DejaVuSans-110"/>
     <use x="410.791016" xlink:href="#DejaVuSans-116"/>
     <use x="450" xlink:href="#DejaVuSans-32"/>
     <use x="481.787109" xlink:href="#DejaVuSans-56"/>
    </g>
   </g>
  </g>
  <g id="text_45">
   <!-- DBCV by changing Epsilon -->
   <g style="fill:#262626;" transform="translate(485.349875 22.46175)scale(0.144 -0.144)">
    <defs>
     <path d="M 48.6875 27.296875 
Q 48.6875 37.203125 44.609375 42.84375 
Q 40.53125 48.484375 33.40625 48.484375 
Q 26.265625 48.484375 22.1875 42.84375 
Q 18.109375 37.203125 18.109375 27.296875 
Q 18.109375 17.390625 22.1875 11.75 
Q 26.265625 6.109375 33.40625 6.109375 
Q 40.53125 6.109375 44.609375 11.75 
Q 48.6875 17.390625 48.6875 27.296875 
z
M 18.109375 46.390625 
Q 20.953125 51.265625 25.265625 53.625 
Q 29.59375 56 35.59375 56 
Q 45.5625 56 51.78125 48.09375 
Q 58.015625 40.1875 58.015625 27.296875 
Q 58.015625 14.40625 51.78125 6.484375 
Q 45.5625 -1.421875 35.59375 -1.421875 
Q 29.59375 -1.421875 25.265625 0.953125 
Q 20.953125 3.328125 18.109375 8.203125 
L 18.109375 0 
L 9.078125 0 
L 9.078125 75.984375 
L 18.109375 75.984375 
z
" id="DejaVuSans-98"/>
     <path d="M 32.171875 -5.078125 
Q 28.375 -14.84375 24.75 -17.8125 
Q 21.140625 -20.796875 15.09375 -20.796875 
L 7.90625 -20.796875 
L 7.90625 -13.28125 
L 13.1875 -13.28125 
Q 16.890625 -13.28125 18.9375 -11.515625 
Q 21 -9.765625 23.484375 -3.21875 
L 25.09375 0.875 
L 2.984375 54.6875 
L 12.5 54.6875 
L 29.59375 11.921875 
L 46.6875 54.6875 
L 56.203125 54.6875 
z
" id="DejaVuSans-121"/>
     <path d="M 48.78125 52.59375 
L 48.78125 44.1875 
Q 44.96875 46.296875 41.140625 47.34375 
Q 37.3125 48.390625 33.40625 48.390625 
Q 24.65625 48.390625 19.8125 42.84375 
Q 14.984375 37.3125 14.984375 27.296875 
Q 14.984375 17.28125 19.8125 11.734375 
Q 24.65625 6.203125 33.40625 6.203125 
Q 37.3125 6.203125 41.140625 7.25 
Q 44.96875 8.296875 48.78125 10.40625 
L 48.78125 2.09375 
Q 45.015625 0.34375 40.984375 -0.53125 
Q 36.96875 -1.421875 32.421875 -1.421875 
Q 20.0625 -1.421875 12.78125 6.34375 
Q 5.515625 14.109375 5.515625 27.296875 
Q 5.515625 40.671875 12.859375 48.328125 
Q 20.21875 56 33.015625 56 
Q 37.15625 56 41.109375 55.140625 
Q 45.0625 54.296875 48.78125 52.59375 
z
" id="DejaVuSans-99"/>
     <path d="M 54.890625 33.015625 
L 54.890625 0 
L 45.90625 0 
L 45.90625 32.71875 
Q 45.90625 40.484375 42.875 44.328125 
Q 39.84375 48.1875 33.796875 48.1875 
Q 26.515625 48.1875 22.3125 43.546875 
Q 18.109375 38.921875 18.109375 30.90625 
L 18.109375 0 
L 9.078125 0 
L 9.078125 75.984375 
L 18.109375 75.984375 
L 18.109375 46.1875 
Q 21.34375 51.125 25.703125 53.5625 
Q 30.078125 56 35.796875 56 
Q 45.21875 56 50.046875 50.171875 
Q 54.890625 44.34375 54.890625 33.015625 
z
" id="DejaVuSans-104"/>
     <path d="M 34.28125 27.484375 
Q 23.390625 27.484375 19.1875 25 
Q 14.984375 22.515625 14.984375 16.5 
Q 14.984375 11.71875 18.140625 8.90625 
Q 21.296875 6.109375 26.703125 6.109375 
Q 34.1875 6.109375 38.703125 11.40625 
Q 43.21875 16.703125 43.21875 25.484375 
L 43.21875 27.484375 
z
M 52.203125 31.203125 
L 52.203125 0 
L 43.21875 0 
L 43.21875 8.296875 
Q 40.140625 3.328125 35.546875 0.953125 
Q 30.953125 -1.421875 24.3125 -1.421875 
Q 15.921875 -1.421875 10.953125 3.296875 
Q 6 8.015625 6 15.921875 
Q 6 25.140625 12.171875 29.828125 
Q 18.359375 34.515625 30.609375 34.515625 
L 43.21875 34.515625 
L 43.21875 35.40625 
Q 43.21875 41.609375 39.140625 45 
Q 35.0625 48.390625 27.6875 48.390625 
Q 23 48.390625 18.546875 47.265625 
Q 14.109375 46.140625 10.015625 43.890625 
L 10.015625 52.203125 
Q 14.9375 54.109375 19.578125 55.046875 
Q 24.21875 56 28.609375 56 
Q 40.484375 56 46.34375 49.84375 
Q 52.203125 43.703125 52.203125 31.203125 
z
" id="DejaVuSans-97"/>
    </defs>
    <use xlink:href="#DejaVuSans-68"/>
    <use x="77.001953" xlink:href="#DejaVuSans-66"/>
    <use x="143.855469" xlink:href="#DejaVuSans-67"/>
    <use x="213.679688" xlink:href="#DejaVuSans-86"/>
    <use x="282.087891" xlink:href="#DejaVuSans-32"/>
    <use x="313.875" xlink:href="#DejaVuSans-98"/>
    <use x="377.351562" xlink:href="#DejaVuSans-121"/>
    <use x="436.53125" xlink:href="#DejaVuSans-32"/>
    <use x="468.318359" xlink:href="#DejaVuSans-99"/>
    <use x="523.298828" xlink:href="#DejaVuSans-104"/>
    <use x="586.677734" xlink:href="#DejaVuSans-97"/>
    <use x="647.957031" xlink:href="#DejaVuSans-110"/>
    <use x="711.335938" xlink:href="#DejaVuSans-103"/>
    <use x="774.8125" xlink:href="#DejaVuSans-105"/>
    <use x="802.595703" xlink:href="#DejaVuSans-110"/>
    <use x="865.974609" xlink:href="#DejaVuSans-103"/>
    <use x="929.451172" xlink:href="#DejaVuSans-32"/>
    <use x="961.238281" xlink:href="#DejaVuSans-69"/>
    <use x="1024.421875" xlink:href="#DejaVuSans-112"/>
    <use x="1087.898438" xlink:href="#DejaVuSans-115"/>
    <use x="1139.998047" xlink:href="#DejaVuSans-105"/>
    <use x="1167.78125" xlink:href="#DejaVuSans-108"/>
    <use x="1195.564453" xlink:href="#DejaVuSans-111"/>
    <use x="1256.746094" xlink:href="#DejaVuSans-110"/>
   </g>
  </g>
  <g id="legend_1"/>
 </g>
 <defs>
  <clipPath id="p69e3289e7e">
   <rect height="220.823448" width="259.706769" x="57.269156" y="57.6"/>
  </clipPath>
  <clipPath id="p79b37f6806">
   <rect height="220.823448" width="259.706769" x="331.741181" y="57.6"/>
  </clipPath>
  <clipPath id="pde65e7845a">
   <rect height="220.823448" width="259.706769" x="606.213206" y="57.6"/>
  </clipPath>
  <clipPath id="p38d2e2f917">
   <rect height="220.823448" width="259.706769" x="880.685231" y="57.6"/>
  </clipPath>
  <clipPath id="pafc8b9f918">
   <rect height="220.823448" width="259.706769" x="57.269156" y="305.716552"/>
  </clipPath>
  <clipPath id="p5e988b0061">
   <rect height="220.823448" width="259.706769" x="331.741181" y="305.716552"/>
  </clipPath>
  <clipPath id="pbdc1b21d5c">
   <rect height="220.823448" width="259.706769" x="606.213206" y="305.716552"/>
  </clipPath>
  <clipPath id="p0edb584382">
   <rect height="220.823448" width="259.706769" x="880.685231" y="305.716552"/>
  </clipPath>
 </defs>
</svg>
