<?xml version="1.0" encoding="UTF-8" standalone="no"?>
<svg
   xmlns:dc="http://purl.org/dc/elements/1.1/"
   xmlns:cc="http://creativecommons.org/ns#"
   xmlns:rdf="http://www.w3.org/1999/02/22-rdf-syntax-ns#"
   xmlns:svg="http://www.w3.org/2000/svg"
   xmlns="http://www.w3.org/2000/svg"
   xmlns:sodipodi="http://sodipodi.sourceforge.net/DTD/sodipodi-0.dtd"
   xmlns:inkscape="http://www.inkscape.org/namespaces/inkscape"
   width="1000"
   height="1000"
   viewBox="0 0 264.58333 264.58334"
   version="1.1"
   id="svg8"
   inkscape:version="1.0.1 (1.0.1+r73)"
   sodipodi:docname="connected.svg">
  <defs
     id="defs2">
    <rect
       x="-417.71901"
       y="-82.778026"
       width="67.900457"
       height="91.558003"
       id="rect976" />
    <rect
       x="-21.166667"
       y="191.82292"
       width="19.84375"
       height="30.427084"
       id="rect985" />
    <rect
       x="-21.166667"
       y="191.82292"
       width="19.84375"
       height="30.427084"
       id="rect993" />
    <rect
       x="-21.166667"
       y="191.82292"
       width="19.84375"
       height="30.427084"
       id="rect999" />
    <rect
       x="-21.166667"
       y="191.82292"
       width="19.84375"
       height="30.427084"
       id="rect1005" />
    <rect
       x="-21.166667"
       y="191.82292"
       width="19.84375"
       height="30.427084"
       id="rect1011" />
    <rect
       x="-21.166667"
       y="191.82292"
       width="19.84375"
       height="30.427084"
       id="rect1017" />
    <rect
       x="-21.166667"
       y="191.82292"
       width="19.84375"
       height="30.427084"
       id="rect1023" />
    <rect
       x="-21.166667"
       y="191.82292"
       width="19.84375"
       height="30.427084"
       id="rect1029" />
  </defs>
  <sodipodi:namedview
     id="base"
     pagecolor="#ffffff"
     bordercolor="#666666"
     borderopacity="1.0"
     inkscape:pageopacity="0.0"
     inkscape:pageshadow="2"
     inkscape:zoom="0.35"
     inkscape:cx="162.96175"
     inkscape:cy="1061.2578"
     inkscape:document-units="px"
     inkscape:current-layer="layer1"
     inkscape:document-rotation="0"
     showgrid="true"
     units="px"
     inkscape:window-width="1858"
     inkscape:window-height="1136"
     inkscape:window-x="62"
     inkscape:window-y="27"
     inkscape:window-maximized="1"
     inkscape:snap-intersection-paths="true" />
  <metadata
     id="metadata5">
    <rdf:RDF>
      <cc:Work
         rdf:about="">
        <dc:format>image/svg+xml</dc:format>
        <dc:type
           rdf:resource="http://purl.org/dc/dcmitype/StillImage" />
        <dc:title></dc:title>
      </cc:Work>
    </rdf:RDF>
  </metadata>
  <g
     inkscape:label="Layer 1"
     inkscape:groupmode="layer"
     id="layer1">
    <g
       id="g1197"
       transform="translate(-35.479512,17.266171)">
      <path
         id="path901"
         style="color:#000000;font-style:normal;font-variant:normal;font-weight:normal;font-stretch:normal;font-size:medium;line-height:normal;font-family:sans-serif;font-variant-ligatures:normal;font-variant-position:normal;font-variant-caps:normal;font-variant-numeric:normal;font-variant-alternates:normal;font-variant-east-asian:normal;font-feature-settings:normal;font-variation-settings:normal;text-indent:0;text-align:start;text-decoration:none;text-decoration-line:none;text-decoration-style:solid;text-decoration-color:#000000;letter-spacing:normal;word-spacing:normal;text-transform:none;writing-mode:lr-tb;direction:ltr;text-orientation:mixed;dominant-baseline:auto;baseline-shift:baseline;text-anchor:start;white-space:normal;shape-padding:0;shape-margin:0;inline-size:0;clip-rule:nonzero;display:inline;overflow:visible;visibility:visible;isolation:auto;mix-blend-mode:normal;color-interpolation:sRGB;color-interpolation-filters:linearRGB;solid-color:#000000;solid-opacity:1;vector-effect:none;fill:#666666;fill-opacity:1;fill-rule:nonzero;stroke:none;stroke-width:2.64583;stroke-linecap:butt;stroke-linejoin:miter;stroke-miterlimit:4;stroke-dasharray:none;stroke-dashoffset:0;stroke-opacity:1;color-rendering:auto;image-rendering:auto;shape-rendering:auto;text-rendering:auto;enable-background:accumulate;stop-color:#000000"
         d="M -215.58735,10.732167 V 59.679566 H -259.2436 V 178.74206 h -15.875 v 54.32279 a 10.583333,10.583333 0 0 0 -9.26042,10.50013 10.583333,10.583333 0 0 0 10.58334,10.58333 10.583333,10.583333 0 0 0 10.58333,-10.58333 10.583333,10.583333 0 0 0 -9.26042,-10.50013 l 5.3e-4,-51.67644 h 29.10364 v 51.67644 a 10.583333,10.583333 0 0 0 -9.26042,10.50013 10.583333,10.583333 0 0 0 10.58334,10.58333 10.583333,10.583333 0 0 0 10.58333,-10.58333 10.583333,10.583333 0 0 0 -9.26042,-10.50013 l 5.2e-4,-54.32279 h -15.875 V 62.325915 h 84.66615 v 50.269805 h -23.8125 v 52.91769 h -15.875 v 67.55144 a 10.583333,10.583333 0 0 0 -9.26042,10.50013 10.583333,10.583333 0 0 0 10.58334,10.58333 10.583333,10.583333 0 0 0 10.58333,-10.58333 10.583333,10.583333 0 0 0 -9.26042,-10.50013 l 5.3e-4,-64.90663 h 29.10364 v 64.90663 a 10.583333,10.583333 0 0 0 -9.26042,10.50013 10.583333,10.583333 0 0 0 10.58334,10.58333 10.583333,10.583333 0 0 0 10.58333,-10.58333 10.583333,10.583333 0 0 0 -9.26042,-10.50013 l 5.3e-4,-67.55144 h -15.875 v -50.27134 h 44.97864 v 117.82278 a 10.583333,10.583333 0 0 0 -9.26042,10.50013 10.583333,10.583333 0 0 0 10.58333,10.58333 10.583333,10.583333 0 0 0 10.58334,-10.58333 10.583333,10.583333 0 0 0 -9.26042,-10.50013 l 5.3e-4,-120.46913 h -23.8125 V 59.679566 h -43.65625 V 13.376967 H -92.556103 V 152.28322 H -116.3686 v 1.32394 79.375 0.0827 a 10.583333,10.583333 0 0 0 -9.25938,10.35957 10.583333,10.583333 0 0 0 -0.001,0.14056 10.583333,10.583333 0 0 0 10.3017,10.57972 10.583333,10.583333 0 0 0 0.28163,0.004 10.583333,10.583333 0 0 0 10.58334,-10.58333 10.583333,10.583333 0 0 0 -9.26042,-10.50013 v -0.0827 h 5.3e-4 v -78.0526 h 44.978637 v 37.04116 h -15.875 v 41.09413 a 10.583333,10.583333 0 0 0 -9.259382,10.35957 10.583333,10.583333 0 0 0 -0.001,0.14056 10.583333,10.583333 0 0 0 10.301697,10.57972 10.583333,10.583333 0 0 0 0.281636,0.004 10.583333,10.583333 0 0 0 10.583333,-10.58333 10.583333,10.583333 0 0 0 -9.260416,-10.50013 l 5.16e-4,-38.44779 h 29.10365 v 38.44779 a 10.583333,10.583333 0 0 0 -9.259382,10.35957 10.583333,10.583333 0 0 0 -0.001,0.14056 10.583333,10.583333 0 0 0 10.301698,10.57972 10.583333,10.583333 0 0 0 0.281636,0.004 10.583333,10.583333 0 0 0 10.583333,-10.58333 10.583333,10.583333 0 0 0 -9.260417,-10.50013 l 5.29e-4,-41.09413 H -66.09724 v -39.6875 h -23.8125 V 10.732167 Z" />
      <circle
         style="fill:#d35f5f;fill-opacity:1;stroke-width:1.48913;stroke-linejoin:bevel;stroke-dasharray:4.46741, 1.48913"
         id="circle1140"
         cx="-178.54568"
         cy="243.56497"
         r="10.583333" />
      <circle
         style="fill:#d35f5f;fill-opacity:1;stroke-width:1.48913;stroke-linejoin:bevel;stroke-dasharray:4.46741, 1.48913"
         id="circle1138"
         cx="-146.79568"
         cy="243.56497"
         r="10.583333" />
      <circle
         style="fill:#d35f5f;fill-opacity:1;stroke-width:1.48913;stroke-linejoin:bevel;stroke-dasharray:4.46741, 1.48913"
         id="circle1136"
         cx="-242.04568"
         cy="243.56497"
         r="10.583333" />
      <path
         id="path942"
         style="fill:#cccccc;stroke-width:0.198438;stroke-linejoin:bevel;stroke-dashoffset:6.00002"
         d="m -273.83392,235.62748 a 7.9374999,7.9374986 0 0 0 -7.89926,7.9375 7.9374999,7.9374986 0 0 0 7.9375,7.9375 7.9374999,7.9374986 0 0 0 7.9375,-7.9375 7.9374999,7.9374986 0 0 0 -7.9375,-7.9375 7.9374999,7.9374986 0 0 0 -0.0382,0 z m -0.74725,2.79415 h 1.57769 l 3.92069,10.2867 h -1.44694 l -0.9369,-2.63859 h -4.63744 l -0.93689,2.63859 h -1.46761 z m 0.78549,1.37097 -1.88774,5.11959 h 3.78271 z" />
      <path
         id="path944"
         style="fill:#cccccc;stroke-width:0.198438;stroke-linejoin:bevel;stroke-dashoffset:6.00002"
         d="m -242.08392,235.62748 a 7.9374999,7.9374986 0 0 0 -7.89926,7.9375 7.9374999,7.9374986 0 0 0 7.9375,7.9375 7.9374999,7.9374986 0 0 0 7.9375,-7.9375 7.9374999,7.9374986 0 0 0 -7.9375,-7.9375 7.9374999,7.9374986 0 0 0 -0.0382,0 z m -3.61012,2.79415 h 3.55534 c 1.06109,0 1.8789,0.22048 2.45308,0.66145 0.57418,0.44098 0.86093,1.06798 0.86093,1.88103 0,0.6293 -0.14682,1.12965 -0.4408,1.50171 -0.29398,0.37207 -0.72594,0.60422 -1.29553,0.69608 0.68442,0.147 1.21497,0.45494 1.59163,0.92346 0.38126,0.46394 0.57206,1.04484 0.57206,1.74305 0,0.91869 -0.31218,1.62838 -0.93689,2.12907 -0.62471,0.50068 -1.51355,0.75085 -2.66651,0.75085 h -3.69331 z m 1.39165,1.14359 v 3.10059 h 2.06033 c 0.67984,0 1.18495,-0.12615 1.51568,-0.37879 0.33532,-0.25723 0.50332,-0.64785 0.50332,-1.1715 0,-0.51906 -0.168,-0.90704 -0.50332,-1.16427 -0.33073,-0.25723 -0.83584,-0.38603 -1.51568,-0.38603 z m 0,4.23075 v 3.76877 h 2.23242 c 0.74873,0 1.30259,-0.15372 1.66088,-0.46147 0.36288,-0.31235 0.54415,-0.78778 0.54415,-1.42627 0,-0.64309 -0.18127,-1.11639 -0.54415,-1.41955 -0.35829,-0.30777 -0.91215,-0.46148 -1.66088,-0.46148 z" />
      <path
         id="path946"
         style="fill:#cccccc;stroke-width:0.198438;stroke-linejoin:bevel;stroke-dashoffset:6.00002"
         d="m -210.33392,235.62748 a 7.9374999,7.9374986 0 0 0 -7.89926,7.9375 7.9374999,7.9374986 0 0 0 7.9375,7.9375 7.9374999,7.9374986 0 0 0 7.9375,-7.9375 7.9374999,7.9374986 0 0 0 -7.9375,-7.9375 7.9374999,7.9374986 0 0 0 -0.0382,0 z m 0.91312,2.60088 c 0.61552,0 1.1943,0.0827 1.73633,0.24804 0.54662,0.16077 1.05913,0.40457 1.53685,0.73071 v 1.46761 c -0.46853,-0.43638 -0.96939,-0.76287 -1.50223,-0.97875 -0.52825,-0.2159 -1.09112,-0.3235 -1.68827,-0.3235 -1.17593,0 -2.0759,0.36042 -2.70061,1.08159 -0.62471,0.71658 -0.93741,1.75488 -0.93741,3.11454 0,1.35507 0.3127,2.39285 0.93741,3.11402 0.62471,0.71658 1.52468,1.07487 2.70061,1.07487 0.59715,0 1.16002,-0.1076 1.68827,-0.32349 0.53284,-0.2159 1.0337,-0.54238 1.50223,-0.97876 v 1.45418 c -0.4869,0.33072 -1.00367,0.57877 -1.55029,0.74414 -0.54203,0.16537 -1.11655,0.24805 -1.72289,0.24805 -1.55718,0 -2.78364,-0.47543 -3.67936,-1.42627 -0.89573,-0.95544 -1.34359,-2.25769 -1.34359,-3.90674 0,-1.65364 0.44786,-2.95589 1.34359,-3.90674 0.89572,-0.95544 2.12218,-1.4335 3.67936,-1.4335 z" />
      <path
         id="path948"
         style="fill:#cccccc;stroke-width:0.198438;stroke-linejoin:bevel;stroke-dashoffset:6.00002"
         d="m -178.58393,235.62748 a 7.9374999,7.9374986 0 0 0 -7.89925,7.9375 7.9374999,7.9374986 0 0 0 7.9375,7.9375 7.9374999,7.9374986 0 0 0 7.9375,-7.9375 7.9374999,7.9374986 0 0 0 -7.9375,-7.9375 7.9374999,7.9374986 0 0 0 -0.0383,0 z m -4.28552,2.79415 h 2.85977 c 1.99356,0 3.45641,0.41553 4.38888,1.24695 0.93247,0.82682 1.39888,2.12218 1.39888,3.88607 0,1.77307 -0.46854,3.07531 -1.4056,3.90673 -0.93706,0.83142 -2.39778,1.24695 -4.38216,1.24695 h -2.85977 z m 1.39216,1.14359 v 7.99952 h 1.68104 c 1.41937,0 2.45767,-0.32172 3.11453,-0.9648 0.66146,-0.64309 0.99219,-1.65807 0.99219,-3.04529 0,-1.37803 -0.33073,-2.38613 -0.99219,-3.02463 -0.65686,-0.64308 -1.69516,-0.9648 -3.11453,-0.9648 z" />
      <path
         id="path950"
         style="fill:#cccccc;stroke-width:0.198438;stroke-linejoin:bevel;stroke-dashoffset:6.00002"
         d="m -146.83393,235.62748 a 7.9374999,7.9374986 0 0 0 -7.89926,7.9375 7.9374999,7.9374986 0 0 0 7.9375,7.9375 7.9374999,7.9374986 0 0 0 7.9375,-7.9375 7.9374999,7.9374986 0 0 0 -7.9375,-7.9375 7.9374999,7.9374986 0 0 0 -0.0382,0 z m -3.27576,2.79415 h 6.50399 v 1.17098 h -5.11235 v 3.04581 h 4.89893 v 1.17099 h -4.89893 v 3.72794 h 5.23637 v 1.17098 h -6.62801 z" />
      <path
         id="path952"
         style="fill:#cccccc;stroke-width:0.198438;stroke-linejoin:bevel;stroke-dashoffset:6.00002"
         d="m -115.08393,235.62748 a 7.9374999,7.9374986 0 0 0 -7.89926,7.9375 7.9374999,7.9374986 0 0 0 7.9375,7.9375 7.9374999,7.9374986 0 0 0 7.9375,-7.9375 7.9374999,7.9374986 0 0 0 -7.9375,-7.9375 7.9374999,7.9374986 0 0 0 -0.0382,0 z m -2.91765,2.79415 h 5.91179 v 1.17098 h -4.52014 v 3.03186 h 4.07934 v 1.1715 h -4.07934 v 4.91236 h -1.39165 z" />
      <circle
         style="fill:#d35f5f;fill-opacity:1;stroke-width:1.48913;stroke-linejoin:bevel;stroke-dasharray:4.46741, 1.48913"
         id="circle1134"
         cx="-83.295685"
         cy="243.56497"
         r="10.583333" />
      <path
         id="path954"
         style="fill:#cccccc;stroke-width:0.198438;stroke-linejoin:bevel;stroke-dashoffset:6.00002"
         d="m -83.333926,235.62748 a 7.9374999,7.9374986 0 0 0 -7.89926,7.9375 7.9374999,7.9374986 0 0 0 7.9375,7.9375 7.9374999,7.9374986 0 0 0 7.9375,-7.9375 7.9374999,7.9374986 0 0 0 -7.9375,-7.9375 7.9374999,7.9374986 0 0 0 -0.03824,0 z m 0.679029,2.60088 c 0.670645,0 1.306669,0.0827 1.908411,0.24804 0.606337,0.16536 1.164441,0.40916 1.674315,0.73071 v 1.48104 c -0.514467,-0.43638 -1.060921,-0.76446 -1.639695,-0.98495 -0.578778,-0.22049 -1.187241,-0.33073 -1.825728,-0.33073 -1.258604,0 -2.205201,0.3514 -2.839101,1.0542 -0.629309,0.7028 -0.943612,1.75012 -0.943612,3.14193 0,1.38722 0.314303,2.43189 0.943612,3.13469 0.6339,0.7028 1.580497,1.0542 2.839101,1.0542 0.491501,0 0.929836,-0.0413 1.315683,-0.12402 0.385852,-0.0873 0.733004,-0.22032 1.040762,-0.39946 v -2.76314 h -2.273763 v -1.1436 h 3.651459 v 4.41678 c -0.537435,0.38126 -1.12999,0.67065 -1.777669,0.86817 -0.647681,0.19292 -1.338823,0.28939 -2.073775,0.28939 -1.607709,0 -2.86649,-0.46854 -3.775998,-1.4056 -0.904907,-0.94166 -1.357024,-2.2508 -1.357024,-3.92741 0,-1.6812 0.452117,-2.99034 1.357024,-3.92741 0.909508,-0.94166 2.168289,-1.41283 3.775998,-1.41283 z" />
      <path
         id="path956"
         style="fill:#cccccc;stroke-width:0.198438;stroke-linejoin:bevel;stroke-dashoffset:6.00002"
         d="m -51.583927,235.62748 a 7.9374999,7.9374986 0 0 0 -7.899259,7.9375 7.9374999,7.9374986 0 0 0 7.9375,7.9375 7.9374999,7.9374986 0 0 0 7.937499,-7.9375 7.9374999,7.9374986 0 0 0 -7.937499,-7.9375 7.9374999,7.9374986 0 0 0 -0.03824,0 z m -3.88245,2.79415 h 1.392163 v 4.21679 h 5.057055 v -4.21679 h 1.392164 v 10.2867 h -1.392164 v -4.89892 h -5.057055 v 4.89892 h -1.392163 z" />
      <path
         style="color:#000000;font-style:normal;font-variant:normal;font-weight:normal;font-stretch:normal;font-size:medium;line-height:normal;font-family:sans-serif;font-variant-ligatures:normal;font-variant-position:normal;font-variant-caps:normal;font-variant-numeric:normal;font-variant-alternates:normal;font-variant-east-asian:normal;font-feature-settings:normal;font-variation-settings:normal;text-indent:0;text-align:start;text-decoration:none;text-decoration-line:none;text-decoration-style:solid;text-decoration-color:#000000;letter-spacing:normal;word-spacing:normal;text-transform:none;writing-mode:lr-tb;direction:ltr;text-orientation:mixed;dominant-baseline:auto;baseline-shift:baseline;text-anchor:start;white-space:normal;shape-padding:0;shape-margin:0;inline-size:0;clip-rule:nonzero;display:inline;overflow:visible;visibility:visible;isolation:auto;mix-blend-mode:normal;color-interpolation:sRGB;color-interpolation-filters:linearRGB;solid-color:#000000;solid-opacity:1;vector-effect:none;fill:#d35f5f;fill-opacity:1;fill-rule:nonzero;stroke:none;stroke-width:2.64583;stroke-linecap:butt;stroke-linejoin:miter;stroke-miterlimit:4;stroke-dasharray:7.9375, 2.64583;stroke-dashoffset:0;stroke-opacity:1;color-rendering:auto;image-rendering:auto;shape-rendering:auto;text-rendering:auto;enable-background:accumulate;stop-color:#000000"
         d="m -277.76508,132.43934 v 2.64648 c 2.64583,0 5.29166,0 7.9375,0 v -2.64648 c -2.64584,0 -5.29167,0 -7.9375,0 z m 10.58398,0 v 2.64648 h 7.9375 v -2.64648 z m 10.58398,0 v 2.64648 h 7.9375 v -2.64648 z m 10.58204,0 v 2.64648 h 7.9375 v -2.64648 z m 10.58398,0 v 2.64648 h 7.9375 v -2.64648 z m 10.58398,0 v 2.64648 h 7.9375 v -2.64648 z m 10.58204,0 v 2.64648 h 7.9375 v -2.64648 z m 10.58398,0 v 2.64648 h 7.9375 v -2.64648 z m 10.58398,0 v 2.64648 h 7.9375 v -2.64648 z m 10.58204,0 v 2.64648 h 7.9375 v -2.64648 z m 10.58398,0 v 2.64648 h 7.9375 v -2.64648 z m 10.58398,0 v 2.64648 h 7.9375 v -2.64648 z m 10.58204,0 v 2.64648 h 7.9375 v -2.64648 z m 10.58398,0 v 2.64648 h 7.9375 v -2.64648 z m 10.58398,0 v 2.64648 h 7.9375 v -2.64648 z m 10.58204,0 v 2.64648 h 7.9375 v -2.64648 z m 10.58398,0 v 2.64648 h 7.9375 v -2.64648 z m 10.58398,0 v 2.64648 h 7.9375 v -2.64648 z m 10.58204,0 v 2.64648 h 7.9375 v -2.64648 z m 10.58398,0 v 2.64648 h 7.9375 v -2.64648 z m 10.58398,0 v 2.64648 h 7.9375 v -2.64648 z m 10.58204,0 v 2.64648 h 6.61523 1.32227 v -2.64648 h -1.32227 z"
         id="path1084" />
    </g>
    <g
       id="g1080"
       transform="translate(-347.67512,358.08753)">
      <circle
         style="fill:#666666;fill-opacity:1;stroke-width:2.64583;stroke-linejoin:bevel;stroke-dasharray:7.9375, 2.64583"
         id="circle1076"
         cx="45.571381"
         cy="173.02303"
         r="10.583333" />
      <path
         id="path1078"
         style="fill:#cccccc;stroke-width:0.198438;stroke-linejoin:bevel;stroke-dashoffset:6.00002"
         d="m 45.533144,165.08553 a 7.9374999,7.9374986 0 0 0 -7.89926,7.9375 7.9374999,7.9374986 0 0 0 7.9375,7.9375 7.9374999,7.9374986 0 0 0 7.9375,-7.9375 7.9374999,7.9374986 0 0 0 -7.9375,-7.9375 7.9374999,7.9374986 0 0 0 -0.0382,0 z m -0.74725,2.79415 h 1.57769 l 3.92069,10.2867 h -1.44694 l -0.9369,-2.63859 h -4.63744 l -0.93689,2.63859 h -1.46761 z m 0.78549,1.37097 -1.88774,5.11959 h 3.78271 z" />
    </g>
    <g
       id="g1087"
       transform="translate(-334.90304,354.41672)">
      <circle
         style="fill:#666666;fill-opacity:1;stroke-width:2.64583;stroke-linejoin:bevel;stroke-dasharray:7.9375, 2.64583"
         id="circle1082"
         cx="77.890335"
         cy="206.77808"
         r="10.583333" />
      <path
         id="path1085"
         style="fill:#cccccc;stroke-width:0.198438;stroke-linejoin:bevel;stroke-dashoffset:6.00002"
         d="m 77.8521,198.84058 a 7.9374999,7.9374986 0 0 0 -7.89926,7.9375 7.9374999,7.9374986 0 0 0 7.9375,7.9375 7.9374999,7.9374986 0 0 0 7.9375,-7.9375 7.9374999,7.9374986 0 0 0 -7.9375,-7.9375 7.9374999,7.9374986 0 0 0 -0.0382,0 z m -3.61012,2.79415 h 3.55534 c 1.06109,0 1.8789,0.22048 2.45308,0.66145 0.57418,0.44098 0.86093,1.06798 0.86093,1.88103 0,0.6293 -0.14682,1.12965 -0.4408,1.50171 -0.29398,0.37207 -0.72594,0.60422 -1.29553,0.69608 0.68442,0.147 1.21497,0.45494 1.59163,0.92346 0.38126,0.46394 0.57206,1.04484 0.57206,1.74305 0,0.91869 -0.31218,1.62838 -0.93689,2.12907 -0.62471,0.50068 -1.51355,0.75085 -2.66651,0.75085 h -3.69331 z m 1.39165,1.14359 v 3.10059 h 2.06033 c 0.67984,0 1.18495,-0.12615 1.51568,-0.37879 0.33532,-0.25723 0.50332,-0.64785 0.50332,-1.1715 0,-0.51906 -0.168,-0.90704 -0.50332,-1.16427 -0.33073,-0.25723 -0.83584,-0.38603 -1.51568,-0.38603 z m 0,4.23075 v 3.76877 h 2.23242 c 0.74873,0 1.30259,-0.15372 1.66088,-0.46147 0.36288,-0.31235 0.54415,-0.78778 0.54415,-1.42627 0,-0.64309 -0.18127,-1.11639 -0.54415,-1.41955 -0.35829,-0.30777 -0.91215,-0.46148 -1.66088,-0.46148 z" />
    </g>
    <circle
       style="fill:#666666;fill-opacity:1;stroke-width:2.64583;stroke-linejoin:bevel;stroke-dasharray:7.9375, 2.64583"
       id="circle1089"
       cx="-150.73984"
       cy="459.57642"
       r="10.583333" />
    <path
       id="path1091"
       style="fill:#cccccc;stroke-width:0.198438;stroke-linejoin:bevel;stroke-dashoffset:6.00002"
       d="m -150.77809,451.63892 a 7.9374999,7.9374986 0 0 0 -7.89926,7.9375 7.9374999,7.9374986 0 0 0 7.9375,7.9375 7.9374999,7.9374986 0 0 0 7.9375,-7.9375 7.9374999,7.9374986 0 0 0 -7.9375,-7.9375 7.9374999,7.9374986 0 0 0 -0.0382,0 z m 0.91312,2.60088 c 0.61552,0 1.1943,0.0827 1.73633,0.24804 0.54662,0.16077 1.05913,0.40457 1.53685,0.73071 v 1.46761 c -0.46853,-0.43638 -0.96939,-0.76287 -1.50223,-0.97875 -0.52825,-0.2159 -1.09112,-0.3235 -1.68827,-0.3235 -1.17593,0 -2.0759,0.36042 -2.70061,1.08159 -0.62471,0.71658 -0.93741,1.75488 -0.93741,3.11454 0,1.35507 0.3127,2.39285 0.93741,3.11402 0.62471,0.71658 1.52468,1.07487 2.70061,1.07487 0.59715,0 1.16002,-0.1076 1.68827,-0.32349 0.53284,-0.2159 1.0337,-0.54238 1.50223,-0.97876 v 1.45418 c -0.4869,0.33072 -1.00367,0.57877 -1.55029,0.74414 -0.54203,0.16537 -1.11655,0.24805 -1.72289,0.24805 -1.55718,0 -2.78364,-0.47543 -3.67936,-1.42627 -0.89573,-0.95544 -1.34359,-2.25769 -1.34359,-3.90674 0,-1.65364 0.44786,-2.95589 1.34359,-3.90674 0.89572,-0.95544 2.12218,-1.4335 3.67936,-1.4335 z" />
    <circle
       style="fill:#666666;fill-opacity:1;stroke-width:2.64583;stroke-linejoin:bevel;stroke-dasharray:7.9375, 2.64583"
       id="circle1093"
       cx="-233.61847"
       cy="417.58774"
       r="10.583333" />
    <path
       id="path1095"
       style="fill:#cccccc;stroke-width:0.198438;stroke-linejoin:bevel;stroke-dashoffset:6.00002"
       d="m -233.65676,409.65027 a 7.9374999,7.9374986 0 0 0 -7.89925,7.9375 7.9374999,7.9374986 0 0 0 7.9375,7.9375 7.9374999,7.9374986 0 0 0 7.9375,-7.9375 7.9374999,7.9374986 0 0 0 -7.9375,-7.9375 7.9374999,7.9374986 0 0 0 -0.0383,0 z m -4.28552,2.79415 h 2.85977 c 1.99356,0 3.45641,0.41553 4.38888,1.24695 0.93247,0.82682 1.39888,2.12218 1.39888,3.88607 0,1.77307 -0.46854,3.07531 -1.4056,3.90673 -0.93706,0.83142 -2.39778,1.24695 -4.38216,1.24695 h -2.85977 z m 1.39216,1.14359 v 7.99952 h 1.68104 c 1.41937,0 2.45767,-0.32172 3.11453,-0.9648 0.66146,-0.64309 0.99219,-1.65807 0.99219,-3.04529 0,-1.37803 -0.33073,-2.38613 -0.99219,-3.02463 -0.65686,-0.64308 -1.69516,-0.9648 -3.11453,-0.9648 z" />
    <circle
       style="fill:#666666;fill-opacity:1;stroke-width:2.64583;stroke-linejoin:bevel;stroke-dasharray:7.9375, 2.64583"
       id="circle1097"
       cx="-271.61414"
       cy="407.0318"
       r="10.583333" />
    <path
       id="path1099"
       style="fill:#cccccc;stroke-width:0.198438;stroke-linejoin:bevel;stroke-dashoffset:6.00002"
       d="m -271.65237,399.09432 a 7.9374999,7.9374986 0 0 0 -7.89925,7.9375 7.9374999,7.9374986 0 0 0 7.93749,7.9375 7.9374999,7.9374986 0 0 0 7.9375,-7.9375 7.9374999,7.9374986 0 0 0 -7.9375,-7.9375 7.9374999,7.9374986 0 0 0 -0.0382,0 z m -3.27575,2.79415 h 6.50398 v 1.17098 h -5.11235 v 3.04581 h 4.89893 v 1.17099 h -4.89893 v 3.72794 h 5.23637 v 1.17098 h -6.628 z" />
    <circle
       style="fill:#666666;fill-opacity:1;stroke-width:2.64583;stroke-linejoin:bevel;stroke-dasharray:7.9375, 2.64583"
       id="circle1101"
       cx="-197.94421"
       cy="501.11084"
       r="10.583333" />
    <path
       id="path1103"
       style="fill:#cccccc;stroke-width:0.198438;stroke-linejoin:bevel;stroke-dashoffset:6.00002"
       d="m -197.98245,493.17335 a 7.9374999,7.9374986 0 0 0 -7.89926,7.9375 7.9374999,7.9374986 0 0 0 7.9375,7.9375 7.9374999,7.9374986 0 0 0 7.9375,-7.9375 7.9374999,7.9374986 0 0 0 -7.9375,-7.9375 7.9374999,7.9374986 0 0 0 -0.0382,0 z m -2.91765,2.79415 h 5.91179 v 1.17098 h -4.52014 v 3.03186 h 4.07934 v 1.1715 h -4.07934 v 4.91236 h -1.39165 z" />
    <circle
       style="fill:#666666;fill-opacity:1;stroke-width:2.64583;stroke-linejoin:bevel;stroke-dasharray:7.9375, 2.64583"
       id="circle1105"
       cx="-135.209"
       cy="586.74176"
       r="10.583333" />
    <path
       id="path1107"
       style="fill:#cccccc;stroke-width:0.198438;stroke-linejoin:bevel;stroke-dashoffset:6.00002"
       d="m -135.24726,578.80429 a 7.9374999,7.9374986 0 0 0 -7.89926,7.9375 7.9374999,7.9374986 0 0 0 7.9375,7.9375 7.9374999,7.9374986 0 0 0 7.9375,-7.9375 7.9374999,7.9374986 0 0 0 -7.9375,-7.9375 7.9374999,7.9374986 0 0 0 -0.0382,0 z m 0.67903,2.60088 c 0.67064,0 1.30667,0.0827 1.90841,0.24804 0.60633,0.16536 1.16444,0.40916 1.67431,0.73071 v 1.48104 c -0.51446,-0.43638 -1.06092,-0.76446 -1.63969,-0.98495 -0.57878,-0.22049 -1.18724,-0.33073 -1.82573,-0.33073 -1.2586,0 -2.2052,0.3514 -2.8391,1.0542 -0.62931,0.7028 -0.94361,1.75012 -0.94361,3.14193 0,1.38722 0.3143,2.43189 0.94361,3.13469 0.6339,0.7028 1.5805,1.0542 2.8391,1.0542 0.4915,0 0.92984,-0.0413 1.31568,-0.12402 0.38585,-0.0873 0.73301,-0.22032 1.04076,-0.39946 v -2.76314 h -2.27376 v -1.1436 h 3.65146 v 4.41678 c -0.53743,0.38126 -1.12999,0.67065 -1.77767,0.86817 -0.64768,0.19292 -1.33882,0.28939 -2.07377,0.28939 -1.60771,0 -2.86649,-0.46854 -3.776,-1.4056 -0.90491,-0.94166 -1.35703,-2.2508 -1.35703,-3.92741 0,-1.6812 0.45212,-2.99034 1.35703,-3.92741 0.90951,-0.94166 2.16829,-1.41283 3.776,-1.41283 z" />
    <circle
       style="fill:#666666;fill-opacity:1;stroke-width:2.64583;stroke-linejoin:bevel;stroke-dasharray:7.9375, 2.64583"
       id="circle1109"
       cx="-161.09579"
       cy="548.73584"
       r="10.583333" />
    <path
       id="path1111"
       style="fill:#cccccc;stroke-width:0.198438;stroke-linejoin:bevel;stroke-dashoffset:6.00002"
       d="m -161.13405,540.79835 a 7.9374999,7.9374986 0 0 0 -7.89926,7.9375 7.9374999,7.9374986 0 0 0 7.9375,7.9375 7.9374999,7.9374986 0 0 0 7.9375,-7.9375 7.9374999,7.9374986 0 0 0 -7.9375,-7.9375 7.9374999,7.9374986 0 0 0 -0.0382,0 z m -3.88245,2.79415 h 1.39216 v 4.21679 h 5.05705 v -4.21679 h 1.39217 v 10.2867 h -1.39217 v -4.89892 h -5.05705 v 4.89892 h -1.39216 z" />
    <g
       id="g1117"
       transform="translate(-379.99407,324.33248)">
      <path
         style="fill:none;stroke:#000000;stroke-width:0.264583px;stroke-linecap:butt;stroke-linejoin:miter;stroke-opacity:1"
         d="m 77.890335,196.19474 v 21.16667"
         id="path1113" />
      <path
         style="fill:none;stroke:#000000;stroke-width:0.264583px;stroke-linecap:butt;stroke-linejoin:miter;stroke-opacity:1"
         d="M 88.473668,206.77808 H 67.307003"
         id="path1115" />
    </g>
    <g
       id="g1123"
       transform="translate(-349.50446,200.25374)">
      <path
         style="fill:none;stroke:#000000;stroke-width:0.264583px;stroke-linecap:butt;stroke-linejoin:miter;stroke-opacity:1"
         d="m 77.890335,196.19474 v 21.16667"
         id="path1119" />
      <path
         style="fill:none;stroke:#000000;stroke-width:0.264583px;stroke-linecap:butt;stroke-linejoin:miter;stroke-opacity:1"
         d="M 88.473668,206.77808 H 67.307003"
         id="path1121" />
    </g>
    <g
       id="g1129"
       transform="translate(-311.50881,210.80967)">
      <path
         style="fill:none;stroke:#000000;stroke-width:0.264583px;stroke-linecap:butt;stroke-linejoin:miter;stroke-opacity:1"
         d="m 77.890335,196.19474 v 21.16667"
         id="path1125" />
      <path
         style="fill:none;stroke:#000000;stroke-width:0.264583px;stroke-linecap:butt;stroke-linejoin:miter;stroke-opacity:1"
         d="M 88.473668,206.77808 H 67.307003"
         id="path1127" />
    </g>
    <g
       id="g1135"
       transform="translate(-228.63018,252.79833)">
      <path
         style="fill:none;stroke:#000000;stroke-width:0.264583px;stroke-linecap:butt;stroke-linejoin:miter;stroke-opacity:1"
         d="m 77.890335,196.19474 v 21.16667"
         id="path1131" />
      <path
         style="fill:none;stroke:#000000;stroke-width:0.264583px;stroke-linecap:butt;stroke-linejoin:miter;stroke-opacity:1"
         d="M 88.473668,206.77808 H 67.307003"
         id="path1133" />
    </g>
    <g
       id="g1141"
       transform="translate(-275.83456,294.33277)">
      <path
         style="fill:none;stroke:#000000;stroke-width:0.264583px;stroke-linecap:butt;stroke-linejoin:miter;stroke-opacity:1"
         d="m 77.890335,196.19474 v 21.16667"
         id="path1137" />
      <path
         style="fill:none;stroke:#000000;stroke-width:0.264583px;stroke-linecap:butt;stroke-linejoin:miter;stroke-opacity:1"
         d="M 88.473668,206.77808 H 67.307003"
         id="path1139" />
    </g>
    <g
       id="g1147"
       transform="translate(-238.98614,341.95777)">
      <path
         style="fill:none;stroke:#000000;stroke-width:0.264583px;stroke-linecap:butt;stroke-linejoin:miter;stroke-opacity:1"
         d="m 77.890335,196.19474 v 21.16667"
         id="path1143" />
      <path
         style="fill:none;stroke:#000000;stroke-width:0.264583px;stroke-linecap:butt;stroke-linejoin:miter;stroke-opacity:1"
         d="M 88.473668,206.77808 H 67.307003"
         id="path1145" />
    </g>
    <g
       id="g1153"
       transform="translate(-213.09935,379.9637)">
      <path
         style="fill:none;stroke:#000000;stroke-width:0.264583px;stroke-linecap:butt;stroke-linejoin:miter;stroke-opacity:1"
         d="m 77.890335,196.19474 v 21.16667"
         id="path1149" />
      <path
         style="fill:none;stroke:#000000;stroke-width:0.264583px;stroke-linecap:butt;stroke-linejoin:miter;stroke-opacity:1"
         d="M 88.473668,206.77808 H 67.307003"
         id="path1151" />
    </g>
    <path
       id="path1155"
       style="fill:none;stroke:#000000;stroke-width:0.264583px;stroke-linecap:butt;stroke-linejoin:miter;stroke-opacity:1"
       d="m -250.02429,516.11079 52.08006,-14.99995" />
    <path
       id="path1157"
       style="fill:none;stroke:#000000;stroke-width:0.264583px;stroke-linecap:butt;stroke-linejoin:miter;stroke-opacity:1"
       d="m -302.10374,531.11055 52.07945,-14.99976" />
    <path
       id="path1159"
       style="fill:none;stroke:#000000;stroke-width:0.264583px;stroke-linecap:butt;stroke-linejoin:miter;stroke-opacity:1"
       d="m -209.05401,554.96529 47.9582,-6.22945" />
    <path
       id="path1161"
       style="fill:none;stroke:#000000;stroke-width:0.264583px;stroke-linecap:butt;stroke-linejoin:miter;stroke-opacity:1"
       d="m -257.01271,561.1948 47.9587,-6.22951" />
    <g
       id="g1167"
       transform="translate(-334.90304,354.41673)">
      <path
         style="fill:none;stroke:#000000;stroke-width:0.264583px;stroke-linecap:butt;stroke-linejoin:miter;stroke-opacity:1"
         d="m 77.890335,196.19474 v 21.16667"
         id="path1163" />
      <path
         style="fill:none;stroke:#000000;stroke-width:0.264583px;stroke-linecap:butt;stroke-linejoin:miter;stroke-opacity:1"
         d="M 88.473668,206.77808 H 67.307003"
         id="path1165" />
    </g>
    <path
       id="path1169"
       style="fill:none;stroke:#000000;stroke-width:0.264583px;stroke-linecap:butt;stroke-linejoin:miter;stroke-opacity:1"
       d="m -196.11062,573.96834 60.9016,12.77344" />
    <path
       id="path1171"
       style="fill:none;stroke:#000000;stroke-width:0.264583px;stroke-linecap:butt;stroke-linejoin:miter;stroke-opacity:1"
       d="m -257.01271,561.1948 60.90209,12.77354" />
    <path
       id="path1173"
       style="fill:none;stroke:#000000;stroke-width:0.264583px;stroke-linecap:butt;stroke-linejoin:miter;stroke-opacity:1"
       d="m -227.4786,531.15295 29.53437,-30.04211" />
    <path
       id="path1175"
       style="fill:none;stroke:#000000;stroke-width:0.264583px;stroke-linecap:butt;stroke-linejoin:miter;stroke-opacity:1"
       d="m -257.01271,561.1948 29.53411,-30.04185" />
    <path
       id="path1177"
       style="fill:none;stroke:#000000;stroke-width:0.264583px;stroke-linecap:butt;stroke-linejoin:miter;stroke-opacity:1"
       d="m -155.91783,504.15612 5.17798,-44.57972" />
    <path
       id="path1179"
       style="fill:none;stroke:#000000;stroke-width:0.264583px;stroke-linecap:butt;stroke-linejoin:miter;stroke-opacity:1"
       d="m -161.09581,548.73584 5.17798,-44.57972" />
    <path
       id="path1181"
       style="fill:none;stroke:#000000;stroke-width:0.264583px;stroke-linecap:butt;stroke-linejoin:miter;stroke-opacity:1"
       d="m -179.52002,524.92332 -18.42421,-23.81248" />
    <path
       id="path1183"
       style="fill:none;stroke:#000000;stroke-width:0.264583px;stroke-linecap:butt;stroke-linejoin:miter;stroke-opacity:1"
       d="m -161.09581,548.7358 -18.42421,-23.81248" />
    <path
       id="path1185"
       style="fill:none;stroke:#000000;stroke-width:0.264583px;stroke-linecap:butt;stroke-linejoin:miter;stroke-opacity:1"
       d="m -215.78145,459.34907 17.83722,41.76177" />
    <path
       id="path1187"
       style="fill:none;stroke:#000000;stroke-width:0.264583px;stroke-linecap:butt;stroke-linejoin:miter;stroke-opacity:1"
       d="m -233.61848,417.58774 17.83703,41.76133" />
    <path
       id="path1189"
       style="fill:none;stroke:#000000;stroke-width:0.264583px;stroke-linecap:butt;stroke-linejoin:miter;stroke-opacity:1"
       d="m -192.17927,438.58202 41.43942,20.99438" />
    <path
       id="path1191"
       style="fill:none;stroke:#000000;stroke-width:0.264583px;stroke-linecap:butt;stroke-linejoin:miter;stroke-opacity:1"
       d="m -233.61848,417.58774 41.43921,20.99428" />
    <path
       id="path1193"
       style="fill:none;stroke:#000000;stroke-width:0.264583px;stroke-linecap:butt;stroke-linejoin:miter;stroke-opacity:1"
       d="m -286.85886,469.07088 -15.24488,62.03967" />
    <path
       id="path1195"
       style="fill:none;stroke:#000000;stroke-width:0.264583px;stroke-linecap:butt;stroke-linejoin:miter;stroke-opacity:1"
       d="m -271.61413,407.03181 -15.24473,62.03907" />
    <path
       id="path1197"
       style="fill:none;stroke:#000000;stroke-width:0.264583px;stroke-linecap:butt;stroke-linejoin:miter;stroke-opacity:1"
       d="m -267.86104,474.34903 -34.2427,56.76152" />
    <path
       id="path1199"
       style="fill:none;stroke:#000000;stroke-width:0.264583px;stroke-linecap:butt;stroke-linejoin:miter;stroke-opacity:1"
       d="m -233.61848,417.58774 -34.24256,56.76129" />
    <path
       style="fill:none;stroke:#000000;stroke-width:0.264583px;stroke-linecap:butt;stroke-linejoin:miter;stroke-opacity:1"
       d="m -286.85886,469.07088 18.99782,5.27816"
       id="path1201"
       sodipodi:nodetypes="cc" />
    <path
       style="fill:none;stroke:#000000;stroke-width:0.264583px;stroke-linecap:butt;stroke-linejoin:miter;stroke-opacity:1"
       d="m -267.86104,474.34904 52.07959,-14.99996"
       id="path1203"
       sodipodi:nodetypes="cc" />
    <path
       style="fill:none;stroke:#000000;stroke-width:0.264583px;stroke-linecap:butt;stroke-linejoin:miter;stroke-opacity:1"
       d="m -215.78145,459.34908 23.60218,-20.76706"
       id="path1205"
       sodipodi:nodetypes="cc" />
    <path
       style="fill:none;stroke:#000000;stroke-width:0.264583px;stroke-linecap:butt;stroke-linejoin:miter;stroke-opacity:1"
       d="m -250.02429,516.11079 -17.83675,-41.76175"
       id="path1207"
       sodipodi:nodetypes="cc" />
    <path
       style="fill:none;stroke:#000000;stroke-width:0.264583px;stroke-linecap:butt;stroke-linejoin:miter;stroke-opacity:1"
       d="m -250.02429,516.11079 22.54569,15.04216"
       id="path1209"
       sodipodi:nodetypes="cc" />
    <path
       style="fill:none;stroke:#000000;stroke-width:0.264583px;stroke-linecap:butt;stroke-linejoin:miter;stroke-opacity:1"
       d="m -250.02429,516.11079 34.24284,-56.76171"
       id="path1211"
       sodipodi:nodetypes="cc" />
    <path
       style="fill:none;stroke:#000000;stroke-width:0.264583px;stroke-linecap:butt;stroke-linejoin:miter;stroke-opacity:1"
       d="m -227.4786,531.15295 18.42459,23.81234"
       id="path1213"
       sodipodi:nodetypes="cc" />
    <path
       style="fill:none;stroke:#000000;stroke-width:0.264583px;stroke-linecap:butt;stroke-linejoin:miter;stroke-opacity:1"
       d="m -209.05401,554.96529 12.94339,19.00305"
       id="path1215" />
    <path
       style="fill:none;stroke:#000000;stroke-width:0.264583px;stroke-linecap:butt;stroke-linejoin:miter;stroke-opacity:1"
       d="m -209.05401,554.96529 29.53399,-30.04196"
       id="path1217"
       sodipodi:nodetypes="cc" />
    <path
       style="fill:none;stroke:#000000;stroke-width:0.264583px;stroke-linecap:butt;stroke-linejoin:miter;stroke-opacity:1"
       d="m -227.4786,531.15295 47.95858,-6.22962"
       id="path1219"
       sodipodi:nodetypes="cc" />
    <path
       id="path1221"
       style="fill:none;stroke:#000000;stroke-width:0.264583px;stroke-linecap:butt;stroke-linejoin:miter;stroke-opacity:1"
       d="m -348.89792,453.82615 62.03906,15.24473" />
    <path
       id="path1223"
       style="fill:none;stroke:#000000;stroke-width:0.264583px;stroke-linecap:butt;stroke-linejoin:miter;stroke-opacity:1"
       d="m -171.18489,397.1426 -20.99438,41.43942" />
    <path
       id="path1225"
       style="fill:none;stroke:#000000;stroke-width:0.264583px;stroke-linecap:butt;stroke-linejoin:miter;stroke-opacity:1"
       d="m -150.19051,355.70318 -20.99438,41.43942" />
    <path
       style="fill:none;stroke:#000000;stroke-width:0.264583px;stroke-linecap:butt;stroke-linejoin:miter;stroke-opacity:1"
       d="m -179.52002,524.92333 23.60219,-20.7672"
       id="path1227"
       sodipodi:nodetypes="cc" />
    <path
       id="path1229"
       style="fill:none;stroke:#000000;stroke-width:0.264583px;stroke-linecap:butt;stroke-linejoin:miter;stroke-opacity:1"
       d="m -155.91783,504.15613 44.57972,5.17798" />
    <path
       id="path1231"
       style="fill:none;stroke:#000000;stroke-width:0.264583px;stroke-linecap:butt;stroke-linejoin:miter;stroke-opacity:1"
       d="m -111.33811,509.33411 44.579723,5.17798" />
    <path
       id="path1233"
       style="fill:none;stroke:#000000;stroke-width:0.264583px;stroke-linecap:butt;stroke-linejoin:miter;stroke-opacity:1"
       d="m -196.11062,573.96835 -12.77344,60.9016" />
    <g
       id="g1038"
       transform="translate(409.66768,69.538233)">
      <g
         id="g965"
         transform="translate(4.9050002,-21.731441)">
        <circle
           style="fill:#666666;fill-opacity:1;stroke-width:2.64583;stroke-linejoin:bevel;stroke-dasharray:7.9375, 2.64583"
           id="path882"
           cx="45.571381"
           cy="173.02303"
           r="10.583333" />
        <path
           id="path866"
           style="fill:#cccccc;stroke-width:0.198438;stroke-linejoin:bevel;stroke-dashoffset:6.00002"
           d="m 45.533144,165.08553 a 7.9374999,7.9374986 0 0 0 -7.89926,7.9375 7.9374999,7.9374986 0 0 0 7.9375,7.9375 7.9374999,7.9374986 0 0 0 7.9375,-7.9375 7.9374999,7.9374986 0 0 0 -7.9375,-7.9375 7.9374999,7.9374986 0 0 0 -0.0382,0 z m -0.74725,2.79415 h 1.57769 l 3.92069,10.2867 h -1.44694 l -0.9369,-2.63859 h -4.63744 l -0.93689,2.63859 h -1.46761 z m 0.78549,1.37097 -1.88774,5.11959 h 3.78271 z" />
      </g>
      <g
         id="g961"
         transform="translate(17.974931,3.3040452)">
        <circle
           style="fill:#666666;fill-opacity:1;stroke-width:2.64583;stroke-linejoin:bevel;stroke-dasharray:7.9375, 2.64583"
           id="circle884"
           cx="77.890335"
           cy="206.77808"
           r="10.583333" />
        <path
           id="path868"
           style="fill:#cccccc;stroke-width:0.198438;stroke-linejoin:bevel;stroke-dashoffset:6.00002"
           d="m 77.8521,198.84058 a 7.9374999,7.9374986 0 0 0 -7.89926,7.9375 7.9374999,7.9374986 0 0 0 7.9375,7.9375 7.9374999,7.9374986 0 0 0 7.9375,-7.9375 7.9374999,7.9374986 0 0 0 -7.9375,-7.9375 7.9374999,7.9374986 0 0 0 -0.0382,0 z m -3.61012,2.79415 h 3.55534 c 1.06109,0 1.8789,0.22048 2.45308,0.66145 0.57418,0.44098 0.86093,1.06798 0.86093,1.88103 0,0.6293 -0.14682,1.12965 -0.4408,1.50171 -0.29398,0.37207 -0.72594,0.60422 -1.29553,0.69608 0.68442,0.147 1.21497,0.45494 1.59163,0.92346 0.38126,0.46394 0.57206,1.04484 0.57206,1.74305 0,0.91869 -0.31218,1.62838 -0.93689,2.12907 -0.62471,0.50068 -1.51355,0.75085 -2.66651,0.75085 h -3.69331 z m 1.39165,1.14359 v 3.10059 h 2.06033 c 0.67984,0 1.18495,-0.12615 1.51568,-0.37879 0.33532,-0.25723 0.50332,-0.64785 0.50332,-1.1715 0,-0.51906 -0.168,-0.90704 -0.50332,-1.16427 -0.33073,-0.25723 -0.83584,-0.38603 -1.51568,-0.38603 z m 0,4.23075 v 3.76877 h 2.23242 c 0.74873,0 1.30259,-0.15372 1.66088,-0.46147 0.36288,-0.31235 0.54415,-0.78778 0.54415,-1.42627 0,-0.64309 -0.18127,-1.11639 -0.54415,-1.41955 -0.35829,-0.30777 -0.91215,-0.46148 -1.66088,-0.46148 z" />
      </g>
      <circle
         style="fill:#666666;fill-opacity:1;stroke-width:2.64583;stroke-linejoin:bevel;stroke-dasharray:7.9375, 2.64583"
         id="circle886"
         cx="201.2072"
         cy="88.593643"
         r="10.583333" />
      <path
         id="path870"
         style="fill:#cccccc;stroke-width:0.198438;stroke-linejoin:bevel;stroke-dashoffset:6.00002"
         d="m 201.16895,80.656159 a 7.9374999,7.9374986 0 0 0 -7.89926,7.937494 7.9374999,7.9374986 0 0 0 7.9375,7.937499 7.9374999,7.9374986 0 0 0 7.9375,-7.937499 7.9374999,7.9374986 0 0 0 -7.9375,-7.937494 7.9374999,7.9374986 0 0 0 -0.0382,0 z m 0.91312,2.600882 c 0.61552,0 1.1943,0.0827 1.73633,0.24804 0.54662,0.16077 1.05913,0.40457 1.53685,0.730712 v 1.46761 c -0.46853,-0.43638 -0.96939,-0.76287 -1.50223,-0.97875 -0.52825,-0.2159 -1.09112,-0.3235 -1.68827,-0.3235 -1.17593,0 -2.0759,0.36042 -2.70061,1.08159 -0.62471,0.71658 -0.93741,1.75487 -0.93741,3.11453 0,1.35507 0.3127,2.39285 0.93741,3.11402 0.62471,0.71658 1.52468,1.07487 2.70061,1.07487 0.59715,0 1.16002,-0.1076 1.68827,-0.32349 0.53284,-0.2159 1.0337,-0.54238 1.50223,-0.97876 v 1.45418 c -0.4869,0.33072 -1.00367,0.57877 -1.55029,0.74414 -0.54203,0.16537 -1.11655,0.24805 -1.72289,0.24805 -1.55718,0 -2.78364,-0.47543 -3.67936,-1.42627 -0.89573,-0.95544 -1.34359,-2.25769 -1.34359,-3.90674 0,-1.65363 0.44786,-2.95588 1.34359,-3.90673 0.89572,-0.955442 2.12218,-1.433502 3.67936,-1.433502 z" />
      <circle
         style="fill:#666666;fill-opacity:1;stroke-width:2.64583;stroke-linejoin:bevel;stroke-dasharray:7.9375, 2.64583"
         id="circle888"
         cx="115.8279"
         cy="42.145538"
         r="10.583333" />
      <path
         id="path872"
         style="fill:#cccccc;stroke-width:0.198438;stroke-linejoin:bevel;stroke-dashoffset:6.00002"
         d="m 115.78961,34.208059 a 7.9374999,7.9374986 0 0 0 -7.89925,7.9375 7.9374999,7.9374986 0 0 0 7.9375,7.9375 7.9374999,7.9374986 0 0 0 7.9375,-7.9375 7.9374999,7.9374986 0 0 0 -7.9375,-7.9375 7.9374999,7.9374986 0 0 0 -0.0383,0 z m -4.28552,2.79415 h 2.85977 c 1.99356,0 3.45641,0.41553 4.38888,1.24695 0.93247,0.82682 1.39888,2.12218 1.39888,3.88607 0,1.77307 -0.46854,3.07531 -1.4056,3.90673 -0.93706,0.83142 -2.39778,1.24695 -4.38216,1.24695 h -2.85977 z m 1.39216,1.14359 v 7.99952 h 1.68104 c 1.41937,0 2.45767,-0.32172 3.11453,-0.9648 0.66146,-0.64309 0.99219,-1.65807 0.99219,-3.04529 0,-1.37803 -0.33073,-2.38613 -0.99219,-3.02463 -0.65686,-0.64308 -1.69516,-0.9648 -3.11453,-0.9648 z" />
      <circle
         style="fill:#666666;fill-opacity:1;stroke-width:2.64583;stroke-linejoin:bevel;stroke-dasharray:7.9375, 2.64583"
         id="circle890"
         cx="55.474289"
         cy="59.599743"
         r="10.583333" />
      <path
         id="path874"
         style="fill:#cccccc;stroke-width:0.198438;stroke-linejoin:bevel;stroke-dashoffset:6.00002"
         d="m 55.436049,51.662246 a 7.9374999,7.9374986 0 0 0 -7.899256,7.937503 7.9374999,7.9374986 0 0 0 7.937496,7.9375 7.9374999,7.9374986 0 0 0 7.9375,-7.9375 7.9374999,7.9374986 0 0 0 -7.9375,-7.937503 7.9374999,7.9374986 0 0 0 -0.0382,0 z m -3.275756,2.79415 h 6.503986 v 1.17098 h -5.11235 v 3.04581 h 4.89893 v 1.170993 h -4.89893 v 3.72794 h 5.23637 v 1.17098 h -6.628006 z" />
      <circle
         style="fill:#666666;fill-opacity:1;stroke-width:2.64583;stroke-linejoin:bevel;stroke-dasharray:7.9375, 2.64583"
         id="circle892"
         cx="143.22726"
         cy="137.1546"
         r="10.583333" />
      <path
         id="path876"
         style="fill:#cccccc;stroke-width:0.198438;stroke-linejoin:bevel;stroke-dashoffset:6.00002"
         d="m 143.18905,129.21711 a 7.9374999,7.9374986 0 0 0 -7.89926,7.9375 7.9374999,7.9374986 0 0 0 7.9375,7.9375 7.9374999,7.9374986 0 0 0 7.9375,-7.9375 7.9374999,7.9374986 0 0 0 -7.9375,-7.9375 7.9374999,7.9374986 0 0 0 -0.0382,0 z m -2.91765,2.79415 h 5.91179 v 1.17098 h -4.52014 v 3.03186 h 4.07934 v 1.1715 h -4.07934 v 4.91236 h -1.39165 z" />
      <circle
         style="fill:#666666;fill-opacity:1;stroke-width:2.64583;stroke-linejoin:bevel;stroke-dasharray:7.9375, 2.64583"
         id="circle894"
         cx="216.50613"
         cy="221.20097"
         r="10.583333" />
      <path
         id="path878"
         style="fill:#cccccc;stroke-width:0.198438;stroke-linejoin:bevel;stroke-dashoffset:6.00002"
         d="m 216.46788,213.26348 a 7.9374999,7.9374986 0 0 0 -7.89926,7.9375 7.9374999,7.9374986 0 0 0 7.9375,7.9375 7.9374999,7.9374986 0 0 0 7.9375,-7.9375 7.9374999,7.9374986 0 0 0 -7.9375,-7.9375 7.9374999,7.9374986 0 0 0 -0.0382,0 z m 0.67903,2.60088 c 0.67064,0 1.30667,0.0827 1.90841,0.24804 0.60633,0.16536 1.16444,0.40916 1.67431,0.73071 v 1.48104 c -0.51446,-0.43638 -1.06092,-0.76446 -1.63969,-0.98495 -0.57878,-0.22049 -1.18724,-0.33073 -1.82573,-0.33073 -1.2586,0 -2.2052,0.3514 -2.8391,1.0542 -0.62931,0.7028 -0.94361,1.75012 -0.94361,3.14193 0,1.38722 0.3143,2.43189 0.94361,3.13469 0.6339,0.7028 1.5805,1.0542 2.8391,1.0542 0.4915,0 0.92984,-0.0413 1.31568,-0.12402 0.38585,-0.0873 0.73301,-0.22032 1.04076,-0.39946 v -2.76314 h -2.27376 v -1.1436 h 3.65146 v 4.41678 c -0.53743,0.38126 -1.12999,0.67065 -1.77767,0.86817 -0.64768,0.19292 -1.33882,0.28939 -2.07377,0.28939 -1.60771,0 -2.86649,-0.46854 -3.776,-1.4056 -0.90491,-0.94166 -1.35703,-2.2508 -1.35703,-3.92741 0,-1.6812 0.45212,-2.99034 1.35703,-3.92741 0.90951,-0.94166 2.16829,-1.41283 3.776,-1.41283 z" />
      <circle
         style="fill:#666666;fill-opacity:1;stroke-width:2.64583;stroke-linejoin:bevel;stroke-dasharray:7.9375, 2.64583"
         id="circle896"
         cx="199.04294"
         cy="180.35414"
         r="10.583333" />
      <path
         id="path880"
         style="fill:#cccccc;stroke-width:0.198438;stroke-linejoin:bevel;stroke-dashoffset:6.00002"
         d="m 199.00468,172.41666 a 7.9374999,7.9374986 0 0 0 -7.89926,7.9375 7.9374999,7.9374986 0 0 0 7.9375,7.9375 7.9374999,7.9374986 0 0 0 7.9375,-7.9375 7.9374999,7.9374986 0 0 0 -7.9375,-7.9375 7.9374999,7.9374986 0 0 0 -0.0382,0 z m -3.88245,2.79415 h 1.39216 v 4.21679 h 5.05705 v -4.21679 h 1.39217 v 10.2867 h -1.39217 v -4.89892 h -5.05705 v 4.89892 h -1.39216 z" />
      <path
         style="color:#000000;font-style:normal;font-variant:normal;font-weight:normal;font-stretch:normal;font-size:medium;line-height:normal;font-family:sans-serif;font-variant-ligatures:normal;font-variant-position:normal;font-variant-caps:normal;font-variant-numeric:normal;font-variant-alternates:normal;font-variant-east-asian:normal;font-feature-settings:normal;font-variation-settings:normal;text-indent:0;text-align:start;text-decoration:none;text-decoration-line:none;text-decoration-style:solid;text-decoration-color:#000000;letter-spacing:normal;word-spacing:normal;text-transform:none;writing-mode:lr-tb;direction:ltr;text-orientation:mixed;dominant-baseline:auto;baseline-shift:baseline;text-anchor:start;white-space:normal;shape-padding:0;shape-margin:0;inline-size:0;clip-rule:nonzero;display:inline;overflow:visible;visibility:visible;isolation:auto;mix-blend-mode:normal;color-interpolation:sRGB;color-interpolation-filters:linearRGB;solid-color:#000000;solid-opacity:1;vector-effect:none;fill:#d35f5f;fill-opacity:1;fill-rule:nonzero;stroke:none;stroke-width:2.64583;stroke-linecap:butt;stroke-linejoin:miter;stroke-miterlimit:4;stroke-dasharray:7.9375, 2.64583;stroke-dashoffset:0;stroke-opacity:1;color-rendering:auto;image-rendering:auto;shape-rendering:auto;text-rendering:auto;enable-background:accumulate;stop-color:#000000"
         d="m 149.42078,6.4868031 c -2.69933,-0.06053 -5.38921,0.04392 -8.06055,0.25 l 0.20312,2.638672 c 2.60389,-0.200874 5.20731,-0.302252 7.79883,-0.244141 z m 2.70312,0.117188 -0.17773,2.640625 c 2.57624,0.1723 5.12636,0.52662 7.57617,1.1835939 l 0.68555,-2.5566409 c -2.66372,-0.714338 -5.38404,-1.087004 -8.08399,-1.267578 z m -13.42969,0.371093 c -2.66969,0.268885 -5.30433,0.648114 -7.91796,0.996094 l 0.3496,2.6230469 c 2.6313,-0.350331 5.23814,-0.7248809 7.83399,-0.9863279 z m -10.54492,1.355469 c -2.62576,0.362607 -5.24954,0.739788 -7.87109,1.13086 l 0.39062,2.6171869 c 2.6122,-0.389677 5.22565,-0.765672 7.8418,-1.126953 z m 34.69922,0.384766 -0.92773,2.4785149 c 2.33458,0.874194 4.51168,2.135956 6.18945,3.861329 l 1.89648,-1.845703 c -2.02319,-2.080608 -4.54919,-3.5171879 -7.1582,-4.4941409 z m -45.19141,1.142578 c -2.62076,0.4019239 -5.23959,0.8203129 -7.85546,1.2578129 l 0.43554,2.609374 c 2.60331,-0.435398 5.21057,-0.851717 7.82031,-1.251953 z m -10.4707,1.7011719 c -2.6137,0.450592 -5.22436,0.921392 -7.832032,1.416015 l 0.49219,2.59961 c 2.591302,-0.491519 5.188042,-0.959797 7.789062,-1.408203 z M 96.748899,13.477038 C 94.143507,13.98507 91.54323,14.51808 88.948118,15.0786 l 0.558594,2.585938 c 2.577263,-0.556665 5.159613,-1.087072 7.748047,-1.591797 z m 75.068361,1.974609 -2.19922,1.470703 c 0.20819,0.311082 0.40346,0.638637 0.58789,0.978516 l 1.41211,-0.765625 -1.41015,0.767578 c 1.1756,2.161413 1.8933,4.575223 2.10351,7.03125 l 2.63477,-0.226563 c -0.24115,-2.817463 -1.06027,-5.578803 -2.41407,-8.068359 -2.6e-4,-4.84e-4 2.7e-4,-0.0015 0,-0.002 -0.21727,-0.4003 -0.45459,-0.79667 -0.71484,-1.185547 z M 86.354367,15.64696 c -2.590728,0.579217 -5.178395,1.186107 -7.757812,1.828124 l 0.638671,2.566407 c 2.555585,-0.636086 5.121912,-1.237156 7.695313,-1.8125 z m -10.332031,2.478515 c -2.575245,0.660579 -5.140313,1.358751 -7.695313,2.09375 l 0.730469,2.541016 c 2.530412,-0.727926 5.07259,-1.418045 7.623047,-2.072266 z m -10.248047,2.841797 c -2.547996,0.762251 -5.086477,1.564738 -7.609374,2.419922 l 0.849609,2.505859 c 2.488664,-0.84358 4.996018,-1.636282 7.517577,-2.390625 z M 55.64929,24.256334 c -2.513751,0.883945 -5.009131,1.822981 -7.482422,2.820313 l 0.990234,2.453125 c 2.434368,-0.981637 4.892913,-1.905907 7.371094,-2.777344 z m 116.73047,3.166016 c -0.0782,2.49822 -0.57987,5.001591 -1.33398,7.441406 l 2.52734,0.78125 c 0.80687,-2.610485 1.36366,-5.342946 1.45117,-8.138672 z M 45.702024,28.094225 c -2.458177,1.038604 -4.892071,2.14088 -7.291016,3.322266 l 1.167969,2.375 c 2.348343,-1.156466 4.736214,-2.238927 7.152344,-3.259766 z m -9.677734,4.529297 c -2.374527,1.23361 -4.711221,2.551072 -6.990235,3.96875 l 1.396484,2.246094 c 2.214335,-1.377444 4.491502,-2.661387 6.812501,-3.867188 z m 134.18555,4.664062 c -0.91166,2.40616 -2.02831,4.747631 -3.25977,7.041016 l 2.33203,1.251953 c 1.2712,-2.367392 2.43871,-4.81214 3.40235,-7.355469 z m -143.43555,0.75586 c -2.238603,1.485732 -4.413108,3.079515 -6.490234,4.802734 l 1.689453,2.03711 c 1.995692,-1.65566 4.093737,-3.196562 6.263671,-4.636719 z m -8.533203,6.568359 c -2.006541,1.810412 -3.903392,3.758016 -5.63086,5.859375 l 2.042969,1.681641 c 1.633308,-1.98682 3.439792,-3.842456 5.361328,-5.576172 z m 147.441403,1.992188 c -1.30384,2.262437 -2.70037,4.480117 -4.14648,6.673828 l 2.20898,1.457031 c 1.46614,-2.224097 2.89193,-4.485958 4.23047,-6.808594 z M 10.942259,52.619616 c -1.6090945,2.199401 -3.0243746,4.552831 -4.1777353,7.039062 l 2.4003908,1.113282 c 1.0737485,-2.314616 2.3974725,-4.519551 3.9121095,-6.589844 z m 149.132811,2.847656 c -1.47348,2.181401 -2.98411,4.347505 -4.49218,6.525391 l 2.17578,1.505859 c 1.50437,-2.172551 3.02123,-4.347103 4.50976,-6.550781 z M 5.6981175,62.180163 C 4.7192244,64.74357 4.0270599,67.414592 3.6336644,70.129381 L 6.252805,70.508288 C 6.618258,67.986327 7.2619391,65.503469 8.1707737,63.123522 Z M 154.08484,64.164538 c -1.55013,2.213987 -2.91922,4.462791 -4.46875,6.49414 l 2.10351,1.603516 c 1.66211,-2.178919 3.04839,-4.459373 4.53321,-6.580078 z m -6.07617,8.535156 c -1.64455,2.001314 -3.41522,3.899714 -5.29102,5.693359 l 1.82813,1.91211 c 1.94857,-1.863232 3.79272,-3.838616 5.50781,-5.925782 z m -144.6718806,0.148437 -0.015625,0.197266 -0.035156,0.572266 v 0.01758 c -0.087525,2.405827 -0.1489017,4.941353 0.3710938,7.488281 l 2.59375,-0.529297 C 5.8110472,78.44007 5.8430741,76.12786 5.9285863,73.764147 l 0.03125,-0.537109 0.013672,-0.177735 z M 140.80749,80.150866 c -1.94245,1.722921 -3.98276,3.338439 -6.10351,4.839844 l 1.5293,2.160156 c 2.19801,-1.556102 4.31375,-3.231093 6.33007,-5.019532 z M 6.9774144,82.846178 4.54968,83.898913 c 1.1793779,2.721378 3.2418639,4.904387 5.605469,6.490234 l 1.47461,-2.197266 C 9.6104565,86.837042 7.9124146,85.003663 6.9774144,82.846178 Z M 132.55749,86.455553 c -2.17156,1.424262 -4.42953,2.731749 -6.73632,3.962891 l 1.24609,2.333984 c 2.36088,-1.260007 4.68789,-2.607927 6.94141,-4.085937 z m -118.7832,3 -1.207031,2.355469 c 2.477089,1.269296 5.098043,2.134504 7.71289,2.81445 l 0.666016,-2.560544 C 18.445293,91.414617 16.011007,90.601679 13.77429,89.455553 Z m 109.72656,2.158203 c -2.33573,1.164345 -4.71799,2.232303 -7.14062,3.205076 l 0.98633,2.45508 c 2.4879,-0.99898 4.93582,-2.09653 7.33593,-3.292968 z m -100.035154,1.042969 -0.552734,2.587887 c 2.63608,0.56251 5.287322,0.97437 7.93164,1.32032 l 0.34375,-2.623051 c -2.601798,-0.340382 -5.182967,-0.743215 -7.722656,-1.285156 z m 10.330078,1.603516 -0.304687,2.628911 c 2.646169,0.3062 5.28855,0.55676 7.921875,0.80859 l 0.251953,-2.63281 c -2.634167,-0.25192 -5.258616,-0.50261 -7.869141,-0.804691 z m 10.503906,1.056641 -0.253906,2.63477 c 2.628705,0.25372 5.246954,0.51949 7.845703,0.85937 l 0.341797,-2.62305 c -2.648423,-0.34637 -5.295364,-0.61645 -7.933594,-0.87109 z m 69.625,0.44336 c -2.4475,0.9079 -4.93114,1.71695 -7.44336,2.42383 l 0.7168,2.546868 c 2.58165,-0.72641 5.1327,-1.557738 7.64648,-2.490228 z m -59.050781,0.80469 -0.384765,2.61718 c 2.550846,0.37591 5.093998,0.955118 7.65625,1.572268 l 0.61914,-2.572268 c -2.582111,-0.62193 -5.20296,-1.22112 -7.890625,-1.61718 z m 10.445313,2.18945 -0.566406,2.585938 c 2.599242,0.56935 5.217675,1.09486 7.859374,1.52929 l 0.429687,-2.61132 c -2.580041,-0.424298 -5.153106,-0.941058 -7.722655,-1.503908 z m 38.640628,0.10351 c -2.5303,0.63814 -5.087078,1.170238 -7.66016,1.591798 l 0.427735,2.61133 c 2.648973,-0.434 5.278305,-0.98281 7.878905,-1.63867 z m -28.335941,1.794928 -0.365234,2.62109 c 2.655553,0.37038 5.337584,0.63481 8.035156,0.73633 l 0.09961,-2.64453 c -2.590877,-0.0975 -5.184761,-0.35239 -7.769532,-0.71289 z m 18.091797,0.18359 c -2.573244,0.35781 -5.15443,0.57281 -7.728516,0.57422 l 0.002,2.64648 c 2.72059,-10e-4 5.42117,-0.22852 8.089843,-0.59961 z"
         id="path1338" />
      <path
         style="color:#000000;font-style:normal;font-variant:normal;font-weight:normal;font-stretch:normal;font-size:medium;line-height:normal;font-family:sans-serif;font-variant-ligatures:normal;font-variant-position:normal;font-variant-caps:normal;font-variant-numeric:normal;font-variant-alternates:normal;font-variant-east-asian:normal;font-feature-settings:normal;font-variation-settings:normal;text-indent:0;text-align:start;text-decoration:none;text-decoration-line:none;text-decoration-style:solid;text-decoration-color:#000000;letter-spacing:normal;word-spacing:normal;text-transform:none;writing-mode:lr-tb;direction:ltr;text-orientation:mixed;dominant-baseline:auto;baseline-shift:baseline;text-anchor:start;white-space:normal;shape-padding:0;shape-margin:0;inline-size:0;clip-rule:nonzero;display:inline;overflow:visible;visibility:visible;isolation:auto;mix-blend-mode:normal;color-interpolation:sRGB;color-interpolation-filters:linearRGB;solid-color:#000000;solid-opacity:1;vector-effect:none;fill:#d35f5f;fill-opacity:1;fill-rule:nonzero;stroke:none;stroke-width:2.64583;stroke-linecap:butt;stroke-linejoin:miter;stroke-miterlimit:4;stroke-dasharray:7.9375, 2.64583;stroke-dashoffset:0;stroke-opacity:1;color-rendering:auto;image-rendering:auto;shape-rendering:auto;text-rendering:auto;enable-background:accumulate;stop-color:#000000"
         d="m 213.93835,13.570788 -0.32226,2.626953 c 1.68812,0.207069 3.39669,0.775883 5.15234,1.394531 0.68679,0.254619 1.36395,0.530231 2.03125,0.828125 l 1.07813,-2.416016 c -0.72253,-0.322549 -1.45499,-0.622122 -2.19532,-0.896484 l -0.01,-0.0039 -0.01,-0.002 c -1.78236,-0.628267 -3.67304,-1.279599 -5.72461,-1.53125 z m -2.95312,0.01172 c -2.92384,0.33396 -5.57141,1.58154 -7.88867,3.087891 l 1.4414,2.21875 c 2.10064,-1.365534 4.38933,-2.408324 6.74805,-2.677734 z m 13.35352,3.626954 -1.24805,2.332031 c 2.24817,1.20368 4.3686,2.656165 6.34179,4.292969 l 1.68946,-2.03711 c -2.09884,-1.741025 -4.36547,-3.293425 -6.7832,-4.58789 z m -23.48633,1.064453 c -2.16171,1.68145 -4.11718,3.561035 -5.98438,5.474609 l 1.89258,1.847656 c 1.82649,-1.871855 3.69945,-3.665209 5.7168,-5.234375 z m 32.31445,5.322265 -1.80664,1.935547 c 1.8799,1.754964 3.61713,3.672602 5.2168,5.703125 l 2.07812,-1.638672 c -1.67446,-2.125457 -3.49971,-4.143583 -5.48828,-6 z m -40.14258,2.085938 c -1.82719,1.943902 -3.58566,3.912407 -5.40234,5.787109 l 1.90039,1.839844 c 1.8661,-1.925699 3.63275,-3.902739 5.42969,-5.814453 z m 47.25781,6.070312 -2.14453,1.548828 c 1.5173,2.100387 2.90617,4.299492 4.18946,6.564454 l 2.30273,-1.304688 c -1.325,-2.338587 -2.76606,-4.619197 -4.34766,-6.808594 z m -54.50781,1.6875 c -1.80504,2.029777 -3.44042,4.193553 -4.94531,6.427735 l 2.19531,1.478515 c 1.4508,-2.153881 3.0146,-4.221369 4.72656,-6.146484 z m 60.14063,7.480469 -2.33985,1.232422 c 1.2142,2.305075 2.32346,4.669668 3.34961,7.074219 l 2.4336,-1.03711 c -1.05073,-2.462127 -2.19134,-4.892634 -3.44336,-7.269531 z m -66.54883,1.201172 c -1.42823,2.276237 -2.74428,4.609333 -4.00586,6.955078 l 2.33008,1.251953 c 1.24462,-2.314209 2.53151,-4.594232 3.91601,-6.800781 z m 71.01367,8.541015 -2.45703,0.982422 c 0.97037,2.428752 1.85653,4.892891 2.67383,7.382813 l 2.51367,-0.824219 c -0.83296,-2.537644 -1.73752,-5.055763 -2.73047,-7.541016 z m -76.26367,0.763672 c -1.2338,2.354824 -2.42995,4.718416 -3.64649,7.056641 l 2.34766,1.220703 c 1.22583,-2.356095 2.42049,-4.716347 3.64258,-7.048828 z m 79.80469,9.320313 -2.5293,0.779297 c 0.77216,2.50599 1.47768,5.033839 2.12305,7.578125 l 2.56445,-0.650391 c -0.65567,-2.584878 -1.37215,-5.155951 -2.1582,-7.707031 z m -84.67383,0.06836 c -1.23417,2.322565 -2.50488,4.614331 -3.86524,6.839844 l 2.25782,1.378906 c 1.39963,-2.289777 2.69468,-4.628636 3.94336,-6.978515 z m -5.25781,9.044922 c -1.41428,2.171862 -2.96993,4.266136 -4.5918,6.324219 l 2.07812,1.638672 c 1.65291,-2.097466 3.25668,-4.254326 4.73047,-6.517578 z m 92.72656,1.181641 -2.57422,0.613281 c 0.60793,2.554245 1.158,5.124562 1.65625,7.705078 l 2.59766,-0.501953 c -0.50493,-2.615124 -1.06239,-5.222777 -1.67969,-7.816406 z m -98.96094,7.185547 c -1.66186,2.031516 -3.37977,4.03162 -5.10351,6.039062 l 2.00781,1.722656 c 1.72347,-2.00712 3.45574,-4.021507 5.14453,-6.085937 z m 101.12695,3.248046 -2.60351,0.46875 c 0.46385,2.58733 0.87669,5.181845 1.23828,7.785157 l 2.62109,-0.363281 c -0.36641,-2.637995 -0.78592,-5.269378 -1.25586,-7.890626 z m -107.95312,4.800782 c -1.72321,2.015949 -3.43991,4.052918 -5.09766,6.15039 l 2.07617,1.640625 c 1.62362,-2.054289 3.31634,-4.064061 5.03125,-6.070312 z m 109.56055,5.728515 -2.625,0.332032 c 0.32628,2.591266 0.55246,5.194636 0.67578,7.802734 l 2.64257,-0.125 c -0.12659,-2.677608 -0.35856,-5.350938 -0.69335,-8.009766 z m -116.30469,2.421875 c -1.69031,1.963623 -3.51215,3.829593 -5.40039,5.640621 l 1.83203,1.91016 c 1.93017,-1.85125 3.80985,-3.776828 5.57226,-5.824218 z m -7.3086,7.433591 c -1.92979,1.77648 -3.91021,3.50671 -5.9121,5.22461 l 1.72265,2.00781 c 2.01373,-1.72806 4.01887,-3.47759 5.98242,-5.28516 z m 124.39844,0.83398 -2.64648,0.0527 c 0.0521,2.60885 -0.003,5.21786 -0.18946,7.8125 l 2.63868,0.18945 c 0.19281,-2.68364 0.25087,-5.3732 0.19726,-8.05469 z m -132.32031,6.10742 c -2.00924,1.71428 -4.03441,3.42398 -6.04102,5.16797 l 1.73633,1.9961 c 1.98743,-1.72733 4.00519,-3.4301 6.02149,-5.15039 z m 129.25391,4.34571 c -0.27729,2.5827 -0.69394,5.14428 -1.29493,7.65429 l 2.57227,0.61524 c 0.63135,-2.63683 1.06601,-5.30838 1.35352,-7.98633 z m -137.29297,2.57422 c -1.99239,1.76494 -3.9599,3.57382 -5.86133,5.46289 l 1.86328,1.87695 c 1.85269,-1.84064 3.78368,-3.61579 5.75195,-5.35937 z m -7.74024,7.38086 c -1.84966,1.94794 -3.62111,3.99687 -5.22265,6.19531 l 2.13672,1.55664 c 1.51491,-2.07953 3.21293,-4.0415 5.00585,-5.92969 z m 143.07422,0.1875 c -0.72904,2.46656 -1.65882,4.86481 -2.84961,7.11132 l 2.33789,1.23829 c 1.28843,-2.43072 2.27856,-4.99354 3.04883,-7.59961 z m -149.83789,8.25585 c -1.47377,2.30136 -2.73147,4.77874 -3.59961,7.42188 l 2.51367,0.82422 c 0.78414,-2.3874 1.93673,-4.66894 3.31446,-6.82031 z m 145.70898,1.04493 c -1.36302,2.12464 -3.01122,4.05821 -4.92968,5.65429 l 1.6914,2.03321 c 2.15231,-1.79063 3.97397,-3.93279 5.4668,-6.25977 z m -44.33007,0.90234 0.12109,2.64453 c 2.44853,-0.11288 4.95047,0.33536 7.41602,1.02149 l 0.70898,-2.54883 c -2.62077,-0.72932 -5.39566,-1.2486 -8.24609,-1.11719 z m -2.81836,0.35547 c -2.72054,0.53608 -5.33392,1.45303 -7.8125,2.5957 l 1.10742,2.40235 c 2.32431,-1.07155 4.74226,-1.91474 7.2168,-2.40235 z m 13.6582,1.56445 -0.8418,2.50781 c 2.45596,0.82479 4.88814,1.81746 7.36719,2.78126 l 0.95899,-2.4668 c -2.45211,-0.95332 -4.92282,-1.96201 -7.48438,-2.82227 z m -23.90625,2.24024 c -2.39633,1.27256 -4.67449,2.71282 -6.89062,4.20117 l 1.47656,2.19726 c 2.17563,-1.46114 4.37579,-2.8525 6.6543,-4.0625 z m 33.83984,1.51562 -0.91406,2.48438 c 2.50624,0.92211 5.11023,1.79099 7.85938,2.24609 l 0.43359,-2.60937 c -2.47706,-0.41006 -4.92652,-1.2188 -7.37891,-2.1211 z m 16.61329,0.57031 -0.01,0.008 h -0.002 c -1.74956,1.16808 -3.89057,1.76918 -6.03516,1.79297 h -0.004 -0.004 c -0.24551,0.004 -0.48479,0.004 -0.71875,-0.004 l -0.0937,2.64453 c 0.28867,0.0102 0.57205,0.0105 0.84961,0.006 2.61692,-0.029 5.25128,-0.75395 7.47656,-2.24023 l -0.73437,-1.09961 0.73632,1.09961 0.01,-0.008 z m -143.09571,1.91211 c -0.59377,2.73617 -0.7113,5.56875 -0.34961,8.34375 l 2.62305,-0.34179 c -0.32236,-2.47323 -0.21621,-5.00504 0.3125,-7.44141 z m 83.55274,1.70508 c -2.18791,1.5115 -4.33686,3.04656 -6.51368,4.50391 l 1.47266,2.19726 c 2.22059,-1.48666 4.37918,-3.02724 6.54492,-4.52343 z m -8.70118,5.93555 c -2.19878,1.39969 -4.44523,2.69302 -6.77539,3.76953 l 1.10938,2.40234 c 2.47532,-1.14357 4.82226,-2.50041 7.08594,-3.9414 z m -72.08398,2.69922 -2.51172,0.83203 c 0.94162,2.84369 2.87784,5.14666 5.0625,6.91992 l 1.66797,-2.05469 c -1.90515,-1.54638 -3.48598,-3.48429 -4.21875,-5.69726 z m 62.94922,2.07031 c -2.48739,0.9629 -4.93904,1.98214 -7.38281,2.99219 l 1.00976,2.44531 c 2.44645,-1.01115 4.88058,-2.02322 7.32813,-2.9707 z m -9.82617,3.99805 c -2.44086,1.00067 -4.88133,1.97599 -7.3418,2.86914 l 0.90234,2.48633 c 2.51384,-0.91252 4.98834,-1.90173 7.44336,-2.90821 z m -46.88086,1.08593 -1.42383,2.23047 c 2.33893,1.4944 4.85862,2.62692 7.41797,3.53711 l 0.88672,-2.49219 c -2.42201,-0.86134 -4.75775,-1.91887 -6.88086,-3.27539 z m 37.07031,2.64844 c -2.47456,0.8317 -4.97122,1.56162 -7.49609,2.11133 l 0.56445,2.58594 c 2.64655,-0.5762 5.23501,-1.33564 7.77539,-2.18946 z m -27.75,1.41602 -0.73242,2.54297 c 2.58764,0.7453 5.25271,1.35563 7.98047,1.66211 l 0.29492,-2.62891 c -2.53043,-0.2843 -5.05127,-0.85851 -7.54297,-1.57617 z m 17.7207,1.18359 c -2.53641,0.4251 -5.10075,0.63951 -7.64648,0.56445 l -0.0781,2.64454 c 2.7453,0.0809 5.47945,-0.15033 8.16016,-0.59961 z"
         id="path1342" />
      <path
         style="color:#000000;font-style:normal;font-variant:normal;font-weight:normal;font-stretch:normal;font-size:medium;line-height:normal;font-family:sans-serif;font-variant-ligatures:normal;font-variant-position:normal;font-variant-caps:normal;font-variant-numeric:normal;font-variant-alternates:normal;font-variant-east-asian:normal;font-feature-settings:normal;font-variation-settings:normal;text-indent:0;text-align:start;text-decoration:none;text-decoration-line:none;text-decoration-style:solid;text-decoration-color:#000000;letter-spacing:normal;word-spacing:normal;text-transform:none;writing-mode:lr-tb;direction:ltr;text-orientation:mixed;dominant-baseline:auto;baseline-shift:baseline;text-anchor:start;white-space:normal;shape-padding:0;shape-margin:0;inline-size:0;clip-rule:nonzero;display:inline;overflow:visible;visibility:visible;isolation:auto;mix-blend-mode:normal;color-interpolation:sRGB;color-interpolation-filters:linearRGB;solid-color:#000000;solid-opacity:1;vector-effect:none;fill:#d35f5f;fill-opacity:1;fill-rule:nonzero;stroke:none;stroke-width:2.64583;stroke-linecap:butt;stroke-linejoin:miter;stroke-miterlimit:4;stroke-dasharray:7.9375, 2.64583;stroke-dashoffset:0;stroke-opacity:1;color-rendering:auto;image-rendering:auto;shape-rendering:auto;text-rendering:auto;enable-background:accumulate;stop-color:#000000"
         d="m 50.280149,108.77196 0.101563,2.64453 c 2.555847,-0.0985 5.126492,0.0586 7.666015,0.43945 l 0.392578,-2.61523 c -2.692729,-0.40378 -5.427866,-0.57404 -8.160156,-0.46875 z m -2.726562,0.19922 c -2.743978,0.28901 -5.417064,0.92171 -8.001954,1.73437 l 0.794922,2.52344 c 2.460831,-0.77366 4.962277,-1.36131 7.484375,-1.62695 z m 13.564453,0.74804 -0.539063,2.58985 c 2.517162,0.52422 4.991778,1.26198 7.388671,2.19726 l 0.960938,-2.46484 c -2.532492,-0.98819 -5.147304,-1.76762 -7.810546,-2.32227 z m -24.132813,1.86719 c -2.541587,0.9462 -5.013341,2.08433 -7.382813,3.41016 l 1.291015,2.30859 c 2.248234,-1.25798 4.598554,-2.33844 7.015626,-3.23828 z m 34.447265,1.51172 -1.095703,2.4082 c 2.340402,1.06543 4.589558,2.32762 6.697266,3.78516 l 1.505859,-2.17774 c -2.244843,-1.55237 -4.632499,-2.88895 -7.107422,-4.01562 z m -44.166016,3.28711 c -2.298372,1.45265 -4.487368,3.10595 -6.482421,4.98828 l 1.816406,1.92578 c 1.85467,-1.74987 3.906789,-3.30414 6.080078,-4.67773 z m 53.466797,2.35156 -1.638672,2.07617 c 0.478477,0.37755 0.947355,0.76937 1.408204,1.17188 l 0.0078,0.004 0.0059,0.006 c 1.421567,1.20935 2.642576,2.66123 3.613282,4.26563 l 2.263671,-1.37109 c -1.113742,-1.84082 -2.515365,-3.5073 -4.162109,-4.90821 -0.488186,-0.42604 -0.987531,-0.84131 -1.498047,-1.24414 z m -61.873047,4.60156 c -1.846452,2.04451 -3.462091,4.35229 -4.617186,6.91797 l 2.414061,1.08594 c 1.019536,-2.26458 2.469328,-4.35179 4.166016,-6.23047 z m 68.845703,4.01172 -2.398437,1.11524 c 1.063377,2.28398 1.802633,4.74938 2.416016,7.27343 l 2.570312,-0.625 c -0.634863,-2.61245 -1.415625,-5.24581 -2.587891,-7.76367 z m -74.451171,5.54102 c -0.828848,2.73386 -0.944361,5.49279 -1.142578,8.08008 v 0.0137 l -0.0039,0.0625 2.642578,0.14453 v -0.0195 l 0.002,-0.0195 v -0.008 c 0.201121,-2.63096 0.335448,-5.17841 1.035156,-7.48632 z m 77.634765,4.83789 -2.58789,0.55469 c 0.549546,2.56119 1.027494,5.16931 1.617187,7.78515 l 2.582031,-0.58203 c -0.574095,-2.54664 -1.050732,-5.14513 -1.611328,-7.75781 z m -78.886718,6.00586 c -0.0571,2.69242 0.02882,5.38453 0.246093,8.06445 l 2.636719,-0.21289 c -0.210329,-2.59424 -0.293379,-5.19678 -0.238281,-7.79492 z m 81.109374,4.28125 -2.560546,0.66797 c 0.681116,2.61073 1.538762,5.23176 2.798828,7.71289 l 2.359375,-1.19727 c -1.138274,-2.24132 -1.944578,-4.68033 -2.597657,-7.18359 z m -77.974608,6.16211 -2.630859,0.29492 c 0.300108,2.66999 0.724237,5.32397 1.257811,7.95312 l 2.59375,-0.52539 c -0.518858,-2.55664 -0.929737,-5.13401 -1.220702,-7.72265 z m 81.818358,3.17773 -2.205078,1.46289 c 1.5502,2.33731 3.48292,4.35406 5.548829,6.13672 l 1.72852,-2.00195 c -1.93521,-1.66989 -3.694623,-3.52052 -5.072271,-5.59766 z m -80.044921,7.09571 -2.576171,0.5957 c 0.604448,2.61254 1.314225,5.19896 2.119139,7.7539 l 2.523438,-0.79492 c -0.785102,-2.49205 -1.478057,-5.01174 -2.066406,-7.55468 z m 87.111332,0.11914 -1.60938,2.0996 c 2.1528,1.64851 4.39997,3.11866 6.62696,4.55665 l 1.43554,-2.22266 c -2.21722,-1.43168 -4.40335,-2.86398 -6.45312,-4.43359 z m 8.67578,5.87109 -1.4375,2.2207 c 2.20784,1.42948 4.37171,2.88395 6.39844,4.48047 l 1.63867,-2.07812 c -2.13153,-1.67908 -4.36658,-3.17726 -6.59961,-4.62305 z m -92.906253,4.04883 -2.503906,0.85547 c 0.866102,2.53336 1.82265,5.03456 2.863281,7.5 l 2.4375,-1.0293 c -1.017101,-2.40969 -1.951147,-4.8524 -2.796875,-7.32617 z m 101.583983,2.11133 -1.53906,2.15039 c 2.18526,1.56307 4.41912,3.01229 6.61914,4.46679 l 1.45899,-2.20703 c -2.21369,-1.46354 -4.41983,-2.89431 -6.53907,-4.41015 z m 8.75196,5.88476 -1.48047,2.19336 c 2.17344,1.46885 4.29217,2.97923 6.26367,4.63672 l 1.70313,-2.02539 c -2.08002,-1.74872 -4.27712,-3.31166 -6.48633,-4.80469 z m -106.496099,1.73047 -2.414063,1.08203 c 1.093894,2.44132 2.268451,4.84504 3.517578,7.20899 l 2.339844,-1.23633 c -1.223084,-2.31466 -2.373471,-4.66694 -3.443359,-7.05469 z m 115.003909,4.875 -1.79492,1.94336 c 1.84409,1.7032 3.43006,3.72941 5.00976,5.83203 l 2.11524,-1.58984 c -1.59849,-2.12763 -3.27558,-4.28802 -5.33008,-6.18555 z m -110.312503,4.48242 -2.314453,1.28516 c 1.297842,2.33747 2.670787,4.63317 4.111328,6.88476 l 2.228516,-1.42578 c -1.411245,-2.2058 -2.754531,-4.45526 -4.025391,-6.74414 z m 117.250003,3.8125 -2.12305,1.58008 c 1.5609,2.09649 3.03284,4.21862 4.16797,6.47266 l 2.36328,-1.18946 c -1.24704,-2.47625 -2.81283,-4.72049 -4.4082,-6.86328 z m -111.791018,5.12305 -2.201173,1.4707 c 1.485482,2.22207 3.039818,4.39835 4.658204,6.52539 l 2.105469,-1.60156 c -1.585811,-2.08423 -3.107071,-4.21742 -4.5625,-6.39453 z m 117.310548,4.30859 -2.48633,0.90625 c 0.13725,0.37672 0.25946,0.76046 0.36719,1.15235 l 0.002,0.004 v 0.004 c 0.53609,1.90849 0.59799,3.94982 -0.008,5.74023 l -0.16406,0.48438 2.5039,0.85156 0.16602,-0.48633 -1.25195,-0.42578 1.2539,0.42383 c 0.81487,-2.40828 0.70022,-4.97432 0.0488,-7.29688 l -0.002,-0.006 c -0.12485,-0.45359 -0.26677,-0.90437 -0.42969,-1.35156 z m -111.140626,4.1543 -2.072266,1.64453 c 1.661428,2.09401 3.387839,4.13663 5.177735,6.12305 l 1.964844,-1.77149 C 43.27,215.02449 41.579569,213.02444 39.952024,210.97313 Z m 107.925786,6.49805 c -1.01782,2.34027 -2.28905,4.57751 -3.7461,6.69336 l 2.17969,1.5 c 1.54351,-2.24142 2.89911,-4.62535 3.99219,-7.13868 z m -101.082036,1.42578 -1.927734,1.81054 c 1.831097,1.94874 3.723495,3.84065 5.679687,5.66602 l 1.806641,-1.93555 c -1.912723,-1.7848 -3.766163,-3.63343 -5.558594,-5.54101 z m 7.490234,7.30469 -1.761718,1.9746 c 1.99696,1.78204 4.057608,3.49466 6.177734,5.13086 l 1.615234,-2.09375 c -2.069071,-1.5968 -4.080064,-3.27053 -6.03125,-5.01171 z m 88.328132,0.041 c -1.57434,2.03734 -3.31627,3.95131 -5.1836,5.73828 l 1.83008,1.91211 c 1.95528,-1.87114 3.78582,-3.88313 5.44727,-6.0332 z m -80.207038,6.54102 -1.564453,2.13281 c 2.160911,1.58408 4.383031,3.08741 6.666015,4.49609 l 1.388672,-2.25195 c -2.220399,-1.37007 -4.383486,-2.83258 -6.490234,-4.37695 z m 73.115238,0.94336 c -1.9469,1.70333 -4.00887,3.27632 -6.16211,4.71679 l 1.4707,2.19922 c 2.24478,-1.50171 4.39786,-3.14472 6.4336,-4.92578 z m -64.38477,4.77343 -1.326172,2.28907 c 2.32216,1.34477 4.704014,2.59145 7.142578,3.72265 l 1.113282,-2.40039 c -2.361885,-1.09563 -4.672729,-2.30431 -6.929688,-3.61133 z m 56.03907,1.33985 c -2.21024,1.34986 -4.50583,2.55802 -6.86915,3.61523 l 1.08008,2.41602 c 2.46702,-1.1036 4.86228,-2.36528 7.16797,-3.77344 z m -46.730476,3.33007 -1.037109,2.4336 c 2.474707,1.05256 5.00484,1.98471 7.582031,2.77344 l 0.77539,-2.5293 c -2.482936,-0.75988 -4.925748,-1.65926 -7.320312,-2.67774 z m 37.476566,1.28907 c -2.40493,0.95095 -4.87233,1.73894 -7.38086,2.33203 l 0.60938,2.57422 c 2.6413,-0.62448 5.22879,-1.4507 7.74414,-2.44532 z m -27.658207,2.10351 -0.683594,2.55664 c 2.59814,0.69529 5.279625,1.27394 8.054688,1.45118 l 0.169922,-2.64063 c -2.515915,-0.16068 -5.028853,-0.69491 -7.541016,-1.36719 z m 17.755867,0.75586 c -2.53146,0.46019 -5.09528,0.71374 -7.65235,0.70703 l -0.008,2.64453 c 2.73532,0.007 5.45919,-0.26201 8.13281,-0.74804 z"
         id="path1350" />
      <path
         style="color:#000000;font-style:normal;font-variant:normal;font-weight:normal;font-stretch:normal;font-size:medium;line-height:normal;font-family:sans-serif;font-variant-ligatures:normal;font-variant-position:normal;font-variant-caps:normal;font-variant-numeric:normal;font-variant-alternates:normal;font-variant-east-asian:normal;font-feature-settings:normal;font-variation-settings:normal;text-indent:0;text-align:start;text-decoration:none;text-decoration-line:none;text-decoration-style:solid;text-decoration-color:#000000;letter-spacing:normal;word-spacing:normal;text-transform:none;writing-mode:lr-tb;direction:ltr;text-orientation:mixed;dominant-baseline:auto;baseline-shift:baseline;text-anchor:start;white-space:normal;shape-padding:0;shape-margin:0;inline-size:0;clip-rule:nonzero;display:inline;overflow:visible;visibility:visible;isolation:auto;mix-blend-mode:normal;color-interpolation:sRGB;color-interpolation-filters:linearRGB;solid-color:#000000;solid-opacity:1;vector-effect:none;fill:#d35f5f;fill-opacity:1;fill-rule:nonzero;stroke:none;stroke-width:2.64583;stroke-linecap:butt;stroke-linejoin:miter;stroke-miterlimit:4;stroke-dasharray:7.9375, 2.64583;stroke-dashoffset:0;stroke-opacity:1;color-rendering:auto;image-rendering:auto;shape-rendering:auto;text-rendering:auto;enable-background:accumulate;stop-color:#000000"
         d="m 208.17273,146.9536 c -1.42456,-0.1607 -2.86865,-0.14232 -4.29102,0.0586 l 0.36914,2.6211 c 2.39591,-0.33842 4.88809,-0.0601 7.14454,0.80664 l 0.94921,-2.46875 c -1.34261,-0.51575 -2.74731,-0.85688 -4.17187,-1.01758 z m -7.06445,0.66015 c -2.71591,0.80062 -5.19685,2.13688 -7.45899,3.67383 l 1.48828,2.18946 c 2.10666,-1.43132 4.35114,-2.62628 6.71875,-3.32422 z m 13.81054,1.59375 -1.33203,2.28516 c 2.11524,1.23219 3.96157,2.96882 5.59961,4.91016 l 2.02149,-1.70703 c -1.7674,-2.09464 -3.82111,-4.05063 -6.28907,-5.48829 z m -23.47461,3.69141 c -2.14677,1.67204 -4.13081,3.50935 -6.02929,5.39648 l 1.86523,1.87696 c 1.85311,-1.84203 3.76191,-3.60515 5.79102,-5.18555 z m 31.45508,3.94336 -2.1289,1.57031 c 1.52922,2.07384 2.90495,4.28756 4.2539,6.54492 l 2.27149,-1.35742 c -1.36466,-2.28364 -2.78413,-4.57122 -4.39649,-6.75781 z m -39.35937,3.36133 c -1.85336,1.92269 -3.6394,3.88148 -5.43946,5.80469 l 1.93164,1.80859 c 1.81591,-1.94014 3.59285,-3.89001 5.41211,-5.77734 z m 45.10742,5.68359 -2.28125,1.33985 c 1.33879,2.27653 2.67871,4.58322 4.14062,6.83984 l 2.22071,-1.43945 c -1.41558,-2.1851 -2.73675,-4.45597 -4.08008,-6.74024 z m -52.36328,2.08203 c -1.80095,2.00417 -3.49239,4.10935 -5.05664,6.30664 l 2.15429,1.53516 c 1.50466,-2.11357 3.13332,-4.14058 4.86914,-6.07227 z m 57.89062,6.8125 -2.16406,1.52149 c 1.55419,2.20871 3.28077,4.35786 5.32617,6.24023 l 0.89649,-0.97265 -0.88477,0.98437 0.2832,0.25391 1.76954,-1.9668 -0.27344,-0.24414 c -0.002,-0.002 -0.002,-0.004 -0.004,-0.006 l -0.008,-0.006 c -1.84691,-1.70191 -3.45675,-3.69479 -4.94141,-5.80469 z m -64.46875,1.72071 c -1.47797,2.25766 -2.82393,4.6089 -4.00586,7.04296 l 2.38086,1.1543 c 1.12959,-2.32627 2.41773,-4.57869 3.83789,-6.74804 z m 71.65039,5.83789 -1.48437,2.18945 c 2.29591,1.55805 4.73371,2.74222 7.0664,3.94336 l 1.21094,-2.35352 c -2.36722,-1.21891 -4.70505,-2.3624 -6.79297,-3.77929 z m -76.7832,3.66406 c -1.06993,2.48792 -1.96471,5.05873 -2.64453,7.69141 l 2.56055,0.66015 c 0.64335,-2.49143 1.49519,-4.93186 2.51562,-7.30469 z m 85.94922,1.36719 -1.27735,2.3164 c 2.26104,1.24759 4.40479,2.61062 5.96876,4.42188 l 2.00195,-1.72852 c -1.90941,-2.21133 -4.34501,-3.714 -6.69336,-5.00976 z m 8.35156,7.4414 -2.34375,1.22852 c 0.13634,0.26043 0.26033,0.53111 0.37305,0.81055 0.77115,2.0343 1.26842,4.18484 1.54687,6.37304 l 2.625,-0.33398 c -0.30074,-2.36341 -0.84059,-4.7186 -1.69726,-6.97852 l -0.006,-0.0117 -0.004,-0.01 c -0.14544,-0.36308 -0.30912,-0.72472 -0.49414,-1.07813 z m -97.54492,1.54883 c -0.50696,2.69384 -0.72361,5.43313 -0.68555,8.16016 l 2.64649,-0.0371 c -0.0358,-2.56305 0.16684,-5.12565 0.63867,-7.63281 z m 99.98242,9.26758 -2.64258,0.12891 c 0.1238,2.54554 -0.0333,5.11065 -0.42578,7.64453 l 2.61328,0.40429 c 0.41736,-2.69432 0.58838,-5.43677 0.45508,-8.17773 z m -97.90625,1.41797 -2.63867,0.19922 c 0.20482,2.71792 0.65464,5.4161 1.33984,8.05273 l 2.5625,-0.66601 c -0.64571,-2.48469 -1.07085,-5.02724 -1.26367,-7.58594 z m 94.36719,8.87695 c -0.54712,2.50818 -1.32002,4.96912 -2.29688,7.3457 l 2.44727,1.00586 c 1.03481,-2.51757 1.85292,-5.12513 2.43359,-7.78711 z m -92.38281,1.17578 -2.51954,0.81055 c 0.81118,2.51772 1.62407,5.04558 2.49415,7.56445 l 2.50195,-0.86328 c -0.85766,-2.48292 -1.66503,-4.99289 -2.47656,-7.51172 z m 89.04101,8.51367 c -1.11465,2.31309 -2.43238,4.52516 -3.95703,6.57618 l 2.12305,1.57812 c 1.63267,-2.19633 3.03467,-4.55274 4.21679,-7.00586 z m -85.6914,1.47266 -2.48633,0.90234 c 0.91061,2.50839 1.89051,5.00542 2.99804,7.45704 l 2.41211,-1.08985 c -1.07121,-2.37121 -2.02892,-4.80441 -2.92382,-7.26953 z m 80.14648,7.08984 c -1.6803,1.9319 -3.56036,3.71557 -5.53516,5.40625 l 1.72071,2.00977 c 2.04219,-1.74839 4.01799,-3.61873 5.81054,-5.67969 z m -76.11328,2.5293 -2.37109,1.17383 c 1.19634,2.41572 2.54067,4.78301 4.10937,7.01758 l 2.16602,-1.52149 c -1.47253,-2.09756 -2.75308,-4.34532 -3.9043,-6.66992 z m 68.57226,4.51172 c -2.04123,1.59842 -4.17884,3.07556 -6.39453,4.42969 l 1.37891,2.25781 c 2.29925,-1.4052 4.52337,-2.93945 6.64844,-4.60352 z m -63.13085,4.19727 -2.05469,1.66601 c 1.72872,2.13211 3.72099,4.09347 6.01367,5.69336 l 1.51367,-2.16992 c -2.05058,-1.43095 -3.87122,-3.21433 -5.47265,-5.18945 z m 54.49414,1.54687 c -2.26393,1.27285 -4.59823,2.42019 -6.98829,3.43555 l 1.03516,2.43554 c 2.48022,-1.05366 4.90145,-2.24402 7.25,-3.56445 z m -9.39649,4.4082 c -2.42475,0.92628 -4.9009,1.71407 -7.41406,2.34766 l 0.64648,2.56445 c 2.61803,-0.66003 5.19461,-1.47939 7.71289,-2.4414 z m -37.5,0.54493 -1.26172,2.32421 c 2.36836,1.2853 4.90547,2.07078 7.39844,2.68555 l 0.01,0.002 0.38086,0.0879 0.5996,-2.57618 -0.35546,-0.082 -0.0176,-0.004 c -2.38145,-0.58806 -4.69289,-1.31901 -6.75391,-2.4375 z m 27.5625,2.38281 c -2.53506,0.52655 -5.09978,0.89081 -7.67383,1.06054 l 0.17383,2.64063 c 2.70649,-0.17847 5.39164,-0.56185 8.03711,-1.11133 z m -17.92969,0.62695 -0.41992,2.61328 c 2.69511,0.434 5.42281,0.61116 8.13867,0.57031 l -0.0391,-2.64648 c -2.57431,0.0387 -5.14984,-0.12973 -7.67969,-0.53711 z"
         id="path1346" />
    </g>
    <g
       id="g1181"
       transform="translate(-34.679639,362.43114)">
      <g
         id="g1296"
         transform="translate(59.245542,-6.36418)">
        <circle
           style="fill:#666666;fill-opacity:1;stroke-width:2.64583;stroke-linejoin:bevel;stroke-dasharray:7.9375, 2.64583"
           id="circle1292"
           cx="45.571381"
           cy="173.02303"
           r="10.583333" />
        <path
           id="path1294"
           style="fill:#cccccc;stroke-width:0.198438;stroke-linejoin:bevel;stroke-dashoffset:6.00002"
           d="m 45.533144,165.08553 a 7.9374999,7.9374986 0 0 0 -7.89926,7.9375 7.9374999,7.9374986 0 0 0 7.9375,7.9375 7.9374999,7.9374986 0 0 0 7.9375,-7.9375 7.9374999,7.9374986 0 0 0 -7.9375,-7.9375 7.9374999,7.9374986 0 0 0 -0.0382,0 z m -0.74725,2.79415 h 1.57769 l 3.92069,10.2867 h -1.44694 l -0.9369,-2.63859 h -4.63744 l -0.93689,2.63859 h -1.46761 z m 0.78549,1.37097 -1.88774,5.11959 h 3.78271 z" />
      </g>
      <circle
         style="fill:#d35f5f;fill-opacity:1;stroke-width:1.48913;stroke-linejoin:bevel;stroke-dasharray:4.46741, 1.48913"
         id="circle992"
         cx="71.728287"
         cy="198.57585"
         r="10.583333" />
      <path
         id="path1300"
         style="fill:#cccccc;stroke-width:0.198438;stroke-linejoin:bevel;stroke-dashoffset:6.00002"
         d="m 71.690052,190.63838 a 7.9374999,7.9374986 0 0 0 -7.89926,7.9375 7.9374999,7.9374986 0 0 0 7.9375,7.9375 7.9374999,7.9374986 0 0 0 7.9375,-7.9375 7.9374999,7.9374986 0 0 0 -7.9375,-7.9375 7.9374999,7.9374986 0 0 0 -0.0382,0 z m -3.61012,2.79415 h 3.55534 c 1.06109,0 1.8789,0.22048 2.45308,0.66145 0.57418,0.44098 0.86093,1.06798 0.86093,1.88103 0,0.6293 -0.14682,1.12965 -0.4408,1.50171 -0.29398,0.37207 -0.72594,0.60422 -1.29553,0.69608 0.68442,0.147 1.21497,0.45494 1.59163,0.92346 0.38126,0.46394 0.57206,1.04484 0.57206,1.74305 0,0.91869 -0.31218,1.62838 -0.93689,2.12907 -0.62471,0.50068 -1.51355,0.75085 -2.66651,0.75085 h -3.69331 z m 1.39165,1.14359 v 3.10059 h 2.06033 c 0.67984,0 1.18495,-0.12615 1.51568,-0.37879 0.33532,-0.25723 0.50332,-0.64785 0.50332,-1.1715 0,-0.51906 -0.168,-0.90704 -0.50332,-1.16427 -0.33073,-0.25723 -0.83584,-0.38603 -1.51568,-0.38603 z m 0,4.23075 v 3.76877 h 2.23242 c 0.74873,0 1.30259,-0.15372 1.66088,-0.46147 0.36288,-0.31235 0.54415,-0.78778 0.54415,-1.42627 0,-0.64309 -0.18127,-1.11639 -0.54415,-1.41955 -0.35829,-0.30777 -0.91215,-0.46148 -1.66088,-0.46148 z" />
      <circle
         style="fill:#d35f5f;fill-opacity:1;stroke-width:1.48913;stroke-linejoin:bevel;stroke-dasharray:4.46741, 1.48913"
         id="circle988"
         cx="159.43515"
         cy="69.303314"
         r="10.583333" />
      <path
         id="path1306"
         style="fill:#cccccc;stroke-width:0.198438;stroke-linejoin:bevel;stroke-dashoffset:6.00002"
         d="m 159.39692,61.365858 a 7.9374999,7.9374986 0 0 0 -7.89926,7.9375 7.9374999,7.9374986 0 0 0 7.9375,7.93749 7.9374999,7.9374986 0 0 0 7.9375,-7.93749 7.9374999,7.9374986 0 0 0 -7.9375,-7.9375 7.9374999,7.9374986 0 0 0 -0.0382,0 z m 0.91312,2.60088 c 0.61552,0 1.1943,0.0827 1.73633,0.24804 0.54662,0.16077 1.05913,0.40457 1.53685,0.73072 v 1.46761 c -0.46853,-0.43638 -0.96939,-0.76287 -1.50223,-0.97875 -0.52825,-0.2159 -1.09112,-0.3235 -1.68827,-0.3235 -1.17593,0 -2.0759,0.36042 -2.70061,1.08159 -0.62471,0.71658 -0.93741,1.75487 -0.93741,3.11453 0,1.35507 0.3127,2.39285 0.93741,3.11402 0.62471,0.71658 1.52468,1.07487 2.70061,1.07487 0.59715,0 1.16002,-0.1076 1.68827,-0.32349 0.53284,-0.2159 1.0337,-0.54238 1.50223,-0.97876 v 1.45418 c -0.4869,0.33072 -1.00367,0.57877 -1.55029,0.74414 -0.54203,0.16537 -1.11655,0.24805 -1.72289,0.24805 -1.55718,0 -2.78364,-0.47543 -3.67936,-1.42627 -0.89573,-0.95544 -1.34359,-2.25769 -1.34359,-3.90674 0,-1.65363 0.44786,-2.95588 1.34359,-3.90673 0.89572,-0.95545 2.12218,-1.43351 3.67936,-1.43351 z" />
      <circle
         style="fill:#d35f5f;fill-opacity:1;stroke-width:1.48913;stroke-linejoin:bevel;stroke-dasharray:4.46741, 1.48913"
         id="path986"
         cx="77.304337"
         cy="77.937737"
         r="10.583333" />
      <path
         id="path1310"
         style="fill:#cccccc;stroke-width:0.198438;stroke-linejoin:bevel;stroke-dashoffset:6.00002"
         d="m 77.266102,70.00026 a 7.9374999,7.9374986 0 0 0 -7.89925,7.9375 7.9374999,7.9374986 0 0 0 7.9375,7.9375 7.9374999,7.9374986 0 0 0 7.9375,-7.9375 7.9374999,7.9374986 0 0 0 -7.9375,-7.9375 7.9374999,7.9374986 0 0 0 -0.0383,0 z m -4.28552,2.79415 h 2.85977 c 1.99356,0 3.45641,0.41553 4.38888,1.24695 0.93247,0.82682 1.39888,2.12218 1.39888,3.88607 0,1.77307 -0.46854,3.07531 -1.4056,3.90673 -0.93706,0.83142 -2.39778,1.24695 -4.38216,1.24695 h -2.85977 z m 1.39216,1.14359 v 7.99952 h 1.68104 c 1.41937,0 2.45767,-0.32172 3.11453,-0.9648 0.66146,-0.64309 0.99219,-1.65807 0.99219,-3.04529 0,-1.37803 -0.33073,-2.38613 -0.99219,-3.02463 -0.65686,-0.64308 -1.69516,-0.9648 -3.11453,-0.9648 z" />
      <circle
         style="fill:#666666;fill-opacity:1;stroke-width:2.64583;stroke-linejoin:bevel;stroke-dasharray:7.9375, 2.64583"
         id="circle1312"
         cx="51.260334"
         cy="113.88488"
         r="10.583333" />
      <path
         id="path1314"
         style="fill:#cccccc;stroke-width:0.198438;stroke-linejoin:bevel;stroke-dashoffset:6.00002"
         d="m 51.222083,105.9474 a 7.9374999,7.9374986 0 0 0 -7.89925,7.9375 7.9374999,7.9374986 0 0 0 7.93749,7.9375 7.9374999,7.9374986 0 0 0 7.937509,-7.9375 7.9374999,7.9374986 0 0 0 -7.937509,-7.9375 7.9374999,7.9374986 0 0 0 -0.0382,0 z m -3.27575,2.79415 h 6.503989 v 1.17098 h -5.112359 v 3.04581 h 4.898939 v 1.17099 h -4.898939 v 3.72794 h 5.236379 v 1.17098 h -6.628009 z" />
      <circle
         style="fill:#666666;fill-opacity:1;stroke-width:2.64583;stroke-linejoin:bevel;stroke-dasharray:7.9375, 2.64583"
         id="circle1316"
         cx="179.88893"
         cy="107.13677"
         r="10.583333" />
      <path
         id="path1318"
         style="fill:#cccccc;stroke-width:0.198438;stroke-linejoin:bevel;stroke-dashoffset:6.00002"
         d="m 179.85073,99.199308 a 7.9374999,7.9374986 0 0 0 -7.89926,7.937502 7.9374999,7.9374986 0 0 0 7.9375,7.9375 7.9374999,7.9374986 0 0 0 7.9375,-7.9375 7.9374999,7.9374986 0 0 0 -7.9375,-7.937502 7.9374999,7.9374986 0 0 0 -0.0382,0 z m -2.91765,2.794152 h 5.91179 v 1.17098 h -4.52014 v 3.03186 h 4.07934 v 1.1715 h -4.07934 v 4.91236 h -1.39165 z" />
      <circle
         style="fill:#d35f5f;fill-opacity:1;stroke-width:1.48913;stroke-linejoin:bevel;stroke-dasharray:4.46741, 1.48913"
         id="circle990"
         cx="192.85501"
         cy="186.52138"
         r="10.583333" />
      <path
         id="path1322"
         style="fill:#cccccc;stroke-width:0.198438;stroke-linejoin:bevel;stroke-dashoffset:6.00002"
         d="m 192.81681,178.58391 a 7.9374999,7.9374986 0 0 0 -7.89926,7.9375 7.9374999,7.9374986 0 0 0 7.9375,7.9375 7.9374999,7.9374986 0 0 0 7.9375,-7.9375 7.9374999,7.9374986 0 0 0 -7.9375,-7.9375 7.9374999,7.9374986 0 0 0 -0.0382,0 z m 0.67903,2.60088 c 0.67064,0 1.30667,0.0827 1.90841,0.24804 0.60633,0.16536 1.16444,0.40916 1.67431,0.73071 v 1.48104 c -0.51446,-0.43638 -1.06092,-0.76446 -1.63969,-0.98495 -0.57878,-0.22049 -1.18724,-0.33073 -1.82573,-0.33073 -1.2586,0 -2.2052,0.3514 -2.8391,1.0542 -0.62931,0.7028 -0.94361,1.75012 -0.94361,3.14193 0,1.38722 0.3143,2.43189 0.94361,3.13469 0.6339,0.7028 1.5805,1.0542 2.8391,1.0542 0.4915,0 0.92984,-0.0413 1.31568,-0.12402 0.38585,-0.0873 0.73301,-0.22032 1.04076,-0.39946 v -2.76314 h -2.27376 v -1.1436 h 3.65146 v 4.41678 c -0.53743,0.38126 -1.12999,0.67065 -1.77767,0.86817 -0.64768,0.19292 -1.33882,0.28939 -2.07377,0.28939 -1.60771,0 -2.86649,-0.46854 -3.776,-1.4056 -0.90491,-0.94166 -1.35703,-2.2508 -1.35703,-3.92741 0,-1.6812 0.45212,-2.99034 1.35703,-3.92741 0.90951,-0.94166 2.16829,-1.41283 3.776,-1.41283 z" />
      <circle
         style="fill:#666666;fill-opacity:1;stroke-width:2.64583;stroke-linejoin:bevel;stroke-dasharray:7.9375, 2.64583"
         id="circle1324"
         cx="190.83696"
         cy="149.39729"
         r="10.583333" />
      <path
         id="path1326"
         style="fill:#cccccc;stroke-width:0.198438;stroke-linejoin:bevel;stroke-dashoffset:6.00002"
         d="m 190.79874,141.45978 a 7.9374999,7.9374986 0 0 0 -7.89926,7.9375 7.9374999,7.9374986 0 0 0 7.9375,7.9375 7.9374999,7.9374986 0 0 0 7.9375,-7.9375 7.9374999,7.9374986 0 0 0 -7.9375,-7.9375 7.9374999,7.9374986 0 0 0 -0.0382,0 z m -3.88245,2.79415 h 1.39216 v 4.21679 h 5.05705 v -4.21679 h 1.39217 v 10.2867 h -1.39217 v -4.89892 h -5.05705 v 4.89892 h -1.39216 z" />
      <ellipse
         style="fill:none;fill-opacity:1;stroke:#d35f5f;stroke-width:2.74203;stroke-linejoin:bevel;stroke-miterlimit:4;stroke-dasharray:8.2261, 2.74203;stroke-dashoffset:0;stroke-opacity:1"
         id="circle1014"
         cx="77.304138"
         cy="77.93737"
         rx="58.160294"
         ry="58.160191" />
      <ellipse
         style="fill:none;fill-opacity:1;stroke:#d35f5f;stroke-width:2.74203;stroke-linejoin:bevel;stroke-miterlimit:4;stroke-dasharray:8.2261, 2.74203;stroke-dashoffset:0;stroke-opacity:1"
         id="ellipse1084"
         cx="159.43495"
         cy="69.302948"
         rx="58.160294"
         ry="58.160191" />
      <ellipse
         style="fill:none;fill-opacity:1;stroke:#d35f5f;stroke-width:2.74203;stroke-linejoin:bevel;stroke-miterlimit:4;stroke-dasharray:8.2261, 2.74203;stroke-dashoffset:0;stroke-opacity:1"
         id="ellipse1086"
         cx="192.85483"
         cy="186.52098"
         rx="58.160294"
         ry="58.160191" />
      <ellipse
         style="fill:none;fill-opacity:1;stroke:#d35f5f;stroke-width:2.74203;stroke-linejoin:bevel;stroke-miterlimit:4;stroke-dasharray:8.2261, 2.74203;stroke-dashoffset:0;stroke-opacity:1"
         id="ellipse1088"
         cx="71.728073"
         cy="198.57549"
         rx="58.160294"
         ry="58.160191" />
    </g>
  </g>
</svg>
