<?xml version="1.0" encoding="UTF-8" standalone="no"?>
<svg
   xmlns:dc="http://purl.org/dc/elements/1.1/"
   xmlns:cc="http://creativecommons.org/ns#"
   xmlns:rdf="http://www.w3.org/1999/02/22-rdf-syntax-ns#"
   xmlns:svg="http://www.w3.org/2000/svg"
   xmlns="http://www.w3.org/2000/svg"
   xmlns:sodipodi="http://sodipodi.sourceforge.net/DTD/sodipodi-0.dtd"
   xmlns:inkscape="http://www.inkscape.org/namespaces/inkscape"
   width="210mm"
   height="297mm"
   viewBox="0 0 210 297"
   version="1.1"
   id="svg2815"
   inkscape:version="1.0.2 (1.0.2+r75+1)"
   sodipodi:docname="Cosinus.svg">
  <defs
     id="defs2809" />
  <sodipodi:namedview
     id="base"
     pagecolor="#ffffff"
     bordercolor="#666666"
     borderopacity="1.0"
     inkscape:pageopacity="0.0"
     inkscape:pageshadow="2"
     inkscape:zoom="0.41800743"
     inkscape:cx="400"
     inkscape:cy="560"
     inkscape:document-units="mm"
     inkscape:current-layer="layer1"
     inkscape:document-rotation="0"
     showgrid="false"
     showborder="false"
     inkscape:window-width="1858"
     inkscape:window-height="1136"
     inkscape:window-x="62"
     inkscape:window-y="27"
     inkscape:window-maximized="1" />
  <metadata
     id="metadata2812">
    <rdf:RDF>
      <cc:Work
         rdf:about="">
        <dc:format>image/svg+xml</dc:format>
        <dc:type
           rdf:resource="http://purl.org/dc/dcmitype/StillImage" />
        <dc:title></dc:title>
      </cc:Work>
    </rdf:RDF>
  </metadata>
  <g
     inkscape:label="Layer 1"
     inkscape:groupmode="layer"
     id="layer1">
    <path
       id="path900"
       style="color:#000000;font-style:normal;font-variant:normal;font-weight:normal;font-stretch:normal;font-size:medium;line-height:normal;font-family:sans-serif;font-variant-ligatures:normal;font-variant-position:normal;font-variant-caps:normal;font-variant-numeric:normal;font-variant-alternates:normal;font-variant-east-asian:normal;font-feature-settings:normal;font-variation-settings:normal;text-indent:0;text-align:start;text-decoration:none;text-decoration-line:none;text-decoration-style:solid;text-decoration-color:#000000;letter-spacing:normal;word-spacing:normal;text-transform:none;writing-mode:lr-tb;direction:ltr;text-orientation:mixed;dominant-baseline:auto;baseline-shift:baseline;text-anchor:start;white-space:normal;shape-padding:0;shape-margin:0;inline-size:0;clip-rule:nonzero;display:inline;overflow:visible;visibility:visible;isolation:auto;mix-blend-mode:normal;color-interpolation:sRGB;color-interpolation-filters:linearRGB;solid-color:#000000;solid-opacity:1;vector-effect:none;fill:#000000;fill-opacity:1;fill-rule:evenodd;stroke:none;stroke-width:0.467167pt;stroke-linecap:butt;stroke-linejoin:miter;stroke-miterlimit:4;stroke-dasharray:none;stroke-dashoffset:0;stroke-opacity:1;color-rendering:auto;image-rendering:auto;shape-rendering:auto;text-rendering:auto;enable-background:accumulate;stop-color:#000000"
       d="m -150.67377,-141.17444 -2.96518,10.37906 0.62949,-0.62949 1.75206,-1.75208 v 14.19343 h -2.3357 v 1.16785 h 2.3357 v 33.869392 h -2.3357 v 1.167848 h 2.3357 v 33.87 h -2.3357 v 1.167844 h 2.3357 v 33.8694 h -2.3357 v 1.16845 h 2.3357 V 21.16666 h -2.3357 v 1.16784 h 2.3357 v 33.8694 h -2.3357 v 1.16845 h 2.3357 v 33.8694 h -2.3357 v 1.16785 h 2.3357 v 2.33569 h 1.16785 V 92.4096 h 2.3357 31.53371 v 2.33569 h 1.16843 V 92.4096 h 33.86941 v 2.33569 h 1.16785 V 92.4096 h 33.86999 v 2.33569 h 1.16785 V 92.4096 h 33.86941 v 2.33569 h 1.16784 V 92.4096 h 33.87 v 2.33569 h 1.16784 V 92.4096 h 33.86941 v 2.33569 h 1.16785 V 92.4096 h 14.19281 l -2.38095,2.38096 10.37905,-2.96519 -10.37905,-2.96519 0.62948,0.6295 1.75207,1.75207 H 60.13574 v -2.3357 h -1.16785 v 2.3357 H 25.09848 v -2.3357 h -1.16784 v 2.3357 h -33.87 v -2.3357 h -1.16784 v 2.3357 h -33.86941 v -2.3357 h -1.16785 v 2.3357 h -33.86999 v -2.3357 h -1.16785 v 2.3357 h -33.86941 v -2.3357 h -1.16843 v 2.3357 h -31.53371 -2.3357 v -2.3357 -31.5337 h 2.3357 V 56.2039 h -2.3357 V 22.3345 h 2.3357 v -1.16784 h -2.3357 v -33.869396 h 2.3357 v -1.16845 h -2.3357 v -33.8694 h 2.3357 v -1.167844 h -2.3357 v -33.87 h 2.3357 v -1.167848 h -2.3357 v -33.869392 h 2.3357 v -1.16785 h -2.3357 v -14.19282 l 2.38097,2.38096 z m -8.99694,19.03501 c -0.28649,0 -0.59228,0.0258 -0.9174,0.0773 -0.32189,0.0515 -0.66789,0.12876 -1.03809,0.23176 v 0.8691 c 0.36695,-0.12233 0.70334,-0.21246 1.00914,-0.27039 0.3058,-0.0579 0.59225,-0.0869 0.85942,-0.0869 0.48926,0 0.86428,0.0998 1.12499,0.29936 0.26396,0.19635 0.39594,0.47962 0.39594,0.84978 0,0.36052 -0.12716,0.63734 -0.38144,0.83047 -0.25429,0.18991 -0.62124,0.28487 -1.10086,0.28487 h -0.87874 v 0.8015 h 0.84011 c 0.53113,0 0.94475,0.12071 1.24087,0.36212 0.29937,0.2382 0.44906,0.56975 0.44906,0.99464 0,0.4603 -0.16097,0.81115 -0.48283,1.05257 -0.31869,0.24142 -0.78381,0.36212 -1.39541,0.36212 -0.35085,0 -0.68721,-0.0402 -1.00911,-0.12071 -0.32189,-0.0805 -0.61802,-0.19957 -0.88841,-0.35729 v 0.94152 c 0.34121,0.11911 0.67115,0.20763 0.9898,0.26556 0.3219,0.0612 0.63412,0.0917 0.93671,0.0917 0.90126,0 1.59654,-0.19474 2.08583,-0.58423 0.48926,-0.38948 0.7339,-0.93991 0.7339,-1.65128 0,-0.46352 -0.13198,-0.85301 -0.39594,-1.16845 -0.26071,-0.31545 -0.62445,-0.52307 -1.09118,-0.62285 0.42168,-0.10623 0.74679,-0.29614 0.9753,-0.56975 0.22855,-0.27681 0.34282,-0.6148 0.34282,-1.01394 0,-0.57296 -0.21566,-1.02682 -0.64698,-1.36158 -0.43135,-0.33799 -1.01717,-0.50698 -1.7575,-0.50698 z m 0.0821,70.145105 c -0.28327,0 -0.59549,0.04024 -0.93671,0.120709 -0.34118,0.08047 -0.70813,0.199569 -1.10085,0.357295 v 0.984976 c 0.38626,-0.215663 0.7484,-0.376606 1.08639,-0.482831 0.34118,-0.10622 0.66469,-0.159336 0.97049,-0.159336 0.43131,0 0.78056,0.120715 1.04773,0.362125 0.27039,0.241415 0.40558,0.553644 0.40558,0.936692 0,0.234976 -0.0628,0.474778 -0.18831,0.719417 -0.12231,0.241409 -0.33958,0.537552 -0.6518,0.888412 -0.16418,0.18669 -0.56654,0.60353 -1.20709,1.25053 -0.63734,0.64377 -1.14109,1.15719 -1.51126,1.54023 v 0.82081 h 4.57724 v -0.82081 h -3.40395 c 0.78538,-0.8015 1.39377,-1.42435 1.82509,-1.86855 0.43131,-0.44743 0.68724,-0.71781 0.76771,-0.81116 0.29291,-0.36052 0.49407,-0.672744 0.60353,-0.936693 0.11266,-0.267165 0.16899,-0.548817 0.16899,-0.844956 0,-0.624463 -0.22211,-1.123385 -0.66632,-1.496776 -0.4442,-0.373382 -1.03967,-0.560084 -1.78646,-0.560084 z m -0.0772,70.140875 -1.7237,0.34764 v 0.88841 l 1.73334,-0.34764 v 5.49944 h -1.59333 v 0.82082 h 4.15235 V 24.5344 h -1.59336 v -6.38785 z m 0.0772,69.9399 c -0.80794,0 -1.42596,0.32028 -1.85407,0.96083 -0.42489,0.63734 -0.63734,1.56437 -0.63734,2.78111 0,1.21352 0.21245,2.14055 0.63734,2.78111 0.42811,0.63733 1.04613,0.956 1.85407,0.956 0.80795,0 1.42436,-0.31867 1.84925,-0.956 0.42811,-0.64056 0.64216,-1.56759 0.64216,-2.78111 0,-1.21674 -0.21405,-2.14377 -0.64216,-2.78111 -0.42489,-0.64055 -1.0413,-0.96083 -1.84925,-0.96083 z m 0,0.77253 c 0.50536,0 0.88359,0.24785 1.13466,0.74356 0.25429,0.49248 0.38142,1.23444 0.38142,2.22585 0,0.98819 -0.12713,1.73014 -0.38142,2.22585 -0.25107,0.49249 -0.6293,0.73873 -1.13466,0.73873 -0.50214,0 -0.88037,-0.24624 -1.13466,-0.73873 -0.25107,-0.49571 -0.37659,-1.23766 -0.37659,-2.22585 0,-0.99141 0.12552,-1.73337 0.37659,-2.22585 0.25429,-0.49571 0.63252,-0.74356 1.13466,-0.74356 z m 8.91546,9.39046 c -0.80794,0 -1.42597,0.32028 -1.85407,0.96083 -0.42489,0.63734 -0.63734,1.56438 -0.63734,2.78111 0,1.21352 0.21245,2.14055 0.63734,2.78111 0.4281,0.63734 1.04613,0.956 1.85407,0.956 0.80794,0 1.42436,-0.31866 1.84925,-0.956 0.42811,-0.64056 0.64216,-1.56759 0.64216,-2.78111 0,-1.21673 -0.21405,-2.14377 -0.64216,-2.78111 -0.42489,-0.64055 -1.04131,-0.96083 -1.84925,-0.96083 z m 69.65262,0 -1.7237,0.34764 v 0.88841 l 1.73337,-0.34764 v 5.49945 h -1.59336 v 0.82081 h 4.15235 v -0.82081 h -1.59333 v -6.38786 z m 70.2948,0 c -0.28327,0 -0.5955,0.0402 -0.93671,0.12071 -0.34118,0.0805 -0.70816,0.19957 -1.10085,0.35729 v 0.98498 c 0.38626,-0.21567 0.74839,-0.37661 1.08636,-0.48283 0.34121,-0.10623 0.66471,-0.15934 0.97051,-0.15934 0.43132,0 0.78057,0.12071 1.04774,0.36213 0.27038,0.24141 0.40558,0.55364 0.40558,0.93669 0,0.23498 -0.0628,0.47478 -0.18831,0.71942 -0.12231,0.24141 -0.33958,0.53755 -0.65183,0.88841 -0.16415,0.18669 -0.56652,0.60353 -1.20707,1.25053 -0.63733,0.64377 -1.14109,1.15718 -1.51125,1.54023 v 0.82081 h 4.57724 v -0.82081 h -3.40398 c 0.78541,-0.8015 1.39379,-1.42435 1.82511,-1.86856 0.43132,-0.44742 0.68725,-0.71781 0.76771,-0.81115 0.29291,-0.36052 0.49408,-0.67275 0.60353,-0.9367 0.11267,-0.26716 0.169,-0.54881 0.169,-0.84495 0,-0.62446 -0.22212,-1.12339 -0.66632,-1.49678 -0.44421,-0.37339 -1.0397,-0.56008 -1.78646,-0.56008 z m 70.07751,0 c -0.28649,0 -0.59229,0.0257 -0.9174,0.0772 -0.3219,0.0515 -0.6679,0.12876 -1.03809,0.23176 v 0.8691 c 0.36695,-0.12232 0.70334,-0.21245 1.00914,-0.27039 0.30576,-0.0579 0.59225,-0.0869 0.85942,-0.0869 0.48926,0 0.86428,0.0998 1.12499,0.29936 0.26396,0.19635 0.39594,0.47961 0.39594,0.84978 0,0.36052 -0.12716,0.63734 -0.38145,0.83047 -0.25428,0.18991 -0.62124,0.28487 -1.10085,0.28487 h -0.87874 v 0.8015 h 0.84011 c 0.53113,0 0.94474,0.12071 1.24087,0.36212 0.29937,0.2382 0.44905,0.56974 0.44905,0.99464 0,0.46029 -0.16096,0.81115 -0.48283,1.05257 -0.31868,0.24141 -0.78381,0.36212 -1.3954,0.36212 -0.35085,0 -0.68721,-0.0402 -1.00911,-0.12071 -0.3219,-0.0805 -0.61802,-0.19957 -0.88841,-0.35729 v 0.94152 c 0.34121,0.1191 0.67114,0.20762 0.9898,0.26556 0.32189,0.0612 0.63412,0.0917 0.9367,0.0917 0.90127,0 1.59654,-0.19474 2.08583,-0.58422 0.48926,-0.38949 0.73391,-0.93991 0.73391,-1.65128 0,-0.46352 -0.13198,-0.85301 -0.39594,-1.16846 -0.26071,-0.31545 -0.62445,-0.52306 -1.09118,-0.62285 0.42168,-0.10622 0.74679,-0.29613 0.9753,-0.56974 0.22855,-0.27682 0.34282,-0.6148 0.34282,-1.01394 0,-0.57296 -0.21566,-1.02683 -0.64698,-1.36159 -0.43135,-0.33798 -1.01717,-0.50697 -1.7575,-0.50697 z m -210.02493,0.77253 c 0.50536,0 0.88359,0.24785 1.13466,0.74356 0.25432,0.49249 0.38145,1.23444 0.38145,2.22585 0,0.9882 -0.12713,1.73015 -0.38145,2.22585 -0.25107,0.49249 -0.6293,0.73873 -1.13466,0.73873 -0.50214,0 -0.88034,-0.24624 -1.13463,-0.73873 -0.25107,-0.4957 -0.37662,-1.23765 -0.37662,-2.22585 0,-0.99141 0.12555,-1.73336 0.37662,-2.22585 0.25429,-0.49571 0.63249,-0.74356 1.13463,-0.74356 z" />
    <path
       style="fill:#ff0000;fill-opacity:1;stroke-width:2.18986;stroke-linejoin:bevel;stroke-miterlimit:4;stroke-dasharray:none;stroke-dashoffset:6.00002"
       d="m -22.18998,58.51968 a 2.9197977,2.9197977 0 0 0 -2.88614,2.91932 2.9197977,2.9197977 0 0 0 2.91992,2.91992 2.9197977,2.9197977 0 0 0 2.91994,-2.91992 2.9197977,2.9197977 0 0 0 -2.91994,-2.91932 2.9197977,2.9197977 0 0 0 -0.0338,0 z"
       id="path945" />
    <path
       style="fill:#ff0000;fill-opacity:1;stroke-width:2.18986;stroke-linejoin:bevel;stroke-miterlimit:4;stroke-dasharray:none;stroke-dashoffset:6.00002"
       d="m -71.03197,56.79054 a 2.9197977,2.9197977 0 0 0 -2.88614,2.91992 2.9197977,2.9197977 0 0 0 2.91991,2.91992 2.9197977,2.9197977 0 0 0 2.91995,-2.91992 2.9197977,2.9197977 0 0 0 -2.91995,-2.91992 2.9197977,2.9197977 0 0 0 -0.0338,0 z"
       id="path943" />
    <path
       style="fill:#ff0000;fill-opacity:1;stroke-width:2.18986;stroke-linejoin:bevel;stroke-miterlimit:4;stroke-dasharray:none;stroke-dashoffset:6.00002"
       d="m 9.8392,46.65712 a 2.9197977,2.9197977 0 0 0 -2.88611,2.91993 2.9197977,2.9197977 0 0 0 2.91992,2.91992 2.9197977,2.9197977 0 0 0 2.91991,-2.91992 2.9197977,2.9197977 0 0 0 -2.91991,-2.91993 2.9197977,2.9197977 0 0 0 -0.0338,0 z"
       id="path941" />
    <path
       style="fill:#ff0000;fill-opacity:1;stroke-width:2.18986;stroke-linejoin:bevel;stroke-miterlimit:4;stroke-dasharray:none;stroke-dashoffset:6.00002"
       d="m -115.67094,36.21167 a 2.9197977,2.9197977 0 0 0 -2.88672,2.91993 2.9197977,2.9197977 0 0 0 2.91994,2.91992 2.9197977,2.9197977 0 0 0 2.91992,-2.91992 2.9197977,2.9197977 0 0 0 -2.91992,-2.91993 2.9197977,2.9197977 0 0 0 -0.0332,0 z"
       id="path939" />
    <path
       style="fill:#ff0000;fill-opacity:1;stroke-width:2.18986;stroke-linejoin:bevel;stroke-miterlimit:4;stroke-dasharray:none;stroke-dashoffset:6.00002"
       d="m -86.63948,23.2368 a 2.9197977,2.9197977 0 0 0 -2.91995,2.91992 2.9197977,2.9197977 0 0 0 2.91995,2.91992 2.9197977,2.9197977 0 0 0 2.91991,-2.91992 2.9197977,2.9197977 0 0 0 -2.91991,-2.91992 z"
       id="path937" />
    <path
       style="fill:#ff0000;fill-opacity:1;stroke-width:2.18986;stroke-linejoin:bevel;stroke-miterlimit:4;stroke-dasharray:none;stroke-dashoffset:6.00002"
       d="m 38.94367,10.40858 a 2.9197977,2.9197977 0 0 0 -2.88614,2.91992 2.9197977,2.9197977 0 0 0 2.91995,2.91992 2.9197977,2.9197977 0 0 0 2.91929,-2.91992 2.9197977,2.9197977 0 0 0 -2.91929,-2.91992 2.9197977,2.9197977 0 0 0 -0.0338,0 z"
       id="path935" />
    <path
       style="fill:#ff0000;fill-opacity:1;stroke-width:2.18986;stroke-linejoin:bevel;stroke-miterlimit:4;stroke-dasharray:none;stroke-dashoffset:6.00002"
       d="m -11.62443,-2.7015 a 2.9197977,2.9197977 0 0 0 -2.88614,2.91932 2.9197977,2.9197977 0 0 0 2.91992,2.91992 2.9197977,2.9197977 0 0 0 2.91932,-2.91992 2.9197977,2.9197977 0 0 0 -2.91932,-2.91932 2.9197977,2.9197977 0 0 0 -0.0338,0 z"
       id="path933" />
    <path
       style="fill:#ff0000;fill-opacity:1;stroke-width:2.18986;stroke-linejoin:bevel;stroke-miterlimit:4;stroke-dasharray:none;stroke-dashoffset:6.00002"
       d="m -114.76803,-28.468986 a 2.9197977,2.9197977 0 0 0 -2.88611,2.91932 2.9197977,2.9197977 0 0 0 2.91929,2.91992 2.9197977,2.9197977 0 0 0 2.91992,-2.91992 2.9197977,2.9197977 0 0 0 -2.91992,-2.91932 2.9197977,2.9197977 0 0 0 -0.0332,0 z"
       id="path931" />
    <path
       style="fill:#ff0000;fill-opacity:1;stroke-width:2.18986;stroke-linejoin:bevel;stroke-miterlimit:4;stroke-dasharray:none;stroke-dashoffset:6.00002"
       d="m -69.06143,-30.385816 a 2.9197977,2.9197977 0 0 0 -2.91992,2.91991 2.9197977,2.9197977 0 0 0 2.91992,2.91993 2.9197977,2.9197977 0 0 0 2.91991,-2.91993 2.9197977,2.9197977 0 0 0 -2.91991,-2.91991 z"
       id="path929" />
    <path
       style="fill:#ff0000;fill-opacity:1;stroke-width:2.18986;stroke-linejoin:bevel;stroke-miterlimit:4;stroke-dasharray:none;stroke-dashoffset:6.00002"
       d="m 1.83446,-38.155786 a 2.9197977,2.9197977 0 0 0 -2.88611,2.91993 2.9197977,2.9197977 0 0 0 2.91992,2.91992 2.9197977,2.9197977 0 0 0 2.91991,-2.91992 2.9197977,2.9197977 0 0 0 -2.91991,-2.91993 2.9197977,2.9197977 0 0 0 -0.0338,0 z"
       id="path927" />
    <path
       style="fill:#ff0000;fill-opacity:1;stroke-width:2.18986;stroke-linejoin:bevel;stroke-miterlimit:4;stroke-dasharray:none;stroke-dashoffset:6.00002"
       d="m -98.4091,-51.833784 a 2.9197977,2.9197977 0 0 0 -2.88614,2.919319 2.9197977,2.9197977 0 0 0 2.91992,2.919919 2.9197977,2.9197977 0 0 0 2.91994,-2.919919 2.9197977,2.9197977 0 0 0 -2.91994,-2.919319 2.9197977,2.9197977 0 0 0 -0.0338,0 z"
       id="path925" />
    <path
       style="fill:#ff0000;fill-opacity:1;stroke-width:2.18986;stroke-linejoin:bevel;stroke-miterlimit:4;stroke-dasharray:none;stroke-dashoffset:6.00002"
       d="m 4.76467,-68.390062 a 2.9197977,2.9197977 0 0 0 -2.91992,2.919922 2.9197977,2.9197977 0 0 0 2.91992,2.919921 2.9197977,2.9197977 0 0 0 2.91929,-2.919921 2.9197977,2.9197977 0 0 0 -2.91929,-2.919922 z"
       id="path923" />
    <path
       style="fill:#ff0000;fill-opacity:1;stroke-width:2.18986;stroke-linejoin:bevel;stroke-miterlimit:4;stroke-dasharray:none;stroke-dashoffset:6.00002"
       d="m -23.46709,-82.276285 a 2.9197977,2.9197977 0 0 0 -2.88611,2.919921 2.9197977,2.9197977 0 0 0 2.91932,2.919316 2.9197977,2.9197977 0 0 0 2.91992,-2.919316 2.9197977,2.9197977 0 0 0 -2.91992,-2.919921 2.9197977,2.9197977 0 0 0 -0.0332,0 z"
       id="path921" />
    <path
       style="fill:#ff0000;fill-opacity:1;stroke-width:2.18986;stroke-linejoin:bevel;stroke-miterlimit:4;stroke-dasharray:none;stroke-dashoffset:6.00002"
       d="m -62.2022,-93.069976 a 2.9197977,2.9197977 0 0 0 -2.88614,2.919922 2.9197977,2.9197977 0 0 0 2.91933,2.919922 2.9197977,2.9197977 0 0 0 2.91991,-2.919922 2.9197977,2.9197977 0 0 0 -2.91991,-2.919922 2.9197977,2.9197977 0 0 0 -0.0332,0 z"
       id="path902" />
    <path
       style="fill:#ff0000;stroke:#ff0000;stroke-width:0.264583px;stroke-linecap:butt;stroke-linejoin:miter;stroke-opacity:1"
       d="m -151.25739,91.24175 1.16785,1.16785"
       id="path981" />
    <path
       style="fill:none;stroke:#fc0000;stroke-width:0.264583px;stroke-linecap:butt;stroke-linejoin:miter;stroke-opacity:1"
       d="m -151.25739,92.4096 1.16785,-1.16785"
       id="path983" />
    <path
       style="color:#000000;font-style:normal;font-variant:normal;font-weight:normal;font-stretch:normal;font-size:medium;line-height:normal;font-family:sans-serif;font-variant-ligatures:normal;font-variant-position:normal;font-variant-caps:normal;font-variant-numeric:normal;font-variant-alternates:normal;font-variant-east-asian:normal;font-feature-settings:normal;font-variation-settings:normal;text-indent:0;text-align:start;text-decoration:none;text-decoration-line:none;text-decoration-style:solid;text-decoration-color:#000000;letter-spacing:normal;word-spacing:normal;text-transform:none;writing-mode:lr-tb;direction:ltr;text-orientation:mixed;dominant-baseline:auto;baseline-shift:baseline;text-anchor:start;white-space:normal;shape-padding:0;shape-margin:0;inline-size:0;clip-rule:nonzero;display:inline;overflow:visible;visibility:visible;isolation:auto;mix-blend-mode:normal;color-interpolation:sRGB;color-interpolation-filters:linearRGB;solid-color:#000000;solid-opacity:1;vector-effect:none;fill:#000000;fill-opacity:1;fill-rule:nonzero;stroke:none;stroke-linecap:butt;stroke-linejoin:miter;stroke-miterlimit:4;stroke-dasharray:none;stroke-dashoffset:0;stroke-opacity:1;color-rendering:auto;image-rendering:auto;shape-rendering:auto;text-rendering:auto;enable-background:accumulate;stop-color:#000000"
       d="m -116.92689,-20.353576 -34.29709,112.011176 1.09961,0.33594 34.29712,-112.011276 z"
       id="path2545"
       sodipodi:nodetypes="ccccc" />
    <g
       id="g2535"
       transform="translate(122.37484,-146.57478)">
      <g
         id="path2537"
         style="opacity:1">
        <path
           style="color:#000000;font-style:normal;font-variant:normal;font-weight:normal;font-stretch:normal;font-size:medium;line-height:normal;font-family:sans-serif;font-variant-ligatures:normal;font-variant-position:normal;font-variant-caps:normal;font-variant-numeric:normal;font-variant-alternates:normal;font-variant-east-asian:normal;font-feature-settings:normal;font-variation-settings:normal;text-indent:0;text-align:start;text-decoration:none;text-decoration-line:none;text-decoration-style:solid;text-decoration-color:#000000;letter-spacing:normal;word-spacing:normal;text-transform:none;writing-mode:lr-tb;direction:ltr;text-orientation:mixed;dominant-baseline:auto;baseline-shift:baseline;text-anchor:start;white-space:normal;shape-padding:0;shape-margin:0;inline-size:0;clip-rule:nonzero;display:inline;overflow:visible;visibility:visible;isolation:auto;mix-blend-mode:normal;color-interpolation:sRGB;color-interpolation-filters:linearRGB;solid-color:#000000;solid-opacity:1;vector-effect:none;fill:#000000;fill-opacity:1;fill-rule:evenodd;stroke:none;stroke-width:0.46pt;stroke-linecap:butt;stroke-linejoin:miter;stroke-miterlimit:4;stroke-dasharray:none;stroke-dashoffset:0;stroke-opacity:1;color-rendering:auto;image-rendering:auto;shape-rendering:auto;text-rendering:auto;enable-background:accumulate;stop-color:#000000;stop-opacity:1"
           d="m -239.11903,127.58988 1.52584,2.87259 0.1576,-8.37064 -4.55604,7.02389 z"
           id="path2541" />
        <path
           style="color:#000000;font-style:normal;font-variant:normal;font-weight:normal;font-stretch:normal;font-size:medium;line-height:normal;font-family:sans-serif;font-variant-ligatures:normal;font-variant-position:normal;font-variant-caps:normal;font-variant-numeric:normal;font-variant-alternates:normal;font-variant-east-asian:normal;font-feature-settings:normal;font-variation-settings:normal;text-indent:0;text-align:start;text-decoration:none;text-decoration-line:none;text-decoration-style:solid;text-decoration-color:#000000;letter-spacing:normal;word-spacing:normal;text-transform:none;writing-mode:lr-tb;direction:ltr;text-orientation:mixed;dominant-baseline:auto;baseline-shift:baseline;text-anchor:start;white-space:normal;shape-padding:0;shape-margin:0;inline-size:0;clip-rule:nonzero;display:inline;overflow:visible;visibility:visible;isolation:auto;mix-blend-mode:normal;color-interpolation:sRGB;color-interpolation-filters:linearRGB;solid-color:#000000;solid-opacity:1;vector-effect:none;fill:#000000;fill-opacity:1;fill-rule:evenodd;stroke:none;stroke-linecap:butt;stroke-linejoin:miter;stroke-miterlimit:4;stroke-dasharray:none;stroke-dashoffset:0;stroke-opacity:1;color-rendering:auto;image-rendering:auto;shape-rendering:auto;text-rendering:auto;enable-background:accumulate;stop-color:#000000;stop-opacity:1"
           d="m -237.10938,121.02539 -5.7832,8.91602 3.64649,-1.93555 1.9375,3.64648 z m -0.65234,2.13477 -0.11719,6.11328 -1.11328,-2.09766 -0.27148,0.14258 -1.82617,0.9707 z"
           id="path2543" />
      </g>
    </g>
    <path
       style="color:#000000;font-style:normal;font-variant:normal;font-weight:normal;font-stretch:normal;font-size:medium;line-height:normal;font-family:sans-serif;font-variant-ligatures:normal;font-variant-position:normal;font-variant-caps:normal;font-variant-numeric:normal;font-variant-alternates:normal;font-variant-east-asian:normal;font-feature-settings:normal;font-variation-settings:normal;text-indent:0;text-align:start;text-decoration:none;text-decoration-line:none;text-decoration-style:solid;text-decoration-color:#000000;letter-spacing:normal;word-spacing:normal;text-transform:none;writing-mode:lr-tb;direction:ltr;text-orientation:mixed;dominant-baseline:auto;baseline-shift:baseline;text-anchor:start;white-space:normal;shape-padding:0;shape-margin:0;inline-size:0;clip-rule:nonzero;display:inline;overflow:visible;visibility:visible;isolation:auto;mix-blend-mode:normal;color-interpolation:sRGB;color-interpolation-filters:linearRGB;solid-color:#000000;solid-opacity:1;vector-effect:none;fill:#000000;fill-opacity:1;fill-rule:nonzero;stroke:none;stroke-linecap:butt;stroke-linejoin:miter;stroke-miterlimit:4;stroke-dasharray:none;stroke-dashoffset:0;stroke-opacity:1;color-rendering:auto;image-rendering:auto;shape-rendering:auto;text-rendering:auto;enable-background:accumulate;stop-color:#000000"
       d="M -16.59028,2.82198 -150.9896,91.3451 -150.35679,92.30604 -15.9583,3.78346 Z"
       id="path2571"
       sodipodi:nodetypes="ccccc" />
    <g
       id="g2561"
       transform="translate(121.14538,-147.49479)">
      <g
         id="path2563"
         style="opacity:1">
        <path
           style="color:#000000;font-style:normal;font-variant:normal;font-weight:normal;font-stretch:normal;font-size:medium;line-height:normal;font-family:sans-serif;font-variant-ligatures:normal;font-variant-position:normal;font-variant-caps:normal;font-variant-numeric:normal;font-variant-alternates:normal;font-variant-east-asian:normal;font-feature-settings:normal;font-variation-settings:normal;text-indent:0;text-align:start;text-decoration:none;text-decoration-line:none;text-decoration-style:solid;text-decoration-color:#000000;letter-spacing:normal;word-spacing:normal;text-transform:none;writing-mode:lr-tb;direction:ltr;text-orientation:mixed;dominant-baseline:auto;baseline-shift:baseline;text-anchor:start;white-space:normal;shape-padding:0;shape-margin:0;inline-size:0;clip-rule:nonzero;display:inline;overflow:visible;visibility:visible;isolation:auto;mix-blend-mode:normal;color-interpolation:sRGB;color-interpolation-filters:linearRGB;solid-color:#000000;solid-opacity:1;vector-effect:none;fill:#000000;fill-opacity:1;fill-rule:evenodd;stroke:none;stroke-width:0.46pt;stroke-linecap:butt;stroke-linejoin:miter;stroke-miterlimit:4;stroke-dasharray:none;stroke-dashoffset:0;stroke-opacity:1;color-rendering:auto;image-rendering:auto;shape-rendering:auto;text-rendering:auto;enable-background:accumulate;stop-color:#000000;stop-opacity:1"
           d="m -138.47026,151.48921 -0.65565,3.18592 5.45761,-6.34877 -7.98789,2.5072 z"
           id="path2567" />
        <path
           style="color:#000000;font-style:normal;font-variant:normal;font-weight:normal;font-stretch:normal;font-size:medium;line-height:normal;font-family:sans-serif;font-variant-ligatures:normal;font-variant-position:normal;font-variant-caps:normal;font-variant-numeric:normal;font-variant-alternates:normal;font-variant-east-asian:normal;font-feature-settings:normal;font-variation-settings:normal;text-indent:0;text-align:start;text-decoration:none;text-decoration-line:none;text-decoration-style:solid;text-decoration-color:#000000;letter-spacing:normal;word-spacing:normal;text-transform:none;writing-mode:lr-tb;direction:ltr;text-orientation:mixed;dominant-baseline:auto;baseline-shift:baseline;text-anchor:start;white-space:normal;shape-padding:0;shape-margin:0;inline-size:0;clip-rule:nonzero;display:inline;overflow:visible;visibility:visible;isolation:auto;mix-blend-mode:normal;color-interpolation:sRGB;color-interpolation-filters:linearRGB;solid-color:#000000;solid-opacity:1;vector-effect:none;fill:#000000;fill-opacity:1;fill-rule:evenodd;stroke:none;stroke-linecap:butt;stroke-linejoin:miter;stroke-miterlimit:4;stroke-dasharray:none;stroke-dashoffset:0;stroke-opacity:1;color-rendering:auto;image-rendering:auto;shape-rendering:auto;text-rendering:auto;enable-background:accumulate;stop-color:#000000;stop-opacity:1"
           d="m -132.73633,147.71289 -10.14062,3.18164 4.04492,0.83203 -0.83203,4.04688 z m -1.86328,1.22852 -3.98828,4.63476 0.48047,-2.32617 -0.30078,-0.0606 -2.02539,-0.41797 z"
           id="path2569" />
      </g>
    </g>
    <path
       style="color:#000000;font-style:normal;font-variant:normal;font-weight:normal;font-stretch:normal;font-size:medium;line-height:normal;font-family:sans-serif;font-variant-ligatures:normal;font-variant-position:normal;font-variant-caps:normal;font-variant-numeric:normal;font-variant-alternates:normal;font-variant-east-asian:normal;font-feature-settings:normal;font-variation-settings:normal;text-indent:0;text-align:start;text-decoration:none;text-decoration-line:none;text-decoration-style:solid;text-decoration-color:#000000;letter-spacing:normal;word-spacing:normal;text-transform:none;writing-mode:lr-tb;direction:ltr;text-orientation:mixed;dominant-baseline:auto;baseline-shift:baseline;text-anchor:start;white-space:normal;shape-padding:0;shape-margin:0;inline-size:0;clip-rule:nonzero;display:inline;overflow:visible;visibility:visible;isolation:auto;mix-blend-mode:normal;color-interpolation:sRGB;color-interpolation-filters:linearRGB;solid-color:#000000;solid-opacity:1;vector-effect:none;fill:#000000;fill-opacity:1;fill-rule:nonzero;stroke:none;stroke-width:0.264583;stroke-linecap:butt;stroke-linejoin:miter;stroke-miterlimit:4;stroke-dasharray:none;stroke-dashoffset:0;stroke-opacity:1;color-rendering:auto;image-rendering:auto;shape-rendering:auto;text-rendering:auto;enable-background:accumulate;stop-color:#000000"
       d="m -142.75844,65.9768 -0.33692,1.09968 c 5.76004,1.76376 10.72439,5.48114 14.0379,10.51202 l 0.96066,-0.63252 c -3.46059,-5.2542 -8.6459,-9.13713 -14.66164,-10.97918 z"
       id="path2338" />
  </g>
</svg>
