<?xml version="1.0" encoding="utf-8" standalone="no"?>
<!DOCTYPE svg PUBLIC "-//W3C//DTD SVG 1.1//EN"
  "http://www.w3.org/Graphics/SVG/1.1/DTD/svg11.dtd">
<!-- Created with matplotlib (https://matplotlib.org/) -->
<svg height="432pt" version="1.1" viewBox="0 0 864 432" width="864pt" xmlns="http://www.w3.org/2000/svg" xmlns:xlink="http://www.w3.org/1999/xlink">
 <metadata>
  <rdf:RDF xmlns:cc="http://creativecommons.org/ns#" xmlns:dc="http://purl.org/dc/elements/1.1/" xmlns:rdf="http://www.w3.org/1999/02/22-rdf-syntax-ns#">
   <cc:Work>
    <dc:type rdf:resource="http://purl.org/dc/dcmitype/StillImage"/>
    <dc:date>2021-02-05T16:00:43.886805</dc:date>
    <dc:format>image/svg+xml</dc:format>
    <dc:creator>
     <cc:Agent>
      <dc:title>Matplotlib v3.3.4, https://matplotlib.org/</dc:title>
     </cc:Agent>
    </dc:creator>
   </cc:Work>
  </rdf:RDF>
 </metadata>
 <defs>
  <style type="text/css">*{stroke-linecap:butt;stroke-linejoin:round;}</style>
 </defs>
 <g id="figure_1">
  <g id="patch_1">
   <path d="M 0 432 
L 864 432 
L 864 0 
L 0 0 
z
" style="fill:#ffffff;"/>
  </g>
  <g id="axes_1">
   <g id="patch_2">
    <path d="M 53.46 186.37 
L 243.135 186.37 
L 243.135 28.96 
L 53.46 28.96 
z
" style="fill:#eaeaf2;"/>
   </g>
   <g id="matplotlib.axis_1">
    <g id="xtick_1">
     <g id="line2d_1">
      <path clip-path="url(#p3eb621108d)" d="M 79.70036 186.37 
L 79.70036 28.96 
" style="fill:none;stroke:#ffffff;stroke-linecap:round;"/>
     </g>
    </g>
    <g id="xtick_2">
     <g id="line2d_2">
      <path clip-path="url(#p3eb621108d)" d="M 138.228644 186.37 
L 138.228644 28.96 
" style="fill:none;stroke:#ffffff;stroke-linecap:round;"/>
     </g>
    </g>
    <g id="xtick_3">
     <g id="line2d_3">
      <path clip-path="url(#p3eb621108d)" d="M 196.756928 186.37 
L 196.756928 28.96 
" style="fill:none;stroke:#ffffff;stroke-linecap:round;"/>
     </g>
    </g>
    <g id="xtick_4"/>
    <g id="xtick_5"/>
    <g id="xtick_6"/>
    <g id="xtick_7"/>
    <g id="xtick_8"/>
    <g id="xtick_9"/>
    <g id="xtick_10"/>
    <g id="xtick_11"/>
    <g id="xtick_12"/>
    <g id="xtick_13"/>
    <g id="xtick_14"/>
    <g id="xtick_15"/>
    <g id="xtick_16"/>
    <g id="xtick_17"/>
    <g id="xtick_18"/>
    <g id="xtick_19"/>
    <g id="xtick_20"/>
    <g id="xtick_21"/>
    <g id="xtick_22"/>
    <g id="xtick_23"/>
    <g id="xtick_24"/>
    <g id="xtick_25"/>
    <g id="xtick_26"/>
    <g id="xtick_27"/>
    <g id="xtick_28"/>
    <g id="xtick_29"/>
    <g id="xtick_30"/>
   </g>
   <g id="matplotlib.axis_2">
    <g id="ytick_1">
     <g id="line2d_4">
      <path clip-path="url(#p3eb621108d)" d="M 53.46 186.37 
L 243.135 186.37 
" style="fill:none;stroke:#ffffff;stroke-linecap:round;"/>
     </g>
     <g id="text_1">
      <!-- 0 -->
      <g style="fill:#262626;" transform="translate(36.96125 190.549141)scale(0.11 -0.11)">
       <defs>
        <path d="M 31.78125 66.40625 
Q 24.171875 66.40625 20.328125 58.90625 
Q 16.5 51.421875 16.5 36.375 
Q 16.5 21.390625 20.328125 13.890625 
Q 24.171875 6.390625 31.78125 6.390625 
Q 39.453125 6.390625 43.28125 13.890625 
Q 47.125 21.390625 47.125 36.375 
Q 47.125 51.421875 43.28125 58.90625 
Q 39.453125 66.40625 31.78125 66.40625 
z
M 31.78125 74.21875 
Q 44.046875 74.21875 50.515625 64.515625 
Q 56.984375 54.828125 56.984375 36.375 
Q 56.984375 17.96875 50.515625 8.265625 
Q 44.046875 -1.421875 31.78125 -1.421875 
Q 19.53125 -1.421875 13.0625 8.265625 
Q 6.59375 17.96875 6.59375 36.375 
Q 6.59375 54.828125 13.0625 64.515625 
Q 19.53125 74.21875 31.78125 74.21875 
z
" id="DejaVuSans-48"/>
       </defs>
       <use xlink:href="#DejaVuSans-48"/>
      </g>
     </g>
    </g>
    <g id="ytick_2">
     <g id="line2d_5">
      <path clip-path="url(#p3eb621108d)" d="M 53.46 155.137857 
L 243.135 155.137857 
" style="fill:none;stroke:#ffffff;stroke-linecap:round;"/>
     </g>
     <g id="text_2">
      <!-- 5 -->
      <g style="fill:#262626;" transform="translate(36.96125 159.316998)scale(0.11 -0.11)">
       <defs>
        <path d="M 10.796875 72.90625 
L 49.515625 72.90625 
L 49.515625 64.59375 
L 19.828125 64.59375 
L 19.828125 46.734375 
Q 21.96875 47.46875 24.109375 47.828125 
Q 26.265625 48.1875 28.421875 48.1875 
Q 40.625 48.1875 47.75 41.5 
Q 54.890625 34.8125 54.890625 23.390625 
Q 54.890625 11.625 47.5625 5.09375 
Q 40.234375 -1.421875 26.90625 -1.421875 
Q 22.3125 -1.421875 17.546875 -0.640625 
Q 12.796875 0.140625 7.71875 1.703125 
L 7.71875 11.625 
Q 12.109375 9.234375 16.796875 8.0625 
Q 21.484375 6.890625 26.703125 6.890625 
Q 35.15625 6.890625 40.078125 11.328125 
Q 45.015625 15.765625 45.015625 23.390625 
Q 45.015625 31 40.078125 35.4375 
Q 35.15625 39.890625 26.703125 39.890625 
Q 22.75 39.890625 18.8125 39.015625 
Q 14.890625 38.140625 10.796875 36.28125 
z
" id="DejaVuSans-53"/>
       </defs>
       <use xlink:href="#DejaVuSans-53"/>
      </g>
     </g>
    </g>
    <g id="ytick_3">
     <g id="line2d_6">
      <path clip-path="url(#p3eb621108d)" d="M 53.46 123.905714 
L 243.135 123.905714 
" style="fill:none;stroke:#ffffff;stroke-linecap:round;"/>
     </g>
     <g id="text_3">
      <!-- 10 -->
      <g style="fill:#262626;" transform="translate(29.9625 128.084855)scale(0.11 -0.11)">
       <defs>
        <path d="M 12.40625 8.296875 
L 28.515625 8.296875 
L 28.515625 63.921875 
L 10.984375 60.40625 
L 10.984375 69.390625 
L 28.421875 72.90625 
L 38.28125 72.90625 
L 38.28125 8.296875 
L 54.390625 8.296875 
L 54.390625 0 
L 12.40625 0 
z
" id="DejaVuSans-49"/>
       </defs>
       <use xlink:href="#DejaVuSans-49"/>
       <use x="63.623047" xlink:href="#DejaVuSans-48"/>
      </g>
     </g>
    </g>
    <g id="ytick_4">
     <g id="line2d_7">
      <path clip-path="url(#p3eb621108d)" d="M 53.46 92.673571 
L 243.135 92.673571 
" style="fill:none;stroke:#ffffff;stroke-linecap:round;"/>
     </g>
     <g id="text_4">
      <!-- 15 -->
      <g style="fill:#262626;" transform="translate(29.9625 96.852712)scale(0.11 -0.11)">
       <use xlink:href="#DejaVuSans-49"/>
       <use x="63.623047" xlink:href="#DejaVuSans-53"/>
      </g>
     </g>
    </g>
    <g id="ytick_5">
     <g id="line2d_8">
      <path clip-path="url(#p3eb621108d)" d="M 53.46 61.441429 
L 243.135 61.441429 
" style="fill:none;stroke:#ffffff;stroke-linecap:round;"/>
     </g>
     <g id="text_5">
      <!-- 20 -->
      <g style="fill:#262626;" transform="translate(29.9625 65.620569)scale(0.11 -0.11)">
       <defs>
        <path d="M 19.1875 8.296875 
L 53.609375 8.296875 
L 53.609375 0 
L 7.328125 0 
L 7.328125 8.296875 
Q 12.9375 14.109375 22.625 23.890625 
Q 32.328125 33.6875 34.8125 36.53125 
Q 39.546875 41.84375 41.421875 45.53125 
Q 43.3125 49.21875 43.3125 52.78125 
Q 43.3125 58.59375 39.234375 62.25 
Q 35.15625 65.921875 28.609375 65.921875 
Q 23.96875 65.921875 18.8125 64.3125 
Q 13.671875 62.703125 7.8125 59.421875 
L 7.8125 69.390625 
Q 13.765625 71.78125 18.9375 73 
Q 24.125 74.21875 28.421875 74.21875 
Q 39.75 74.21875 46.484375 68.546875 
Q 53.21875 62.890625 53.21875 53.421875 
Q 53.21875 48.921875 51.53125 44.890625 
Q 49.859375 40.875 45.40625 35.40625 
Q 44.1875 33.984375 37.640625 27.21875 
Q 31.109375 20.453125 19.1875 8.296875 
z
" id="DejaVuSans-50"/>
       </defs>
       <use xlink:href="#DejaVuSans-50"/>
       <use x="63.623047" xlink:href="#DejaVuSans-48"/>
      </g>
     </g>
    </g>
    <g id="ytick_6">
     <g id="line2d_9">
      <path clip-path="url(#p3eb621108d)" d="M 53.46 30.209286 
L 243.135 30.209286 
" style="fill:none;stroke:#ffffff;stroke-linecap:round;"/>
     </g>
     <g id="text_6">
      <!-- 25 -->
      <g style="fill:#262626;" transform="translate(29.9625 34.388426)scale(0.11 -0.11)">
       <use xlink:href="#DejaVuSans-50"/>
       <use x="63.623047" xlink:href="#DejaVuSans-53"/>
      </g>
     </g>
    </g>
    <g id="text_7">
     <!-- Cluster Size -->
     <g style="fill:#262626;" transform="translate(23.466875 143.184062)rotate(-90)scale(0.12 -0.12)">
      <defs>
       <path d="M 64.40625 67.28125 
L 64.40625 56.890625 
Q 59.421875 61.53125 53.78125 63.8125 
Q 48.140625 66.109375 41.796875 66.109375 
Q 29.296875 66.109375 22.65625 58.46875 
Q 16.015625 50.828125 16.015625 36.375 
Q 16.015625 21.96875 22.65625 14.328125 
Q 29.296875 6.6875 41.796875 6.6875 
Q 48.140625 6.6875 53.78125 8.984375 
Q 59.421875 11.28125 64.40625 15.921875 
L 64.40625 5.609375 
Q 59.234375 2.09375 53.4375 0.328125 
Q 47.65625 -1.421875 41.21875 -1.421875 
Q 24.65625 -1.421875 15.125 8.703125 
Q 5.609375 18.84375 5.609375 36.375 
Q 5.609375 53.953125 15.125 64.078125 
Q 24.65625 74.21875 41.21875 74.21875 
Q 47.75 74.21875 53.53125 72.484375 
Q 59.328125 70.75 64.40625 67.28125 
z
" id="DejaVuSans-67"/>
       <path d="M 9.421875 75.984375 
L 18.40625 75.984375 
L 18.40625 0 
L 9.421875 0 
z
" id="DejaVuSans-108"/>
       <path d="M 8.5 21.578125 
L 8.5 54.6875 
L 17.484375 54.6875 
L 17.484375 21.921875 
Q 17.484375 14.15625 20.5 10.265625 
Q 23.53125 6.390625 29.59375 6.390625 
Q 36.859375 6.390625 41.078125 11.03125 
Q 45.3125 15.671875 45.3125 23.6875 
L 45.3125 54.6875 
L 54.296875 54.6875 
L 54.296875 0 
L 45.3125 0 
L 45.3125 8.40625 
Q 42.046875 3.421875 37.71875 1 
Q 33.40625 -1.421875 27.6875 -1.421875 
Q 18.265625 -1.421875 13.375 4.4375 
Q 8.5 10.296875 8.5 21.578125 
z
M 31.109375 56 
z
" id="DejaVuSans-117"/>
       <path d="M 44.28125 53.078125 
L 44.28125 44.578125 
Q 40.484375 46.53125 36.375 47.5 
Q 32.28125 48.484375 27.875 48.484375 
Q 21.1875 48.484375 17.84375 46.4375 
Q 14.5 44.390625 14.5 40.28125 
Q 14.5 37.15625 16.890625 35.375 
Q 19.28125 33.59375 26.515625 31.984375 
L 29.59375 31.296875 
Q 39.15625 29.25 43.1875 25.515625 
Q 47.21875 21.78125 47.21875 15.09375 
Q 47.21875 7.46875 41.1875 3.015625 
Q 35.15625 -1.421875 24.609375 -1.421875 
Q 20.21875 -1.421875 15.453125 -0.5625 
Q 10.6875 0.296875 5.421875 2 
L 5.421875 11.28125 
Q 10.40625 8.6875 15.234375 7.390625 
Q 20.0625 6.109375 24.8125 6.109375 
Q 31.15625 6.109375 34.5625 8.28125 
Q 37.984375 10.453125 37.984375 14.40625 
Q 37.984375 18.0625 35.515625 20.015625 
Q 33.0625 21.96875 24.703125 23.78125 
L 21.578125 24.515625 
Q 13.234375 26.265625 9.515625 29.90625 
Q 5.8125 33.546875 5.8125 39.890625 
Q 5.8125 47.609375 11.28125 51.796875 
Q 16.75 56 26.8125 56 
Q 31.78125 56 36.171875 55.265625 
Q 40.578125 54.546875 44.28125 53.078125 
z
" id="DejaVuSans-115"/>
       <path d="M 18.3125 70.21875 
L 18.3125 54.6875 
L 36.8125 54.6875 
L 36.8125 47.703125 
L 18.3125 47.703125 
L 18.3125 18.015625 
Q 18.3125 11.328125 20.140625 9.421875 
Q 21.96875 7.515625 27.59375 7.515625 
L 36.8125 7.515625 
L 36.8125 0 
L 27.59375 0 
Q 17.1875 0 13.234375 3.875 
Q 9.28125 7.765625 9.28125 18.015625 
L 9.28125 47.703125 
L 2.6875 47.703125 
L 2.6875 54.6875 
L 9.28125 54.6875 
L 9.28125 70.21875 
z
" id="DejaVuSans-116"/>
       <path d="M 56.203125 29.59375 
L 56.203125 25.203125 
L 14.890625 25.203125 
Q 15.484375 15.921875 20.484375 11.0625 
Q 25.484375 6.203125 34.421875 6.203125 
Q 39.59375 6.203125 44.453125 7.46875 
Q 49.3125 8.734375 54.109375 11.28125 
L 54.109375 2.78125 
Q 49.265625 0.734375 44.1875 -0.34375 
Q 39.109375 -1.421875 33.890625 -1.421875 
Q 20.796875 -1.421875 13.15625 6.1875 
Q 5.515625 13.8125 5.515625 26.8125 
Q 5.515625 40.234375 12.765625 48.109375 
Q 20.015625 56 32.328125 56 
Q 43.359375 56 49.78125 48.890625 
Q 56.203125 41.796875 56.203125 29.59375 
z
M 47.21875 32.234375 
Q 47.125 39.59375 43.09375 43.984375 
Q 39.0625 48.390625 32.421875 48.390625 
Q 24.90625 48.390625 20.390625 44.140625 
Q 15.875 39.890625 15.1875 32.171875 
z
" id="DejaVuSans-101"/>
       <path d="M 41.109375 46.296875 
Q 39.59375 47.171875 37.8125 47.578125 
Q 36.03125 48 33.890625 48 
Q 26.265625 48 22.1875 43.046875 
Q 18.109375 38.09375 18.109375 28.8125 
L 18.109375 0 
L 9.078125 0 
L 9.078125 54.6875 
L 18.109375 54.6875 
L 18.109375 46.1875 
Q 20.953125 51.171875 25.484375 53.578125 
Q 30.03125 56 36.53125 56 
Q 37.453125 56 38.578125 55.875 
Q 39.703125 55.765625 41.0625 55.515625 
z
" id="DejaVuSans-114"/>
       <path id="DejaVuSans-32"/>
       <path d="M 53.515625 70.515625 
L 53.515625 60.890625 
Q 47.90625 63.578125 42.921875 64.890625 
Q 37.9375 66.21875 33.296875 66.21875 
Q 25.25 66.21875 20.875 63.09375 
Q 16.5 59.96875 16.5 54.203125 
Q 16.5 49.359375 19.40625 46.890625 
Q 22.3125 44.4375 30.421875 42.921875 
L 36.375 41.703125 
Q 47.40625 39.59375 52.65625 34.296875 
Q 57.90625 29 57.90625 20.125 
Q 57.90625 9.515625 50.796875 4.046875 
Q 43.703125 -1.421875 29.984375 -1.421875 
Q 24.8125 -1.421875 18.96875 -0.25 
Q 13.140625 0.921875 6.890625 3.21875 
L 6.890625 13.375 
Q 12.890625 10.015625 18.65625 8.296875 
Q 24.421875 6.59375 29.984375 6.59375 
Q 38.421875 6.59375 43.015625 9.90625 
Q 47.609375 13.234375 47.609375 19.390625 
Q 47.609375 24.75 44.3125 27.78125 
Q 41.015625 30.8125 33.5 32.328125 
L 27.484375 33.5 
Q 16.453125 35.6875 11.515625 40.375 
Q 6.59375 45.0625 6.59375 53.421875 
Q 6.59375 63.09375 13.40625 68.65625 
Q 20.21875 74.21875 32.171875 74.21875 
Q 37.3125 74.21875 42.625 73.28125 
Q 47.953125 72.359375 53.515625 70.515625 
z
" id="DejaVuSans-83"/>
       <path d="M 9.421875 54.6875 
L 18.40625 54.6875 
L 18.40625 0 
L 9.421875 0 
z
M 9.421875 75.984375 
L 18.40625 75.984375 
L 18.40625 64.59375 
L 9.421875 64.59375 
z
" id="DejaVuSans-105"/>
       <path d="M 5.515625 54.6875 
L 48.1875 54.6875 
L 48.1875 46.484375 
L 14.40625 7.171875 
L 48.1875 7.171875 
L 48.1875 0 
L 4.296875 0 
L 4.296875 8.203125 
L 38.09375 47.515625 
L 5.515625 47.515625 
z
" id="DejaVuSans-122"/>
      </defs>
      <use xlink:href="#DejaVuSans-67"/>
      <use x="69.824219" xlink:href="#DejaVuSans-108"/>
      <use x="97.607422" xlink:href="#DejaVuSans-117"/>
      <use x="160.986328" xlink:href="#DejaVuSans-115"/>
      <use x="213.085938" xlink:href="#DejaVuSans-116"/>
      <use x="252.294922" xlink:href="#DejaVuSans-101"/>
      <use x="313.818359" xlink:href="#DejaVuSans-114"/>
      <use x="354.931641" xlink:href="#DejaVuSans-32"/>
      <use x="386.71875" xlink:href="#DejaVuSans-83"/>
      <use x="450.195312" xlink:href="#DejaVuSans-105"/>
      <use x="477.978516" xlink:href="#DejaVuSans-122"/>
      <use x="530.46875" xlink:href="#DejaVuSans-101"/>
     </g>
    </g>
   </g>
   <g id="PolyCollection_1">
    <defs>
     <path d="M 70.634214 -320.587143 
L 70.634214 -245.63 
L 76.487042 -245.63 
L 76.487042 -245.63 
L 82.339871 -245.63 
L 82.339871 -245.63 
L 88.192699 -245.63 
L 88.192699 -245.63 
L 94.045528 -245.63 
L 94.045528 -245.63 
L 99.898356 -245.63 
L 99.898356 -245.63 
L 105.751184 -245.63 
L 105.751184 -245.63 
L 111.604013 -245.63 
L 111.604013 -245.63 
L 117.456841 -245.63 
L 117.456841 -245.63 
L 123.30967 -245.63 
L 123.30967 -245.63 
L 129.162498 -245.63 
L 129.162498 -245.63 
L 135.015326 -245.63 
L 135.015326 -245.63 
L 140.868155 -245.63 
L 140.868155 -245.63 
L 146.720983 -245.63 
L 146.720983 -245.63 
L 152.573812 -245.63 
L 152.573812 -245.63 
L 158.42664 -245.63 
L 158.42664 -245.63 
L 164.279468 -245.63 
L 164.279468 -245.63 
L 170.132297 -245.63 
L 170.132297 -245.63 
L 175.985125 -245.63 
L 175.985125 -245.63 
L 181.837954 -245.63 
L 181.837954 -245.63 
L 187.690782 -245.63 
L 187.690782 -245.63 
L 193.54361 -245.63 
L 193.54361 -245.63 
L 199.396439 -245.63 
L 199.396439 -245.63 
L 205.249267 -245.63 
L 205.249267 -245.63 
L 211.102096 -245.63 
L 211.102096 -245.63 
L 216.954924 -245.63 
L 216.954924 -245.63 
L 222.807752 -245.63 
L 222.807752 -245.63 
L 228.660581 -245.63 
L 228.660581 -245.63 
L 234.513409 -245.63 
L 234.513409 -245.63 
L 234.513409 -251.876429 
L 234.513409 -251.876429 
L 234.513409 -251.876429 
L 228.660581 -251.876429 
L 228.660581 -245.63 
L 222.807752 -245.63 
L 222.807752 -245.63 
L 216.954924 -245.63 
L 216.954924 -245.63 
L 211.102096 -245.63 
L 211.102096 -283.108571 
L 205.249267 -283.108571 
L 205.249267 -270.615714 
L 199.396439 -270.615714 
L 199.396439 -264.369286 
L 193.54361 -264.369286 
L 193.54361 -289.355 
L 187.690782 -289.355 
L 187.690782 -283.108571 
L 181.837954 -283.108571 
L 181.837954 -283.108571 
L 175.985125 -283.108571 
L 175.985125 -283.108571 
L 170.132297 -283.108571 
L 170.132297 -320.587143 
L 164.279468 -320.587143 
L 164.279468 -339.326429 
L 158.42664 -339.326429 
L 158.42664 -326.833571 
L 152.573812 -326.833571 
L 152.573812 -351.819286 
L 146.720983 -351.819286 
L 146.720983 -314.340714 
L 140.868155 -314.340714 
L 140.868155 -314.340714 
L 135.015326 -314.340714 
L 135.015326 -308.094286 
L 129.162498 -308.094286 
L 129.162498 -314.340714 
L 123.30967 -314.340714 
L 123.30967 -333.08 
L 117.456841 -333.08 
L 117.456841 -283.108571 
L 111.604013 -283.108571 
L 111.604013 -339.326429 
L 105.751184 -339.326429 
L 105.751184 -314.340714 
L 99.898356 -314.340714 
L 99.898356 -320.587143 
L 94.045528 -320.587143 
L 94.045528 -326.833571 
L 88.192699 -326.833571 
L 88.192699 -314.340714 
L 82.339871 -314.340714 
L 82.339871 -339.326429 
L 76.487042 -339.326429 
L 76.487042 -320.587143 
L 70.634214 -320.587143 
z
" id="m220e891e56" style="stroke:#4c72b0;"/>
    </defs>
    <g clip-path="url(#p3eb621108d)">
     <use style="fill:#4c72b0;fill-opacity:0.5;stroke:#4c72b0;" x="0" xlink:href="#m220e891e56" y="432"/>
    </g>
   </g>
   <g id="line2d_10">
    <path clip-path="url(#p3eb621108d)" d="M 70.634214 146.241977 
L 74.690882 136.008099 
L 77.124883 130.436262 
L 78.74755 127.099432 
L 80.370218 124.122283 
L 81.992885 121.536423 
L 83.615552 119.356596 
L 85.238219 117.580915 
L 86.860887 116.192236 
L 88.483554 115.160483 
L 90.106221 114.445678 
L 91.728889 114.001378 
L 93.351556 113.778162 
L 95.785557 113.751169 
L 99.030891 114.0617 
L 109.578228 115.409322 
L 114.44623 115.726365 
L 119.314232 115.803458 
L 122.559567 115.668183 
L 125.804901 115.305774 
L 128.238902 114.835547 
L 130.672903 114.16193 
L 133.106904 113.270083 
L 135.540905 112.168991 
L 138.786239 110.450119 
L 144.465575 107.366168 
L 146.899576 106.358517 
L 148.522243 105.903871 
L 150.14491 105.673572 
L 151.767577 105.705808 
L 153.390245 106.031657 
L 155.012912 106.673193 
L 156.635579 107.642043 
L 158.258246 108.938521 
L 159.880914 110.551411 
L 161.503581 112.458436 
L 163.937582 115.797675 
L 166.371583 119.582997 
L 170.428251 126.429609 
L 175.296253 134.603368 
L 178.541587 139.560252 
L 180.975588 142.901405 
L 183.409589 145.900389 
L 185.84359 148.575866 
L 188.277591 150.971333 
L 191.522925 153.834074 
L 196.390927 157.745106 
L 202.881596 162.98373 
L 207.749598 167.248264 
L 216.674268 175.192999 
L 219.919603 177.69799 
L 222.353603 179.326206 
L 224.787604 180.71528 
L 227.221605 181.865414 
L 229.655606 182.79437 
L 232.089607 183.531933 
L 232.089607 183.531933 
" style="fill:none;stroke:#4c72b0;stroke-linecap:round;stroke-width:1.5;"/>
   </g>
   <g id="line2d_11">
    <path clip-path="url(#p3eb621108d)" d="M 150.956244 186.37 
L 150.956244 28.96 
" style="fill:none;stroke:#c44e52;stroke-linecap:round;stroke-opacity:0.5;stroke-width:1.5;"/>
   </g>
   <g id="patch_3">
    <path d="M 53.46 186.37 
L 53.46 28.96 
" style="fill:none;stroke:#ffffff;stroke-linecap:square;stroke-linejoin:miter;stroke-width:1.25;"/>
   </g>
   <g id="patch_4">
    <path d="M 53.46 186.37 
L 243.135 186.37 
" style="fill:none;stroke:#ffffff;stroke-linecap:square;stroke-linejoin:miter;stroke-width:1.25;"/>
   </g>
   <g id="text_8">
    <!-- 165.0 -->
    <g style="fill:#c44e52;opacity:0.5;" transform="translate(148.460619 180.995125)rotate(-90)scale(0.12 -0.12)">
     <defs>
      <path d="M 33.015625 40.375 
Q 26.375 40.375 22.484375 35.828125 
Q 18.609375 31.296875 18.609375 23.390625 
Q 18.609375 15.53125 22.484375 10.953125 
Q 26.375 6.390625 33.015625 6.390625 
Q 39.65625 6.390625 43.53125 10.953125 
Q 47.40625 15.53125 47.40625 23.390625 
Q 47.40625 31.296875 43.53125 35.828125 
Q 39.65625 40.375 33.015625 40.375 
z
M 52.59375 71.296875 
L 52.59375 62.3125 
Q 48.875 64.0625 45.09375 64.984375 
Q 41.3125 65.921875 37.59375 65.921875 
Q 27.828125 65.921875 22.671875 59.328125 
Q 17.53125 52.734375 16.796875 39.40625 
Q 19.671875 43.65625 24.015625 45.921875 
Q 28.375 48.1875 33.59375 48.1875 
Q 44.578125 48.1875 50.953125 41.515625 
Q 57.328125 34.859375 57.328125 23.390625 
Q 57.328125 12.15625 50.6875 5.359375 
Q 44.046875 -1.421875 33.015625 -1.421875 
Q 20.359375 -1.421875 13.671875 8.265625 
Q 6.984375 17.96875 6.984375 36.375 
Q 6.984375 53.65625 15.1875 63.9375 
Q 23.390625 74.21875 37.203125 74.21875 
Q 40.921875 74.21875 44.703125 73.484375 
Q 48.484375 72.75 52.59375 71.296875 
z
" id="DejaVuSans-54"/>
      <path d="M 10.6875 12.40625 
L 21 12.40625 
L 21 0 
L 10.6875 0 
z
" id="DejaVuSans-46"/>
     </defs>
     <use xlink:href="#DejaVuSans-49"/>
     <use x="63.623047" xlink:href="#DejaVuSans-54"/>
     <use x="127.246094" xlink:href="#DejaVuSans-53"/>
     <use x="190.869141" xlink:href="#DejaVuSans-46"/>
     <use x="222.65625" xlink:href="#DejaVuSans-48"/>
    </g>
   </g>
   <g id="text_9">
    <!-- Segment 1 -->
    <g style="fill:#262626;" transform="translate(115.572188 22.96)scale(0.12 -0.12)">
     <defs>
      <path d="M 45.40625 27.984375 
Q 45.40625 37.75 41.375 43.109375 
Q 37.359375 48.484375 30.078125 48.484375 
Q 22.859375 48.484375 18.828125 43.109375 
Q 14.796875 37.75 14.796875 27.984375 
Q 14.796875 18.265625 18.828125 12.890625 
Q 22.859375 7.515625 30.078125 7.515625 
Q 37.359375 7.515625 41.375 12.890625 
Q 45.40625 18.265625 45.40625 27.984375 
z
M 54.390625 6.78125 
Q 54.390625 -7.171875 48.1875 -13.984375 
Q 42 -20.796875 29.203125 -20.796875 
Q 24.46875 -20.796875 20.265625 -20.09375 
Q 16.0625 -19.390625 12.109375 -17.921875 
L 12.109375 -9.1875 
Q 16.0625 -11.328125 19.921875 -12.34375 
Q 23.78125 -13.375 27.78125 -13.375 
Q 36.625 -13.375 41.015625 -8.765625 
Q 45.40625 -4.15625 45.40625 5.171875 
L 45.40625 9.625 
Q 42.625 4.78125 38.28125 2.390625 
Q 33.9375 0 27.875 0 
Q 17.828125 0 11.671875 7.65625 
Q 5.515625 15.328125 5.515625 27.984375 
Q 5.515625 40.671875 11.671875 48.328125 
Q 17.828125 56 27.875 56 
Q 33.9375 56 38.28125 53.609375 
Q 42.625 51.21875 45.40625 46.390625 
L 45.40625 54.6875 
L 54.390625 54.6875 
z
" id="DejaVuSans-103"/>
      <path d="M 52 44.1875 
Q 55.375 50.25 60.0625 53.125 
Q 64.75 56 71.09375 56 
Q 79.640625 56 84.28125 50.015625 
Q 88.921875 44.046875 88.921875 33.015625 
L 88.921875 0 
L 79.890625 0 
L 79.890625 32.71875 
Q 79.890625 40.578125 77.09375 44.375 
Q 74.3125 48.1875 68.609375 48.1875 
Q 61.625 48.1875 57.5625 43.546875 
Q 53.515625 38.921875 53.515625 30.90625 
L 53.515625 0 
L 44.484375 0 
L 44.484375 32.71875 
Q 44.484375 40.625 41.703125 44.40625 
Q 38.921875 48.1875 33.109375 48.1875 
Q 26.21875 48.1875 22.15625 43.53125 
Q 18.109375 38.875 18.109375 30.90625 
L 18.109375 0 
L 9.078125 0 
L 9.078125 54.6875 
L 18.109375 54.6875 
L 18.109375 46.1875 
Q 21.1875 51.21875 25.484375 53.609375 
Q 29.78125 56 35.6875 56 
Q 41.65625 56 45.828125 52.96875 
Q 50 49.953125 52 44.1875 
z
" id="DejaVuSans-109"/>
      <path d="M 54.890625 33.015625 
L 54.890625 0 
L 45.90625 0 
L 45.90625 32.71875 
Q 45.90625 40.484375 42.875 44.328125 
Q 39.84375 48.1875 33.796875 48.1875 
Q 26.515625 48.1875 22.3125 43.546875 
Q 18.109375 38.921875 18.109375 30.90625 
L 18.109375 0 
L 9.078125 0 
L 9.078125 54.6875 
L 18.109375 54.6875 
L 18.109375 46.1875 
Q 21.34375 51.125 25.703125 53.5625 
Q 30.078125 56 35.796875 56 
Q 45.21875 56 50.046875 50.171875 
Q 54.890625 44.34375 54.890625 33.015625 
z
" id="DejaVuSans-110"/>
     </defs>
     <use xlink:href="#DejaVuSans-83"/>
     <use x="63.476562" xlink:href="#DejaVuSans-101"/>
     <use x="125" xlink:href="#DejaVuSans-103"/>
     <use x="188.476562" xlink:href="#DejaVuSans-109"/>
     <use x="285.888672" xlink:href="#DejaVuSans-101"/>
     <use x="347.412109" xlink:href="#DejaVuSans-110"/>
     <use x="410.791016" xlink:href="#DejaVuSans-116"/>
     <use x="450" xlink:href="#DejaVuSans-32"/>
     <use x="481.787109" xlink:href="#DejaVuSans-49"/>
    </g>
   </g>
  </g>
  <g id="axes_2">
   <g id="patch_5">
    <path d="M 256.095 186.37 
L 445.77 186.37 
L 445.77 28.96 
L 256.095 28.96 
z
" style="fill:#eaeaf2;"/>
   </g>
   <g id="matplotlib.axis_3">
    <g id="xtick_31">
     <g id="line2d_12">
      <path clip-path="url(#pef31743829)" d="M 282.33536 186.37 
L 282.33536 28.96 
" style="fill:none;stroke:#ffffff;stroke-linecap:round;"/>
     </g>
    </g>
    <g id="xtick_32">
     <g id="line2d_13">
      <path clip-path="url(#pef31743829)" d="M 340.863644 186.37 
L 340.863644 28.96 
" style="fill:none;stroke:#ffffff;stroke-linecap:round;"/>
     </g>
    </g>
    <g id="xtick_33">
     <g id="line2d_14">
      <path clip-path="url(#pef31743829)" d="M 399.391928 186.37 
L 399.391928 28.96 
" style="fill:none;stroke:#ffffff;stroke-linecap:round;"/>
     </g>
    </g>
    <g id="xtick_34"/>
    <g id="xtick_35"/>
    <g id="xtick_36"/>
    <g id="xtick_37"/>
    <g id="xtick_38"/>
    <g id="xtick_39"/>
    <g id="xtick_40"/>
    <g id="xtick_41"/>
    <g id="xtick_42"/>
    <g id="xtick_43"/>
    <g id="xtick_44"/>
    <g id="xtick_45"/>
    <g id="xtick_46"/>
    <g id="xtick_47"/>
    <g id="xtick_48"/>
    <g id="xtick_49"/>
    <g id="xtick_50"/>
    <g id="xtick_51"/>
    <g id="xtick_52"/>
    <g id="xtick_53"/>
    <g id="xtick_54"/>
    <g id="xtick_55"/>
    <g id="xtick_56"/>
    <g id="xtick_57"/>
    <g id="xtick_58"/>
    <g id="xtick_59"/>
    <g id="xtick_60"/>
   </g>
   <g id="matplotlib.axis_4">
    <g id="ytick_7">
     <g id="line2d_15">
      <path clip-path="url(#pef31743829)" d="M 256.095 186.37 
L 445.77 186.37 
" style="fill:none;stroke:#ffffff;stroke-linecap:round;"/>
     </g>
    </g>
    <g id="ytick_8">
     <g id="line2d_16">
      <path clip-path="url(#pef31743829)" d="M 256.095 155.137857 
L 445.77 155.137857 
" style="fill:none;stroke:#ffffff;stroke-linecap:round;"/>
     </g>
    </g>
    <g id="ytick_9">
     <g id="line2d_17">
      <path clip-path="url(#pef31743829)" d="M 256.095 123.905714 
L 445.77 123.905714 
" style="fill:none;stroke:#ffffff;stroke-linecap:round;"/>
     </g>
    </g>
    <g id="ytick_10">
     <g id="line2d_18">
      <path clip-path="url(#pef31743829)" d="M 256.095 92.673571 
L 445.77 92.673571 
" style="fill:none;stroke:#ffffff;stroke-linecap:round;"/>
     </g>
    </g>
    <g id="ytick_11">
     <g id="line2d_19">
      <path clip-path="url(#pef31743829)" d="M 256.095 61.441429 
L 445.77 61.441429 
" style="fill:none;stroke:#ffffff;stroke-linecap:round;"/>
     </g>
    </g>
    <g id="ytick_12">
     <g id="line2d_20">
      <path clip-path="url(#pef31743829)" d="M 256.095 30.209286 
L 445.77 30.209286 
" style="fill:none;stroke:#ffffff;stroke-linecap:round;"/>
     </g>
    </g>
   </g>
   <g id="PolyCollection_2">
    <defs>
     <path d="M 273.269214 -326.833571 
L 273.269214 -245.63 
L 279.122042 -245.63 
L 279.122042 -245.63 
L 284.974871 -245.63 
L 284.974871 -245.63 
L 290.827699 -245.63 
L 290.827699 -245.63 
L 296.680528 -245.63 
L 296.680528 -245.63 
L 302.533356 -245.63 
L 302.533356 -245.63 
L 308.386184 -245.63 
L 308.386184 -245.63 
L 314.239013 -245.63 
L 314.239013 -245.63 
L 320.091841 -245.63 
L 320.091841 -245.63 
L 325.94467 -245.63 
L 325.94467 -245.63 
L 331.797498 -245.63 
L 331.797498 -245.63 
L 337.650326 -245.63 
L 337.650326 -245.63 
L 343.503155 -245.63 
L 343.503155 -245.63 
L 349.355983 -245.63 
L 349.355983 -245.63 
L 355.208812 -245.63 
L 355.208812 -245.63 
L 361.06164 -245.63 
L 361.06164 -245.63 
L 366.914468 -245.63 
L 366.914468 -245.63 
L 372.767297 -245.63 
L 372.767297 -245.63 
L 378.620125 -245.63 
L 378.620125 -245.63 
L 384.472954 -245.63 
L 384.472954 -245.63 
L 390.325782 -245.63 
L 390.325782 -245.63 
L 396.17861 -245.63 
L 396.17861 -245.63 
L 402.031439 -245.63 
L 402.031439 -245.63 
L 407.884267 -245.63 
L 407.884267 -245.63 
L 413.737096 -245.63 
L 413.737096 -245.63 
L 419.589924 -245.63 
L 419.589924 -245.63 
L 425.442752 -245.63 
L 425.442752 -245.63 
L 425.442752 -251.876429 
L 425.442752 -251.876429 
L 425.442752 -251.876429 
L 419.589924 -251.876429 
L 419.589924 -251.876429 
L 413.737096 -251.876429 
L 413.737096 -264.369286 
L 407.884267 -264.369286 
L 407.884267 -301.847857 
L 402.031439 -301.847857 
L 402.031439 -258.122857 
L 396.17861 -258.122857 
L 396.17861 -289.355 
L 390.325782 -289.355 
L 390.325782 -270.615714 
L 384.472954 -270.615714 
L 384.472954 -289.355 
L 378.620125 -289.355 
L 378.620125 -295.601429 
L 372.767297 -295.601429 
L 372.767297 -345.572857 
L 366.914468 -345.572857 
L 366.914468 -301.847857 
L 361.06164 -301.847857 
L 361.06164 -345.572857 
L 355.208812 -345.572857 
L 355.208812 -314.340714 
L 349.355983 -314.340714 
L 349.355983 -320.587143 
L 343.503155 -320.587143 
L 343.503155 -295.601429 
L 337.650326 -295.601429 
L 337.650326 -345.572857 
L 331.797498 -345.572857 
L 331.797498 -301.847857 
L 325.94467 -301.847857 
L 325.94467 -326.833571 
L 320.091841 -326.833571 
L 320.091841 -276.862143 
L 314.239013 -276.862143 
L 314.239013 -308.094286 
L 308.386184 -308.094286 
L 308.386184 -320.587143 
L 302.533356 -320.587143 
L 302.533356 -320.587143 
L 296.680528 -320.587143 
L 296.680528 -326.833571 
L 290.827699 -326.833571 
L 290.827699 -295.601429 
L 284.974871 -295.601429 
L 284.974871 -326.833571 
L 279.122042 -326.833571 
L 279.122042 -326.833571 
L 273.269214 -326.833571 
z
" id="mae5bbb33e3" style="stroke:#4c72b0;"/>
    </defs>
    <g clip-path="url(#pef31743829)">
     <use style="fill:#4c72b0;fill-opacity:0.5;stroke:#4c72b0;" x="0" xlink:href="#mae5bbb33e3" y="432"/>
    </g>
   </g>
   <g id="line2d_21">
    <path clip-path="url(#pef31743829)" d="M 273.269214 148.917092 
L 277.009114 140.905039 
L 280.001034 135.038144 
L 282.244973 131.116247 
L 284.488913 127.681893 
L 286.732853 124.775633 
L 288.228813 123.140799 
L 289.724773 121.74885 
L 291.220733 120.596673 
L 292.716693 119.678218 
L 294.212653 118.984662 
L 295.708612 118.504417 
L 297.204572 118.223022 
L 298.700532 118.123002 
L 300.944472 118.267179 
L 303.188412 118.69035 
L 306.180332 119.523767 
L 311.416191 121.05376 
L 313.660131 121.507303 
L 315.904071 121.752672 
L 318.148011 121.767066 
L 320.391951 121.55649 
L 322.635891 121.150812 
L 325.62781 120.385602 
L 330.86367 118.747657 
L 349.563169 112.728491 
L 351.807108 112.22775 
L 354.051048 111.945669 
L 356.294988 111.96158 
L 357.790948 112.174345 
L 359.286908 112.570522 
L 360.782868 113.164194 
L 362.278828 113.964473 
L 363.774788 114.974875 
L 365.270747 116.19297 
L 367.514687 118.389493 
L 369.758627 120.98066 
L 372.750547 124.913525 
L 377.238427 131.361796 
L 381.726306 137.745463 
L 384.718226 141.639279 
L 387.710146 145.11721 
L 390.702066 148.16663 
L 393.693985 150.854029 
L 398.181865 154.487414 
L 403.417725 158.717015 
L 407.157624 162.033391 
L 410.897524 165.641809 
L 419.873284 174.511982 
L 422.117223 176.491325 
L 422.117223 176.491325 
" style="fill:none;stroke:#4c72b0;stroke-linecap:round;stroke-width:1.5;"/>
   </g>
   <g id="line2d_22">
    <path clip-path="url(#pef31743829)" d="M 354.799028 186.37 
L 354.799028 28.96 
" style="fill:none;stroke:#c44e52;stroke-linecap:round;stroke-opacity:0.5;stroke-width:1.5;"/>
   </g>
   <g id="patch_6">
    <path d="M 256.095 186.37 
L 256.095 28.96 
" style="fill:none;stroke:#ffffff;stroke-linecap:square;stroke-linejoin:miter;stroke-width:1.25;"/>
   </g>
   <g id="patch_7">
    <path d="M 256.095 186.37 
L 445.77 186.37 
" style="fill:none;stroke:#ffffff;stroke-linecap:square;stroke-linejoin:miter;stroke-width:1.25;"/>
   </g>
   <g id="text_10">
    <!-- 173.0 -->
    <g style="fill:#c44e52;opacity:0.5;" transform="translate(352.303403 180.995125)rotate(-90)scale(0.12 -0.12)">
     <defs>
      <path d="M 8.203125 72.90625 
L 55.078125 72.90625 
L 55.078125 68.703125 
L 28.609375 0 
L 18.3125 0 
L 43.21875 64.59375 
L 8.203125 64.59375 
z
" id="DejaVuSans-55"/>
      <path d="M 40.578125 39.3125 
Q 47.65625 37.796875 51.625 33 
Q 55.609375 28.21875 55.609375 21.1875 
Q 55.609375 10.40625 48.1875 4.484375 
Q 40.765625 -1.421875 27.09375 -1.421875 
Q 22.515625 -1.421875 17.65625 -0.515625 
Q 12.796875 0.390625 7.625 2.203125 
L 7.625 11.71875 
Q 11.71875 9.328125 16.59375 8.109375 
Q 21.484375 6.890625 26.8125 6.890625 
Q 36.078125 6.890625 40.9375 10.546875 
Q 45.796875 14.203125 45.796875 21.1875 
Q 45.796875 27.640625 41.28125 31.265625 
Q 36.765625 34.90625 28.71875 34.90625 
L 20.21875 34.90625 
L 20.21875 43.015625 
L 29.109375 43.015625 
Q 36.375 43.015625 40.234375 45.921875 
Q 44.09375 48.828125 44.09375 54.296875 
Q 44.09375 59.90625 40.109375 62.90625 
Q 36.140625 65.921875 28.71875 65.921875 
Q 24.65625 65.921875 20.015625 65.03125 
Q 15.375 64.15625 9.8125 62.3125 
L 9.8125 71.09375 
Q 15.4375 72.65625 20.34375 73.4375 
Q 25.25 74.21875 29.59375 74.21875 
Q 40.828125 74.21875 47.359375 69.109375 
Q 53.90625 64.015625 53.90625 55.328125 
Q 53.90625 49.265625 50.4375 45.09375 
Q 46.96875 40.921875 40.578125 39.3125 
z
" id="DejaVuSans-51"/>
     </defs>
     <use xlink:href="#DejaVuSans-49"/>
     <use x="63.623047" xlink:href="#DejaVuSans-55"/>
     <use x="127.246094" xlink:href="#DejaVuSans-51"/>
     <use x="190.869141" xlink:href="#DejaVuSans-46"/>
     <use x="222.65625" xlink:href="#DejaVuSans-48"/>
    </g>
   </g>
   <g id="text_11">
    <!-- Segment 2 -->
    <g style="fill:#262626;" transform="translate(318.207188 22.96)scale(0.12 -0.12)">
     <use xlink:href="#DejaVuSans-83"/>
     <use x="63.476562" xlink:href="#DejaVuSans-101"/>
     <use x="125" xlink:href="#DejaVuSans-103"/>
     <use x="188.476562" xlink:href="#DejaVuSans-109"/>
     <use x="285.888672" xlink:href="#DejaVuSans-101"/>
     <use x="347.412109" xlink:href="#DejaVuSans-110"/>
     <use x="410.791016" xlink:href="#DejaVuSans-116"/>
     <use x="450" xlink:href="#DejaVuSans-32"/>
     <use x="481.787109" xlink:href="#DejaVuSans-50"/>
    </g>
   </g>
  </g>
  <g id="axes_3">
   <g id="patch_8">
    <path d="M 458.73 186.37 
L 648.405 186.37 
L 648.405 28.96 
L 458.73 28.96 
z
" style="fill:#eaeaf2;"/>
   </g>
   <g id="matplotlib.axis_5">
    <g id="xtick_61">
     <g id="line2d_23">
      <path clip-path="url(#p7f6877d602)" d="M 484.97036 186.37 
L 484.97036 28.96 
" style="fill:none;stroke:#ffffff;stroke-linecap:round;"/>
     </g>
    </g>
    <g id="xtick_62">
     <g id="line2d_24">
      <path clip-path="url(#p7f6877d602)" d="M 543.498644 186.37 
L 543.498644 28.96 
" style="fill:none;stroke:#ffffff;stroke-linecap:round;"/>
     </g>
    </g>
    <g id="xtick_63">
     <g id="line2d_25">
      <path clip-path="url(#p7f6877d602)" d="M 602.026928 186.37 
L 602.026928 28.96 
" style="fill:none;stroke:#ffffff;stroke-linecap:round;"/>
     </g>
    </g>
    <g id="xtick_64"/>
    <g id="xtick_65"/>
    <g id="xtick_66"/>
    <g id="xtick_67"/>
    <g id="xtick_68"/>
    <g id="xtick_69"/>
    <g id="xtick_70"/>
    <g id="xtick_71"/>
    <g id="xtick_72"/>
    <g id="xtick_73"/>
    <g id="xtick_74"/>
    <g id="xtick_75"/>
    <g id="xtick_76"/>
    <g id="xtick_77"/>
    <g id="xtick_78"/>
    <g id="xtick_79"/>
    <g id="xtick_80"/>
    <g id="xtick_81"/>
    <g id="xtick_82"/>
    <g id="xtick_83"/>
    <g id="xtick_84"/>
    <g id="xtick_85"/>
    <g id="xtick_86"/>
    <g id="xtick_87"/>
    <g id="xtick_88"/>
    <g id="xtick_89"/>
    <g id="xtick_90"/>
   </g>
   <g id="matplotlib.axis_6">
    <g id="ytick_13">
     <g id="line2d_26">
      <path clip-path="url(#p7f6877d602)" d="M 458.73 186.37 
L 648.405 186.37 
" style="fill:none;stroke:#ffffff;stroke-linecap:round;"/>
     </g>
    </g>
    <g id="ytick_14">
     <g id="line2d_27">
      <path clip-path="url(#p7f6877d602)" d="M 458.73 155.137857 
L 648.405 155.137857 
" style="fill:none;stroke:#ffffff;stroke-linecap:round;"/>
     </g>
    </g>
    <g id="ytick_15">
     <g id="line2d_28">
      <path clip-path="url(#p7f6877d602)" d="M 458.73 123.905714 
L 648.405 123.905714 
" style="fill:none;stroke:#ffffff;stroke-linecap:round;"/>
     </g>
    </g>
    <g id="ytick_16">
     <g id="line2d_29">
      <path clip-path="url(#p7f6877d602)" d="M 458.73 92.673571 
L 648.405 92.673571 
" style="fill:none;stroke:#ffffff;stroke-linecap:round;"/>
     </g>
    </g>
    <g id="ytick_17">
     <g id="line2d_30">
      <path clip-path="url(#p7f6877d602)" d="M 458.73 61.441429 
L 648.405 61.441429 
" style="fill:none;stroke:#ffffff;stroke-linecap:round;"/>
     </g>
    </g>
    <g id="ytick_18">
     <g id="line2d_31">
      <path clip-path="url(#p7f6877d602)" d="M 458.73 30.209286 
L 648.405 30.209286 
" style="fill:none;stroke:#ffffff;stroke-linecap:round;"/>
     </g>
    </g>
   </g>
   <g id="PolyCollection_3">
    <defs>
     <path d="M 475.904214 -289.355 
L 475.904214 -245.63 
L 481.757042 -245.63 
L 481.757042 -245.63 
L 487.609871 -245.63 
L 487.609871 -245.63 
L 493.462699 -245.63 
L 493.462699 -245.63 
L 499.315528 -245.63 
L 499.315528 -245.63 
L 505.168356 -245.63 
L 505.168356 -245.63 
L 511.021184 -245.63 
L 511.021184 -245.63 
L 516.874013 -245.63 
L 516.874013 -245.63 
L 522.726841 -245.63 
L 522.726841 -245.63 
L 528.57967 -245.63 
L 528.57967 -245.63 
L 534.432498 -245.63 
L 534.432498 -245.63 
L 540.285326 -245.63 
L 540.285326 -245.63 
L 546.138155 -245.63 
L 546.138155 -245.63 
L 551.990983 -245.63 
L 551.990983 -245.63 
L 557.843812 -245.63 
L 557.843812 -245.63 
L 563.69664 -245.63 
L 563.69664 -245.63 
L 569.549468 -245.63 
L 569.549468 -245.63 
L 575.402297 -245.63 
L 575.402297 -245.63 
L 581.255125 -245.63 
L 581.255125 -245.63 
L 587.107954 -245.63 
L 587.107954 -245.63 
L 592.960782 -245.63 
L 592.960782 -245.63 
L 598.81361 -245.63 
L 598.81361 -245.63 
L 604.666439 -245.63 
L 604.666439 -245.63 
L 610.519267 -245.63 
L 610.519267 -245.63 
L 616.372096 -245.63 
L 616.372096 -245.63 
L 622.224924 -245.63 
L 622.224924 -245.63 
L 628.077752 -245.63 
L 628.077752 -245.63 
L 633.930581 -245.63 
L 633.930581 -245.63 
L 633.930581 -251.876429 
L 633.930581 -251.876429 
L 633.930581 -251.876429 
L 628.077752 -251.876429 
L 628.077752 -245.63 
L 622.224924 -245.63 
L 622.224924 -258.122857 
L 616.372096 -258.122857 
L 616.372096 -258.122857 
L 610.519267 -258.122857 
L 610.519267 -258.122857 
L 604.666439 -258.122857 
L 604.666439 -270.615714 
L 598.81361 -270.615714 
L 598.81361 -270.615714 
L 592.960782 -270.615714 
L 592.960782 -301.847857 
L 587.107954 -301.847857 
L 587.107954 -314.340714 
L 581.255125 -314.340714 
L 581.255125 -314.340714 
L 575.402297 -314.340714 
L 575.402297 -351.819286 
L 569.549468 -351.819286 
L 569.549468 -320.587143 
L 563.69664 -320.587143 
L 563.69664 -320.587143 
L 557.843812 -320.587143 
L 557.843812 -345.572857 
L 551.990983 -345.572857 
L 551.990983 -314.340714 
L 546.138155 -314.340714 
L 546.138155 -314.340714 
L 540.285326 -314.340714 
L 540.285326 -358.065714 
L 534.432498 -358.065714 
L 534.432498 -283.108571 
L 528.57967 -283.108571 
L 528.57967 -333.08 
L 522.726841 -333.08 
L 522.726841 -339.326429 
L 516.874013 -339.326429 
L 516.874013 -326.833571 
L 511.021184 -326.833571 
L 511.021184 -351.819286 
L 505.168356 -351.819286 
L 505.168356 -320.587143 
L 499.315528 -320.587143 
L 499.315528 -351.819286 
L 493.462699 -351.819286 
L 493.462699 -308.094286 
L 487.609871 -308.094286 
L 487.609871 -395.544286 
L 481.757042 -395.544286 
L 481.757042 -289.355 
L 475.904214 -289.355 
z
" id="m4f28073f8c" style="stroke:#4c72b0;"/>
    </defs>
    <g clip-path="url(#p7f6877d602)">
     <use style="fill:#4c72b0;fill-opacity:0.5;stroke:#4c72b0;" x="0" xlink:href="#m4f28073f8c" y="432"/>
    </g>
   </g>
   <g id="line2d_32">
    <path clip-path="url(#p7f6877d602)" d="M 475.904214 142.817802 
L 481.364616 125.360634 
L 483.704788 118.643067 
L 486.044961 112.755201 
L 487.605075 109.367065 
L 489.16519 106.433275 
L 490.725305 103.95345 
L 492.28542 101.910438 
L 493.845535 100.273669 
L 495.40565 99.003189 
L 496.965764 98.053923 
L 498.525879 97.379704 
L 500.085994 96.936704 
L 501.646109 96.685998 
L 503.986281 96.601415 
L 506.326454 96.797896 
L 508.666626 97.226326 
L 511.006798 97.858634 
L 514.127028 98.984652 
L 517.247257 100.378597 
L 528.168061 105.590306 
L 530.508234 106.337213 
L 532.848406 106.840965 
L 535.188578 107.092666 
L 537.52875 107.110421 
L 540.64898 106.843403 
L 544.549267 106.236365 
L 550.789727 105.25171 
L 554.690014 104.904857 
L 557.810243 104.855776 
L 560.930473 105.063667 
L 563.270645 105.438321 
L 565.610818 106.058598 
L 567.95099 106.990107 
L 569.511105 107.818766 
L 571.07122 108.836785 
L 572.631334 110.061217 
L 574.191449 111.505003 
L 575.751564 113.175797 
L 578.091736 116.109251 
L 580.431909 119.53318 
L 582.772081 123.393383 
L 585.892311 129.074738 
L 590.572655 138.227573 
L 595.253 147.322091 
L 598.373229 152.95062 
L 600.713402 156.820915 
L 603.053574 160.345346 
L 605.393746 163.51092 
L 607.733918 166.327023 
L 610.074091 168.820113 
L 612.414263 171.027015 
L 614.754435 172.988045 
L 617.874665 175.285002 
L 620.994895 177.28306 
L 624.115124 179.028418 
L 627.235354 180.545928 
L 630.355584 181.848121 
L 631.135641 182.141068 
L 631.135641 182.141068 
" style="fill:none;stroke:#4c72b0;stroke-linecap:round;stroke-width:1.5;"/>
   </g>
   <g id="line2d_33">
    <path clip-path="url(#p7f6877d602)" d="M 503.206224 186.37 
L 503.206224 28.96 
" style="fill:none;stroke:#c44e52;stroke-linecap:round;stroke-opacity:0.5;stroke-width:1.5;"/>
   </g>
   <g id="patch_9">
    <path d="M 458.73 186.37 
L 458.73 28.96 
" style="fill:none;stroke:#ffffff;stroke-linecap:square;stroke-linejoin:miter;stroke-width:1.25;"/>
   </g>
   <g id="patch_10">
    <path d="M 458.73 186.37 
L 648.405 186.37 
" style="fill:none;stroke:#ffffff;stroke-linecap:square;stroke-linejoin:miter;stroke-width:1.25;"/>
   </g>
   <g id="text_12">
    <!-- 20.5 -->
    <g style="fill:#c44e52;opacity:0.5;" transform="translate(500.710599 180.995125)rotate(-90)scale(0.12 -0.12)">
     <use xlink:href="#DejaVuSans-50"/>
     <use x="63.623047" xlink:href="#DejaVuSans-48"/>
     <use x="127.246094" xlink:href="#DejaVuSans-46"/>
     <use x="159.033203" xlink:href="#DejaVuSans-53"/>
    </g>
   </g>
   <g id="text_13">
    <!-- Segment 3 -->
    <g style="fill:#262626;" transform="translate(520.842188 22.96)scale(0.12 -0.12)">
     <use xlink:href="#DejaVuSans-83"/>
     <use x="63.476562" xlink:href="#DejaVuSans-101"/>
     <use x="125" xlink:href="#DejaVuSans-103"/>
     <use x="188.476562" xlink:href="#DejaVuSans-109"/>
     <use x="285.888672" xlink:href="#DejaVuSans-101"/>
     <use x="347.412109" xlink:href="#DejaVuSans-110"/>
     <use x="410.791016" xlink:href="#DejaVuSans-116"/>
     <use x="450" xlink:href="#DejaVuSans-32"/>
     <use x="481.787109" xlink:href="#DejaVuSans-51"/>
    </g>
   </g>
  </g>
  <g id="axes_4">
   <g id="patch_11">
    <path d="M 661.365 186.37 
L 851.04 186.37 
L 851.04 28.96 
L 661.365 28.96 
z
" style="fill:#eaeaf2;"/>
   </g>
   <g id="matplotlib.axis_7">
    <g id="xtick_91">
     <g id="line2d_34">
      <path clip-path="url(#p6931413f19)" d="M 687.60536 186.37 
L 687.60536 28.96 
" style="fill:none;stroke:#ffffff;stroke-linecap:round;"/>
     </g>
    </g>
    <g id="xtick_92">
     <g id="line2d_35">
      <path clip-path="url(#p6931413f19)" d="M 746.133644 186.37 
L 746.133644 28.96 
" style="fill:none;stroke:#ffffff;stroke-linecap:round;"/>
     </g>
    </g>
    <g id="xtick_93">
     <g id="line2d_36">
      <path clip-path="url(#p6931413f19)" d="M 804.661928 186.37 
L 804.661928 28.96 
" style="fill:none;stroke:#ffffff;stroke-linecap:round;"/>
     </g>
    </g>
    <g id="xtick_94"/>
    <g id="xtick_95"/>
    <g id="xtick_96"/>
    <g id="xtick_97"/>
    <g id="xtick_98"/>
    <g id="xtick_99"/>
    <g id="xtick_100"/>
    <g id="xtick_101"/>
    <g id="xtick_102"/>
    <g id="xtick_103"/>
    <g id="xtick_104"/>
    <g id="xtick_105"/>
    <g id="xtick_106"/>
    <g id="xtick_107"/>
    <g id="xtick_108"/>
    <g id="xtick_109"/>
    <g id="xtick_110"/>
    <g id="xtick_111"/>
    <g id="xtick_112"/>
    <g id="xtick_113"/>
    <g id="xtick_114"/>
    <g id="xtick_115"/>
    <g id="xtick_116"/>
    <g id="xtick_117"/>
    <g id="xtick_118"/>
    <g id="xtick_119"/>
    <g id="xtick_120"/>
   </g>
   <g id="matplotlib.axis_8">
    <g id="ytick_19">
     <g id="line2d_37">
      <path clip-path="url(#p6931413f19)" d="M 661.365 186.37 
L 851.04 186.37 
" style="fill:none;stroke:#ffffff;stroke-linecap:round;"/>
     </g>
    </g>
    <g id="ytick_20">
     <g id="line2d_38">
      <path clip-path="url(#p6931413f19)" d="M 661.365 155.137857 
L 851.04 155.137857 
" style="fill:none;stroke:#ffffff;stroke-linecap:round;"/>
     </g>
    </g>
    <g id="ytick_21">
     <g id="line2d_39">
      <path clip-path="url(#p6931413f19)" d="M 661.365 123.905714 
L 851.04 123.905714 
" style="fill:none;stroke:#ffffff;stroke-linecap:round;"/>
     </g>
    </g>
    <g id="ytick_22">
     <g id="line2d_40">
      <path clip-path="url(#p6931413f19)" d="M 661.365 92.673571 
L 851.04 92.673571 
" style="fill:none;stroke:#ffffff;stroke-linecap:round;"/>
     </g>
    </g>
    <g id="ytick_23">
     <g id="line2d_41">
      <path clip-path="url(#p6931413f19)" d="M 661.365 61.441429 
L 851.04 61.441429 
" style="fill:none;stroke:#ffffff;stroke-linecap:round;"/>
     </g>
    </g>
    <g id="ytick_24">
     <g id="line2d_42">
      <path clip-path="url(#p6931413f19)" d="M 661.365 30.209286 
L 851.04 30.209286 
" style="fill:none;stroke:#ffffff;stroke-linecap:round;"/>
     </g>
    </g>
   </g>
   <g id="PolyCollection_4">
    <defs>
     <path d="M 681.933383 -339.326429 
L 681.933383 -245.63 
L 687.786212 -245.63 
L 687.786212 -245.63 
L 693.63904 -245.63 
L 693.63904 -245.63 
L 699.491868 -245.63 
L 699.491868 -245.63 
L 705.344697 -245.63 
L 705.344697 -245.63 
L 711.197525 -245.63 
L 711.197525 -245.63 
L 717.050354 -245.63 
L 717.050354 -245.63 
L 722.903182 -245.63 
L 722.903182 -245.63 
L 728.75601 -245.63 
L 728.75601 -245.63 
L 734.608839 -245.63 
L 734.608839 -245.63 
L 740.461667 -245.63 
L 740.461667 -245.63 
L 746.314496 -245.63 
L 746.314496 -245.63 
L 752.167324 -245.63 
L 752.167324 -245.63 
L 758.020152 -245.63 
L 758.020152 -245.63 
L 763.872981 -245.63 
L 763.872981 -245.63 
L 769.725809 -245.63 
L 769.725809 -245.63 
L 775.578638 -245.63 
L 775.578638 -245.63 
L 781.431466 -245.63 
L 781.431466 -245.63 
L 787.284294 -245.63 
L 787.284294 -245.63 
L 793.137123 -245.63 
L 793.137123 -245.63 
L 798.989951 -245.63 
L 798.989951 -245.63 
L 804.842779 -245.63 
L 804.842779 -245.63 
L 810.695608 -245.63 
L 810.695608 -245.63 
L 816.548436 -245.63 
L 816.548436 -245.63 
L 822.401265 -245.63 
L 822.401265 -245.63 
L 828.254093 -245.63 
L 828.254093 -245.63 
L 834.106921 -245.63 
L 834.106921 -245.63 
L 834.106921 -251.876429 
L 834.106921 -251.876429 
L 834.106921 -251.876429 
L 828.254093 -251.876429 
L 828.254093 -245.63 
L 822.401265 -245.63 
L 822.401265 -245.63 
L 816.548436 -245.63 
L 816.548436 -251.876429 
L 810.695608 -251.876429 
L 810.695608 -276.862143 
L 804.842779 -276.862143 
L 804.842779 -276.862143 
L 798.989951 -276.862143 
L 798.989951 -314.340714 
L 793.137123 -314.340714 
L 793.137123 -320.587143 
L 787.284294 -320.587143 
L 787.284294 -289.355 
L 781.431466 -289.355 
L 781.431466 -333.08 
L 775.578638 -333.08 
L 775.578638 -326.833571 
L 769.725809 -326.833571 
L 769.725809 -345.572857 
L 763.872981 -345.572857 
L 763.872981 -333.08 
L 758.020152 -333.08 
L 758.020152 -345.572857 
L 752.167324 -345.572857 
L 752.167324 -320.587143 
L 746.314496 -320.587143 
L 746.314496 -326.833571 
L 740.461667 -326.833571 
L 740.461667 -358.065714 
L 734.608839 -358.065714 
L 734.608839 -308.094286 
L 728.75601 -308.094286 
L 728.75601 -308.094286 
L 722.903182 -308.094286 
L 722.903182 -270.615714 
L 717.050354 -270.615714 
L 717.050354 -301.847857 
L 711.197525 -301.847857 
L 711.197525 -301.847857 
L 705.344697 -301.847857 
L 705.344697 -345.572857 
L 699.491868 -345.572857 
L 699.491868 -283.108571 
L 693.63904 -283.108571 
L 693.63904 -351.819286 
L 687.786212 -351.819286 
L 687.786212 -339.326429 
L 681.933383 -339.326429 
z
" id="mc86c1ec134" style="stroke:#4c72b0;"/>
    </defs>
    <g clip-path="url(#p6931413f19)">
     <use style="fill:#4c72b0;fill-opacity:0.5;stroke:#4c72b0;" x="0" xlink:href="#mc86c1ec134" y="432"/>
    </g>
   </g>
   <g id="line2d_43">
    <path clip-path="url(#p6931413f19)" d="M 681.933383 143.609838 
L 684.954739 135.978244 
L 687.220755 130.873176 
L 688.731433 127.885093 
L 690.242111 125.286659 
L 691.752789 123.111996 
L 693.263467 121.380879 
L 694.774144 120.098703 
L 696.284822 119.25706 
L 697.7955 118.83478 
L 699.306178 118.799262 
L 700.816856 119.107949 
L 702.327533 119.709864 
L 703.838211 120.547144 
L 706.104228 122.105063 
L 711.3916 125.959709 
L 712.902278 126.816679 
L 714.412956 127.455996 
L 715.923633 127.831175 
L 717.434311 127.907099 
L 718.944989 127.661773 
L 720.455667 127.087483 
L 721.966345 126.191194 
L 723.477022 124.994092 
L 724.9877 123.530251 
L 727.253717 120.934629 
L 730.275072 117.015703 
L 734.807106 111.074752 
L 737.073122 108.421261 
L 739.339139 106.112948 
L 741.605156 104.186616 
L 743.871172 102.635176 
L 746.137189 101.42126 
L 748.403206 100.493618 
L 750.669222 99.802673 
L 752.935239 99.312312 
L 755.201256 99.006239 
L 757.467273 98.888647 
L 759.733289 98.980104 
L 761.999306 99.310333 
L 764.265323 99.909814 
L 766.531339 100.802024 
L 768.797356 101.997802 
L 771.063373 103.492861 
L 773.329389 105.268886 
L 775.595406 107.298063 
L 778.616762 110.345723 
L 781.638117 113.736834 
L 784.659473 117.460747 
L 787.680828 121.555695 
L 790.702184 126.088981 
L 793.723539 131.116769 
L 796.744895 136.639224 
L 800.521589 144.097206 
L 808.074978 159.325697 
L 811.096334 164.829137 
L 813.362351 168.531865 
L 815.628367 171.807948 
L 817.894384 174.631162 
L 820.160401 177.00211 
L 822.426417 178.944697 
L 824.692434 180.500832 
L 826.958451 181.724146 
L 829.224467 182.673505 
L 831.490484 183.407065 
L 832.245823 183.612957 
L 832.245823 183.612957 
" style="fill:none;stroke:#4c72b0;stroke-linecap:round;stroke-width:1.5;"/>
   </g>
   <g id="line2d_44">
    <path clip-path="url(#p6931413f19)" d="M 757.467273 186.37 
L 757.467273 28.96 
" style="fill:none;stroke:#c44e52;stroke-linecap:round;stroke-opacity:0.5;stroke-width:1.5;"/>
   </g>
   <g id="patch_12">
    <path d="M 661.365 186.37 
L 661.365 28.96 
" style="fill:none;stroke:#ffffff;stroke-linecap:square;stroke-linejoin:miter;stroke-width:1.25;"/>
   </g>
   <g id="patch_13">
    <path d="M 661.365 186.37 
L 851.04 186.37 
" style="fill:none;stroke:#ffffff;stroke-linecap:square;stroke-linejoin:miter;stroke-width:1.25;"/>
   </g>
   <g id="text_14">
    <!-- 156.2 -->
    <g style="fill:#c44e52;opacity:0.5;" transform="translate(754.971648 180.995125)rotate(-90)scale(0.12 -0.12)">
     <use xlink:href="#DejaVuSans-49"/>
     <use x="63.623047" xlink:href="#DejaVuSans-53"/>
     <use x="127.246094" xlink:href="#DejaVuSans-54"/>
     <use x="190.869141" xlink:href="#DejaVuSans-46"/>
     <use x="222.65625" xlink:href="#DejaVuSans-50"/>
    </g>
   </g>
   <g id="text_15">
    <!-- Segment 4 -->
    <g style="fill:#262626;" transform="translate(723.477188 22.96)scale(0.12 -0.12)">
     <defs>
      <path d="M 37.796875 64.3125 
L 12.890625 25.390625 
L 37.796875 25.390625 
z
M 35.203125 72.90625 
L 47.609375 72.90625 
L 47.609375 25.390625 
L 58.015625 25.390625 
L 58.015625 17.1875 
L 47.609375 17.1875 
L 47.609375 0 
L 37.796875 0 
L 37.796875 17.1875 
L 4.890625 17.1875 
L 4.890625 26.703125 
z
" id="DejaVuSans-52"/>
     </defs>
     <use xlink:href="#DejaVuSans-83"/>
     <use x="63.476562" xlink:href="#DejaVuSans-101"/>
     <use x="125" xlink:href="#DejaVuSans-103"/>
     <use x="188.476562" xlink:href="#DejaVuSans-109"/>
     <use x="285.888672" xlink:href="#DejaVuSans-101"/>
     <use x="347.412109" xlink:href="#DejaVuSans-110"/>
     <use x="410.791016" xlink:href="#DejaVuSans-116"/>
     <use x="450" xlink:href="#DejaVuSans-32"/>
     <use x="481.787109" xlink:href="#DejaVuSans-52"/>
    </g>
   </g>
  </g>
  <g id="axes_5">
   <g id="patch_14">
    <path d="M 53.46 378.74 
L 243.135 378.74 
L 243.135 221.33 
L 53.46 221.33 
z
" style="fill:#eaeaf2;"/>
   </g>
   <g id="matplotlib.axis_9">
    <g id="xtick_121">
     <g id="line2d_45">
      <path clip-path="url(#pa08c7b1205)" d="M 79.70036 378.74 
L 79.70036 221.33 
" style="fill:none;stroke:#ffffff;stroke-linecap:round;"/>
     </g>
     <g id="text_16">
      <!-- $\mathdefault{10^{1}}$ -->
      <g style="fill:#262626;" transform="translate(70.02036 396.598281)scale(0.11 -0.11)">
       <use transform="translate(0 0.684375)" xlink:href="#DejaVuSans-49"/>
       <use transform="translate(63.623047 0.684375)" xlink:href="#DejaVuSans-48"/>
       <use transform="translate(128.203125 38.965625)scale(0.7)" xlink:href="#DejaVuSans-49"/>
      </g>
     </g>
    </g>
    <g id="xtick_122">
     <g id="line2d_46">
      <path clip-path="url(#pa08c7b1205)" d="M 138.228644 378.74 
L 138.228644 221.33 
" style="fill:none;stroke:#ffffff;stroke-linecap:round;"/>
     </g>
     <g id="text_17">
      <!-- $\mathdefault{10^{2}}$ -->
      <g style="fill:#262626;" transform="translate(128.548644 396.598281)scale(0.11 -0.11)">
       <use transform="translate(0 0.765625)" xlink:href="#DejaVuSans-49"/>
       <use transform="translate(63.623047 0.765625)" xlink:href="#DejaVuSans-48"/>
       <use transform="translate(128.203125 39.046875)scale(0.7)" xlink:href="#DejaVuSans-50"/>
      </g>
     </g>
    </g>
    <g id="xtick_123">
     <g id="line2d_47">
      <path clip-path="url(#pa08c7b1205)" d="M 196.756928 378.74 
L 196.756928 221.33 
" style="fill:none;stroke:#ffffff;stroke-linecap:round;"/>
     </g>
     <g id="text_18">
      <!-- $\mathdefault{10^{3}}$ -->
      <g style="fill:#262626;" transform="translate(187.076928 396.598281)scale(0.11 -0.11)">
       <use transform="translate(0 0.765625)" xlink:href="#DejaVuSans-49"/>
       <use transform="translate(63.623047 0.765625)" xlink:href="#DejaVuSans-48"/>
       <use transform="translate(128.203125 39.046875)scale(0.7)" xlink:href="#DejaVuSans-51"/>
      </g>
     </g>
    </g>
    <g id="xtick_124"/>
    <g id="xtick_125"/>
    <g id="xtick_126"/>
    <g id="xtick_127"/>
    <g id="xtick_128"/>
    <g id="xtick_129"/>
    <g id="xtick_130"/>
    <g id="xtick_131"/>
    <g id="xtick_132"/>
    <g id="xtick_133"/>
    <g id="xtick_134"/>
    <g id="xtick_135"/>
    <g id="xtick_136"/>
    <g id="xtick_137"/>
    <g id="xtick_138"/>
    <g id="xtick_139"/>
    <g id="xtick_140"/>
    <g id="xtick_141"/>
    <g id="xtick_142"/>
    <g id="xtick_143"/>
    <g id="xtick_144"/>
    <g id="xtick_145"/>
    <g id="xtick_146"/>
    <g id="xtick_147"/>
    <g id="xtick_148"/>
    <g id="xtick_149"/>
    <g id="xtick_150"/>
    <g id="text_19">
     <!-- Count -->
     <g style="fill:#262626;" transform="translate(130.479375 412.004063)scale(0.12 -0.12)">
      <defs>
       <path d="M 30.609375 48.390625 
Q 23.390625 48.390625 19.1875 42.75 
Q 14.984375 37.109375 14.984375 27.296875 
Q 14.984375 17.484375 19.15625 11.84375 
Q 23.34375 6.203125 30.609375 6.203125 
Q 37.796875 6.203125 41.984375 11.859375 
Q 46.1875 17.53125 46.1875 27.296875 
Q 46.1875 37.015625 41.984375 42.703125 
Q 37.796875 48.390625 30.609375 48.390625 
z
M 30.609375 56 
Q 42.328125 56 49.015625 48.375 
Q 55.71875 40.765625 55.71875 27.296875 
Q 55.71875 13.875 49.015625 6.21875 
Q 42.328125 -1.421875 30.609375 -1.421875 
Q 18.84375 -1.421875 12.171875 6.21875 
Q 5.515625 13.875 5.515625 27.296875 
Q 5.515625 40.765625 12.171875 48.375 
Q 18.84375 56 30.609375 56 
z
" id="DejaVuSans-111"/>
      </defs>
      <use xlink:href="#DejaVuSans-67"/>
      <use x="69.824219" xlink:href="#DejaVuSans-111"/>
      <use x="131.005859" xlink:href="#DejaVuSans-117"/>
      <use x="194.384766" xlink:href="#DejaVuSans-110"/>
      <use x="257.763672" xlink:href="#DejaVuSans-116"/>
     </g>
    </g>
   </g>
   <g id="matplotlib.axis_10">
    <g id="ytick_25">
     <g id="line2d_48">
      <path clip-path="url(#pa08c7b1205)" d="M 53.46 378.74 
L 243.135 378.74 
" style="fill:none;stroke:#ffffff;stroke-linecap:round;"/>
     </g>
     <g id="text_20">
      <!-- 0 -->
      <g style="fill:#262626;" transform="translate(36.96125 382.919141)scale(0.11 -0.11)">
       <use xlink:href="#DejaVuSans-48"/>
      </g>
     </g>
    </g>
    <g id="ytick_26">
     <g id="line2d_49">
      <path clip-path="url(#pa08c7b1205)" d="M 53.46 347.507857 
L 243.135 347.507857 
" style="fill:none;stroke:#ffffff;stroke-linecap:round;"/>
     </g>
     <g id="text_21">
      <!-- 5 -->
      <g style="fill:#262626;" transform="translate(36.96125 351.686998)scale(0.11 -0.11)">
       <use xlink:href="#DejaVuSans-53"/>
      </g>
     </g>
    </g>
    <g id="ytick_27">
     <g id="line2d_50">
      <path clip-path="url(#pa08c7b1205)" d="M 53.46 316.275714 
L 243.135 316.275714 
" style="fill:none;stroke:#ffffff;stroke-linecap:round;"/>
     </g>
     <g id="text_22">
      <!-- 10 -->
      <g style="fill:#262626;" transform="translate(29.9625 320.454855)scale(0.11 -0.11)">
       <use xlink:href="#DejaVuSans-49"/>
       <use x="63.623047" xlink:href="#DejaVuSans-48"/>
      </g>
     </g>
    </g>
    <g id="ytick_28">
     <g id="line2d_51">
      <path clip-path="url(#pa08c7b1205)" d="M 53.46 285.043571 
L 243.135 285.043571 
" style="fill:none;stroke:#ffffff;stroke-linecap:round;"/>
     </g>
     <g id="text_23">
      <!-- 15 -->
      <g style="fill:#262626;" transform="translate(29.9625 289.222712)scale(0.11 -0.11)">
       <use xlink:href="#DejaVuSans-49"/>
       <use x="63.623047" xlink:href="#DejaVuSans-53"/>
      </g>
     </g>
    </g>
    <g id="ytick_29">
     <g id="line2d_52">
      <path clip-path="url(#pa08c7b1205)" d="M 53.46 253.811429 
L 243.135 253.811429 
" style="fill:none;stroke:#ffffff;stroke-linecap:round;"/>
     </g>
     <g id="text_24">
      <!-- 20 -->
      <g style="fill:#262626;" transform="translate(29.9625 257.990569)scale(0.11 -0.11)">
       <use xlink:href="#DejaVuSans-50"/>
       <use x="63.623047" xlink:href="#DejaVuSans-48"/>
      </g>
     </g>
    </g>
    <g id="ytick_30">
     <g id="line2d_53">
      <path clip-path="url(#pa08c7b1205)" d="M 53.46 222.579286 
L 243.135 222.579286 
" style="fill:none;stroke:#ffffff;stroke-linecap:round;"/>
     </g>
     <g id="text_25">
      <!-- 25 -->
      <g style="fill:#262626;" transform="translate(29.9625 226.758426)scale(0.11 -0.11)">
       <use xlink:href="#DejaVuSans-50"/>
       <use x="63.623047" xlink:href="#DejaVuSans-53"/>
      </g>
     </g>
    </g>
    <g id="text_26">
     <!-- Cluster Size -->
     <g style="fill:#262626;" transform="translate(23.466875 335.554062)rotate(-90)scale(0.12 -0.12)">
      <use xlink:href="#DejaVuSans-67"/>
      <use x="69.824219" xlink:href="#DejaVuSans-108"/>
      <use x="97.607422" xlink:href="#DejaVuSans-117"/>
      <use x="160.986328" xlink:href="#DejaVuSans-115"/>
      <use x="213.085938" xlink:href="#DejaVuSans-116"/>
      <use x="252.294922" xlink:href="#DejaVuSans-101"/>
      <use x="313.818359" xlink:href="#DejaVuSans-114"/>
      <use x="354.931641" xlink:href="#DejaVuSans-32"/>
      <use x="386.71875" xlink:href="#DejaVuSans-83"/>
      <use x="450.195312" xlink:href="#DejaVuSans-105"/>
      <use x="477.978516" xlink:href="#DejaVuSans-122"/>
      <use x="530.46875" xlink:href="#DejaVuSans-101"/>
     </g>
    </g>
   </g>
   <g id="PolyCollection_5">
    <defs>
     <path d="M 74.028383 -171.942143 
L 74.028383 -53.26 
L 79.881212 -53.26 
L 79.881212 -53.26 
L 85.73404 -53.26 
L 85.73404 -53.26 
L 91.586868 -53.26 
L 91.586868 -53.26 
L 97.439697 -53.26 
L 97.439697 -53.26 
L 103.292525 -53.26 
L 103.292525 -53.26 
L 109.145354 -53.26 
L 109.145354 -53.26 
L 114.998182 -53.26 
L 114.998182 -53.26 
L 120.85101 -53.26 
L 120.85101 -53.26 
L 126.703839 -53.26 
L 126.703839 -53.26 
L 132.556667 -53.26 
L 132.556667 -53.26 
L 138.409496 -53.26 
L 138.409496 -53.26 
L 144.262324 -53.26 
L 144.262324 -53.26 
L 150.115152 -53.26 
L 150.115152 -53.26 
L 155.967981 -53.26 
L 155.967981 -53.26 
L 161.820809 -53.26 
L 161.820809 -53.26 
L 167.673638 -53.26 
L 167.673638 -53.26 
L 173.526466 -53.26 
L 173.526466 -53.26 
L 179.379294 -53.26 
L 179.379294 -53.26 
L 185.232123 -53.26 
L 185.232123 -53.26 
L 191.084951 -53.26 
L 191.084951 -53.26 
L 196.937779 -53.26 
L 196.937779 -53.26 
L 202.790608 -53.26 
L 202.790608 -53.26 
L 208.643436 -53.26 
L 208.643436 -53.26 
L 214.496265 -53.26 
L 214.496265 -53.26 
L 220.349093 -53.26 
L 220.349093 -53.26 
L 220.349093 -65.752857 
L 220.349093 -65.752857 
L 220.349093 -65.752857 
L 214.496265 -65.752857 
L 214.496265 -65.752857 
L 208.643436 -65.752857 
L 208.643436 -53.26 
L 202.790608 -53.26 
L 202.790608 -84.492143 
L 196.937779 -84.492143 
L 196.937779 -90.738571 
L 191.084951 -90.738571 
L 191.084951 -103.231429 
L 185.232123 -103.231429 
L 185.232123 -96.985 
L 179.379294 -96.985 
L 179.379294 -84.492143 
L 173.526466 -84.492143 
L 173.526466 -109.477857 
L 167.673638 -109.477857 
L 167.673638 -134.463571 
L 161.820809 -134.463571 
L 161.820809 -146.956429 
L 155.967981 -146.956429 
L 155.967981 -196.927857 
L 150.115152 -196.927857 
L 150.115152 -184.435 
L 144.262324 -184.435 
L 144.262324 -171.942143 
L 138.409496 -171.942143 
L 138.409496 -159.449286 
L 132.556667 -159.449286 
L 132.556667 -128.217143 
L 126.703839 -128.217143 
L 126.703839 -134.463571 
L 120.85101 -134.463571 
L 120.85101 -134.463571 
L 114.998182 -134.463571 
L 114.998182 -165.695714 
L 109.145354 -165.695714 
L 109.145354 -134.463571 
L 103.292525 -134.463571 
L 103.292525 -128.217143 
L 97.439697 -128.217143 
L 97.439697 -153.202857 
L 91.586868 -153.202857 
L 91.586868 -178.188571 
L 85.73404 -178.188571 
L 85.73404 -146.956429 
L 79.881212 -146.956429 
L 79.881212 -171.942143 
L 74.028383 -171.942143 
z
" id="mdc3563a1cf" style="stroke:#4c72b0;"/>
    </defs>
    <g clip-path="url(#pa08c7b1205)">
     <use style="fill:#4c72b0;fill-opacity:0.5;stroke:#4c72b0;" x="0" xlink:href="#mdc3563a1cf" y="432"/>
    </g>
   </g>
   <g id="line2d_54">
    <path clip-path="url(#pa08c7b1205)" d="M 74.028383 323.234031 
L 76.912105 312.778926 
L 79.074896 305.606946 
L 81.237687 299.326048 
L 82.679548 295.738652 
L 84.121409 292.677265 
L 85.56327 290.158339 
L 87.00513 288.177802 
L 88.446991 286.712421 
L 89.888852 285.722305 
L 91.330713 285.154319 
L 92.772573 284.946096 
L 94.214434 285.030306 
L 95.656295 285.338823 
L 97.819086 286.081088 
L 105.749321 289.235759 
L 107.912112 289.80999 
L 110.074903 290.19212 
L 112.237694 290.369565 
L 114.400485 290.327676 
L 116.563276 290.044384 
L 118.726068 289.489263 
L 120.888859 288.626348 
L 123.05165 287.419806 
L 125.214441 285.841674 
L 127.377232 283.880986 
L 129.540024 281.553495 
L 131.702815 278.910802 
L 135.307467 274.082641 
L 138.912119 269.368873 
L 141.07491 266.994068 
L 142.516771 265.740394 
L 143.958631 264.826485 
L 145.400492 264.3109 
L 146.121423 264.218289 
L 146.842353 264.242808 
L 147.563283 264.38869 
L 148.284214 264.65927 
L 149.005144 265.056934 
L 150.447005 266.238112 
L 151.888866 267.931261 
L 153.330727 270.119231 
L 154.772587 272.769415 
L 156.214448 275.835269 
L 158.377239 281.083311 
L 161.260961 288.923264 
L 167.749335 307.171801 
L 169.912126 312.656024 
L 172.074917 317.587504 
L 174.237708 321.901912 
L 176.400499 325.597676 
L 178.56329 328.731416 
L 180.726082 331.407379 
L 183.609803 334.500403 
L 190.819107 341.880044 
L 193.702829 345.250022 
L 197.307481 349.85169 
L 204.516785 359.218576 
L 207.400506 362.558668 
L 210.284228 365.51412 
L 213.167949 368.070897 
L 216.051671 370.257924 
L 217.493532 371.226872 
L 217.493532 371.226872 
" style="fill:none;stroke:#4c72b0;stroke-linecap:round;stroke-width:1.5;"/>
   </g>
   <g id="line2d_55">
    <path clip-path="url(#pa08c7b1205)" d="M 146.121423 378.74 
L 146.121423 221.33 
" style="fill:none;stroke:#c44e52;stroke-linecap:round;stroke-opacity:0.5;stroke-width:1.5;"/>
   </g>
   <g id="patch_15">
    <path d="M 53.46 378.74 
L 53.46 221.33 
" style="fill:none;stroke:#ffffff;stroke-linecap:square;stroke-linejoin:miter;stroke-width:1.25;"/>
   </g>
   <g id="patch_16">
    <path d="M 53.46 378.74 
L 243.135 378.74 
" style="fill:none;stroke:#ffffff;stroke-linecap:square;stroke-linejoin:miter;stroke-width:1.25;"/>
   </g>
   <g id="text_27">
    <!-- 136.4 -->
    <g style="fill:#c44e52;opacity:0.5;" transform="translate(143.625798 373.365125)rotate(-90)scale(0.12 -0.12)">
     <use xlink:href="#DejaVuSans-49"/>
     <use x="63.623047" xlink:href="#DejaVuSans-51"/>
     <use x="127.246094" xlink:href="#DejaVuSans-54"/>
     <use x="190.869141" xlink:href="#DejaVuSans-46"/>
     <use x="222.65625" xlink:href="#DejaVuSans-52"/>
    </g>
   </g>
   <g id="text_28">
    <!-- Segment 5 -->
    <g style="fill:#262626;" transform="translate(115.572188 215.33)scale(0.12 -0.12)">
     <use xlink:href="#DejaVuSans-83"/>
     <use x="63.476562" xlink:href="#DejaVuSans-101"/>
     <use x="125" xlink:href="#DejaVuSans-103"/>
     <use x="188.476562" xlink:href="#DejaVuSans-109"/>
     <use x="285.888672" xlink:href="#DejaVuSans-101"/>
     <use x="347.412109" xlink:href="#DejaVuSans-110"/>
     <use x="410.791016" xlink:href="#DejaVuSans-116"/>
     <use x="450" xlink:href="#DejaVuSans-32"/>
     <use x="481.787109" xlink:href="#DejaVuSans-53"/>
    </g>
   </g>
  </g>
  <g id="axes_6">
   <g id="patch_17">
    <path d="M 256.095 378.74 
L 445.77 378.74 
L 445.77 221.33 
L 256.095 221.33 
z
" style="fill:#eaeaf2;"/>
   </g>
   <g id="matplotlib.axis_11">
    <g id="xtick_151">
     <g id="line2d_56">
      <path clip-path="url(#pe53f3fbd4d)" d="M 282.33536 378.74 
L 282.33536 221.33 
" style="fill:none;stroke:#ffffff;stroke-linecap:round;"/>
     </g>
     <g id="text_29">
      <!-- $\mathdefault{10^{1}}$ -->
      <g style="fill:#262626;" transform="translate(272.65536 396.598281)scale(0.11 -0.11)">
       <use transform="translate(0 0.684375)" xlink:href="#DejaVuSans-49"/>
       <use transform="translate(63.623047 0.684375)" xlink:href="#DejaVuSans-48"/>
       <use transform="translate(128.203125 38.965625)scale(0.7)" xlink:href="#DejaVuSans-49"/>
      </g>
     </g>
    </g>
    <g id="xtick_152">
     <g id="line2d_57">
      <path clip-path="url(#pe53f3fbd4d)" d="M 340.863644 378.74 
L 340.863644 221.33 
" style="fill:none;stroke:#ffffff;stroke-linecap:round;"/>
     </g>
     <g id="text_30">
      <!-- $\mathdefault{10^{2}}$ -->
      <g style="fill:#262626;" transform="translate(331.183644 396.598281)scale(0.11 -0.11)">
       <use transform="translate(0 0.765625)" xlink:href="#DejaVuSans-49"/>
       <use transform="translate(63.623047 0.765625)" xlink:href="#DejaVuSans-48"/>
       <use transform="translate(128.203125 39.046875)scale(0.7)" xlink:href="#DejaVuSans-50"/>
      </g>
     </g>
    </g>
    <g id="xtick_153">
     <g id="line2d_58">
      <path clip-path="url(#pe53f3fbd4d)" d="M 399.391928 378.74 
L 399.391928 221.33 
" style="fill:none;stroke:#ffffff;stroke-linecap:round;"/>
     </g>
     <g id="text_31">
      <!-- $\mathdefault{10^{3}}$ -->
      <g style="fill:#262626;" transform="translate(389.711928 396.598281)scale(0.11 -0.11)">
       <use transform="translate(0 0.765625)" xlink:href="#DejaVuSans-49"/>
       <use transform="translate(63.623047 0.765625)" xlink:href="#DejaVuSans-48"/>
       <use transform="translate(128.203125 39.046875)scale(0.7)" xlink:href="#DejaVuSans-51"/>
      </g>
     </g>
    </g>
    <g id="xtick_154"/>
    <g id="xtick_155"/>
    <g id="xtick_156"/>
    <g id="xtick_157"/>
    <g id="xtick_158"/>
    <g id="xtick_159"/>
    <g id="xtick_160"/>
    <g id="xtick_161"/>
    <g id="xtick_162"/>
    <g id="xtick_163"/>
    <g id="xtick_164"/>
    <g id="xtick_165"/>
    <g id="xtick_166"/>
    <g id="xtick_167"/>
    <g id="xtick_168"/>
    <g id="xtick_169"/>
    <g id="xtick_170"/>
    <g id="xtick_171"/>
    <g id="xtick_172"/>
    <g id="xtick_173"/>
    <g id="xtick_174"/>
    <g id="xtick_175"/>
    <g id="xtick_176"/>
    <g id="xtick_177"/>
    <g id="xtick_178"/>
    <g id="xtick_179"/>
    <g id="xtick_180"/>
    <g id="text_32">
     <!-- Count -->
     <g style="fill:#262626;" transform="translate(333.114375 412.004063)scale(0.12 -0.12)">
      <use xlink:href="#DejaVuSans-67"/>
      <use x="69.824219" xlink:href="#DejaVuSans-111"/>
      <use x="131.005859" xlink:href="#DejaVuSans-117"/>
      <use x="194.384766" xlink:href="#DejaVuSans-110"/>
      <use x="257.763672" xlink:href="#DejaVuSans-116"/>
     </g>
    </g>
   </g>
   <g id="matplotlib.axis_12">
    <g id="ytick_31">
     <g id="line2d_59">
      <path clip-path="url(#pe53f3fbd4d)" d="M 256.095 378.74 
L 445.77 378.74 
" style="fill:none;stroke:#ffffff;stroke-linecap:round;"/>
     </g>
    </g>
    <g id="ytick_32">
     <g id="line2d_60">
      <path clip-path="url(#pe53f3fbd4d)" d="M 256.095 347.507857 
L 445.77 347.507857 
" style="fill:none;stroke:#ffffff;stroke-linecap:round;"/>
     </g>
    </g>
    <g id="ytick_33">
     <g id="line2d_61">
      <path clip-path="url(#pe53f3fbd4d)" d="M 256.095 316.275714 
L 445.77 316.275714 
" style="fill:none;stroke:#ffffff;stroke-linecap:round;"/>
     </g>
    </g>
    <g id="ytick_34">
     <g id="line2d_62">
      <path clip-path="url(#pe53f3fbd4d)" d="M 256.095 285.043571 
L 445.77 285.043571 
" style="fill:none;stroke:#ffffff;stroke-linecap:round;"/>
     </g>
    </g>
    <g id="ytick_35">
     <g id="line2d_63">
      <path clip-path="url(#pe53f3fbd4d)" d="M 256.095 253.811429 
L 445.77 253.811429 
" style="fill:none;stroke:#ffffff;stroke-linecap:round;"/>
     </g>
    </g>
    <g id="ytick_36">
     <g id="line2d_64">
      <path clip-path="url(#pe53f3fbd4d)" d="M 256.095 222.579286 
L 445.77 222.579286 
" style="fill:none;stroke:#ffffff;stroke-linecap:round;"/>
     </g>
    </g>
   </g>
   <g id="PolyCollection_6">
    <defs>
     <path d="M 269.350933 -71.999286 
L 269.350933 -53.26 
L 275.203762 -53.26 
L 275.203762 -53.26 
L 281.05659 -53.26 
L 281.05659 -53.26 
L 286.909419 -53.26 
L 286.909419 -53.26 
L 292.762247 -53.26 
L 292.762247 -53.26 
L 298.615075 -53.26 
L 298.615075 -53.26 
L 304.467904 -53.26 
L 304.467904 -53.26 
L 310.320732 -53.26 
L 310.320732 -53.26 
L 316.173561 -53.26 
L 316.173561 -53.26 
L 322.026389 -53.26 
L 322.026389 -53.26 
L 327.879217 -53.26 
L 327.879217 -53.26 
L 333.732046 -53.26 
L 333.732046 -53.26 
L 339.584874 -53.26 
L 339.584874 -53.26 
L 345.437702 -53.26 
L 345.437702 -53.26 
L 351.290531 -53.26 
L 351.290531 -53.26 
L 357.143359 -53.26 
L 357.143359 -53.26 
L 362.996188 -53.26 
L 362.996188 -53.26 
L 368.849016 -53.26 
L 368.849016 -53.26 
L 374.701844 -53.26 
L 374.701844 -53.26 
L 380.554673 -53.26 
L 380.554673 -53.26 
L 386.407501 -53.26 
L 386.407501 -53.26 
L 392.26033 -53.26 
L 392.26033 -53.26 
L 398.113158 -53.26 
L 398.113158 -53.26 
L 403.965986 -53.26 
L 403.965986 -53.26 
L 409.818815 -53.26 
L 409.818815 -53.26 
L 415.671643 -53.26 
L 415.671643 -53.26 
L 421.524472 -53.26 
L 421.524472 -53.26 
L 427.3773 -53.26 
L 427.3773 -53.26 
L 427.3773 -59.506429 
L 427.3773 -59.506429 
L 427.3773 -59.506429 
L 421.524472 -59.506429 
L 421.524472 -53.26 
L 415.671643 -53.26 
L 415.671643 -59.506429 
L 409.818815 -59.506429 
L 409.818815 -78.245714 
L 403.965986 -78.245714 
L 403.965986 -71.999286 
L 398.113158 -71.999286 
L 398.113158 -96.985 
L 392.26033 -96.985 
L 392.26033 -103.231429 
L 386.407501 -103.231429 
L 386.407501 -146.956429 
L 380.554673 -146.956429 
L 380.554673 -103.231429 
L 374.701844 -103.231429 
L 374.701844 -96.985 
L 368.849016 -96.985 
L 368.849016 -128.217143 
L 362.996188 -128.217143 
L 362.996188 -178.188571 
L 357.143359 -178.188571 
L 357.143359 -128.217143 
L 351.290531 -128.217143 
L 351.290531 -140.71 
L 345.437702 -140.71 
L 345.437702 -146.956429 
L 339.584874 -146.956429 
L 339.584874 -128.217143 
L 333.732046 -128.217143 
L 333.732046 -140.71 
L 327.879217 -140.71 
L 327.879217 -134.463571 
L 322.026389 -134.463571 
L 322.026389 -109.477857 
L 316.173561 -109.477857 
L 316.173561 -146.956429 
L 310.320732 -146.956429 
L 310.320732 -121.970714 
L 304.467904 -121.970714 
L 304.467904 -109.477857 
L 298.615075 -109.477857 
L 298.615075 -115.724286 
L 292.762247 -115.724286 
L 292.762247 -134.463571 
L 286.909419 -134.463571 
L 286.909419 -96.985 
L 281.05659 -96.985 
L 281.05659 -146.956429 
L 275.203762 -146.956429 
L 275.203762 -71.999286 
L 269.350933 -71.999286 
z
" id="m3588152793" style="stroke:#4c72b0;"/>
    </defs>
    <g clip-path="url(#pe53f3fbd4d)">
     <use style="fill:#4c72b0;fill-opacity:0.5;stroke:#4c72b0;" x="0" xlink:href="#m3588152793" y="432"/>
    </g>
   </g>
   <g id="line2d_65">
    <path clip-path="url(#pe53f3fbd4d)" d="M 269.350933 351.460525 
L 277.116418 334.728453 
L 279.446064 330.284781 
L 281.775709 326.352545 
L 284.105355 322.991125 
L 285.658452 321.071601 
L 287.211549 319.397985 
L 288.764646 317.951783 
L 291.094291 316.154831 
L 293.423937 314.719123 
L 295.753582 313.54569 
L 298.859776 312.233983 
L 315.943843 305.505009 
L 320.603134 303.297482 
L 325.262425 300.819018 
L 336.910653 294.344874 
L 340.016847 293.023874 
L 342.346492 292.269186 
L 344.676138 291.756007 
L 347.005783 291.517522 
L 349.335429 291.587725 
L 350.888526 291.823276 
L 352.441623 292.221362 
L 353.99472 292.790198 
L 355.547817 293.535102 
L 357.100914 294.457105 
L 359.430559 296.160587 
L 361.760205 298.208566 
L 364.866399 301.343559 
L 377.291175 314.543555 
L 381.950466 319.338907 
L 385.05666 322.900377 
L 387.386305 325.891188 
L 389.715951 329.191847 
L 392.822145 334.045234 
L 396.704887 340.629702 
L 403.693824 352.601031 
L 406.800018 357.433723 
L 409.129663 360.720651 
L 411.459308 363.677427 
L 413.788954 366.288144 
L 416.118599 368.553702 
L 418.448245 370.488751 
L 420.77789 372.118203 
L 423.107536 373.473571 
L 423.884084 373.870404 
L 423.884084 373.870404 
" style="fill:none;stroke:#4c72b0;stroke-linecap:round;stroke-width:1.5;"/>
   </g>
   <g id="line2d_66">
    <path clip-path="url(#pe53f3fbd4d)" d="M 347.782332 378.74 
L 347.782332 221.33 
" style="fill:none;stroke:#c44e52;stroke-linecap:round;stroke-opacity:0.5;stroke-width:1.5;"/>
   </g>
   <g id="patch_18">
    <path d="M 256.095 378.74 
L 256.095 221.33 
" style="fill:none;stroke:#ffffff;stroke-linecap:square;stroke-linejoin:miter;stroke-width:1.25;"/>
   </g>
   <g id="patch_19">
    <path d="M 256.095 378.74 
L 445.77 378.74 
" style="fill:none;stroke:#ffffff;stroke-linecap:square;stroke-linejoin:miter;stroke-width:1.25;"/>
   </g>
   <g id="text_33">
    <!-- 131.3 -->
    <g style="fill:#c44e52;opacity:0.5;" transform="translate(345.286707 373.365125)rotate(-90)scale(0.12 -0.12)">
     <use xlink:href="#DejaVuSans-49"/>
     <use x="63.623047" xlink:href="#DejaVuSans-51"/>
     <use x="127.246094" xlink:href="#DejaVuSans-49"/>
     <use x="190.869141" xlink:href="#DejaVuSans-46"/>
     <use x="222.65625" xlink:href="#DejaVuSans-51"/>
    </g>
   </g>
   <g id="text_34">
    <!-- Segment 6 -->
    <g style="fill:#262626;" transform="translate(318.207188 215.33)scale(0.12 -0.12)">
     <use xlink:href="#DejaVuSans-83"/>
     <use x="63.476562" xlink:href="#DejaVuSans-101"/>
     <use x="125" xlink:href="#DejaVuSans-103"/>
     <use x="188.476562" xlink:href="#DejaVuSans-109"/>
     <use x="285.888672" xlink:href="#DejaVuSans-101"/>
     <use x="347.412109" xlink:href="#DejaVuSans-110"/>
     <use x="410.791016" xlink:href="#DejaVuSans-116"/>
     <use x="450" xlink:href="#DejaVuSans-32"/>
     <use x="481.787109" xlink:href="#DejaVuSans-54"/>
    </g>
   </g>
  </g>
  <g id="axes_7">
   <g id="patch_20">
    <path d="M 458.73 378.74 
L 648.405 378.74 
L 648.405 221.33 
L 458.73 221.33 
z
" style="fill:#eaeaf2;"/>
   </g>
   <g id="matplotlib.axis_13">
    <g id="xtick_181">
     <g id="line2d_67">
      <path clip-path="url(#pa451e79eec)" d="M 484.97036 378.74 
L 484.97036 221.33 
" style="fill:none;stroke:#ffffff;stroke-linecap:round;"/>
     </g>
     <g id="text_35">
      <!-- $\mathdefault{10^{1}}$ -->
      <g style="fill:#262626;" transform="translate(475.29036 396.598281)scale(0.11 -0.11)">
       <use transform="translate(0 0.684375)" xlink:href="#DejaVuSans-49"/>
       <use transform="translate(63.623047 0.684375)" xlink:href="#DejaVuSans-48"/>
       <use transform="translate(128.203125 38.965625)scale(0.7)" xlink:href="#DejaVuSans-49"/>
      </g>
     </g>
    </g>
    <g id="xtick_182">
     <g id="line2d_68">
      <path clip-path="url(#pa451e79eec)" d="M 543.498644 378.74 
L 543.498644 221.33 
" style="fill:none;stroke:#ffffff;stroke-linecap:round;"/>
     </g>
     <g id="text_36">
      <!-- $\mathdefault{10^{2}}$ -->
      <g style="fill:#262626;" transform="translate(533.818644 396.598281)scale(0.11 -0.11)">
       <use transform="translate(0 0.765625)" xlink:href="#DejaVuSans-49"/>
       <use transform="translate(63.623047 0.765625)" xlink:href="#DejaVuSans-48"/>
       <use transform="translate(128.203125 39.046875)scale(0.7)" xlink:href="#DejaVuSans-50"/>
      </g>
     </g>
    </g>
    <g id="xtick_183">
     <g id="line2d_69">
      <path clip-path="url(#pa451e79eec)" d="M 602.026928 378.74 
L 602.026928 221.33 
" style="fill:none;stroke:#ffffff;stroke-linecap:round;"/>
     </g>
     <g id="text_37">
      <!-- $\mathdefault{10^{3}}$ -->
      <g style="fill:#262626;" transform="translate(592.346928 396.598281)scale(0.11 -0.11)">
       <use transform="translate(0 0.765625)" xlink:href="#DejaVuSans-49"/>
       <use transform="translate(63.623047 0.765625)" xlink:href="#DejaVuSans-48"/>
       <use transform="translate(128.203125 39.046875)scale(0.7)" xlink:href="#DejaVuSans-51"/>
      </g>
     </g>
    </g>
    <g id="xtick_184"/>
    <g id="xtick_185"/>
    <g id="xtick_186"/>
    <g id="xtick_187"/>
    <g id="xtick_188"/>
    <g id="xtick_189"/>
    <g id="xtick_190"/>
    <g id="xtick_191"/>
    <g id="xtick_192"/>
    <g id="xtick_193"/>
    <g id="xtick_194"/>
    <g id="xtick_195"/>
    <g id="xtick_196"/>
    <g id="xtick_197"/>
    <g id="xtick_198"/>
    <g id="xtick_199"/>
    <g id="xtick_200"/>
    <g id="xtick_201"/>
    <g id="xtick_202"/>
    <g id="xtick_203"/>
    <g id="xtick_204"/>
    <g id="xtick_205"/>
    <g id="xtick_206"/>
    <g id="xtick_207"/>
    <g id="xtick_208"/>
    <g id="xtick_209"/>
    <g id="xtick_210"/>
    <g id="text_38">
     <!-- Count -->
     <g style="fill:#262626;" transform="translate(535.749375 412.004063)scale(0.12 -0.12)">
      <use xlink:href="#DejaVuSans-67"/>
      <use x="69.824219" xlink:href="#DejaVuSans-111"/>
      <use x="131.005859" xlink:href="#DejaVuSans-117"/>
      <use x="194.384766" xlink:href="#DejaVuSans-110"/>
      <use x="257.763672" xlink:href="#DejaVuSans-116"/>
     </g>
    </g>
   </g>
   <g id="matplotlib.axis_14">
    <g id="ytick_37">
     <g id="line2d_70">
      <path clip-path="url(#pa451e79eec)" d="M 458.73 378.74 
L 648.405 378.74 
" style="fill:none;stroke:#ffffff;stroke-linecap:round;"/>
     </g>
    </g>
    <g id="ytick_38">
     <g id="line2d_71">
      <path clip-path="url(#pa451e79eec)" d="M 458.73 347.507857 
L 648.405 347.507857 
" style="fill:none;stroke:#ffffff;stroke-linecap:round;"/>
     </g>
    </g>
    <g id="ytick_39">
     <g id="line2d_72">
      <path clip-path="url(#pa451e79eec)" d="M 458.73 316.275714 
L 648.405 316.275714 
" style="fill:none;stroke:#ffffff;stroke-linecap:round;"/>
     </g>
    </g>
    <g id="ytick_40">
     <g id="line2d_73">
      <path clip-path="url(#pa451e79eec)" d="M 458.73 285.043571 
L 648.405 285.043571 
" style="fill:none;stroke:#ffffff;stroke-linecap:round;"/>
     </g>
    </g>
    <g id="ytick_41">
     <g id="line2d_74">
      <path clip-path="url(#pa451e79eec)" d="M 458.73 253.811429 
L 648.405 253.811429 
" style="fill:none;stroke:#ffffff;stroke-linecap:round;"/>
     </g>
    </g>
    <g id="ytick_42">
     <g id="line2d_75">
      <path clip-path="url(#pa451e79eec)" d="M 458.73 222.579286 
L 648.405 222.579286 
" style="fill:none;stroke:#ffffff;stroke-linecap:round;"/>
     </g>
    </g>
   </g>
   <g id="PolyCollection_7">
    <defs>
     <path d="M 475.904214 -153.202857 
L 475.904214 -53.26 
L 481.757042 -53.26 
L 481.757042 -53.26 
L 487.609871 -53.26 
L 487.609871 -53.26 
L 493.462699 -53.26 
L 493.462699 -53.26 
L 499.315528 -53.26 
L 499.315528 -53.26 
L 505.168356 -53.26 
L 505.168356 -53.26 
L 511.021184 -53.26 
L 511.021184 -53.26 
L 516.874013 -53.26 
L 516.874013 -53.26 
L 522.726841 -53.26 
L 522.726841 -53.26 
L 528.57967 -53.26 
L 528.57967 -53.26 
L 534.432498 -53.26 
L 534.432498 -53.26 
L 540.285326 -53.26 
L 540.285326 -53.26 
L 546.138155 -53.26 
L 546.138155 -53.26 
L 551.990983 -53.26 
L 551.990983 -53.26 
L 557.843812 -53.26 
L 557.843812 -53.26 
L 563.69664 -53.26 
L 563.69664 -53.26 
L 569.549468 -53.26 
L 569.549468 -53.26 
L 575.402297 -53.26 
L 575.402297 -53.26 
L 581.255125 -53.26 
L 581.255125 -53.26 
L 587.107954 -53.26 
L 587.107954 -53.26 
L 592.960782 -53.26 
L 592.960782 -53.26 
L 598.81361 -53.26 
L 598.81361 -53.26 
L 604.666439 -53.26 
L 604.666439 -53.26 
L 610.519267 -53.26 
L 610.519267 -53.26 
L 616.372096 -53.26 
L 616.372096 -53.26 
L 622.224924 -53.26 
L 622.224924 -53.26 
L 628.077752 -53.26 
L 628.077752 -53.26 
L 633.930581 -53.26 
L 633.930581 -53.26 
L 633.930581 -59.506429 
L 633.930581 -59.506429 
L 633.930581 -59.506429 
L 628.077752 -59.506429 
L 628.077752 -59.506429 
L 622.224924 -59.506429 
L 622.224924 -59.506429 
L 616.372096 -59.506429 
L 616.372096 -78.245714 
L 610.519267 -78.245714 
L 610.519267 -65.752857 
L 604.666439 -65.752857 
L 604.666439 -65.752857 
L 598.81361 -65.752857 
L 598.81361 -96.985 
L 592.960782 -96.985 
L 592.960782 -84.492143 
L 587.107954 -84.492143 
L 587.107954 -84.492143 
L 581.255125 -84.492143 
L 581.255125 -140.71 
L 575.402297 -140.71 
L 575.402297 -109.477857 
L 569.549468 -109.477857 
L 569.549468 -109.477857 
L 563.69664 -109.477857 
L 563.69664 -153.202857 
L 557.843812 -153.202857 
L 557.843812 -159.449286 
L 551.990983 -159.449286 
L 551.990983 -146.956429 
L 546.138155 -146.956429 
L 546.138155 -178.188571 
L 540.285326 -178.188571 
L 540.285326 -184.435 
L 534.432498 -184.435 
L 534.432498 -140.71 
L 528.57967 -140.71 
L 528.57967 -140.71 
L 522.726841 -140.71 
L 522.726841 -203.174286 
L 516.874013 -203.174286 
L 516.874013 -121.970714 
L 511.021184 -121.970714 
L 511.021184 -153.202857 
L 505.168356 -153.202857 
L 505.168356 -178.188571 
L 499.315528 -178.188571 
L 499.315528 -159.449286 
L 493.462699 -159.449286 
L 493.462699 -146.956429 
L 487.609871 -146.956429 
L 487.609871 -203.174286 
L 481.757042 -203.174286 
L 481.757042 -153.202857 
L 475.904214 -153.202857 
z
" id="m9267af2fd7" style="stroke:#4c72b0;"/>
    </defs>
    <g clip-path="url(#pa451e79eec)">
     <use style="fill:#4c72b0;fill-opacity:0.5;stroke:#4c72b0;" x="0" xlink:href="#m9267af2fd7" y="432"/>
    </g>
   </g>
   <g id="line2d_76">
    <path clip-path="url(#pa451e79eec)" d="M 475.904214 319.723747 
L 478.967405 307.57145 
L 481.264799 299.248279 
L 482.796395 294.273743 
L 484.32799 289.847982 
L 485.859586 286.018772 
L 487.391182 282.806913 
L 488.922777 280.207089 
L 490.454373 278.190432 
L 491.985969 276.708389 
L 493.517564 275.697431 
L 495.04916 275.084122 
L 496.580756 274.790098 
L 498.112351 274.73661 
L 500.409745 274.944392 
L 506.536127 275.769999 
L 508.833521 275.80529 
L 511.130914 275.602902 
L 513.428308 275.171155 
L 516.491499 274.310269 
L 521.086286 272.688716 
L 527.212669 270.522769 
L 531.041658 269.394785 
L 534.104849 268.731831 
L 536.402243 268.455751 
L 538.699636 268.448828 
L 540.231232 268.633193 
L 541.762828 268.995984 
L 543.294423 269.558322 
L 544.826019 270.337932 
L 546.357615 271.348108 
L 547.88921 272.596952 
L 549.420806 274.086873 
L 550.952402 275.814334 
L 553.249795 278.828487 
L 555.547189 282.298193 
L 557.844582 286.142174 
L 560.907774 291.677045 
L 573.160539 314.360103 
L 577.755326 322.157568 
L 582.350113 329.512775 
L 586.179102 335.271692 
L 590.008091 340.632433 
L 593.83708 345.553384 
L 596.900272 349.162824 
L 599.963463 352.479213 
L 603.026654 355.5036 
L 606.089846 358.244054 
L 609.153037 360.720726 
L 612.982026 363.49478 
L 616.811015 365.977928 
L 621.405802 368.656558 
L 626.000589 371.061962 
L 628.297983 372.167533 
L 628.297983 372.167533 
" style="fill:none;stroke:#4c72b0;stroke-linecap:round;stroke-width:1.5;"/>
   </g>
   <g id="line2d_77">
    <path clip-path="url(#pa451e79eec)" d="M 537.933839 378.74 
L 537.933839 221.33 
" style="fill:none;stroke:#c44e52;stroke-linecap:round;stroke-opacity:0.5;stroke-width:1.5;"/>
   </g>
   <g id="patch_21">
    <path d="M 458.73 378.74 
L 458.73 221.33 
" style="fill:none;stroke:#ffffff;stroke-linecap:square;stroke-linejoin:miter;stroke-width:1.25;"/>
   </g>
   <g id="patch_22">
    <path d="M 458.73 378.74 
L 648.405 378.74 
" style="fill:none;stroke:#ffffff;stroke-linecap:square;stroke-linejoin:miter;stroke-width:1.25;"/>
   </g>
   <g id="text_39">
    <!-- 80.3 -->
    <g style="fill:#c44e52;opacity:0.5;" transform="translate(535.438214 373.365125)rotate(-90)scale(0.12 -0.12)">
     <defs>
      <path d="M 31.78125 34.625 
Q 24.75 34.625 20.71875 30.859375 
Q 16.703125 27.09375 16.703125 20.515625 
Q 16.703125 13.921875 20.71875 10.15625 
Q 24.75 6.390625 31.78125 6.390625 
Q 38.8125 6.390625 42.859375 10.171875 
Q 46.921875 13.96875 46.921875 20.515625 
Q 46.921875 27.09375 42.890625 30.859375 
Q 38.875 34.625 31.78125 34.625 
z
M 21.921875 38.8125 
Q 15.578125 40.375 12.03125 44.71875 
Q 8.5 49.078125 8.5 55.328125 
Q 8.5 64.0625 14.71875 69.140625 
Q 20.953125 74.21875 31.78125 74.21875 
Q 42.671875 74.21875 48.875 69.140625 
Q 55.078125 64.0625 55.078125 55.328125 
Q 55.078125 49.078125 51.53125 44.71875 
Q 48 40.375 41.703125 38.8125 
Q 48.828125 37.15625 52.796875 32.3125 
Q 56.78125 27.484375 56.78125 20.515625 
Q 56.78125 9.90625 50.3125 4.234375 
Q 43.84375 -1.421875 31.78125 -1.421875 
Q 19.734375 -1.421875 13.25 4.234375 
Q 6.78125 9.90625 6.78125 20.515625 
Q 6.78125 27.484375 10.78125 32.3125 
Q 14.796875 37.15625 21.921875 38.8125 
z
M 18.3125 54.390625 
Q 18.3125 48.734375 21.84375 45.5625 
Q 25.390625 42.390625 31.78125 42.390625 
Q 38.140625 42.390625 41.71875 45.5625 
Q 45.3125 48.734375 45.3125 54.390625 
Q 45.3125 60.0625 41.71875 63.234375 
Q 38.140625 66.40625 31.78125 66.40625 
Q 25.390625 66.40625 21.84375 63.234375 
Q 18.3125 60.0625 18.3125 54.390625 
z
" id="DejaVuSans-56"/>
     </defs>
     <use xlink:href="#DejaVuSans-56"/>
     <use x="63.623047" xlink:href="#DejaVuSans-48"/>
     <use x="127.246094" xlink:href="#DejaVuSans-46"/>
     <use x="159.033203" xlink:href="#DejaVuSans-51"/>
    </g>
   </g>
   <g id="text_40">
    <!-- Segment 7 -->
    <g style="fill:#262626;" transform="translate(520.842188 215.33)scale(0.12 -0.12)">
     <use xlink:href="#DejaVuSans-83"/>
     <use x="63.476562" xlink:href="#DejaVuSans-101"/>
     <use x="125" xlink:href="#DejaVuSans-103"/>
     <use x="188.476562" xlink:href="#DejaVuSans-109"/>
     <use x="285.888672" xlink:href="#DejaVuSans-101"/>
     <use x="347.412109" xlink:href="#DejaVuSans-110"/>
     <use x="410.791016" xlink:href="#DejaVuSans-116"/>
     <use x="450" xlink:href="#DejaVuSans-32"/>
     <use x="481.787109" xlink:href="#DejaVuSans-55"/>
    </g>
   </g>
  </g>
  <g id="axes_8">
   <g id="patch_23">
    <path d="M 661.365 378.74 
L 851.04 378.74 
L 851.04 221.33 
L 661.365 221.33 
z
" style="fill:#eaeaf2;"/>
   </g>
   <g id="matplotlib.axis_15">
    <g id="xtick_211">
     <g id="line2d_78">
      <path clip-path="url(#p39740b8f58)" d="M 687.60536 378.74 
L 687.60536 221.33 
" style="fill:none;stroke:#ffffff;stroke-linecap:round;"/>
     </g>
     <g id="text_41">
      <!-- $\mathdefault{10^{1}}$ -->
      <g style="fill:#262626;" transform="translate(677.92536 396.598281)scale(0.11 -0.11)">
       <use transform="translate(0 0.684375)" xlink:href="#DejaVuSans-49"/>
       <use transform="translate(63.623047 0.684375)" xlink:href="#DejaVuSans-48"/>
       <use transform="translate(128.203125 38.965625)scale(0.7)" xlink:href="#DejaVuSans-49"/>
      </g>
     </g>
    </g>
    <g id="xtick_212">
     <g id="line2d_79">
      <path clip-path="url(#p39740b8f58)" d="M 746.133644 378.74 
L 746.133644 221.33 
" style="fill:none;stroke:#ffffff;stroke-linecap:round;"/>
     </g>
     <g id="text_42">
      <!-- $\mathdefault{10^{2}}$ -->
      <g style="fill:#262626;" transform="translate(736.453644 396.598281)scale(0.11 -0.11)">
       <use transform="translate(0 0.765625)" xlink:href="#DejaVuSans-49"/>
       <use transform="translate(63.623047 0.765625)" xlink:href="#DejaVuSans-48"/>
       <use transform="translate(128.203125 39.046875)scale(0.7)" xlink:href="#DejaVuSans-50"/>
      </g>
     </g>
    </g>
    <g id="xtick_213">
     <g id="line2d_80">
      <path clip-path="url(#p39740b8f58)" d="M 804.661928 378.74 
L 804.661928 221.33 
" style="fill:none;stroke:#ffffff;stroke-linecap:round;"/>
     </g>
     <g id="text_43">
      <!-- $\mathdefault{10^{3}}$ -->
      <g style="fill:#262626;" transform="translate(794.981928 396.598281)scale(0.11 -0.11)">
       <use transform="translate(0 0.765625)" xlink:href="#DejaVuSans-49"/>
       <use transform="translate(63.623047 0.765625)" xlink:href="#DejaVuSans-48"/>
       <use transform="translate(128.203125 39.046875)scale(0.7)" xlink:href="#DejaVuSans-51"/>
      </g>
     </g>
    </g>
    <g id="xtick_214"/>
    <g id="xtick_215"/>
    <g id="xtick_216"/>
    <g id="xtick_217"/>
    <g id="xtick_218"/>
    <g id="xtick_219"/>
    <g id="xtick_220"/>
    <g id="xtick_221"/>
    <g id="xtick_222"/>
    <g id="xtick_223"/>
    <g id="xtick_224"/>
    <g id="xtick_225"/>
    <g id="xtick_226"/>
    <g id="xtick_227"/>
    <g id="xtick_228"/>
    <g id="xtick_229"/>
    <g id="xtick_230"/>
    <g id="xtick_231"/>
    <g id="xtick_232"/>
    <g id="xtick_233"/>
    <g id="xtick_234"/>
    <g id="xtick_235"/>
    <g id="xtick_236"/>
    <g id="xtick_237"/>
    <g id="xtick_238"/>
    <g id="xtick_239"/>
    <g id="xtick_240"/>
    <g id="text_44">
     <!-- Count -->
     <g style="fill:#262626;" transform="translate(738.384375 412.004063)scale(0.12 -0.12)">
      <use xlink:href="#DejaVuSans-67"/>
      <use x="69.824219" xlink:href="#DejaVuSans-111"/>
      <use x="131.005859" xlink:href="#DejaVuSans-117"/>
      <use x="194.384766" xlink:href="#DejaVuSans-110"/>
      <use x="257.763672" xlink:href="#DejaVuSans-116"/>
     </g>
    </g>
   </g>
   <g id="matplotlib.axis_16">
    <g id="ytick_43">
     <g id="line2d_81">
      <path clip-path="url(#p39740b8f58)" d="M 661.365 378.74 
L 851.04 378.74 
" style="fill:none;stroke:#ffffff;stroke-linecap:round;"/>
     </g>
    </g>
    <g id="ytick_44">
     <g id="line2d_82">
      <path clip-path="url(#p39740b8f58)" d="M 661.365 347.507857 
L 851.04 347.507857 
" style="fill:none;stroke:#ffffff;stroke-linecap:round;"/>
     </g>
    </g>
    <g id="ytick_45">
     <g id="line2d_83">
      <path clip-path="url(#p39740b8f58)" d="M 661.365 316.275714 
L 851.04 316.275714 
" style="fill:none;stroke:#ffffff;stroke-linecap:round;"/>
     </g>
    </g>
    <g id="ytick_46">
     <g id="line2d_84">
      <path clip-path="url(#p39740b8f58)" d="M 661.365 285.043571 
L 851.04 285.043571 
" style="fill:none;stroke:#ffffff;stroke-linecap:round;"/>
     </g>
    </g>
    <g id="ytick_47">
     <g id="line2d_85">
      <path clip-path="url(#p39740b8f58)" d="M 661.365 253.811429 
L 851.04 253.811429 
" style="fill:none;stroke:#ffffff;stroke-linecap:round;"/>
     </g>
    </g>
    <g id="ytick_48">
     <g id="line2d_86">
      <path clip-path="url(#p39740b8f58)" d="M 661.365 222.579286 
L 851.04 222.579286 
" style="fill:none;stroke:#ffffff;stroke-linecap:round;"/>
     </g>
    </g>
   </g>
   <g id="PolyCollection_8">
    <defs>
     <path d="M 669.986591 -59.506429 
L 669.986591 -53.26 
L 675.839419 -53.26 
L 675.839419 -53.26 
L 681.692248 -53.26 
L 681.692248 -53.26 
L 687.545076 -53.26 
L 687.545076 -53.26 
L 693.397904 -53.26 
L 693.397904 -53.26 
L 699.250733 -53.26 
L 699.250733 -53.26 
L 705.103561 -53.26 
L 705.103561 -53.26 
L 710.95639 -53.26 
L 710.95639 -53.26 
L 716.809218 -53.26 
L 716.809218 -53.26 
L 722.662046 -53.26 
L 722.662046 -53.26 
L 728.514875 -53.26 
L 728.514875 -53.26 
L 734.367703 -53.26 
L 734.367703 -53.26 
L 740.220532 -53.26 
L 740.220532 -53.26 
L 746.07336 -53.26 
L 746.07336 -53.26 
L 751.926188 -53.26 
L 751.926188 -53.26 
L 757.779017 -53.26 
L 757.779017 -53.26 
L 763.631845 -53.26 
L 763.631845 -53.26 
L 769.484674 -53.26 
L 769.484674 -53.26 
L 775.337502 -53.26 
L 775.337502 -53.26 
L 781.19033 -53.26 
L 781.19033 -53.26 
L 787.043159 -53.26 
L 787.043159 -53.26 
L 792.895987 -53.26 
L 792.895987 -53.26 
L 798.748816 -53.26 
L 798.748816 -53.26 
L 804.601644 -53.26 
L 804.601644 -53.26 
L 810.454472 -53.26 
L 810.454472 -53.26 
L 816.307301 -53.26 
L 816.307301 -53.26 
L 822.160129 -53.26 
L 822.160129 -53.26 
L 828.012958 -53.26 
L 828.012958 -53.26 
L 833.865786 -53.26 
L 833.865786 -53.26 
L 833.865786 -59.506429 
L 833.865786 -59.506429 
L 833.865786 -59.506429 
L 828.012958 -59.506429 
L 828.012958 -59.506429 
L 822.160129 -59.506429 
L 822.160129 -59.506429 
L 816.307301 -59.506429 
L 816.307301 -71.999286 
L 810.454472 -71.999286 
L 810.454472 -65.752857 
L 804.601644 -65.752857 
L 804.601644 -84.492143 
L 798.748816 -84.492143 
L 798.748816 -109.477857 
L 792.895987 -109.477857 
L 792.895987 -115.724286 
L 787.043159 -115.724286 
L 787.043159 -78.245714 
L 781.19033 -78.245714 
L 781.19033 -128.217143 
L 775.337502 -128.217143 
L 775.337502 -109.477857 
L 769.484674 -109.477857 
L 769.484674 -159.449286 
L 763.631845 -159.449286 
L 763.631845 -146.956429 
L 757.779017 -146.956429 
L 757.779017 -159.449286 
L 751.926188 -159.449286 
L 751.926188 -115.724286 
L 746.07336 -115.724286 
L 746.07336 -153.202857 
L 740.220532 -153.202857 
L 740.220532 -178.188571 
L 734.367703 -178.188571 
L 734.367703 -184.435 
L 728.514875 -184.435 
L 728.514875 -178.188571 
L 722.662046 -178.188571 
L 722.662046 -184.435 
L 716.809218 -184.435 
L 716.809218 -153.202857 
L 710.95639 -153.202857 
L 710.95639 -159.449286 
L 705.103561 -159.449286 
L 705.103561 -153.202857 
L 699.250733 -153.202857 
L 699.250733 -121.970714 
L 693.397904 -121.970714 
L 693.397904 -165.695714 
L 687.545076 -165.695714 
L 687.545076 -178.188571 
L 681.692248 -178.188571 
L 681.692248 -78.245714 
L 675.839419 -78.245714 
L 675.839419 -59.506429 
L 669.986591 -59.506429 
z
" id="m2c1bdf3fdb" style="stroke:#4c72b0;"/>
    </defs>
    <g clip-path="url(#p39740b8f58)">
     <use style="fill:#4c72b0;fill-opacity:0.5;stroke:#4c72b0;" x="0" xlink:href="#m2c1bdf3fdb" y="432"/>
    </g>
   </g>
   <g id="line2d_87">
    <path clip-path="url(#p39740b8f58)" d="M 669.986591 354.79648 
L 672.395631 347.774268 
L 674.80467 339.975208 
L 682.834803 312.89712 
L 685.243843 305.928522 
L 686.849869 301.848679 
L 688.455896 298.260873 
L 690.061922 295.165014 
L 691.667949 292.532624 
L 693.273975 290.310782 
L 694.880002 288.427793 
L 697.289041 286.054094 
L 705.319174 278.786231 
L 707.728214 276.135583 
L 710.940267 272.238559 
L 714.955333 267.315476 
L 717.364373 264.720228 
L 718.970399 263.275201 
L 720.576426 262.121608 
L 722.182452 261.299931 
L 723.788479 260.836197 
L 725.394505 260.741352 
L 727.000532 261.011755 
L 728.606558 261.630515 
L 730.212585 262.56938 
L 731.818611 263.790855 
L 733.424638 265.250334 
L 735.833677 267.776193 
L 739.848744 272.438087 
L 743.86381 276.971296 
L 746.27285 279.366746 
L 748.681889 281.436443 
L 751.090929 283.195904 
L 754.302982 285.224542 
L 758.318048 287.793309 
L 760.727088 289.675639 
L 762.333115 291.164549 
L 763.939141 292.869796 
L 766.348181 295.842338 
L 768.757221 299.262055 
L 771.969274 304.300515 
L 778.39338 314.556452 
L 781.605433 319.177353 
L 784.817486 323.3761 
L 793.650631 334.490246 
L 796.862684 339.023555 
L 801.680764 346.332103 
L 806.498843 353.542399 
L 808.907883 356.829463 
L 811.316923 359.799378 
L 813.725963 362.419792 
L 816.135002 364.69399 
L 818.544042 366.652438 
L 820.953082 368.3418 
L 824.165135 370.265185 
L 827.377188 371.912133 
L 829.786228 373.012573 
L 829.786228 373.012573 
" style="fill:none;stroke:#4c72b0;stroke-linecap:round;stroke-width:1.5;"/>
   </g>
   <g id="line2d_88">
    <path clip-path="url(#p39740b8f58)" d="M 725.394505 378.74 
L 725.394505 221.33 
" style="fill:none;stroke:#c44e52;stroke-linecap:round;stroke-opacity:0.5;stroke-width:1.5;"/>
   </g>
   <g id="patch_24">
    <path d="M 661.365 378.74 
L 661.365 221.33 
" style="fill:none;stroke:#ffffff;stroke-linecap:square;stroke-linejoin:miter;stroke-width:1.25;"/>
   </g>
   <g id="patch_25">
    <path d="M 661.365 378.74 
L 851.04 378.74 
" style="fill:none;stroke:#ffffff;stroke-linecap:square;stroke-linejoin:miter;stroke-width:1.25;"/>
   </g>
   <g id="text_45">
    <!-- 44.2 -->
    <g style="fill:#c44e52;opacity:0.5;" transform="translate(722.89888 373.365125)rotate(-90)scale(0.12 -0.12)">
     <use xlink:href="#DejaVuSans-52"/>
     <use x="63.623047" xlink:href="#DejaVuSans-52"/>
     <use x="127.246094" xlink:href="#DejaVuSans-46"/>
     <use x="159.033203" xlink:href="#DejaVuSans-50"/>
    </g>
   </g>
   <g id="text_46">
    <!-- Segment 8 -->
    <g style="fill:#262626;" transform="translate(723.477188 215.33)scale(0.12 -0.12)">
     <use xlink:href="#DejaVuSans-83"/>
     <use x="63.476562" xlink:href="#DejaVuSans-101"/>
     <use x="125" xlink:href="#DejaVuSans-103"/>
     <use x="188.476562" xlink:href="#DejaVuSans-109"/>
     <use x="285.888672" xlink:href="#DejaVuSans-101"/>
     <use x="347.412109" xlink:href="#DejaVuSans-110"/>
     <use x="410.791016" xlink:href="#DejaVuSans-116"/>
     <use x="450" xlink:href="#DejaVuSans-32"/>
     <use x="481.787109" xlink:href="#DejaVuSans-56"/>
    </g>
   </g>
  </g>
 </g>
 <defs>
  <clipPath id="p3eb621108d">
   <rect height="157.41" width="189.675" x="53.46" y="28.96"/>
  </clipPath>
  <clipPath id="pef31743829">
   <rect height="157.41" width="189.675" x="256.095" y="28.96"/>
  </clipPath>
  <clipPath id="p7f6877d602">
   <rect height="157.41" width="189.675" x="458.73" y="28.96"/>
  </clipPath>
  <clipPath id="p6931413f19">
   <rect height="157.41" width="189.675" x="661.365" y="28.96"/>
  </clipPath>
  <clipPath id="pa08c7b1205">
   <rect height="157.41" width="189.675" x="53.46" y="221.33"/>
  </clipPath>
  <clipPath id="pe53f3fbd4d">
   <rect height="157.41" width="189.675" x="256.095" y="221.33"/>
  </clipPath>
  <clipPath id="pa451e79eec">
   <rect height="157.41" width="189.675" x="458.73" y="221.33"/>
  </clipPath>
  <clipPath id="p39740b8f58">
   <rect height="157.41" width="189.675" x="661.365" y="221.33"/>
  </clipPath>
 </defs>
</svg>
