<?xml version="1.0" encoding="utf-8" standalone="no"?>
<!DOCTYPE svg PUBLIC "-//W3C//DTD SVG 1.1//EN"
  "http://www.w3.org/Graphics/SVG/1.1/DTD/svg11.dtd">
<!-- Created with matplotlib (https://matplotlib.org/) -->
<svg height="432pt" version="1.1" viewBox="0 0 864 432" width="864pt" xmlns="http://www.w3.org/2000/svg" xmlns:xlink="http://www.w3.org/1999/xlink">
 <metadata>
  <rdf:RDF xmlns:cc="http://creativecommons.org/ns#" xmlns:dc="http://purl.org/dc/elements/1.1/" xmlns:rdf="http://www.w3.org/1999/02/22-rdf-syntax-ns#">
   <cc:Work>
    <dc:type rdf:resource="http://purl.org/dc/dcmitype/StillImage"/>
    <dc:date>2021-02-05T16:00:39.936188</dc:date>
    <dc:format>image/svg+xml</dc:format>
    <dc:creator>
     <cc:Agent>
      <dc:title>Matplotlib v3.3.4, https://matplotlib.org/</dc:title>
     </cc:Agent>
    </dc:creator>
   </cc:Work>
  </rdf:RDF>
 </metadata>
 <defs>
  <style type="text/css">*{stroke-linecap:butt;stroke-linejoin:round;}</style>
 </defs>
 <g id="figure_1">
  <g id="patch_1">
   <path d="M 0 432 
L 864 432 
L 864 0 
L 0 0 
z
" style="fill:#ffffff;"/>
  </g>
  <g id="axes_1">
   <g id="patch_2">
    <path d="M 56.835 190.594746 
L 242.877842 190.594746 
L 242.877842 28.96 
L 56.835 28.96 
z
" style="fill:#eaeaf2;"/>
   </g>
   <g id="matplotlib.axis_1">
    <g id="xtick_1">
     <g id="line2d_1">
      <path clip-path="url(#p3bebd3ccea)" d="M 65.291493 190.594746 
L 65.291493 28.96 
" style="fill:none;stroke:#ffffff;stroke-linecap:round;"/>
     </g>
    </g>
    <g id="xtick_2">
     <g id="line2d_2">
      <path clip-path="url(#p3bebd3ccea)" d="M 108.658123 190.594746 
L 108.658123 28.96 
" style="fill:none;stroke:#ffffff;stroke-linecap:round;"/>
     </g>
    </g>
    <g id="xtick_3">
     <g id="line2d_3">
      <path clip-path="url(#p3bebd3ccea)" d="M 152.024753 190.594746 
L 152.024753 28.96 
" style="fill:none;stroke:#ffffff;stroke-linecap:round;"/>
     </g>
    </g>
    <g id="xtick_4">
     <g id="line2d_4">
      <path clip-path="url(#p3bebd3ccea)" d="M 195.391382 190.594746 
L 195.391382 28.96 
" style="fill:none;stroke:#ffffff;stroke-linecap:round;"/>
     </g>
    </g>
    <g id="xtick_5">
     <g id="line2d_5">
      <path clip-path="url(#p3bebd3ccea)" d="M 238.758012 190.594746 
L 238.758012 28.96 
" style="fill:none;stroke:#ffffff;stroke-linecap:round;"/>
     </g>
    </g>
   </g>
   <g id="matplotlib.axis_2">
    <g id="ytick_1">
     <g id="line2d_6">
      <path clip-path="url(#p3bebd3ccea)" d="M 56.835 186.174581 
L 242.877842 186.174581 
" style="fill:none;stroke:#ffffff;stroke-linecap:round;"/>
     </g>
     <g id="text_1">
      <!-- 0.0 -->
      <g style="fill:#262626;" transform="translate(29.841563 190.353721)scale(0.11 -0.11)">
       <defs>
        <path d="M 31.78125 66.40625 
Q 24.171875 66.40625 20.328125 58.90625 
Q 16.5 51.421875 16.5 36.375 
Q 16.5 21.390625 20.328125 13.890625 
Q 24.171875 6.390625 31.78125 6.390625 
Q 39.453125 6.390625 43.28125 13.890625 
Q 47.125 21.390625 47.125 36.375 
Q 47.125 51.421875 43.28125 58.90625 
Q 39.453125 66.40625 31.78125 66.40625 
z
M 31.78125 74.21875 
Q 44.046875 74.21875 50.515625 64.515625 
Q 56.984375 54.828125 56.984375 36.375 
Q 56.984375 17.96875 50.515625 8.265625 
Q 44.046875 -1.421875 31.78125 -1.421875 
Q 19.53125 -1.421875 13.0625 8.265625 
Q 6.59375 17.96875 6.59375 36.375 
Q 6.59375 54.828125 13.0625 64.515625 
Q 19.53125 74.21875 31.78125 74.21875 
z
" id="DejaVuSans-48"/>
        <path d="M 10.6875 12.40625 
L 21 12.40625 
L 21 0 
L 10.6875 0 
z
" id="DejaVuSans-46"/>
       </defs>
       <use xlink:href="#DejaVuSans-48"/>
       <use x="63.623047" xlink:href="#DejaVuSans-46"/>
       <use x="95.410156" xlink:href="#DejaVuSans-48"/>
      </g>
     </g>
    </g>
    <g id="ytick_2">
     <g id="line2d_7">
      <path clip-path="url(#p3bebd3ccea)" d="M 56.835 152.069981 
L 242.877842 152.069981 
" style="fill:none;stroke:#ffffff;stroke-linecap:round;"/>
     </g>
     <g id="text_2">
      <!-- 0.2 -->
      <g style="fill:#262626;" transform="translate(29.841563 156.249122)scale(0.11 -0.11)">
       <defs>
        <path d="M 19.1875 8.296875 
L 53.609375 8.296875 
L 53.609375 0 
L 7.328125 0 
L 7.328125 8.296875 
Q 12.9375 14.109375 22.625 23.890625 
Q 32.328125 33.6875 34.8125 36.53125 
Q 39.546875 41.84375 41.421875 45.53125 
Q 43.3125 49.21875 43.3125 52.78125 
Q 43.3125 58.59375 39.234375 62.25 
Q 35.15625 65.921875 28.609375 65.921875 
Q 23.96875 65.921875 18.8125 64.3125 
Q 13.671875 62.703125 7.8125 59.421875 
L 7.8125 69.390625 
Q 13.765625 71.78125 18.9375 73 
Q 24.125 74.21875 28.421875 74.21875 
Q 39.75 74.21875 46.484375 68.546875 
Q 53.21875 62.890625 53.21875 53.421875 
Q 53.21875 48.921875 51.53125 44.890625 
Q 49.859375 40.875 45.40625 35.40625 
Q 44.1875 33.984375 37.640625 27.21875 
Q 31.109375 20.453125 19.1875 8.296875 
z
" id="DejaVuSans-50"/>
       </defs>
       <use xlink:href="#DejaVuSans-48"/>
       <use x="63.623047" xlink:href="#DejaVuSans-46"/>
       <use x="95.410156" xlink:href="#DejaVuSans-50"/>
      </g>
     </g>
    </g>
    <g id="ytick_3">
     <g id="line2d_8">
      <path clip-path="url(#p3bebd3ccea)" d="M 56.835 117.965382 
L 242.877842 117.965382 
" style="fill:none;stroke:#ffffff;stroke-linecap:round;"/>
     </g>
     <g id="text_3">
      <!-- 0.4 -->
      <g style="fill:#262626;" transform="translate(29.841563 122.144523)scale(0.11 -0.11)">
       <defs>
        <path d="M 37.796875 64.3125 
L 12.890625 25.390625 
L 37.796875 25.390625 
z
M 35.203125 72.90625 
L 47.609375 72.90625 
L 47.609375 25.390625 
L 58.015625 25.390625 
L 58.015625 17.1875 
L 47.609375 17.1875 
L 47.609375 0 
L 37.796875 0 
L 37.796875 17.1875 
L 4.890625 17.1875 
L 4.890625 26.703125 
z
" id="DejaVuSans-52"/>
       </defs>
       <use xlink:href="#DejaVuSans-48"/>
       <use x="63.623047" xlink:href="#DejaVuSans-46"/>
       <use x="95.410156" xlink:href="#DejaVuSans-52"/>
      </g>
     </g>
    </g>
    <g id="ytick_4">
     <g id="line2d_9">
      <path clip-path="url(#p3bebd3ccea)" d="M 56.835 83.860783 
L 242.877842 83.860783 
" style="fill:none;stroke:#ffffff;stroke-linecap:round;"/>
     </g>
     <g id="text_4">
      <!-- 0.6 -->
      <g style="fill:#262626;" transform="translate(29.841563 88.039924)scale(0.11 -0.11)">
       <defs>
        <path d="M 33.015625 40.375 
Q 26.375 40.375 22.484375 35.828125 
Q 18.609375 31.296875 18.609375 23.390625 
Q 18.609375 15.53125 22.484375 10.953125 
Q 26.375 6.390625 33.015625 6.390625 
Q 39.65625 6.390625 43.53125 10.953125 
Q 47.40625 15.53125 47.40625 23.390625 
Q 47.40625 31.296875 43.53125 35.828125 
Q 39.65625 40.375 33.015625 40.375 
z
M 52.59375 71.296875 
L 52.59375 62.3125 
Q 48.875 64.0625 45.09375 64.984375 
Q 41.3125 65.921875 37.59375 65.921875 
Q 27.828125 65.921875 22.671875 59.328125 
Q 17.53125 52.734375 16.796875 39.40625 
Q 19.671875 43.65625 24.015625 45.921875 
Q 28.375 48.1875 33.59375 48.1875 
Q 44.578125 48.1875 50.953125 41.515625 
Q 57.328125 34.859375 57.328125 23.390625 
Q 57.328125 12.15625 50.6875 5.359375 
Q 44.046875 -1.421875 33.015625 -1.421875 
Q 20.359375 -1.421875 13.671875 8.265625 
Q 6.984375 17.96875 6.984375 36.375 
Q 6.984375 53.65625 15.1875 63.9375 
Q 23.390625 74.21875 37.203125 74.21875 
Q 40.921875 74.21875 44.703125 73.484375 
Q 48.484375 72.75 52.59375 71.296875 
z
" id="DejaVuSans-54"/>
       </defs>
       <use xlink:href="#DejaVuSans-48"/>
       <use x="63.623047" xlink:href="#DejaVuSans-46"/>
       <use x="95.410156" xlink:href="#DejaVuSans-54"/>
      </g>
     </g>
    </g>
    <g id="ytick_5">
     <g id="line2d_10">
      <path clip-path="url(#p3bebd3ccea)" d="M 56.835 49.756184 
L 242.877842 49.756184 
" style="fill:none;stroke:#ffffff;stroke-linecap:round;"/>
     </g>
     <g id="text_5">
      <!-- 0.8 -->
      <g style="fill:#262626;" transform="translate(29.841563 53.935325)scale(0.11 -0.11)">
       <defs>
        <path d="M 31.78125 34.625 
Q 24.75 34.625 20.71875 30.859375 
Q 16.703125 27.09375 16.703125 20.515625 
Q 16.703125 13.921875 20.71875 10.15625 
Q 24.75 6.390625 31.78125 6.390625 
Q 38.8125 6.390625 42.859375 10.171875 
Q 46.921875 13.96875 46.921875 20.515625 
Q 46.921875 27.09375 42.890625 30.859375 
Q 38.875 34.625 31.78125 34.625 
z
M 21.921875 38.8125 
Q 15.578125 40.375 12.03125 44.71875 
Q 8.5 49.078125 8.5 55.328125 
Q 8.5 64.0625 14.71875 69.140625 
Q 20.953125 74.21875 31.78125 74.21875 
Q 42.671875 74.21875 48.875 69.140625 
Q 55.078125 64.0625 55.078125 55.328125 
Q 55.078125 49.078125 51.53125 44.71875 
Q 48 40.375 41.703125 38.8125 
Q 48.828125 37.15625 52.796875 32.3125 
Q 56.78125 27.484375 56.78125 20.515625 
Q 56.78125 9.90625 50.3125 4.234375 
Q 43.84375 -1.421875 31.78125 -1.421875 
Q 19.734375 -1.421875 13.25 4.234375 
Q 6.78125 9.90625 6.78125 20.515625 
Q 6.78125 27.484375 10.78125 32.3125 
Q 14.796875 37.15625 21.921875 38.8125 
z
M 18.3125 54.390625 
Q 18.3125 48.734375 21.84375 45.5625 
Q 25.390625 42.390625 31.78125 42.390625 
Q 38.140625 42.390625 41.71875 45.5625 
Q 45.3125 48.734375 45.3125 54.390625 
Q 45.3125 60.0625 41.71875 63.234375 
Q 38.140625 66.40625 31.78125 66.40625 
Q 25.390625 66.40625 21.84375 63.234375 
Q 18.3125 60.0625 18.3125 54.390625 
z
" id="DejaVuSans-56"/>
       </defs>
       <use xlink:href="#DejaVuSans-48"/>
       <use x="63.623047" xlink:href="#DejaVuSans-46"/>
       <use x="95.410156" xlink:href="#DejaVuSans-56"/>
      </g>
     </g>
    </g>
    <g id="text_6">
     <!-- DBCV -->
     <g style="fill:#262626;" transform="translate(23.345937 126.702998)rotate(-90)scale(0.12 -0.12)">
      <defs>
       <path d="M 19.671875 64.796875 
L 19.671875 8.109375 
L 31.59375 8.109375 
Q 46.6875 8.109375 53.6875 14.9375 
Q 60.6875 21.78125 60.6875 36.53125 
Q 60.6875 51.171875 53.6875 57.984375 
Q 46.6875 64.796875 31.59375 64.796875 
z
M 9.8125 72.90625 
L 30.078125 72.90625 
Q 51.265625 72.90625 61.171875 64.09375 
Q 71.09375 55.28125 71.09375 36.53125 
Q 71.09375 17.671875 61.125 8.828125 
Q 51.171875 0 30.078125 0 
L 9.8125 0 
z
" id="DejaVuSans-68"/>
       <path d="M 19.671875 34.8125 
L 19.671875 8.109375 
L 35.5 8.109375 
Q 43.453125 8.109375 47.28125 11.40625 
Q 51.125 14.703125 51.125 21.484375 
Q 51.125 28.328125 47.28125 31.5625 
Q 43.453125 34.8125 35.5 34.8125 
z
M 19.671875 64.796875 
L 19.671875 42.828125 
L 34.28125 42.828125 
Q 41.5 42.828125 45.03125 45.53125 
Q 48.578125 48.25 48.578125 53.8125 
Q 48.578125 59.328125 45.03125 62.0625 
Q 41.5 64.796875 34.28125 64.796875 
z
M 9.8125 72.90625 
L 35.015625 72.90625 
Q 46.296875 72.90625 52.390625 68.21875 
Q 58.5 63.53125 58.5 54.890625 
Q 58.5 48.1875 55.375 44.234375 
Q 52.25 40.28125 46.1875 39.3125 
Q 53.46875 37.75 57.5 32.78125 
Q 61.53125 27.828125 61.53125 20.40625 
Q 61.53125 10.640625 54.890625 5.3125 
Q 48.25 0 35.984375 0 
L 9.8125 0 
z
" id="DejaVuSans-66"/>
       <path d="M 64.40625 67.28125 
L 64.40625 56.890625 
Q 59.421875 61.53125 53.78125 63.8125 
Q 48.140625 66.109375 41.796875 66.109375 
Q 29.296875 66.109375 22.65625 58.46875 
Q 16.015625 50.828125 16.015625 36.375 
Q 16.015625 21.96875 22.65625 14.328125 
Q 29.296875 6.6875 41.796875 6.6875 
Q 48.140625 6.6875 53.78125 8.984375 
Q 59.421875 11.28125 64.40625 15.921875 
L 64.40625 5.609375 
Q 59.234375 2.09375 53.4375 0.328125 
Q 47.65625 -1.421875 41.21875 -1.421875 
Q 24.65625 -1.421875 15.125 8.703125 
Q 5.609375 18.84375 5.609375 36.375 
Q 5.609375 53.953125 15.125 64.078125 
Q 24.65625 74.21875 41.21875 74.21875 
Q 47.75 74.21875 53.53125 72.484375 
Q 59.328125 70.75 64.40625 67.28125 
z
" id="DejaVuSans-67"/>
       <path d="M 28.609375 0 
L 0.78125 72.90625 
L 11.078125 72.90625 
L 34.1875 11.53125 
L 57.328125 72.90625 
L 67.578125 72.90625 
L 39.796875 0 
z
" id="DejaVuSans-86"/>
      </defs>
      <use xlink:href="#DejaVuSans-68"/>
      <use x="77.001953" xlink:href="#DejaVuSans-66"/>
      <use x="143.855469" xlink:href="#DejaVuSans-67"/>
      <use x="213.679688" xlink:href="#DejaVuSans-86"/>
     </g>
    </g>
   </g>
   <g id="PolyCollection_1">
    <path clip-path="url(#p3bebd3ccea)" d="M 69.628156 53.45745 
L 69.628156 53.45745 
L 69.628156 53.45745 
L 69.628156 53.45745 
z
" style="fill:#4c72b0;fill-opacity:0.2;stroke:#4c72b0;stroke-opacity:0.2;"/>
    <path clip-path="url(#p3bebd3ccea)" d="M 73.964819 50.900982 
L 73.964819 50.900982 
L 73.964819 50.900982 
L 73.964819 50.900982 
z
" style="fill:#4c72b0;fill-opacity:0.2;stroke:#4c72b0;stroke-opacity:0.2;"/>
    <path clip-path="url(#p3bebd3ccea)" d="M 78.301482 54.326917 
L 78.301482 54.326917 
L 78.301482 54.326917 
L 78.301482 54.326917 
z
" style="fill:#4c72b0;fill-opacity:0.2;stroke:#4c72b0;stroke-opacity:0.2;"/>
   </g>
   <g id="line2d_11">
    <path clip-path="url(#p3bebd3ccea)" d="M 65.291493 133.198923 
L 69.628156 53.45745 
L 70.061822 52.407647 
L 70.495488 52.9928 
L 70.929155 51.954133 
L 71.362821 50.537835 
L 71.796487 50.36191 
L 72.230154 51.671741 
L 72.66382 51.889371 
L 73.097486 54.473225 
L 73.531153 55.941367 
L 73.964819 50.900982 
L 74.398485 50.900982 
L 74.832151 51.023209 
L 75.265818 51.023209 
L 75.699484 50.829969 
L 76.13315 49.634723 
L 76.566817 51.860831 
L 77.000483 54.266167 
L 77.434149 54.266167 
L 77.867815 54.326917 
L 78.301482 54.326917 
L 82.638145 55.424092 
L 86.974808 65.427047 
L 91.311471 78.308487 
L 95.648134 87.526741 
L 99.984797 95.765793 
L 104.32146 103.085662 
L 108.658123 114.544848 
L 112.994786 132.093616 
L 117.331449 147.906103 
L 121.668112 155.496221 
L 126.004775 162.059406 
L 130.341438 165.402157 
L 134.678101 172.601162 
L 139.014764 172.259829 
L 143.351427 175.149029 
L 147.68809 175.031872 
L 152.024753 168.867288 
L 156.361416 168.867288 
L 160.698079 176.069466 
L 165.034742 178.203831 
L 169.371405 167.942103 
L 173.708068 167.942103 
" style="fill:none;stroke:#4c72b0;stroke-linecap:round;stroke-width:1.5;"/>
   </g>
   <g id="line2d_12">
    <path clip-path="url(#p3bebd3ccea)" d="M 76.13315 190.594746 
L 76.13315 28.96 
" style="fill:none;stroke:#c44e52;stroke-linecap:round;stroke-opacity:0.5;stroke-width:1.5;"/>
   </g>
   <g id="patch_3">
    <path d="M 56.835 190.594746 
L 56.835 28.96 
" style="fill:none;stroke:#ffffff;stroke-linecap:square;stroke-linejoin:miter;stroke-width:1.25;"/>
   </g>
   <g id="patch_4">
    <path d="M 56.835 190.594746 
L 242.877842 190.594746 
" style="fill:none;stroke:#ffffff;stroke-linecap:square;stroke-linejoin:miter;stroke-width:1.25;"/>
   </g>
   <g id="text_7">
    <!-- 2.5 -->
    <g style="fill:#c44e52;opacity:0.5;" transform="translate(73.637525 185.008633)rotate(-90)scale(0.12 -0.12)">
     <defs>
      <path d="M 10.796875 72.90625 
L 49.515625 72.90625 
L 49.515625 64.59375 
L 19.828125 64.59375 
L 19.828125 46.734375 
Q 21.96875 47.46875 24.109375 47.828125 
Q 26.265625 48.1875 28.421875 48.1875 
Q 40.625 48.1875 47.75 41.5 
Q 54.890625 34.8125 54.890625 23.390625 
Q 54.890625 11.625 47.5625 5.09375 
Q 40.234375 -1.421875 26.90625 -1.421875 
Q 22.3125 -1.421875 17.546875 -0.640625 
Q 12.796875 0.140625 7.71875 1.703125 
L 7.71875 11.625 
Q 12.109375 9.234375 16.796875 8.0625 
Q 21.484375 6.890625 26.703125 6.890625 
Q 35.15625 6.890625 40.078125 11.328125 
Q 45.015625 15.765625 45.015625 23.390625 
Q 45.015625 31 40.078125 35.4375 
Q 35.15625 39.890625 26.703125 39.890625 
Q 22.75 39.890625 18.8125 39.015625 
Q 14.890625 38.140625 10.796875 36.28125 
z
" id="DejaVuSans-53"/>
     </defs>
     <use xlink:href="#DejaVuSans-50"/>
     <use x="63.623047" xlink:href="#DejaVuSans-46"/>
     <use x="95.410156" xlink:href="#DejaVuSans-53"/>
    </g>
   </g>
   <g id="text_8">
    <!-- Segment 1 -->
    <g style="fill:#262626;" transform="translate(117.131109 22.96)scale(0.12 -0.12)">
     <defs>
      <path d="M 53.515625 70.515625 
L 53.515625 60.890625 
Q 47.90625 63.578125 42.921875 64.890625 
Q 37.9375 66.21875 33.296875 66.21875 
Q 25.25 66.21875 20.875 63.09375 
Q 16.5 59.96875 16.5 54.203125 
Q 16.5 49.359375 19.40625 46.890625 
Q 22.3125 44.4375 30.421875 42.921875 
L 36.375 41.703125 
Q 47.40625 39.59375 52.65625 34.296875 
Q 57.90625 29 57.90625 20.125 
Q 57.90625 9.515625 50.796875 4.046875 
Q 43.703125 -1.421875 29.984375 -1.421875 
Q 24.8125 -1.421875 18.96875 -0.25 
Q 13.140625 0.921875 6.890625 3.21875 
L 6.890625 13.375 
Q 12.890625 10.015625 18.65625 8.296875 
Q 24.421875 6.59375 29.984375 6.59375 
Q 38.421875 6.59375 43.015625 9.90625 
Q 47.609375 13.234375 47.609375 19.390625 
Q 47.609375 24.75 44.3125 27.78125 
Q 41.015625 30.8125 33.5 32.328125 
L 27.484375 33.5 
Q 16.453125 35.6875 11.515625 40.375 
Q 6.59375 45.0625 6.59375 53.421875 
Q 6.59375 63.09375 13.40625 68.65625 
Q 20.21875 74.21875 32.171875 74.21875 
Q 37.3125 74.21875 42.625 73.28125 
Q 47.953125 72.359375 53.515625 70.515625 
z
" id="DejaVuSans-83"/>
      <path d="M 56.203125 29.59375 
L 56.203125 25.203125 
L 14.890625 25.203125 
Q 15.484375 15.921875 20.484375 11.0625 
Q 25.484375 6.203125 34.421875 6.203125 
Q 39.59375 6.203125 44.453125 7.46875 
Q 49.3125 8.734375 54.109375 11.28125 
L 54.109375 2.78125 
Q 49.265625 0.734375 44.1875 -0.34375 
Q 39.109375 -1.421875 33.890625 -1.421875 
Q 20.796875 -1.421875 13.15625 6.1875 
Q 5.515625 13.8125 5.515625 26.8125 
Q 5.515625 40.234375 12.765625 48.109375 
Q 20.015625 56 32.328125 56 
Q 43.359375 56 49.78125 48.890625 
Q 56.203125 41.796875 56.203125 29.59375 
z
M 47.21875 32.234375 
Q 47.125 39.59375 43.09375 43.984375 
Q 39.0625 48.390625 32.421875 48.390625 
Q 24.90625 48.390625 20.390625 44.140625 
Q 15.875 39.890625 15.1875 32.171875 
z
" id="DejaVuSans-101"/>
      <path d="M 45.40625 27.984375 
Q 45.40625 37.75 41.375 43.109375 
Q 37.359375 48.484375 30.078125 48.484375 
Q 22.859375 48.484375 18.828125 43.109375 
Q 14.796875 37.75 14.796875 27.984375 
Q 14.796875 18.265625 18.828125 12.890625 
Q 22.859375 7.515625 30.078125 7.515625 
Q 37.359375 7.515625 41.375 12.890625 
Q 45.40625 18.265625 45.40625 27.984375 
z
M 54.390625 6.78125 
Q 54.390625 -7.171875 48.1875 -13.984375 
Q 42 -20.796875 29.203125 -20.796875 
Q 24.46875 -20.796875 20.265625 -20.09375 
Q 16.0625 -19.390625 12.109375 -17.921875 
L 12.109375 -9.1875 
Q 16.0625 -11.328125 19.921875 -12.34375 
Q 23.78125 -13.375 27.78125 -13.375 
Q 36.625 -13.375 41.015625 -8.765625 
Q 45.40625 -4.15625 45.40625 5.171875 
L 45.40625 9.625 
Q 42.625 4.78125 38.28125 2.390625 
Q 33.9375 0 27.875 0 
Q 17.828125 0 11.671875 7.65625 
Q 5.515625 15.328125 5.515625 27.984375 
Q 5.515625 40.671875 11.671875 48.328125 
Q 17.828125 56 27.875 56 
Q 33.9375 56 38.28125 53.609375 
Q 42.625 51.21875 45.40625 46.390625 
L 45.40625 54.6875 
L 54.390625 54.6875 
z
" id="DejaVuSans-103"/>
      <path d="M 52 44.1875 
Q 55.375 50.25 60.0625 53.125 
Q 64.75 56 71.09375 56 
Q 79.640625 56 84.28125 50.015625 
Q 88.921875 44.046875 88.921875 33.015625 
L 88.921875 0 
L 79.890625 0 
L 79.890625 32.71875 
Q 79.890625 40.578125 77.09375 44.375 
Q 74.3125 48.1875 68.609375 48.1875 
Q 61.625 48.1875 57.5625 43.546875 
Q 53.515625 38.921875 53.515625 30.90625 
L 53.515625 0 
L 44.484375 0 
L 44.484375 32.71875 
Q 44.484375 40.625 41.703125 44.40625 
Q 38.921875 48.1875 33.109375 48.1875 
Q 26.21875 48.1875 22.15625 43.53125 
Q 18.109375 38.875 18.109375 30.90625 
L 18.109375 0 
L 9.078125 0 
L 9.078125 54.6875 
L 18.109375 54.6875 
L 18.109375 46.1875 
Q 21.1875 51.21875 25.484375 53.609375 
Q 29.78125 56 35.6875 56 
Q 41.65625 56 45.828125 52.96875 
Q 50 49.953125 52 44.1875 
z
" id="DejaVuSans-109"/>
      <path d="M 54.890625 33.015625 
L 54.890625 0 
L 45.90625 0 
L 45.90625 32.71875 
Q 45.90625 40.484375 42.875 44.328125 
Q 39.84375 48.1875 33.796875 48.1875 
Q 26.515625 48.1875 22.3125 43.546875 
Q 18.109375 38.921875 18.109375 30.90625 
L 18.109375 0 
L 9.078125 0 
L 9.078125 54.6875 
L 18.109375 54.6875 
L 18.109375 46.1875 
Q 21.34375 51.125 25.703125 53.5625 
Q 30.078125 56 35.796875 56 
Q 45.21875 56 50.046875 50.171875 
Q 54.890625 44.34375 54.890625 33.015625 
z
" id="DejaVuSans-110"/>
      <path d="M 18.3125 70.21875 
L 18.3125 54.6875 
L 36.8125 54.6875 
L 36.8125 47.703125 
L 18.3125 47.703125 
L 18.3125 18.015625 
Q 18.3125 11.328125 20.140625 9.421875 
Q 21.96875 7.515625 27.59375 7.515625 
L 36.8125 7.515625 
L 36.8125 0 
L 27.59375 0 
Q 17.1875 0 13.234375 3.875 
Q 9.28125 7.765625 9.28125 18.015625 
L 9.28125 47.703125 
L 2.6875 47.703125 
L 2.6875 54.6875 
L 9.28125 54.6875 
L 9.28125 70.21875 
z
" id="DejaVuSans-116"/>
      <path id="DejaVuSans-32"/>
      <path d="M 12.40625 8.296875 
L 28.515625 8.296875 
L 28.515625 63.921875 
L 10.984375 60.40625 
L 10.984375 69.390625 
L 28.421875 72.90625 
L 38.28125 72.90625 
L 38.28125 8.296875 
L 54.390625 8.296875 
L 54.390625 0 
L 12.40625 0 
z
" id="DejaVuSans-49"/>
     </defs>
     <use xlink:href="#DejaVuSans-83"/>
     <use x="63.476562" xlink:href="#DejaVuSans-101"/>
     <use x="125" xlink:href="#DejaVuSans-103"/>
     <use x="188.476562" xlink:href="#DejaVuSans-109"/>
     <use x="285.888672" xlink:href="#DejaVuSans-101"/>
     <use x="347.412109" xlink:href="#DejaVuSans-110"/>
     <use x="410.791016" xlink:href="#DejaVuSans-116"/>
     <use x="450" xlink:href="#DejaVuSans-32"/>
     <use x="481.787109" xlink:href="#DejaVuSans-49"/>
    </g>
   </g>
  </g>
  <g id="axes_2">
   <g id="patch_5">
    <path d="M 258.62625 190.594746 
L 444.669092 190.594746 
L 444.669092 28.96 
L 258.62625 28.96 
z
" style="fill:#eaeaf2;"/>
   </g>
   <g id="matplotlib.axis_3">
    <g id="xtick_6">
     <g id="line2d_13">
      <path clip-path="url(#pb8b15fdeee)" d="M 267.082743 190.594746 
L 267.082743 28.96 
" style="fill:none;stroke:#ffffff;stroke-linecap:round;"/>
     </g>
    </g>
    <g id="xtick_7">
     <g id="line2d_14">
      <path clip-path="url(#pb8b15fdeee)" d="M 310.449373 190.594746 
L 310.449373 28.96 
" style="fill:none;stroke:#ffffff;stroke-linecap:round;"/>
     </g>
    </g>
    <g id="xtick_8">
     <g id="line2d_15">
      <path clip-path="url(#pb8b15fdeee)" d="M 353.816003 190.594746 
L 353.816003 28.96 
" style="fill:none;stroke:#ffffff;stroke-linecap:round;"/>
     </g>
    </g>
    <g id="xtick_9">
     <g id="line2d_16">
      <path clip-path="url(#pb8b15fdeee)" d="M 397.182632 190.594746 
L 397.182632 28.96 
" style="fill:none;stroke:#ffffff;stroke-linecap:round;"/>
     </g>
    </g>
    <g id="xtick_10">
     <g id="line2d_17">
      <path clip-path="url(#pb8b15fdeee)" d="M 440.549262 190.594746 
L 440.549262 28.96 
" style="fill:none;stroke:#ffffff;stroke-linecap:round;"/>
     </g>
    </g>
   </g>
   <g id="matplotlib.axis_4">
    <g id="ytick_6">
     <g id="line2d_18">
      <path clip-path="url(#pb8b15fdeee)" d="M 258.62625 186.174581 
L 444.669092 186.174581 
" style="fill:none;stroke:#ffffff;stroke-linecap:round;"/>
     </g>
    </g>
    <g id="ytick_7">
     <g id="line2d_19">
      <path clip-path="url(#pb8b15fdeee)" d="M 258.62625 152.069981 
L 444.669092 152.069981 
" style="fill:none;stroke:#ffffff;stroke-linecap:round;"/>
     </g>
    </g>
    <g id="ytick_8">
     <g id="line2d_20">
      <path clip-path="url(#pb8b15fdeee)" d="M 258.62625 117.965382 
L 444.669092 117.965382 
" style="fill:none;stroke:#ffffff;stroke-linecap:round;"/>
     </g>
    </g>
    <g id="ytick_9">
     <g id="line2d_21">
      <path clip-path="url(#pb8b15fdeee)" d="M 258.62625 83.860783 
L 444.669092 83.860783 
" style="fill:none;stroke:#ffffff;stroke-linecap:round;"/>
     </g>
    </g>
    <g id="ytick_10">
     <g id="line2d_22">
      <path clip-path="url(#pb8b15fdeee)" d="M 258.62625 49.756184 
L 444.669092 49.756184 
" style="fill:none;stroke:#ffffff;stroke-linecap:round;"/>
     </g>
    </g>
   </g>
   <g id="PolyCollection_2">
    <path clip-path="url(#pb8b15fdeee)" d="M 271.419406 59.145303 
L 271.419406 59.145303 
L 271.419406 59.145303 
L 271.419406 59.145303 
z
" style="fill:#4c72b0;fill-opacity:0.2;stroke:#4c72b0;stroke-opacity:0.2;"/>
    <path clip-path="url(#pb8b15fdeee)" d="M 275.756069 48.308494 
L 275.756069 48.308494 
L 275.756069 48.308494 
L 275.756069 48.308494 
z
" style="fill:#4c72b0;fill-opacity:0.2;stroke:#4c72b0;stroke-opacity:0.2;"/>
    <path clip-path="url(#pb8b15fdeee)" d="M 280.092732 56.10034 
L 280.092732 56.10034 
L 280.092732 56.10034 
L 280.092732 56.10034 
z
" style="fill:#4c72b0;fill-opacity:0.2;stroke:#4c72b0;stroke-opacity:0.2;"/>
   </g>
   <g id="line2d_23">
    <path clip-path="url(#pb8b15fdeee)" d="M 267.082743 133.308613 
L 271.419406 59.145303 
L 271.853072 56.162293 
L 272.286738 53.805246 
L 272.720405 57.889202 
L 273.154071 51.034159 
L 273.587737 50.487606 
L 274.021404 49.431931 
L 274.45507 51.121108 
L 274.888736 51.207688 
L 275.322403 50.740892 
L 275.756069 48.308494 
L 276.189735 49.195259 
L 276.623401 50.090767 
L 277.057068 48.592595 
L 277.490734 50.367019 
L 277.9244 50.425963 
L 278.358067 53.393336 
L 278.791733 54.534684 
L 279.225399 55.202536 
L 279.659065 55.451376 
L 280.092732 56.10034 
L 284.429395 59.509156 
L 288.766058 68.705613 
L 293.102721 73.135849 
L 297.439384 86.751468 
L 301.776047 100.700076 
L 306.11271 112.724522 
L 310.449373 120.945753 
L 314.786036 135.053888 
L 319.122699 143.995512 
L 323.459362 152.105393 
L 327.796025 156.886795 
L 332.132688 158.542038 
L 336.469351 167.699491 
L 340.806014 174.679023 
L 345.142677 177.932799 
L 349.47934 175.998207 
L 353.816003 166.36117 
L 358.152666 166.36117 
L 362.489329 174.586519 
L 366.825992 158.453557 
L 371.162655 158.453557 
L 375.499318 158.453557 
L 379.835981 158.453557 
" style="fill:none;stroke:#4c72b0;stroke-linecap:round;stroke-width:1.5;"/>
   </g>
   <g id="line2d_24">
    <path clip-path="url(#pb8b15fdeee)" d="M 275.756069 190.594746 
L 275.756069 28.96 
" style="fill:none;stroke:#c44e52;stroke-linecap:round;stroke-opacity:0.5;stroke-width:1.5;"/>
   </g>
   <g id="patch_6">
    <path d="M 258.62625 190.594746 
L 258.62625 28.96 
" style="fill:none;stroke:#ffffff;stroke-linecap:square;stroke-linejoin:miter;stroke-width:1.25;"/>
   </g>
   <g id="patch_7">
    <path d="M 258.62625 190.594746 
L 444.669092 190.594746 
" style="fill:none;stroke:#ffffff;stroke-linecap:square;stroke-linejoin:miter;stroke-width:1.25;"/>
   </g>
   <g id="text_9">
    <!-- 2.0 -->
    <g style="fill:#c44e52;opacity:0.5;" transform="translate(273.260444 185.008633)rotate(-90)scale(0.12 -0.12)">
     <use xlink:href="#DejaVuSans-50"/>
     <use x="63.623047" xlink:href="#DejaVuSans-46"/>
     <use x="95.410156" xlink:href="#DejaVuSans-48"/>
    </g>
   </g>
   <g id="text_10">
    <!-- Segment 2 -->
    <g style="fill:#262626;" transform="translate(318.922359 22.96)scale(0.12 -0.12)">
     <use xlink:href="#DejaVuSans-83"/>
     <use x="63.476562" xlink:href="#DejaVuSans-101"/>
     <use x="125" xlink:href="#DejaVuSans-103"/>
     <use x="188.476562" xlink:href="#DejaVuSans-109"/>
     <use x="285.888672" xlink:href="#DejaVuSans-101"/>
     <use x="347.412109" xlink:href="#DejaVuSans-110"/>
     <use x="410.791016" xlink:href="#DejaVuSans-116"/>
     <use x="450" xlink:href="#DejaVuSans-32"/>
     <use x="481.787109" xlink:href="#DejaVuSans-50"/>
    </g>
   </g>
  </g>
  <g id="axes_3">
   <g id="patch_8">
    <path d="M 460.4175 190.594746 
L 646.460342 190.594746 
L 646.460342 28.96 
L 460.4175 28.96 
z
" style="fill:#eaeaf2;"/>
   </g>
   <g id="matplotlib.axis_5">
    <g id="xtick_11">
     <g id="line2d_25">
      <path clip-path="url(#pc0d3b0ed4b)" d="M 468.873993 190.594746 
L 468.873993 28.96 
" style="fill:none;stroke:#ffffff;stroke-linecap:round;"/>
     </g>
    </g>
    <g id="xtick_12">
     <g id="line2d_26">
      <path clip-path="url(#pc0d3b0ed4b)" d="M 512.240623 190.594746 
L 512.240623 28.96 
" style="fill:none;stroke:#ffffff;stroke-linecap:round;"/>
     </g>
    </g>
    <g id="xtick_13">
     <g id="line2d_27">
      <path clip-path="url(#pc0d3b0ed4b)" d="M 555.607253 190.594746 
L 555.607253 28.96 
" style="fill:none;stroke:#ffffff;stroke-linecap:round;"/>
     </g>
    </g>
    <g id="xtick_14">
     <g id="line2d_28">
      <path clip-path="url(#pc0d3b0ed4b)" d="M 598.973882 190.594746 
L 598.973882 28.96 
" style="fill:none;stroke:#ffffff;stroke-linecap:round;"/>
     </g>
    </g>
    <g id="xtick_15">
     <g id="line2d_29">
      <path clip-path="url(#pc0d3b0ed4b)" d="M 642.340512 190.594746 
L 642.340512 28.96 
" style="fill:none;stroke:#ffffff;stroke-linecap:round;"/>
     </g>
    </g>
   </g>
   <g id="matplotlib.axis_6">
    <g id="ytick_11">
     <g id="line2d_30">
      <path clip-path="url(#pc0d3b0ed4b)" d="M 460.4175 186.174581 
L 646.460342 186.174581 
" style="fill:none;stroke:#ffffff;stroke-linecap:round;"/>
     </g>
    </g>
    <g id="ytick_12">
     <g id="line2d_31">
      <path clip-path="url(#pc0d3b0ed4b)" d="M 460.4175 152.069981 
L 646.460342 152.069981 
" style="fill:none;stroke:#ffffff;stroke-linecap:round;"/>
     </g>
    </g>
    <g id="ytick_13">
     <g id="line2d_32">
      <path clip-path="url(#pc0d3b0ed4b)" d="M 460.4175 117.965382 
L 646.460342 117.965382 
" style="fill:none;stroke:#ffffff;stroke-linecap:round;"/>
     </g>
    </g>
    <g id="ytick_14">
     <g id="line2d_33">
      <path clip-path="url(#pc0d3b0ed4b)" d="M 460.4175 83.860783 
L 646.460342 83.860783 
" style="fill:none;stroke:#ffffff;stroke-linecap:round;"/>
     </g>
    </g>
    <g id="ytick_15">
     <g id="line2d_34">
      <path clip-path="url(#pc0d3b0ed4b)" d="M 460.4175 49.756184 
L 646.460342 49.756184 
" style="fill:none;stroke:#ffffff;stroke-linecap:round;"/>
     </g>
    </g>
   </g>
   <g id="PolyCollection_3">
    <path clip-path="url(#pc0d3b0ed4b)" d="M 477.547319 44.739858 
L 477.547319 44.739858 
L 477.547319 44.739858 
L 477.547319 44.739858 
z
" style="fill:#4c72b0;fill-opacity:0.2;stroke:#4c72b0;stroke-opacity:0.2;"/>
    <path clip-path="url(#pc0d3b0ed4b)" d="M 481.883982 39.48655 
L 481.883982 39.48655 
L 481.883982 39.48655 
L 481.883982 39.48655 
z
" style="fill:#4c72b0;fill-opacity:0.2;stroke:#4c72b0;stroke-opacity:0.2;"/>
    <path clip-path="url(#pc0d3b0ed4b)" d="M 486.220645 43.435218 
L 486.220645 43.435218 
L 486.220645 43.435218 
L 486.220645 43.435218 
z
" style="fill:#4c72b0;fill-opacity:0.2;stroke:#4c72b0;stroke-opacity:0.2;"/>
   </g>
   <g id="line2d_35">
    <path clip-path="url(#pc0d3b0ed4b)" d="M 468.873993 132.486617 
L 473.210656 48.841491 
L 477.547319 44.739858 
L 477.980985 44.739858 
L 478.414651 43.767074 
L 478.848318 41.165425 
L 479.281984 40.07973 
L 479.71565 39.603845 
L 480.149317 39.48655 
L 480.582983 39.48655 
L 481.016649 39.48655 
L 481.450315 39.48655 
L 481.883982 39.48655 
L 482.317648 39.48655 
L 482.751314 39.527715 
L 483.184981 39.527715 
L 483.618647 39.527715 
L 484.052313 39.527715 
L 484.48598 39.777786 
L 484.919646 39.973021 
L 485.353312 39.973021 
L 485.786978 39.973021 
L 486.220645 43.435218 
L 490.557308 46.835098 
L 494.893971 52.685061 
L 499.230634 62.06544 
L 503.567297 77.998642 
L 507.90396 90.357244 
L 512.240623 102.206415 
L 516.577286 115.377739 
L 520.913949 129.589531 
L 525.250612 137.823869 
L 529.587275 149.443816 
L 533.923938 159.513053 
L 538.260601 162.682972 
L 542.597264 168.43437 
L 546.933927 168.117802 
L 551.27059 169.043808 
L 555.607253 164.229567 
L 559.943916 159.379727 
L 564.280579 159.379727 
L 568.617242 159.379727 
L 572.953905 176.944509 
L 577.290568 165.400181 
L 581.627231 165.400181 
L 585.963894 162.050264 
L 590.300557 162.050264 
L 594.63722 162.050264 
L 598.973882 172.063943 
L 603.310545 179.301183 
L 607.647208 179.301183 
" style="fill:none;stroke:#4c72b0;stroke-linecap:round;stroke-width:1.5;"/>
   </g>
   <g id="line2d_36">
    <path clip-path="url(#pc0d3b0ed4b)" d="M 481.883982 190.594746 
L 481.883982 28.96 
" style="fill:none;stroke:#c44e52;stroke-linecap:round;stroke-opacity:0.5;stroke-width:1.5;"/>
   </g>
   <g id="patch_9">
    <path d="M 460.4175 190.594746 
L 460.4175 28.96 
" style="fill:none;stroke:#ffffff;stroke-linecap:square;stroke-linejoin:miter;stroke-width:1.25;"/>
   </g>
   <g id="patch_10">
    <path d="M 460.4175 190.594746 
L 646.460342 190.594746 
" style="fill:none;stroke:#ffffff;stroke-linecap:square;stroke-linejoin:miter;stroke-width:1.25;"/>
   </g>
   <g id="text_11">
    <!-- 3.0 -->
    <g style="fill:#c44e52;opacity:0.5;" transform="translate(479.388357 185.008633)rotate(-90)scale(0.12 -0.12)">
     <defs>
      <path d="M 40.578125 39.3125 
Q 47.65625 37.796875 51.625 33 
Q 55.609375 28.21875 55.609375 21.1875 
Q 55.609375 10.40625 48.1875 4.484375 
Q 40.765625 -1.421875 27.09375 -1.421875 
Q 22.515625 -1.421875 17.65625 -0.515625 
Q 12.796875 0.390625 7.625 2.203125 
L 7.625 11.71875 
Q 11.71875 9.328125 16.59375 8.109375 
Q 21.484375 6.890625 26.8125 6.890625 
Q 36.078125 6.890625 40.9375 10.546875 
Q 45.796875 14.203125 45.796875 21.1875 
Q 45.796875 27.640625 41.28125 31.265625 
Q 36.765625 34.90625 28.71875 34.90625 
L 20.21875 34.90625 
L 20.21875 43.015625 
L 29.109375 43.015625 
Q 36.375 43.015625 40.234375 45.921875 
Q 44.09375 48.828125 44.09375 54.296875 
Q 44.09375 59.90625 40.109375 62.90625 
Q 36.140625 65.921875 28.71875 65.921875 
Q 24.65625 65.921875 20.015625 65.03125 
Q 15.375 64.15625 9.8125 62.3125 
L 9.8125 71.09375 
Q 15.4375 72.65625 20.34375 73.4375 
Q 25.25 74.21875 29.59375 74.21875 
Q 40.828125 74.21875 47.359375 69.109375 
Q 53.90625 64.015625 53.90625 55.328125 
Q 53.90625 49.265625 50.4375 45.09375 
Q 46.96875 40.921875 40.578125 39.3125 
z
" id="DejaVuSans-51"/>
     </defs>
     <use xlink:href="#DejaVuSans-51"/>
     <use x="63.623047" xlink:href="#DejaVuSans-46"/>
     <use x="95.410156" xlink:href="#DejaVuSans-48"/>
    </g>
   </g>
   <g id="text_12">
    <!-- Segment 3 -->
    <g style="fill:#262626;" transform="translate(520.713609 22.96)scale(0.12 -0.12)">
     <use xlink:href="#DejaVuSans-83"/>
     <use x="63.476562" xlink:href="#DejaVuSans-101"/>
     <use x="125" xlink:href="#DejaVuSans-103"/>
     <use x="188.476562" xlink:href="#DejaVuSans-109"/>
     <use x="285.888672" xlink:href="#DejaVuSans-101"/>
     <use x="347.412109" xlink:href="#DejaVuSans-110"/>
     <use x="410.791016" xlink:href="#DejaVuSans-116"/>
     <use x="450" xlink:href="#DejaVuSans-32"/>
     <use x="481.787109" xlink:href="#DejaVuSans-51"/>
    </g>
   </g>
  </g>
  <g id="axes_4">
   <g id="patch_11">
    <path d="M 662.20875 190.594746 
L 848.251592 190.594746 
L 848.251592 28.96 
L 662.20875 28.96 
z
" style="fill:#eaeaf2;"/>
   </g>
   <g id="matplotlib.axis_7">
    <g id="xtick_16">
     <g id="line2d_37">
      <path clip-path="url(#p94ab6007e7)" d="M 670.665243 190.594746 
L 670.665243 28.96 
" style="fill:none;stroke:#ffffff;stroke-linecap:round;"/>
     </g>
    </g>
    <g id="xtick_17">
     <g id="line2d_38">
      <path clip-path="url(#p94ab6007e7)" d="M 714.031873 190.594746 
L 714.031873 28.96 
" style="fill:none;stroke:#ffffff;stroke-linecap:round;"/>
     </g>
    </g>
    <g id="xtick_18">
     <g id="line2d_39">
      <path clip-path="url(#p94ab6007e7)" d="M 757.398503 190.594746 
L 757.398503 28.96 
" style="fill:none;stroke:#ffffff;stroke-linecap:round;"/>
     </g>
    </g>
    <g id="xtick_19">
     <g id="line2d_40">
      <path clip-path="url(#p94ab6007e7)" d="M 800.765132 190.594746 
L 800.765132 28.96 
" style="fill:none;stroke:#ffffff;stroke-linecap:round;"/>
     </g>
    </g>
    <g id="xtick_20">
     <g id="line2d_41">
      <path clip-path="url(#p94ab6007e7)" d="M 844.131762 190.594746 
L 844.131762 28.96 
" style="fill:none;stroke:#ffffff;stroke-linecap:round;"/>
     </g>
    </g>
   </g>
   <g id="matplotlib.axis_8">
    <g id="ytick_16">
     <g id="line2d_42">
      <path clip-path="url(#p94ab6007e7)" d="M 662.20875 186.174581 
L 848.251592 186.174581 
" style="fill:none;stroke:#ffffff;stroke-linecap:round;"/>
     </g>
    </g>
    <g id="ytick_17">
     <g id="line2d_43">
      <path clip-path="url(#p94ab6007e7)" d="M 662.20875 152.069981 
L 848.251592 152.069981 
" style="fill:none;stroke:#ffffff;stroke-linecap:round;"/>
     </g>
    </g>
    <g id="ytick_18">
     <g id="line2d_44">
      <path clip-path="url(#p94ab6007e7)" d="M 662.20875 117.965382 
L 848.251592 117.965382 
" style="fill:none;stroke:#ffffff;stroke-linecap:round;"/>
     </g>
    </g>
    <g id="ytick_19">
     <g id="line2d_45">
      <path clip-path="url(#p94ab6007e7)" d="M 662.20875 83.860783 
L 848.251592 83.860783 
" style="fill:none;stroke:#ffffff;stroke-linecap:round;"/>
     </g>
    </g>
    <g id="ytick_20">
     <g id="line2d_46">
      <path clip-path="url(#p94ab6007e7)" d="M 662.20875 49.756184 
L 848.251592 49.756184 
" style="fill:none;stroke:#ffffff;stroke-linecap:round;"/>
     </g>
    </g>
   </g>
   <g id="PolyCollection_4">
    <path clip-path="url(#p94ab6007e7)" d="M 675.001906 46.877062 
L 675.001906 46.877062 
L 675.001906 46.877062 
L 675.001906 46.877062 
z
" style="fill:#4c72b0;fill-opacity:0.2;stroke:#4c72b0;stroke-opacity:0.2;"/>
    <path clip-path="url(#p94ab6007e7)" d="M 679.338569 38.133005 
L 679.338569 38.133005 
L 679.338569 38.133005 
L 679.338569 38.133005 
z
" style="fill:#4c72b0;fill-opacity:0.2;stroke:#4c72b0;stroke-opacity:0.2;"/>
    <path clip-path="url(#p94ab6007e7)" d="M 683.675232 42.353567 
L 683.675232 42.353567 
L 683.675232 42.353567 
L 683.675232 42.353567 
z
" style="fill:#4c72b0;fill-opacity:0.2;stroke:#4c72b0;stroke-opacity:0.2;"/>
   </g>
   <g id="line2d_47">
    <path clip-path="url(#p94ab6007e7)" d="M 670.665243 132.649705 
L 675.001906 46.877062 
L 675.435572 48.212079 
L 675.869238 46.14361 
L 676.302905 43.555214 
L 676.736571 43.591568 
L 677.170237 43.591568 
L 677.603904 40.752592 
L 678.03757 41.406644 
L 678.471236 37.916549 
L 678.904903 38.133005 
L 679.338569 38.133005 
L 679.772235 38.133005 
L 680.205901 38.133005 
L 680.639568 38.133005 
L 681.073234 38.158156 
L 681.5069 38.505612 
L 681.940567 38.133727 
L 682.374233 38.133727 
L 682.807899 40.308747 
L 683.241565 40.308747 
L 683.675232 42.353567 
L 688.011895 45.224512 
L 692.348558 57.601698 
L 696.685221 63.200602 
L 701.021884 71.169541 
L 705.358547 78.006362 
L 709.69521 98.419282 
L 714.031873 112.429638 
L 718.368536 114.895082 
L 722.705199 137.713904 
L 727.041862 152.390847 
L 731.378525 166.812081 
L 735.715188 172.146464 
L 740.051851 177.612265 
L 744.388514 177.926529 
L 748.725177 172.885353 
L 753.06184 177.504172 
L 757.398503 179.182587 
" style="fill:none;stroke:#4c72b0;stroke-linecap:round;stroke-width:1.5;"/>
   </g>
   <g id="line2d_48">
    <path clip-path="url(#p94ab6007e7)" d="M 678.471236 190.594746 
L 678.471236 28.96 
" style="fill:none;stroke:#c44e52;stroke-linecap:round;stroke-opacity:0.5;stroke-width:1.5;"/>
   </g>
   <g id="patch_12">
    <path d="M 662.20875 190.594746 
L 662.20875 28.96 
" style="fill:none;stroke:#ffffff;stroke-linecap:square;stroke-linejoin:miter;stroke-width:1.25;"/>
   </g>
   <g id="patch_13">
    <path d="M 662.20875 190.594746 
L 848.251592 190.594746 
" style="fill:none;stroke:#ffffff;stroke-linecap:square;stroke-linejoin:miter;stroke-width:1.25;"/>
   </g>
   <g id="text_13">
    <!-- 1.8 -->
    <g style="fill:#c44e52;opacity:0.5;" transform="translate(675.975611 185.008633)rotate(-90)scale(0.12 -0.12)">
     <use xlink:href="#DejaVuSans-49"/>
     <use x="63.623047" xlink:href="#DejaVuSans-46"/>
     <use x="95.410156" xlink:href="#DejaVuSans-56"/>
    </g>
   </g>
   <g id="text_14">
    <!-- Segment 4 -->
    <g style="fill:#262626;" transform="translate(722.504859 22.96)scale(0.12 -0.12)">
     <use xlink:href="#DejaVuSans-83"/>
     <use x="63.476562" xlink:href="#DejaVuSans-101"/>
     <use x="125" xlink:href="#DejaVuSans-103"/>
     <use x="188.476562" xlink:href="#DejaVuSans-109"/>
     <use x="285.888672" xlink:href="#DejaVuSans-101"/>
     <use x="347.412109" xlink:href="#DejaVuSans-110"/>
     <use x="410.791016" xlink:href="#DejaVuSans-116"/>
     <use x="450" xlink:href="#DejaVuSans-32"/>
     <use x="481.787109" xlink:href="#DejaVuSans-52"/>
    </g>
   </g>
  </g>
  <g id="axes_5">
   <g id="patch_14">
    <path d="M 56.835 382.54 
L 242.877842 382.54 
L 242.877842 220.905254 
L 56.835 220.905254 
z
" style="fill:#eaeaf2;"/>
   </g>
   <g id="matplotlib.axis_9">
    <g id="xtick_21">
     <g id="line2d_49">
      <path clip-path="url(#pac4a4a2970)" d="M 65.291493 382.54 
L 65.291493 220.905254 
" style="fill:none;stroke:#ffffff;stroke-linecap:round;"/>
     </g>
     <g id="text_15">
      <!-- 0 -->
      <g style="fill:#262626;" transform="translate(61.792118 400.398281)scale(0.11 -0.11)">
       <use xlink:href="#DejaVuSans-48"/>
      </g>
     </g>
    </g>
    <g id="xtick_22">
     <g id="line2d_50">
      <path clip-path="url(#pac4a4a2970)" d="M 108.658123 382.54 
L 108.658123 220.905254 
" style="fill:none;stroke:#ffffff;stroke-linecap:round;"/>
     </g>
     <g id="text_16">
      <!-- 10 -->
      <g style="fill:#262626;" transform="translate(101.659373 400.398281)scale(0.11 -0.11)">
       <use xlink:href="#DejaVuSans-49"/>
       <use x="63.623047" xlink:href="#DejaVuSans-48"/>
      </g>
     </g>
    </g>
    <g id="xtick_23">
     <g id="line2d_51">
      <path clip-path="url(#pac4a4a2970)" d="M 152.024753 382.54 
L 152.024753 220.905254 
" style="fill:none;stroke:#ffffff;stroke-linecap:round;"/>
     </g>
     <g id="text_17">
      <!-- 20 -->
      <g style="fill:#262626;" transform="translate(145.026003 400.398281)scale(0.11 -0.11)">
       <use xlink:href="#DejaVuSans-50"/>
       <use x="63.623047" xlink:href="#DejaVuSans-48"/>
      </g>
     </g>
    </g>
    <g id="xtick_24">
     <g id="line2d_52">
      <path clip-path="url(#pac4a4a2970)" d="M 195.391382 382.54 
L 195.391382 220.905254 
" style="fill:none;stroke:#ffffff;stroke-linecap:round;"/>
     </g>
     <g id="text_18">
      <!-- 30 -->
      <g style="fill:#262626;" transform="translate(188.392632 400.398281)scale(0.11 -0.11)">
       <use xlink:href="#DejaVuSans-51"/>
       <use x="63.623047" xlink:href="#DejaVuSans-48"/>
      </g>
     </g>
    </g>
    <g id="xtick_25">
     <g id="line2d_53">
      <path clip-path="url(#pac4a4a2970)" d="M 238.758012 382.54 
L 238.758012 220.905254 
" style="fill:none;stroke:#ffffff;stroke-linecap:round;"/>
     </g>
     <g id="text_19">
      <!-- 40 -->
      <g style="fill:#262626;" transform="translate(231.759262 400.398281)scale(0.11 -0.11)">
       <use xlink:href="#DejaVuSans-52"/>
       <use x="63.623047" xlink:href="#DejaVuSans-48"/>
      </g>
     </g>
    </g>
    <g id="text_20">
     <!-- Epsilon -->
     <g style="fill:#262626;" transform="translate(128.322984 415.804062)scale(0.12 -0.12)">
      <defs>
       <path d="M 9.8125 72.90625 
L 55.90625 72.90625 
L 55.90625 64.59375 
L 19.671875 64.59375 
L 19.671875 43.015625 
L 54.390625 43.015625 
L 54.390625 34.71875 
L 19.671875 34.71875 
L 19.671875 8.296875 
L 56.78125 8.296875 
L 56.78125 0 
L 9.8125 0 
z
" id="DejaVuSans-69"/>
       <path d="M 18.109375 8.203125 
L 18.109375 -20.796875 
L 9.078125 -20.796875 
L 9.078125 54.6875 
L 18.109375 54.6875 
L 18.109375 46.390625 
Q 20.953125 51.265625 25.265625 53.625 
Q 29.59375 56 35.59375 56 
Q 45.5625 56 51.78125 48.09375 
Q 58.015625 40.1875 58.015625 27.296875 
Q 58.015625 14.40625 51.78125 6.484375 
Q 45.5625 -1.421875 35.59375 -1.421875 
Q 29.59375 -1.421875 25.265625 0.953125 
Q 20.953125 3.328125 18.109375 8.203125 
z
M 48.6875 27.296875 
Q 48.6875 37.203125 44.609375 42.84375 
Q 40.53125 48.484375 33.40625 48.484375 
Q 26.265625 48.484375 22.1875 42.84375 
Q 18.109375 37.203125 18.109375 27.296875 
Q 18.109375 17.390625 22.1875 11.75 
Q 26.265625 6.109375 33.40625 6.109375 
Q 40.53125 6.109375 44.609375 11.75 
Q 48.6875 17.390625 48.6875 27.296875 
z
" id="DejaVuSans-112"/>
       <path d="M 44.28125 53.078125 
L 44.28125 44.578125 
Q 40.484375 46.53125 36.375 47.5 
Q 32.28125 48.484375 27.875 48.484375 
Q 21.1875 48.484375 17.84375 46.4375 
Q 14.5 44.390625 14.5 40.28125 
Q 14.5 37.15625 16.890625 35.375 
Q 19.28125 33.59375 26.515625 31.984375 
L 29.59375 31.296875 
Q 39.15625 29.25 43.1875 25.515625 
Q 47.21875 21.78125 47.21875 15.09375 
Q 47.21875 7.46875 41.1875 3.015625 
Q 35.15625 -1.421875 24.609375 -1.421875 
Q 20.21875 -1.421875 15.453125 -0.5625 
Q 10.6875 0.296875 5.421875 2 
L 5.421875 11.28125 
Q 10.40625 8.6875 15.234375 7.390625 
Q 20.0625 6.109375 24.8125 6.109375 
Q 31.15625 6.109375 34.5625 8.28125 
Q 37.984375 10.453125 37.984375 14.40625 
Q 37.984375 18.0625 35.515625 20.015625 
Q 33.0625 21.96875 24.703125 23.78125 
L 21.578125 24.515625 
Q 13.234375 26.265625 9.515625 29.90625 
Q 5.8125 33.546875 5.8125 39.890625 
Q 5.8125 47.609375 11.28125 51.796875 
Q 16.75 56 26.8125 56 
Q 31.78125 56 36.171875 55.265625 
Q 40.578125 54.546875 44.28125 53.078125 
z
" id="DejaVuSans-115"/>
       <path d="M 9.421875 54.6875 
L 18.40625 54.6875 
L 18.40625 0 
L 9.421875 0 
z
M 9.421875 75.984375 
L 18.40625 75.984375 
L 18.40625 64.59375 
L 9.421875 64.59375 
z
" id="DejaVuSans-105"/>
       <path d="M 9.421875 75.984375 
L 18.40625 75.984375 
L 18.40625 0 
L 9.421875 0 
z
" id="DejaVuSans-108"/>
       <path d="M 30.609375 48.390625 
Q 23.390625 48.390625 19.1875 42.75 
Q 14.984375 37.109375 14.984375 27.296875 
Q 14.984375 17.484375 19.15625 11.84375 
Q 23.34375 6.203125 30.609375 6.203125 
Q 37.796875 6.203125 41.984375 11.859375 
Q 46.1875 17.53125 46.1875 27.296875 
Q 46.1875 37.015625 41.984375 42.703125 
Q 37.796875 48.390625 30.609375 48.390625 
z
M 30.609375 56 
Q 42.328125 56 49.015625 48.375 
Q 55.71875 40.765625 55.71875 27.296875 
Q 55.71875 13.875 49.015625 6.21875 
Q 42.328125 -1.421875 30.609375 -1.421875 
Q 18.84375 -1.421875 12.171875 6.21875 
Q 5.515625 13.875 5.515625 27.296875 
Q 5.515625 40.765625 12.171875 48.375 
Q 18.84375 56 30.609375 56 
z
" id="DejaVuSans-111"/>
      </defs>
      <use xlink:href="#DejaVuSans-69"/>
      <use x="63.183594" xlink:href="#DejaVuSans-112"/>
      <use x="126.660156" xlink:href="#DejaVuSans-115"/>
      <use x="178.759766" xlink:href="#DejaVuSans-105"/>
      <use x="206.542969" xlink:href="#DejaVuSans-108"/>
      <use x="234.326172" xlink:href="#DejaVuSans-111"/>
      <use x="295.507812" xlink:href="#DejaVuSans-110"/>
     </g>
    </g>
   </g>
   <g id="matplotlib.axis_10">
    <g id="ytick_21">
     <g id="line2d_54">
      <path clip-path="url(#pac4a4a2970)" d="M 56.835 378.119835 
L 242.877842 378.119835 
" style="fill:none;stroke:#ffffff;stroke-linecap:round;"/>
     </g>
     <g id="text_21">
      <!-- 0.0 -->
      <g style="fill:#262626;" transform="translate(29.841563 382.298976)scale(0.11 -0.11)">
       <use xlink:href="#DejaVuSans-48"/>
       <use x="63.623047" xlink:href="#DejaVuSans-46"/>
       <use x="95.410156" xlink:href="#DejaVuSans-48"/>
      </g>
     </g>
    </g>
    <g id="ytick_22">
     <g id="line2d_55">
      <path clip-path="url(#pac4a4a2970)" d="M 56.835 344.015236 
L 242.877842 344.015236 
" style="fill:none;stroke:#ffffff;stroke-linecap:round;"/>
     </g>
     <g id="text_22">
      <!-- 0.2 -->
      <g style="fill:#262626;" transform="translate(29.841563 348.194376)scale(0.11 -0.11)">
       <use xlink:href="#DejaVuSans-48"/>
       <use x="63.623047" xlink:href="#DejaVuSans-46"/>
       <use x="95.410156" xlink:href="#DejaVuSans-50"/>
      </g>
     </g>
    </g>
    <g id="ytick_23">
     <g id="line2d_56">
      <path clip-path="url(#pac4a4a2970)" d="M 56.835 309.910637 
L 242.877842 309.910637 
" style="fill:none;stroke:#ffffff;stroke-linecap:round;"/>
     </g>
     <g id="text_23">
      <!-- 0.4 -->
      <g style="fill:#262626;" transform="translate(29.841563 314.089777)scale(0.11 -0.11)">
       <use xlink:href="#DejaVuSans-48"/>
       <use x="63.623047" xlink:href="#DejaVuSans-46"/>
       <use x="95.410156" xlink:href="#DejaVuSans-52"/>
      </g>
     </g>
    </g>
    <g id="ytick_24">
     <g id="line2d_57">
      <path clip-path="url(#pac4a4a2970)" d="M 56.835 275.806038 
L 242.877842 275.806038 
" style="fill:none;stroke:#ffffff;stroke-linecap:round;"/>
     </g>
     <g id="text_24">
      <!-- 0.6 -->
      <g style="fill:#262626;" transform="translate(29.841563 279.985178)scale(0.11 -0.11)">
       <use xlink:href="#DejaVuSans-48"/>
       <use x="63.623047" xlink:href="#DejaVuSans-46"/>
       <use x="95.410156" xlink:href="#DejaVuSans-54"/>
      </g>
     </g>
    </g>
    <g id="ytick_25">
     <g id="line2d_58">
      <path clip-path="url(#pac4a4a2970)" d="M 56.835 241.701439 
L 242.877842 241.701439 
" style="fill:none;stroke:#ffffff;stroke-linecap:round;"/>
     </g>
     <g id="text_25">
      <!-- 0.8 -->
      <g style="fill:#262626;" transform="translate(29.841563 245.880579)scale(0.11 -0.11)">
       <use xlink:href="#DejaVuSans-48"/>
       <use x="63.623047" xlink:href="#DejaVuSans-46"/>
       <use x="95.410156" xlink:href="#DejaVuSans-56"/>
      </g>
     </g>
    </g>
    <g id="text_26">
     <!-- DBCV -->
     <g style="fill:#262626;" transform="translate(23.345937 318.648252)rotate(-90)scale(0.12 -0.12)">
      <use xlink:href="#DejaVuSans-68"/>
      <use x="77.001953" xlink:href="#DejaVuSans-66"/>
      <use x="143.855469" xlink:href="#DejaVuSans-67"/>
      <use x="213.679688" xlink:href="#DejaVuSans-86"/>
     </g>
    </g>
   </g>
   <g id="PolyCollection_5">
    <path clip-path="url(#pac4a4a2970)" d="M 69.628156 236.124213 
L 69.628156 236.124213 
L 69.628156 236.124213 
L 69.628156 236.124213 
z
" style="fill:#4c72b0;fill-opacity:0.2;stroke:#4c72b0;stroke-opacity:0.2;"/>
    <path clip-path="url(#pac4a4a2970)" d="M 73.964819 229.859102 
L 73.964819 229.859102 
L 73.964819 229.859102 
L 73.964819 229.859102 
z
" style="fill:#4c72b0;fill-opacity:0.2;stroke:#4c72b0;stroke-opacity:0.2;"/>
    <path clip-path="url(#pac4a4a2970)" d="M 78.301482 234.047904 
L 78.301482 234.047904 
L 78.301482 234.047904 
L 78.301482 234.047904 
z
" style="fill:#4c72b0;fill-opacity:0.2;stroke:#4c72b0;stroke-opacity:0.2;"/>
   </g>
   <g id="line2d_59">
    <path clip-path="url(#pac4a4a2970)" d="M 65.291493 323.270752 
L 69.628156 236.124213 
L 70.061822 235.795551 
L 70.495488 230.989062 
L 70.929155 231.12201 
L 71.362821 231.060348 
L 71.796487 229.577709 
L 72.230154 229.545451 
L 72.66382 230.173447 
L 73.097486 230.173447 
L 73.531153 229.523885 
L 73.964819 229.859102 
L 74.398485 228.252288 
L 74.832151 228.252288 
L 75.265818 228.539543 
L 75.699484 228.539543 
L 76.13315 230.58762 
L 76.566817 231.710209 
L 77.000483 233.04685 
L 77.434149 233.04685 
L 77.867815 232.581918 
L 78.301482 234.047904 
L 82.638145 235.344412 
L 86.974808 238.332343 
L 91.311471 246.98799 
L 95.648134 261.366945 
L 99.984797 272.6629 
L 104.32146 280.994024 
L 108.658123 293.845108 
L 112.994786 302.86189 
L 117.331449 314.272632 
L 121.668112 322.108707 
L 126.004775 332.071392 
L 130.341438 336.016258 
L 134.678101 339.760941 
L 139.014764 341.849559 
L 143.351427 343.191971 
L 147.68809 349.391362 
L 152.024753 350.629182 
L 156.361416 356.643402 
L 160.698079 353.147588 
L 165.034742 353.372823 
L 169.371405 353.372823 
L 173.708068 356.144153 
L 178.044731 365.230058 
L 182.381394 361.146691 
L 186.718057 361.410478 
L 191.05472 373.560211 
L 195.391382 352.561113 
L 199.728045 352.561113 
L 204.064708 352.561113 
L 208.401371 352.561113 
" style="fill:none;stroke:#4c72b0;stroke-linecap:round;stroke-width:1.5;"/>
   </g>
   <g id="line2d_60">
    <path clip-path="url(#pac4a4a2970)" d="M 74.398485 382.54 
L 74.398485 220.905254 
" style="fill:none;stroke:#c44e52;stroke-linecap:round;stroke-opacity:0.5;stroke-width:1.5;"/>
   </g>
   <g id="patch_15">
    <path d="M 56.835 382.54 
L 56.835 220.905254 
" style="fill:none;stroke:#ffffff;stroke-linecap:square;stroke-linejoin:miter;stroke-width:1.25;"/>
   </g>
   <g id="patch_16">
    <path d="M 56.835 382.54 
L 242.877842 382.54 
" style="fill:none;stroke:#ffffff;stroke-linecap:square;stroke-linejoin:miter;stroke-width:1.25;"/>
   </g>
   <g id="text_27">
    <!-- 2.1 -->
    <g style="fill:#c44e52;opacity:0.5;" transform="translate(71.90286 376.953888)rotate(-90)scale(0.12 -0.12)">
     <use xlink:href="#DejaVuSans-50"/>
     <use x="63.623047" xlink:href="#DejaVuSans-46"/>
     <use x="95.410156" xlink:href="#DejaVuSans-49"/>
    </g>
   </g>
   <g id="text_28">
    <!-- Segment 5 -->
    <g style="fill:#262626;" transform="translate(117.131109 214.905254)scale(0.12 -0.12)">
     <use xlink:href="#DejaVuSans-83"/>
     <use x="63.476562" xlink:href="#DejaVuSans-101"/>
     <use x="125" xlink:href="#DejaVuSans-103"/>
     <use x="188.476562" xlink:href="#DejaVuSans-109"/>
     <use x="285.888672" xlink:href="#DejaVuSans-101"/>
     <use x="347.412109" xlink:href="#DejaVuSans-110"/>
     <use x="410.791016" xlink:href="#DejaVuSans-116"/>
     <use x="450" xlink:href="#DejaVuSans-32"/>
     <use x="481.787109" xlink:href="#DejaVuSans-53"/>
    </g>
   </g>
  </g>
  <g id="axes_6">
   <g id="patch_17">
    <path d="M 258.62625 382.54 
L 444.669092 382.54 
L 444.669092 220.905254 
L 258.62625 220.905254 
z
" style="fill:#eaeaf2;"/>
   </g>
   <g id="matplotlib.axis_11">
    <g id="xtick_26">
     <g id="line2d_61">
      <path clip-path="url(#p89536f4974)" d="M 267.082743 382.54 
L 267.082743 220.905254 
" style="fill:none;stroke:#ffffff;stroke-linecap:round;"/>
     </g>
     <g id="text_29">
      <!-- 0 -->
      <g style="fill:#262626;" transform="translate(263.583368 400.398281)scale(0.11 -0.11)">
       <use xlink:href="#DejaVuSans-48"/>
      </g>
     </g>
    </g>
    <g id="xtick_27">
     <g id="line2d_62">
      <path clip-path="url(#p89536f4974)" d="M 310.449373 382.54 
L 310.449373 220.905254 
" style="fill:none;stroke:#ffffff;stroke-linecap:round;"/>
     </g>
     <g id="text_30">
      <!-- 10 -->
      <g style="fill:#262626;" transform="translate(303.450623 400.398281)scale(0.11 -0.11)">
       <use xlink:href="#DejaVuSans-49"/>
       <use x="63.623047" xlink:href="#DejaVuSans-48"/>
      </g>
     </g>
    </g>
    <g id="xtick_28">
     <g id="line2d_63">
      <path clip-path="url(#p89536f4974)" d="M 353.816003 382.54 
L 353.816003 220.905254 
" style="fill:none;stroke:#ffffff;stroke-linecap:round;"/>
     </g>
     <g id="text_31">
      <!-- 20 -->
      <g style="fill:#262626;" transform="translate(346.817253 400.398281)scale(0.11 -0.11)">
       <use xlink:href="#DejaVuSans-50"/>
       <use x="63.623047" xlink:href="#DejaVuSans-48"/>
      </g>
     </g>
    </g>
    <g id="xtick_29">
     <g id="line2d_64">
      <path clip-path="url(#p89536f4974)" d="M 397.182632 382.54 
L 397.182632 220.905254 
" style="fill:none;stroke:#ffffff;stroke-linecap:round;"/>
     </g>
     <g id="text_32">
      <!-- 30 -->
      <g style="fill:#262626;" transform="translate(390.183882 400.398281)scale(0.11 -0.11)">
       <use xlink:href="#DejaVuSans-51"/>
       <use x="63.623047" xlink:href="#DejaVuSans-48"/>
      </g>
     </g>
    </g>
    <g id="xtick_30">
     <g id="line2d_65">
      <path clip-path="url(#p89536f4974)" d="M 440.549262 382.54 
L 440.549262 220.905254 
" style="fill:none;stroke:#ffffff;stroke-linecap:round;"/>
     </g>
     <g id="text_33">
      <!-- 40 -->
      <g style="fill:#262626;" transform="translate(433.550512 400.398281)scale(0.11 -0.11)">
       <use xlink:href="#DejaVuSans-52"/>
       <use x="63.623047" xlink:href="#DejaVuSans-48"/>
      </g>
     </g>
    </g>
    <g id="text_34">
     <!-- Epsilon -->
     <g style="fill:#262626;" transform="translate(330.114234 415.804062)scale(0.12 -0.12)">
      <use xlink:href="#DejaVuSans-69"/>
      <use x="63.183594" xlink:href="#DejaVuSans-112"/>
      <use x="126.660156" xlink:href="#DejaVuSans-115"/>
      <use x="178.759766" xlink:href="#DejaVuSans-105"/>
      <use x="206.542969" xlink:href="#DejaVuSans-108"/>
      <use x="234.326172" xlink:href="#DejaVuSans-111"/>
      <use x="295.507812" xlink:href="#DejaVuSans-110"/>
     </g>
    </g>
   </g>
   <g id="matplotlib.axis_12">
    <g id="ytick_26">
     <g id="line2d_66">
      <path clip-path="url(#p89536f4974)" d="M 258.62625 378.119835 
L 444.669092 378.119835 
" style="fill:none;stroke:#ffffff;stroke-linecap:round;"/>
     </g>
    </g>
    <g id="ytick_27">
     <g id="line2d_67">
      <path clip-path="url(#p89536f4974)" d="M 258.62625 344.015236 
L 444.669092 344.015236 
" style="fill:none;stroke:#ffffff;stroke-linecap:round;"/>
     </g>
    </g>
    <g id="ytick_28">
     <g id="line2d_68">
      <path clip-path="url(#p89536f4974)" d="M 258.62625 309.910637 
L 444.669092 309.910637 
" style="fill:none;stroke:#ffffff;stroke-linecap:round;"/>
     </g>
    </g>
    <g id="ytick_29">
     <g id="line2d_69">
      <path clip-path="url(#p89536f4974)" d="M 258.62625 275.806038 
L 444.669092 275.806038 
" style="fill:none;stroke:#ffffff;stroke-linecap:round;"/>
     </g>
    </g>
    <g id="ytick_30">
     <g id="line2d_70">
      <path clip-path="url(#p89536f4974)" d="M 258.62625 241.701439 
L 444.669092 241.701439 
" style="fill:none;stroke:#ffffff;stroke-linecap:round;"/>
     </g>
    </g>
   </g>
   <g id="PolyCollection_6">
    <path clip-path="url(#p89536f4974)" d="M 271.419406 242.335592 
L 271.419406 242.335592 
L 271.419406 242.335592 
L 271.419406 242.335592 
z
" style="fill:#4c72b0;fill-opacity:0.2;stroke:#4c72b0;stroke-opacity:0.2;"/>
    <path clip-path="url(#p89536f4974)" d="M 275.756069 235.442227 
L 275.756069 235.442227 
L 275.756069 235.442227 
L 275.756069 235.442227 
z
" style="fill:#4c72b0;fill-opacity:0.2;stroke:#4c72b0;stroke-opacity:0.2;"/>
    <path clip-path="url(#p89536f4974)" d="M 280.092732 239.470878 
L 280.092732 239.470878 
L 280.092732 239.470878 
L 280.092732 239.470878 
z
" style="fill:#4c72b0;fill-opacity:0.2;stroke:#4c72b0;stroke-opacity:0.2;"/>
   </g>
   <g id="line2d_71">
    <path clip-path="url(#p89536f4974)" d="M 267.082743 323.927918 
L 271.419406 242.335592 
L 271.853072 240.175625 
L 272.286738 240.175625 
L 272.720405 242.544173 
L 273.154071 239.849459 
L 273.587737 240.001637 
L 274.021404 239.108976 
L 274.45507 236.961684 
L 274.888736 236.830741 
L 275.322403 237.612534 
L 275.756069 235.442227 
L 276.189735 235.63528 
L 276.623401 235.36489 
L 277.057068 235.36489 
L 277.490734 235.575581 
L 277.9244 236.709181 
L 278.358067 237.657268 
L 278.791733 239.960595 
L 279.225399 239.960595 
L 279.659065 239.470878 
L 280.092732 239.470878 
L 284.429395 243.09784 
L 288.766058 246.346834 
L 293.102721 254.344292 
L 297.439384 264.784203 
L 301.776047 268.017995 
L 306.11271 286.106549 
L 310.449373 301.017776 
L 314.786036 310.409025 
L 319.122699 326.795193 
L 323.459362 335.823564 
L 327.796025 345.040577 
L 332.132688 350.719675 
L 336.469351 351.43394 
L 340.806014 357.401491 
L 345.142677 364.660078 
L 349.47934 367.955576 
L 353.816003 365.698232 
L 358.152666 364.95841 
L 362.489329 368.770306 
L 366.825992 362.432298 
L 371.162655 362.432298 
L 375.499318 345.643232 
L 379.835981 345.643232 
L 384.172644 345.643232 
L 388.509307 345.643232 
L 392.84597 345.643232 
L 397.182632 345.643232 
" style="fill:none;stroke:#4c72b0;stroke-linecap:round;stroke-width:1.5;"/>
   </g>
   <g id="line2d_72">
    <path clip-path="url(#p89536f4974)" d="M 276.623401 382.54 
L 276.623401 220.905254 
" style="fill:none;stroke:#c44e52;stroke-linecap:round;stroke-opacity:0.5;stroke-width:1.5;"/>
   </g>
   <g id="patch_18">
    <path d="M 258.62625 382.54 
L 258.62625 220.905254 
" style="fill:none;stroke:#ffffff;stroke-linecap:square;stroke-linejoin:miter;stroke-width:1.25;"/>
   </g>
   <g id="patch_19">
    <path d="M 258.62625 382.54 
L 444.669092 382.54 
" style="fill:none;stroke:#ffffff;stroke-linecap:square;stroke-linejoin:miter;stroke-width:1.25;"/>
   </g>
   <g id="text_35">
    <!-- 2.2 -->
    <g style="fill:#c44e52;opacity:0.5;" transform="translate(274.127776 376.953888)rotate(-90)scale(0.12 -0.12)">
     <use xlink:href="#DejaVuSans-50"/>
     <use x="63.623047" xlink:href="#DejaVuSans-46"/>
     <use x="95.410156" xlink:href="#DejaVuSans-50"/>
    </g>
   </g>
   <g id="text_36">
    <!-- Segment 6 -->
    <g style="fill:#262626;" transform="translate(318.922359 214.905254)scale(0.12 -0.12)">
     <use xlink:href="#DejaVuSans-83"/>
     <use x="63.476562" xlink:href="#DejaVuSans-101"/>
     <use x="125" xlink:href="#DejaVuSans-103"/>
     <use x="188.476562" xlink:href="#DejaVuSans-109"/>
     <use x="285.888672" xlink:href="#DejaVuSans-101"/>
     <use x="347.412109" xlink:href="#DejaVuSans-110"/>
     <use x="410.791016" xlink:href="#DejaVuSans-116"/>
     <use x="450" xlink:href="#DejaVuSans-32"/>
     <use x="481.787109" xlink:href="#DejaVuSans-54"/>
    </g>
   </g>
  </g>
  <g id="axes_7">
   <g id="patch_20">
    <path d="M 460.4175 382.54 
L 646.460342 382.54 
L 646.460342 220.905254 
L 460.4175 220.905254 
z
" style="fill:#eaeaf2;"/>
   </g>
   <g id="matplotlib.axis_13">
    <g id="xtick_31">
     <g id="line2d_73">
      <path clip-path="url(#pdf71dc57e3)" d="M 468.873993 382.54 
L 468.873993 220.905254 
" style="fill:none;stroke:#ffffff;stroke-linecap:round;"/>
     </g>
     <g id="text_37">
      <!-- 0 -->
      <g style="fill:#262626;" transform="translate(465.374618 400.398281)scale(0.11 -0.11)">
       <use xlink:href="#DejaVuSans-48"/>
      </g>
     </g>
    </g>
    <g id="xtick_32">
     <g id="line2d_74">
      <path clip-path="url(#pdf71dc57e3)" d="M 512.240623 382.54 
L 512.240623 220.905254 
" style="fill:none;stroke:#ffffff;stroke-linecap:round;"/>
     </g>
     <g id="text_38">
      <!-- 10 -->
      <g style="fill:#262626;" transform="translate(505.241873 400.398281)scale(0.11 -0.11)">
       <use xlink:href="#DejaVuSans-49"/>
       <use x="63.623047" xlink:href="#DejaVuSans-48"/>
      </g>
     </g>
    </g>
    <g id="xtick_33">
     <g id="line2d_75">
      <path clip-path="url(#pdf71dc57e3)" d="M 555.607253 382.54 
L 555.607253 220.905254 
" style="fill:none;stroke:#ffffff;stroke-linecap:round;"/>
     </g>
     <g id="text_39">
      <!-- 20 -->
      <g style="fill:#262626;" transform="translate(548.608503 400.398281)scale(0.11 -0.11)">
       <use xlink:href="#DejaVuSans-50"/>
       <use x="63.623047" xlink:href="#DejaVuSans-48"/>
      </g>
     </g>
    </g>
    <g id="xtick_34">
     <g id="line2d_76">
      <path clip-path="url(#pdf71dc57e3)" d="M 598.973882 382.54 
L 598.973882 220.905254 
" style="fill:none;stroke:#ffffff;stroke-linecap:round;"/>
     </g>
     <g id="text_40">
      <!-- 30 -->
      <g style="fill:#262626;" transform="translate(591.975132 400.398281)scale(0.11 -0.11)">
       <use xlink:href="#DejaVuSans-51"/>
       <use x="63.623047" xlink:href="#DejaVuSans-48"/>
      </g>
     </g>
    </g>
    <g id="xtick_35">
     <g id="line2d_77">
      <path clip-path="url(#pdf71dc57e3)" d="M 642.340512 382.54 
L 642.340512 220.905254 
" style="fill:none;stroke:#ffffff;stroke-linecap:round;"/>
     </g>
     <g id="text_41">
      <!-- 40 -->
      <g style="fill:#262626;" transform="translate(635.341762 400.398281)scale(0.11 -0.11)">
       <use xlink:href="#DejaVuSans-52"/>
       <use x="63.623047" xlink:href="#DejaVuSans-48"/>
      </g>
     </g>
    </g>
    <g id="text_42">
     <!-- Epsilon -->
     <g style="fill:#262626;" transform="translate(531.905484 415.804062)scale(0.12 -0.12)">
      <use xlink:href="#DejaVuSans-69"/>
      <use x="63.183594" xlink:href="#DejaVuSans-112"/>
      <use x="126.660156" xlink:href="#DejaVuSans-115"/>
      <use x="178.759766" xlink:href="#DejaVuSans-105"/>
      <use x="206.542969" xlink:href="#DejaVuSans-108"/>
      <use x="234.326172" xlink:href="#DejaVuSans-111"/>
      <use x="295.507812" xlink:href="#DejaVuSans-110"/>
     </g>
    </g>
   </g>
   <g id="matplotlib.axis_14">
    <g id="ytick_31">
     <g id="line2d_78">
      <path clip-path="url(#pdf71dc57e3)" d="M 460.4175 378.119835 
L 646.460342 378.119835 
" style="fill:none;stroke:#ffffff;stroke-linecap:round;"/>
     </g>
    </g>
    <g id="ytick_32">
     <g id="line2d_79">
      <path clip-path="url(#pdf71dc57e3)" d="M 460.4175 344.015236 
L 646.460342 344.015236 
" style="fill:none;stroke:#ffffff;stroke-linecap:round;"/>
     </g>
    </g>
    <g id="ytick_33">
     <g id="line2d_80">
      <path clip-path="url(#pdf71dc57e3)" d="M 460.4175 309.910637 
L 646.460342 309.910637 
" style="fill:none;stroke:#ffffff;stroke-linecap:round;"/>
     </g>
    </g>
    <g id="ytick_34">
     <g id="line2d_81">
      <path clip-path="url(#pdf71dc57e3)" d="M 460.4175 275.806038 
L 646.460342 275.806038 
" style="fill:none;stroke:#ffffff;stroke-linecap:round;"/>
     </g>
    </g>
    <g id="ytick_35">
     <g id="line2d_82">
      <path clip-path="url(#pdf71dc57e3)" d="M 460.4175 241.701439 
L 646.460342 241.701439 
" style="fill:none;stroke:#ffffff;stroke-linecap:round;"/>
     </g>
    </g>
   </g>
   <g id="PolyCollection_7">
    <path clip-path="url(#pdf71dc57e3)" d="M 477.547319 236.218545 
L 477.547319 236.218545 
L 477.547319 236.218545 
L 477.547319 236.218545 
z
" style="fill:#4c72b0;fill-opacity:0.2;stroke:#4c72b0;stroke-opacity:0.2;"/>
    <path clip-path="url(#pdf71dc57e3)" d="M 481.883982 235.507123 
L 481.883982 235.507123 
L 481.883982 235.507123 
L 481.883982 235.507123 
z
" style="fill:#4c72b0;fill-opacity:0.2;stroke:#4c72b0;stroke-opacity:0.2;"/>
    <path clip-path="url(#pdf71dc57e3)" d="M 486.220645 237.867008 
L 486.220645 237.867008 
L 486.220645 237.867008 
L 486.220645 237.867008 
z
" style="fill:#4c72b0;fill-opacity:0.2;stroke:#4c72b0;stroke-opacity:0.2;"/>
   </g>
   <g id="line2d_83">
    <path clip-path="url(#pdf71dc57e3)" d="M 468.873993 324.061368 
L 473.210656 246.694099 
L 477.547319 236.218545 
L 477.980985 238.815914 
L 478.414651 239.483844 
L 478.848318 239.096561 
L 479.281984 240.123286 
L 479.71565 240.192809 
L 480.149317 237.00441 
L 480.582983 235.507123 
L 481.016649 235.507123 
L 481.450315 235.507123 
L 481.883982 235.507123 
L 482.317648 235.507123 
L 482.751314 236.999309 
L 483.184981 237.007913 
L 483.618647 237.875008 
L 484.052313 235.554869 
L 484.48598 235.782458 
L 484.919646 235.782458 
L 485.353312 235.941519 
L 485.786978 239.597635 
L 486.220645 237.867008 
L 490.557308 240.857467 
L 494.893971 251.70415 
L 499.230634 253.783978 
L 503.567297 258.178397 
L 507.90396 268.502343 
L 512.240623 275.012836 
L 516.577286 286.354898 
L 520.913949 297.940205 
L 525.250612 301.156206 
L 529.587275 312.789312 
L 533.923938 323.87298 
L 538.260601 326.192281 
L 542.597264 331.64269 
L 546.933927 342.02386 
L 551.27059 346.01725 
L 555.607253 346.971151 
L 559.943916 351.671771 
L 564.280579 348.931284 
L 568.617242 355.745436 
L 572.953905 359.826574 
L 577.290568 364.624735 
L 581.627231 366.351716 
L 585.963894 359.249035 
L 590.300557 359.249035 
L 594.63722 372.734501 
L 598.973882 334.793728 
L 603.310545 334.793728 
L 607.647208 334.793728 
L 611.983871 334.793728 
L 616.320534 334.793728 
L 620.657197 334.793728 
L 624.99386 334.793728 
L 629.330523 334.793728 
L 633.667186 334.793728 
L 638.003849 334.793728 
" style="fill:none;stroke:#4c72b0;stroke-linecap:round;stroke-width:1.5;"/>
   </g>
   <g id="line2d_84">
    <path clip-path="url(#pdf71dc57e3)" d="M 481.883982 382.54 
L 481.883982 220.905254 
" style="fill:none;stroke:#c44e52;stroke-linecap:round;stroke-opacity:0.5;stroke-width:1.5;"/>
   </g>
   <g id="patch_21">
    <path d="M 460.4175 382.54 
L 460.4175 220.905254 
" style="fill:none;stroke:#ffffff;stroke-linecap:square;stroke-linejoin:miter;stroke-width:1.25;"/>
   </g>
   <g id="patch_22">
    <path d="M 460.4175 382.54 
L 646.460342 382.54 
" style="fill:none;stroke:#ffffff;stroke-linecap:square;stroke-linejoin:miter;stroke-width:1.25;"/>
   </g>
   <g id="text_43">
    <!-- 3.0 -->
    <g style="fill:#c44e52;opacity:0.5;" transform="translate(479.388357 376.953888)rotate(-90)scale(0.12 -0.12)">
     <use xlink:href="#DejaVuSans-51"/>
     <use x="63.623047" xlink:href="#DejaVuSans-46"/>
     <use x="95.410156" xlink:href="#DejaVuSans-48"/>
    </g>
   </g>
   <g id="text_44">
    <!-- Segment 7 -->
    <g style="fill:#262626;" transform="translate(520.713609 214.905254)scale(0.12 -0.12)">
     <defs>
      <path d="M 8.203125 72.90625 
L 55.078125 72.90625 
L 55.078125 68.703125 
L 28.609375 0 
L 18.3125 0 
L 43.21875 64.59375 
L 8.203125 64.59375 
z
" id="DejaVuSans-55"/>
     </defs>
     <use xlink:href="#DejaVuSans-83"/>
     <use x="63.476562" xlink:href="#DejaVuSans-101"/>
     <use x="125" xlink:href="#DejaVuSans-103"/>
     <use x="188.476562" xlink:href="#DejaVuSans-109"/>
     <use x="285.888672" xlink:href="#DejaVuSans-101"/>
     <use x="347.412109" xlink:href="#DejaVuSans-110"/>
     <use x="410.791016" xlink:href="#DejaVuSans-116"/>
     <use x="450" xlink:href="#DejaVuSans-32"/>
     <use x="481.787109" xlink:href="#DejaVuSans-55"/>
    </g>
   </g>
  </g>
  <g id="axes_8">
   <g id="patch_23">
    <path d="M 662.20875 382.54 
L 848.251592 382.54 
L 848.251592 220.905254 
L 662.20875 220.905254 
z
" style="fill:#eaeaf2;"/>
   </g>
   <g id="matplotlib.axis_15">
    <g id="xtick_36">
     <g id="line2d_85">
      <path clip-path="url(#pf32446ec04)" d="M 670.665243 382.54 
L 670.665243 220.905254 
" style="fill:none;stroke:#ffffff;stroke-linecap:round;"/>
     </g>
     <g id="text_45">
      <!-- 0 -->
      <g style="fill:#262626;" transform="translate(667.165868 400.398281)scale(0.11 -0.11)">
       <use xlink:href="#DejaVuSans-48"/>
      </g>
     </g>
    </g>
    <g id="xtick_37">
     <g id="line2d_86">
      <path clip-path="url(#pf32446ec04)" d="M 714.031873 382.54 
L 714.031873 220.905254 
" style="fill:none;stroke:#ffffff;stroke-linecap:round;"/>
     </g>
     <g id="text_46">
      <!-- 10 -->
      <g style="fill:#262626;" transform="translate(707.033123 400.398281)scale(0.11 -0.11)">
       <use xlink:href="#DejaVuSans-49"/>
       <use x="63.623047" xlink:href="#DejaVuSans-48"/>
      </g>
     </g>
    </g>
    <g id="xtick_38">
     <g id="line2d_87">
      <path clip-path="url(#pf32446ec04)" d="M 757.398503 382.54 
L 757.398503 220.905254 
" style="fill:none;stroke:#ffffff;stroke-linecap:round;"/>
     </g>
     <g id="text_47">
      <!-- 20 -->
      <g style="fill:#262626;" transform="translate(750.399753 400.398281)scale(0.11 -0.11)">
       <use xlink:href="#DejaVuSans-50"/>
       <use x="63.623047" xlink:href="#DejaVuSans-48"/>
      </g>
     </g>
    </g>
    <g id="xtick_39">
     <g id="line2d_88">
      <path clip-path="url(#pf32446ec04)" d="M 800.765132 382.54 
L 800.765132 220.905254 
" style="fill:none;stroke:#ffffff;stroke-linecap:round;"/>
     </g>
     <g id="text_48">
      <!-- 30 -->
      <g style="fill:#262626;" transform="translate(793.766382 400.398281)scale(0.11 -0.11)">
       <use xlink:href="#DejaVuSans-51"/>
       <use x="63.623047" xlink:href="#DejaVuSans-48"/>
      </g>
     </g>
    </g>
    <g id="xtick_40">
     <g id="line2d_89">
      <path clip-path="url(#pf32446ec04)" d="M 844.131762 382.54 
L 844.131762 220.905254 
" style="fill:none;stroke:#ffffff;stroke-linecap:round;"/>
     </g>
     <g id="text_49">
      <!-- 40 -->
      <g style="fill:#262626;" transform="translate(837.133012 400.398281)scale(0.11 -0.11)">
       <use xlink:href="#DejaVuSans-52"/>
       <use x="63.623047" xlink:href="#DejaVuSans-48"/>
      </g>
     </g>
    </g>
    <g id="text_50">
     <!-- Epsilon -->
     <g style="fill:#262626;" transform="translate(733.696734 415.804062)scale(0.12 -0.12)">
      <use xlink:href="#DejaVuSans-69"/>
      <use x="63.183594" xlink:href="#DejaVuSans-112"/>
      <use x="126.660156" xlink:href="#DejaVuSans-115"/>
      <use x="178.759766" xlink:href="#DejaVuSans-105"/>
      <use x="206.542969" xlink:href="#DejaVuSans-108"/>
      <use x="234.326172" xlink:href="#DejaVuSans-111"/>
      <use x="295.507812" xlink:href="#DejaVuSans-110"/>
     </g>
    </g>
   </g>
   <g id="matplotlib.axis_16">
    <g id="ytick_36">
     <g id="line2d_90">
      <path clip-path="url(#pf32446ec04)" d="M 662.20875 378.119835 
L 848.251592 378.119835 
" style="fill:none;stroke:#ffffff;stroke-linecap:round;"/>
     </g>
    </g>
    <g id="ytick_37">
     <g id="line2d_91">
      <path clip-path="url(#pf32446ec04)" d="M 662.20875 344.015236 
L 848.251592 344.015236 
" style="fill:none;stroke:#ffffff;stroke-linecap:round;"/>
     </g>
    </g>
    <g id="ytick_38">
     <g id="line2d_92">
      <path clip-path="url(#pf32446ec04)" d="M 662.20875 309.910637 
L 848.251592 309.910637 
" style="fill:none;stroke:#ffffff;stroke-linecap:round;"/>
     </g>
    </g>
    <g id="ytick_39">
     <g id="line2d_93">
      <path clip-path="url(#pf32446ec04)" d="M 662.20875 275.806038 
L 848.251592 275.806038 
" style="fill:none;stroke:#ffffff;stroke-linecap:round;"/>
     </g>
    </g>
    <g id="ytick_40">
     <g id="line2d_94">
      <path clip-path="url(#pf32446ec04)" d="M 662.20875 241.701439 
L 848.251592 241.701439 
" style="fill:none;stroke:#ffffff;stroke-linecap:round;"/>
     </g>
    </g>
   </g>
   <g id="PolyCollection_8">
    <path clip-path="url(#pf32446ec04)" d="M 675.001906 241.882663 
L 675.001906 241.882663 
L 675.001906 241.882663 
L 675.001906 241.882663 
z
" style="fill:#4c72b0;fill-opacity:0.2;stroke:#4c72b0;stroke-opacity:0.2;"/>
    <path clip-path="url(#pf32446ec04)" d="M 679.338569 230.641629 
L 679.338569 230.641629 
L 679.338569 230.641629 
L 679.338569 230.641629 
z
" style="fill:#4c72b0;fill-opacity:0.2;stroke:#4c72b0;stroke-opacity:0.2;"/>
    <path clip-path="url(#pf32446ec04)" d="M 683.675232 232.097072 
L 683.675232 232.097072 
L 683.675232 232.097072 
L 683.675232 232.097072 
z
" style="fill:#4c72b0;fill-opacity:0.2;stroke:#4c72b0;stroke-opacity:0.2;"/>
   </g>
   <g id="line2d_95">
    <path clip-path="url(#pf32446ec04)" d="M 670.665243 324.537197 
L 675.001906 241.882663 
L 675.435572 242.249799 
L 675.869238 239.989401 
L 676.302905 235.162953 
L 676.736571 235.37096 
L 677.170237 235.240491 
L 677.603904 230.131718 
L 678.03757 230.427397 
L 678.471236 230.478584 
L 678.904903 230.641629 
L 679.338569 230.641629 
L 679.772235 231.037614 
L 680.205901 231.562211 
L 680.639568 231.119772 
L 681.073234 231.119772 
L 681.5069 234.815784 
L 681.940567 234.541489 
L 682.374233 234.541489 
L 682.807899 233.011674 
L 683.241565 233.011674 
L 683.675232 232.097072 
L 688.011895 235.369957 
L 692.348558 232.011094 
L 696.685221 246.167544 
L 701.021884 255.692323 
L 705.358547 263.721883 
L 709.69521 270.372183 
L 714.031873 279.803645 
L 718.368536 293.050844 
L 722.705199 311.282509 
L 727.041862 320.313099 
L 731.378525 330.308926 
L 735.715188 330.368037 
L 740.051851 335.504912 
L 744.388514 337.205808 
L 748.725177 340.636429 
L 753.06184 348.801347 
L 757.398503 350.478904 
L 761.735166 352.656966 
L 766.071829 353.738241 
L 770.408492 355.422449 
L 774.745155 361.254453 
L 779.081818 359.32327 
L 783.418481 360.088893 
L 787.755144 365.656328 
L 792.091807 365.14135 
L 796.42847 375.192966 
L 800.765132 356.847585 
L 805.101795 356.847585 
L 809.438458 356.847585 
L 813.775121 356.847585 
" style="fill:none;stroke:#4c72b0;stroke-linecap:round;stroke-width:1.5;"/>
   </g>
   <g id="line2d_96">
    <path clip-path="url(#pf32446ec04)" d="M 677.603904 382.54 
L 677.603904 220.905254 
" style="fill:none;stroke:#c44e52;stroke-linecap:round;stroke-opacity:0.5;stroke-width:1.5;"/>
   </g>
   <g id="patch_24">
    <path d="M 662.20875 382.54 
L 662.20875 220.905254 
" style="fill:none;stroke:#ffffff;stroke-linecap:square;stroke-linejoin:miter;stroke-width:1.25;"/>
   </g>
   <g id="patch_25">
    <path d="M 662.20875 382.54 
L 848.251592 382.54 
" style="fill:none;stroke:#ffffff;stroke-linecap:square;stroke-linejoin:miter;stroke-width:1.25;"/>
   </g>
   <g id="text_51">
    <!-- 1.6 -->
    <g style="fill:#c44e52;opacity:0.5;" transform="translate(675.108279 376.953888)rotate(-90)scale(0.12 -0.12)">
     <use xlink:href="#DejaVuSans-49"/>
     <use x="63.623047" xlink:href="#DejaVuSans-46"/>
     <use x="95.410156" xlink:href="#DejaVuSans-54"/>
    </g>
   </g>
   <g id="text_52">
    <!-- Segment 8 -->
    <g style="fill:#262626;" transform="translate(722.504859 214.905254)scale(0.12 -0.12)">
     <use xlink:href="#DejaVuSans-83"/>
     <use x="63.476562" xlink:href="#DejaVuSans-101"/>
     <use x="125" xlink:href="#DejaVuSans-103"/>
     <use x="188.476562" xlink:href="#DejaVuSans-109"/>
     <use x="285.888672" xlink:href="#DejaVuSans-101"/>
     <use x="347.412109" xlink:href="#DejaVuSans-110"/>
     <use x="410.791016" xlink:href="#DejaVuSans-116"/>
     <use x="450" xlink:href="#DejaVuSans-32"/>
     <use x="481.787109" xlink:href="#DejaVuSans-56"/>
    </g>
   </g>
  </g>
 </g>
 <defs>
  <clipPath id="p3bebd3ccea">
   <rect height="161.634746" width="186.042842" x="56.835" y="28.96"/>
  </clipPath>
  <clipPath id="pb8b15fdeee">
   <rect height="161.634746" width="186.042842" x="258.62625" y="28.96"/>
  </clipPath>
  <clipPath id="pc0d3b0ed4b">
   <rect height="161.634746" width="186.042842" x="460.4175" y="28.96"/>
  </clipPath>
  <clipPath id="p94ab6007e7">
   <rect height="161.634746" width="186.042842" x="662.20875" y="28.96"/>
  </clipPath>
  <clipPath id="pac4a4a2970">
   <rect height="161.634746" width="186.042842" x="56.835" y="220.905254"/>
  </clipPath>
  <clipPath id="p89536f4974">
   <rect height="161.634746" width="186.042842" x="258.62625" y="220.905254"/>
  </clipPath>
  <clipPath id="pdf71dc57e3">
   <rect height="161.634746" width="186.042842" x="460.4175" y="220.905254"/>
  </clipPath>
  <clipPath id="pf32446ec04">
   <rect height="161.634746" width="186.042842" x="662.20875" y="220.905254"/>
  </clipPath>
 </defs>
</svg>
